G04 #@! TF.GenerationSoftware,KiCad,Pcbnew,5.0.2+dfsg1-1*
G04 #@! TF.CreationDate,2021-05-24T13:19:01+02:00*
G04 #@! TF.ProjectId,Reflow_Control,5265666c-6f77-45f4-936f-6e74726f6c2e,rev?*
G04 #@! TF.SameCoordinates,Original*
G04 #@! TF.FileFunction,Legend,Bot*
G04 #@! TF.FilePolarity,Positive*
%FSLAX46Y46*%
G04 Gerber Fmt 4.6, Leading zero omitted, Abs format (unit mm)*
G04 Created by KiCad (PCBNEW 5.0.2+dfsg1-1) date Mon 24 May 2021 01:19:01 PM CEST*
%MOMM*%
%LPD*%
G01*
G04 APERTURE LIST*
%ADD10C,0.300000*%
G04 APERTURE END LIST*
D10*
X80321428Y-95928571D02*
X80250000Y-96071428D01*
X80178571Y-96142857D01*
X80035714Y-96214285D01*
X79964285Y-96214285D01*
X79821428Y-96142857D01*
X79750000Y-96071428D01*
X79678571Y-95928571D01*
X79678571Y-95642857D01*
X79750000Y-95500000D01*
X79821428Y-95428571D01*
X79964285Y-95357142D01*
X80035714Y-95357142D01*
X80178571Y-95428571D01*
X80250000Y-95500000D01*
X80321428Y-95642857D01*
X80321428Y-95928571D01*
X80392857Y-96071428D01*
X80464285Y-96142857D01*
X80607142Y-96214285D01*
X80892857Y-96214285D01*
X81035714Y-96142857D01*
X81107142Y-96071428D01*
X81178571Y-95928571D01*
X81178571Y-95642857D01*
X81107142Y-95500000D01*
X81035714Y-95428571D01*
X80892857Y-95357142D01*
X80607142Y-95357142D01*
X80464285Y-95428571D01*
X80392857Y-95500000D01*
X80321428Y-95642857D01*
X79678571Y-94428571D02*
X79678571Y-94285714D01*
X79750000Y-94142857D01*
X79821428Y-94071428D01*
X79964285Y-94000000D01*
X80250000Y-93928571D01*
X80607142Y-93928571D01*
X80892857Y-94000000D01*
X81035714Y-94071428D01*
X81107142Y-94142857D01*
X81178571Y-94285714D01*
X81178571Y-94428571D01*
X81107142Y-94571428D01*
X81035714Y-94642857D01*
X80892857Y-94714285D01*
X80607142Y-94785714D01*
X80250000Y-94785714D01*
X79964285Y-94714285D01*
X79821428Y-94642857D01*
X79750000Y-94571428D01*
X79678571Y-94428571D01*
X81035714Y-93285714D02*
X81107142Y-93214285D01*
X81178571Y-93285714D01*
X81107142Y-93357142D01*
X81035714Y-93285714D01*
X81178571Y-93285714D01*
X79678571Y-92285714D02*
X79678571Y-92142857D01*
X79750000Y-92000000D01*
X79821428Y-91928571D01*
X79964285Y-91857142D01*
X80250000Y-91785714D01*
X80607142Y-91785714D01*
X80892857Y-91857142D01*
X81035714Y-91928571D01*
X81107142Y-92000000D01*
X81178571Y-92142857D01*
X81178571Y-92285714D01*
X81107142Y-92428571D01*
X81035714Y-92500000D01*
X80892857Y-92571428D01*
X80607142Y-92642857D01*
X80250000Y-92642857D01*
X79964285Y-92571428D01*
X79821428Y-92500000D01*
X79750000Y-92428571D01*
X79678571Y-92285714D01*
X79678571Y-90857142D02*
X79678571Y-90714285D01*
X79750000Y-90571428D01*
X79821428Y-90500000D01*
X79964285Y-90428571D01*
X80250000Y-90357142D01*
X80607142Y-90357142D01*
X80892857Y-90428571D01*
X81035714Y-90500000D01*
X81107142Y-90571428D01*
X81178571Y-90714285D01*
X81178571Y-90857142D01*
X81107142Y-91000000D01*
X81035714Y-91071428D01*
X80892857Y-91142857D01*
X80607142Y-91214285D01*
X80250000Y-91214285D01*
X79964285Y-91142857D01*
X79821428Y-91071428D01*
X79750000Y-91000000D01*
X79678571Y-90857142D01*
X79678571Y-89428571D02*
X79678571Y-89285714D01*
X79750000Y-89142857D01*
X79821428Y-89071428D01*
X79964285Y-89000000D01*
X80250000Y-88928571D01*
X80607142Y-88928571D01*
X80892857Y-89000000D01*
X81035714Y-89071428D01*
X81107142Y-89142857D01*
X81178571Y-89285714D01*
X81178571Y-89428571D01*
X81107142Y-89571428D01*
X81035714Y-89642857D01*
X80892857Y-89714285D01*
X80607142Y-89785714D01*
X80250000Y-89785714D01*
X79964285Y-89714285D01*
X79821428Y-89642857D01*
X79750000Y-89571428D01*
X79678571Y-89428571D01*
X81178571Y-87142857D02*
X80178571Y-87142857D01*
X80321428Y-87142857D02*
X80250000Y-87071428D01*
X80178571Y-86928571D01*
X80178571Y-86714285D01*
X80250000Y-86571428D01*
X80392857Y-86500000D01*
X81178571Y-86500000D01*
X80392857Y-86500000D02*
X80250000Y-86428571D01*
X80178571Y-86285714D01*
X80178571Y-86071428D01*
X80250000Y-85928571D01*
X80392857Y-85857142D01*
X81178571Y-85857142D01*
X81178571Y-85142857D02*
X80178571Y-85142857D01*
X80321428Y-85142857D02*
X80250000Y-85071428D01*
X80178571Y-84928571D01*
X80178571Y-84714285D01*
X80250000Y-84571428D01*
X80392857Y-84500000D01*
X81178571Y-84500000D01*
X80392857Y-84500000D02*
X80250000Y-84428571D01*
X80178571Y-84285714D01*
X80178571Y-84071428D01*
X80250000Y-83928571D01*
X80392857Y-83857142D01*
X81178571Y-83857142D01*
X82600000Y-130000000D02*
X82600000Y-50000000D01*
X100000000Y-130000000D02*
X82013579Y-130000000D01*
X100000000Y-50000000D02*
X82013579Y-50000000D01*
X82600000Y-50000000D02*
X83186421Y-51126504D01*
X82600000Y-50000000D02*
X82013579Y-51126504D01*
X82600000Y-130000000D02*
X83186421Y-128873496D01*
X82600000Y-130000000D02*
X82013579Y-128873496D01*
X143938495Y-40122709D02*
X143081353Y-40121852D01*
X143509924Y-40122281D02*
X143511424Y-38622281D01*
X143368353Y-38836424D01*
X143225353Y-38979138D01*
X143082424Y-39050424D01*
X144868566Y-38623638D02*
X145011423Y-38623781D01*
X145154209Y-38695353D01*
X145225566Y-38766853D01*
X145296852Y-38909781D01*
X145367995Y-39195567D01*
X145367638Y-39552709D01*
X145295923Y-39838352D01*
X145224352Y-39981138D01*
X145152852Y-40052495D01*
X145009923Y-40123781D01*
X144867066Y-40123638D01*
X144724281Y-40052066D01*
X144652924Y-39980566D01*
X144581638Y-39837638D01*
X144510495Y-39551852D01*
X144510852Y-39194710D01*
X144582567Y-38909067D01*
X144654138Y-38766281D01*
X144725638Y-38694924D01*
X144868566Y-38623638D01*
X146297137Y-38625067D02*
X146439994Y-38625210D01*
X146582780Y-38696781D01*
X146654137Y-38768281D01*
X146725423Y-38911210D01*
X146796565Y-39196995D01*
X146796208Y-39554138D01*
X146724494Y-39839781D01*
X146652923Y-39982566D01*
X146581423Y-40053923D01*
X146438494Y-40125209D01*
X146295637Y-40125066D01*
X146152851Y-40053495D01*
X146081494Y-39981995D01*
X146010209Y-39839066D01*
X145939066Y-39553281D01*
X145939423Y-39196138D01*
X146011137Y-38910495D01*
X146082709Y-38767710D01*
X146154209Y-38696353D01*
X146297137Y-38625067D01*
X147438636Y-39983352D02*
X147509994Y-40054852D01*
X147438494Y-40126209D01*
X147367137Y-40054709D01*
X147438636Y-39983352D01*
X147438494Y-40126209D01*
X148439993Y-38627210D02*
X148582850Y-38627353D01*
X148725636Y-38698924D01*
X148796993Y-38770424D01*
X148868279Y-38913353D01*
X148939421Y-39199138D01*
X148939064Y-39556281D01*
X148867350Y-39841924D01*
X148795779Y-39984709D01*
X148724279Y-40056066D01*
X148581350Y-40127352D01*
X148438493Y-40127209D01*
X148295707Y-40055638D01*
X148224350Y-39984138D01*
X148153065Y-39841209D01*
X148081922Y-39555424D01*
X148082279Y-39198281D01*
X148153993Y-38912638D01*
X148225565Y-38769853D01*
X148297065Y-38698496D01*
X148439993Y-38627210D01*
X149868564Y-38628638D02*
X150011421Y-38628781D01*
X150154207Y-38700353D01*
X150225564Y-38771853D01*
X150296849Y-38914781D01*
X150367992Y-39200567D01*
X150367635Y-39557709D01*
X150295921Y-39843352D01*
X150224349Y-39986138D01*
X150152849Y-40057495D01*
X150009921Y-40128781D01*
X149867064Y-40128638D01*
X149724278Y-40057066D01*
X149652921Y-39985566D01*
X149581635Y-39842638D01*
X149510493Y-39556852D01*
X149510850Y-39199710D01*
X149582564Y-38914067D01*
X149654135Y-38771281D01*
X149725635Y-38699924D01*
X149868564Y-38628638D01*
X151297135Y-38630067D02*
X151439992Y-38630210D01*
X151582777Y-38701781D01*
X151654134Y-38773281D01*
X151725420Y-38916210D01*
X151796563Y-39201995D01*
X151796206Y-39559138D01*
X151724491Y-39844781D01*
X151652920Y-39987566D01*
X151581420Y-40058923D01*
X151438492Y-40130209D01*
X151295635Y-40130066D01*
X151152849Y-40058495D01*
X151081492Y-39986995D01*
X151010206Y-39844066D01*
X150939063Y-39558281D01*
X150939420Y-39201138D01*
X151011135Y-38915495D01*
X151082706Y-38772710D01*
X151154206Y-38701353D01*
X151297135Y-38630067D01*
X153581348Y-40132352D02*
X153582348Y-39132353D01*
X153582205Y-39275210D02*
X153653705Y-39203852D01*
X153796633Y-39132567D01*
X154010919Y-39132781D01*
X154153705Y-39204352D01*
X154224990Y-39347281D01*
X154224205Y-40132995D01*
X154224990Y-39347281D02*
X154296562Y-39204495D01*
X154439490Y-39133210D01*
X154653776Y-39133424D01*
X154796561Y-39204995D01*
X154867847Y-39347924D01*
X154867061Y-40133638D01*
X155581347Y-40134352D02*
X155582347Y-39134353D01*
X155582204Y-39277210D02*
X155653704Y-39205852D01*
X155796632Y-39134567D01*
X156010918Y-39134781D01*
X156153704Y-39206352D01*
X156224989Y-39349281D01*
X156224204Y-40134995D01*
X156224989Y-39349281D02*
X156296561Y-39206495D01*
X156439489Y-39135210D01*
X156653775Y-39135424D01*
X156796560Y-39206995D01*
X156867846Y-39349924D01*
X156867060Y-40135638D01*
X100008500Y-41500209D02*
X200008500Y-41600209D01*
X100000000Y-50000000D02*
X100009086Y-40913789D01*
X200000000Y-50100000D02*
X200009086Y-41013789D01*
X200008500Y-41600209D02*
X198881410Y-42185503D01*
X200008500Y-41600209D02*
X198882583Y-41012662D01*
X100008500Y-41500209D02*
X101134417Y-42087756D01*
X100008500Y-41500209D02*
X101135590Y-40914915D01*
M02*
