G04 #@! TF.GenerationSoftware,KiCad,Pcbnew,5.0.2+dfsg1-1*
G04 #@! TF.CreationDate,2021-05-29T18:00:52+02:00*
G04 #@! TF.ProjectId,Reflow_Control,5265666c-6f77-45f4-936f-6e74726f6c2e,rev?*
G04 #@! TF.SameCoordinates,Original*
G04 #@! TF.FileFunction,Legend,Top*
G04 #@! TF.FilePolarity,Positive*
%FSLAX46Y46*%
G04 Gerber Fmt 4.6, Leading zero omitted, Abs format (unit mm)*
G04 Created by KiCad (PCBNEW 5.0.2+dfsg1-1) date Sat 29 May 2021 06:00:52 PM CEST*
%MOMM*%
%LPD*%
G01*
G04 APERTURE LIST*
%ADD10C,0.300000*%
%ADD11C,0.200000*%
%ADD12C,0.120000*%
%ADD13C,0.100000*%
%ADD14C,0.150000*%
G04 APERTURE END LIST*
D10*
X188678571Y-72107142D02*
X189821428Y-72107142D01*
X189250000Y-72678571D02*
X189250000Y-71535714D01*
X188178571Y-60607142D02*
X189321428Y-60607142D01*
X188750000Y-61178571D02*
X188750000Y-60035714D01*
X118178571Y-118107142D02*
X119321428Y-118107142D01*
X112928571Y-118107142D02*
X114071428Y-118107142D01*
X113500000Y-118678571D02*
X113500000Y-117535714D01*
X111428571Y-104107142D02*
X112571428Y-104107142D01*
X112000000Y-104678571D02*
X112000000Y-103535714D01*
X111428571Y-92607142D02*
X112571428Y-92607142D01*
X112000000Y-93178571D02*
X112000000Y-92035714D01*
D11*
X116952380Y-53928571D02*
X117285714Y-53928571D01*
X117428571Y-54452380D02*
X116952380Y-54452380D01*
X116952380Y-53452380D01*
X117428571Y-53452380D01*
X118285714Y-54452380D02*
X118285714Y-53452380D01*
X118285714Y-54404761D02*
X118190476Y-54452380D01*
X118000000Y-54452380D01*
X117904761Y-54404761D01*
X117857142Y-54357142D01*
X117809523Y-54261904D01*
X117809523Y-53976190D01*
X117857142Y-53880952D01*
X117904761Y-53833333D01*
X118000000Y-53785714D01*
X118190476Y-53785714D01*
X118285714Y-53833333D01*
X118666666Y-53785714D02*
X118857142Y-54452380D01*
X119047619Y-53976190D01*
X119238095Y-54452380D01*
X119428571Y-53785714D01*
X119809523Y-54452380D02*
X119809523Y-53785714D01*
X119809523Y-53452380D02*
X119761904Y-53500000D01*
X119809523Y-53547619D01*
X119857142Y-53500000D01*
X119809523Y-53452380D01*
X119809523Y-53547619D01*
X120285714Y-53785714D02*
X120285714Y-54452380D01*
X120285714Y-53880952D02*
X120333333Y-53833333D01*
X120428571Y-53785714D01*
X120571428Y-53785714D01*
X120666666Y-53833333D01*
X120714285Y-53928571D01*
X120714285Y-54452380D01*
X121952380Y-54452380D02*
X121952380Y-53452380D01*
X122523809Y-54452380D02*
X122095238Y-53880952D01*
X122523809Y-53452380D02*
X121952380Y-54023809D01*
X123095238Y-54452380D02*
X123000000Y-54404761D01*
X122952380Y-54357142D01*
X122904761Y-54261904D01*
X122904761Y-53976190D01*
X122952380Y-53880952D01*
X123000000Y-53833333D01*
X123095238Y-53785714D01*
X123238095Y-53785714D01*
X123333333Y-53833333D01*
X123380952Y-53880952D01*
X123428571Y-53976190D01*
X123428571Y-54261904D01*
X123380952Y-54357142D01*
X123333333Y-54404761D01*
X123238095Y-54452380D01*
X123095238Y-54452380D01*
X124285714Y-54404761D02*
X124190476Y-54452380D01*
X124000000Y-54452380D01*
X123904761Y-54404761D01*
X123857142Y-54357142D01*
X123809523Y-54261904D01*
X123809523Y-53976190D01*
X123857142Y-53880952D01*
X123904761Y-53833333D01*
X124000000Y-53785714D01*
X124190476Y-53785714D01*
X124285714Y-53833333D01*
X124714285Y-54452380D02*
X124714285Y-53452380D01*
X125142857Y-54452380D02*
X125142857Y-53928571D01*
X125095238Y-53833333D01*
X125000000Y-53785714D01*
X124857142Y-53785714D01*
X124761904Y-53833333D01*
X124714285Y-53880952D01*
X127190476Y-54452380D02*
X127142857Y-54452380D01*
X127047619Y-54404761D01*
X126904761Y-54261904D01*
X126666666Y-53976190D01*
X126571428Y-53833333D01*
X126523809Y-53690476D01*
X126523809Y-53595238D01*
X126571428Y-53500000D01*
X126666666Y-53452380D01*
X126714285Y-53452380D01*
X126809523Y-53500000D01*
X126857142Y-53595238D01*
X126857142Y-53642857D01*
X126809523Y-53738095D01*
X126761904Y-53785714D01*
X126476190Y-53976190D01*
X126428571Y-54023809D01*
X126380952Y-54119047D01*
X126380952Y-54261904D01*
X126428571Y-54357142D01*
X126476190Y-54404761D01*
X126571428Y-54452380D01*
X126714285Y-54452380D01*
X126809523Y-54404761D01*
X126857142Y-54357142D01*
X127000000Y-54166666D01*
X127047619Y-54023809D01*
X127047619Y-53928571D01*
X128380952Y-54452380D02*
X128380952Y-53452380D01*
X128952380Y-54452380D02*
X128523809Y-53880952D01*
X128952380Y-53452380D02*
X128380952Y-54023809D01*
X129761904Y-54404761D02*
X129666666Y-54452380D01*
X129476190Y-54452380D01*
X129380952Y-54404761D01*
X129333333Y-54309523D01*
X129333333Y-53928571D01*
X129380952Y-53833333D01*
X129476190Y-53785714D01*
X129666666Y-53785714D01*
X129761904Y-53833333D01*
X129809523Y-53928571D01*
X129809523Y-54023809D01*
X129333333Y-54119047D01*
X130238095Y-54452380D02*
X130238095Y-53785714D01*
X130238095Y-53976190D02*
X130285714Y-53880952D01*
X130333333Y-53833333D01*
X130428571Y-53785714D01*
X130523809Y-53785714D01*
X131238095Y-54404761D02*
X131142857Y-54452380D01*
X130952380Y-54452380D01*
X130857142Y-54404761D01*
X130809523Y-54309523D01*
X130809523Y-53928571D01*
X130857142Y-53833333D01*
X130952380Y-53785714D01*
X131142857Y-53785714D01*
X131238095Y-53833333D01*
X131285714Y-53928571D01*
X131285714Y-54023809D01*
X130809523Y-54119047D01*
X131714285Y-54452380D02*
X131714285Y-53785714D01*
X131714285Y-53880952D02*
X131761904Y-53833333D01*
X131857142Y-53785714D01*
X132000000Y-53785714D01*
X132095238Y-53833333D01*
X132142857Y-53928571D01*
X132142857Y-54452380D01*
X132142857Y-53928571D02*
X132190476Y-53833333D01*
X132285714Y-53785714D01*
X132428571Y-53785714D01*
X132523809Y-53833333D01*
X132571428Y-53928571D01*
X132571428Y-54452380D01*
X134000000Y-53976190D02*
X134000000Y-54452380D01*
X133666666Y-53452380D02*
X134000000Y-53976190D01*
X134333333Y-53452380D01*
X134809523Y-54452380D02*
X134714285Y-54404761D01*
X134666666Y-54357142D01*
X134619047Y-54261904D01*
X134619047Y-53976190D01*
X134666666Y-53880952D01*
X134714285Y-53833333D01*
X134809523Y-53785714D01*
X134952380Y-53785714D01*
X135047619Y-53833333D01*
X135095238Y-53880952D01*
X135142857Y-53976190D01*
X135142857Y-54261904D01*
X135095238Y-54357142D01*
X135047619Y-54404761D01*
X134952380Y-54452380D01*
X134809523Y-54452380D01*
X135714285Y-54452380D02*
X135619047Y-54404761D01*
X135571428Y-54309523D01*
X135571428Y-53452380D01*
X136238095Y-54452380D02*
X136142857Y-54404761D01*
X136095238Y-54309523D01*
X136095238Y-53452380D01*
X137047619Y-53785714D02*
X137047619Y-54452380D01*
X136619047Y-53785714D02*
X136619047Y-54309523D01*
X136666666Y-54404761D01*
X136761904Y-54452380D01*
X136904761Y-54452380D01*
X137000000Y-54404761D01*
X137047619Y-54357142D01*
X111095238Y-53452380D02*
X111428571Y-54452380D01*
X111761904Y-53452380D01*
X113380952Y-54452380D02*
X112809523Y-54452380D01*
X113095238Y-54452380D02*
X113095238Y-53452380D01*
X113000000Y-53595238D01*
X112904761Y-53690476D01*
X112809523Y-53738095D01*
X113809523Y-54357142D02*
X113857142Y-54404761D01*
X113809523Y-54452380D01*
X113761904Y-54404761D01*
X113809523Y-54357142D01*
X113809523Y-54452380D01*
X114476190Y-53452380D02*
X114571428Y-53452380D01*
X114666666Y-53500000D01*
X114714285Y-53547619D01*
X114761904Y-53642857D01*
X114809523Y-53833333D01*
X114809523Y-54071428D01*
X114761904Y-54261904D01*
X114714285Y-54357142D01*
X114666666Y-54404761D01*
X114571428Y-54452380D01*
X114476190Y-54452380D01*
X114380952Y-54404761D01*
X114333333Y-54357142D01*
X114285714Y-54261904D01*
X114238095Y-54071428D01*
X114238095Y-53833333D01*
X114285714Y-53642857D01*
X114333333Y-53547619D01*
X114380952Y-53500000D01*
X114476190Y-53452380D01*
D10*
X112190476Y-52904761D02*
X111523809Y-51952380D01*
X111047619Y-52904761D02*
X111047619Y-50904761D01*
X111809523Y-50904761D01*
X112000000Y-51000000D01*
X112095238Y-51095238D01*
X112190476Y-51285714D01*
X112190476Y-51571428D01*
X112095238Y-51761904D01*
X112000000Y-51857142D01*
X111809523Y-51952380D01*
X111047619Y-51952380D01*
X113809523Y-52809523D02*
X113619047Y-52904761D01*
X113238095Y-52904761D01*
X113047619Y-52809523D01*
X112952380Y-52619047D01*
X112952380Y-51857142D01*
X113047619Y-51666666D01*
X113238095Y-51571428D01*
X113619047Y-51571428D01*
X113809523Y-51666666D01*
X113904761Y-51857142D01*
X113904761Y-52047619D01*
X112952380Y-52238095D01*
X114476190Y-51571428D02*
X115238095Y-51571428D01*
X114761904Y-52904761D02*
X114761904Y-51190476D01*
X114857142Y-51000000D01*
X115047619Y-50904761D01*
X115238095Y-50904761D01*
X116190476Y-52904761D02*
X116000000Y-52809523D01*
X115904761Y-52619047D01*
X115904761Y-50904761D01*
X117238095Y-52904761D02*
X117047619Y-52809523D01*
X116952380Y-52714285D01*
X116857142Y-52523809D01*
X116857142Y-51952380D01*
X116952380Y-51761904D01*
X117047619Y-51666666D01*
X117238095Y-51571428D01*
X117523809Y-51571428D01*
X117714285Y-51666666D01*
X117809523Y-51761904D01*
X117904761Y-51952380D01*
X117904761Y-52523809D01*
X117809523Y-52714285D01*
X117714285Y-52809523D01*
X117523809Y-52904761D01*
X117238095Y-52904761D01*
X118571428Y-51571428D02*
X118952380Y-52904761D01*
X119333333Y-51952380D01*
X119714285Y-52904761D01*
X120095238Y-51571428D01*
X122761904Y-50904761D02*
X123142857Y-50904761D01*
X123333333Y-51000000D01*
X123523809Y-51190476D01*
X123619047Y-51571428D01*
X123619047Y-52238095D01*
X123523809Y-52619047D01*
X123333333Y-52809523D01*
X123142857Y-52904761D01*
X122761904Y-52904761D01*
X122571428Y-52809523D01*
X122380952Y-52619047D01*
X122285714Y-52238095D01*
X122285714Y-51571428D01*
X122380952Y-51190476D01*
X122571428Y-51000000D01*
X122761904Y-50904761D01*
X124285714Y-51571428D02*
X124761904Y-52904761D01*
X125238095Y-51571428D01*
X126761904Y-52809523D02*
X126571428Y-52904761D01*
X126190476Y-52904761D01*
X126000000Y-52809523D01*
X125904761Y-52619047D01*
X125904761Y-51857142D01*
X126000000Y-51666666D01*
X126190476Y-51571428D01*
X126571428Y-51571428D01*
X126761904Y-51666666D01*
X126857142Y-51857142D01*
X126857142Y-52047619D01*
X125904761Y-52238095D01*
X127714285Y-51571428D02*
X127714285Y-52904761D01*
X127714285Y-51761904D02*
X127809523Y-51666666D01*
X128000000Y-51571428D01*
X128285714Y-51571428D01*
X128476190Y-51666666D01*
X128571428Y-51857142D01*
X128571428Y-52904761D01*
X132190476Y-52714285D02*
X132095238Y-52809523D01*
X131809523Y-52904761D01*
X131619047Y-52904761D01*
X131333333Y-52809523D01*
X131142857Y-52619047D01*
X131047619Y-52428571D01*
X130952380Y-52047619D01*
X130952380Y-51761904D01*
X131047619Y-51380952D01*
X131142857Y-51190476D01*
X131333333Y-51000000D01*
X131619047Y-50904761D01*
X131809523Y-50904761D01*
X132095238Y-51000000D01*
X132190476Y-51095238D01*
X133333333Y-52904761D02*
X133142857Y-52809523D01*
X133047619Y-52714285D01*
X132952380Y-52523809D01*
X132952380Y-51952380D01*
X133047619Y-51761904D01*
X133142857Y-51666666D01*
X133333333Y-51571428D01*
X133619047Y-51571428D01*
X133809523Y-51666666D01*
X133904761Y-51761904D01*
X134000000Y-51952380D01*
X134000000Y-52523809D01*
X133904761Y-52714285D01*
X133809523Y-52809523D01*
X133619047Y-52904761D01*
X133333333Y-52904761D01*
X134857142Y-51571428D02*
X134857142Y-52904761D01*
X134857142Y-51761904D02*
X134952380Y-51666666D01*
X135142857Y-51571428D01*
X135428571Y-51571428D01*
X135619047Y-51666666D01*
X135714285Y-51857142D01*
X135714285Y-52904761D01*
X136380952Y-51571428D02*
X137142857Y-51571428D01*
X136666666Y-50904761D02*
X136666666Y-52619047D01*
X136761904Y-52809523D01*
X136952380Y-52904761D01*
X137142857Y-52904761D01*
X137809523Y-52904761D02*
X137809523Y-51571428D01*
X137809523Y-51952380D02*
X137904761Y-51761904D01*
X138000000Y-51666666D01*
X138190476Y-51571428D01*
X138380952Y-51571428D01*
X139333333Y-52904761D02*
X139142857Y-52809523D01*
X139047619Y-52714285D01*
X138952380Y-52523809D01*
X138952380Y-51952380D01*
X139047619Y-51761904D01*
X139142857Y-51666666D01*
X139333333Y-51571428D01*
X139619047Y-51571428D01*
X139809523Y-51666666D01*
X139904761Y-51761904D01*
X140000000Y-51952380D01*
X140000000Y-52523809D01*
X139904761Y-52714285D01*
X139809523Y-52809523D01*
X139619047Y-52904761D01*
X139333333Y-52904761D01*
X141142857Y-52904761D02*
X140952380Y-52809523D01*
X140857142Y-52619047D01*
X140857142Y-50904761D01*
X142190476Y-52904761D02*
X142000000Y-52809523D01*
X141904761Y-52619047D01*
X141904761Y-50904761D01*
X143714285Y-52809523D02*
X143523809Y-52904761D01*
X143142857Y-52904761D01*
X142952380Y-52809523D01*
X142857142Y-52619047D01*
X142857142Y-51857142D01*
X142952380Y-51666666D01*
X143142857Y-51571428D01*
X143523809Y-51571428D01*
X143714285Y-51666666D01*
X143809523Y-51857142D01*
X143809523Y-52047619D01*
X142857142Y-52238095D01*
X144666666Y-52904761D02*
X144666666Y-51571428D01*
X144666666Y-51952380D02*
X144761904Y-51761904D01*
X144857142Y-51666666D01*
X145047619Y-51571428D01*
X145238095Y-51571428D01*
X180264285Y-86178571D02*
X180264285Y-84678571D01*
X180264285Y-85392857D02*
X181121428Y-85392857D01*
X181121428Y-86178571D02*
X181121428Y-84678571D01*
X181835714Y-85392857D02*
X182335714Y-85392857D01*
X182550000Y-86178571D02*
X181835714Y-86178571D01*
X181835714Y-84678571D01*
X182550000Y-84678571D01*
X183121428Y-85750000D02*
X183835714Y-85750000D01*
X182978571Y-86178571D02*
X183478571Y-84678571D01*
X183978571Y-86178571D01*
X184264285Y-84678571D02*
X185121428Y-84678571D01*
X184692857Y-86178571D02*
X184692857Y-84678571D01*
X185621428Y-85392857D02*
X186121428Y-85392857D01*
X186335714Y-86178571D02*
X185621428Y-86178571D01*
X185621428Y-84678571D01*
X186335714Y-84678571D01*
X187835714Y-86178571D02*
X187335714Y-85464285D01*
X186978571Y-86178571D02*
X186978571Y-84678571D01*
X187550000Y-84678571D01*
X187692857Y-84750000D01*
X187764285Y-84821428D01*
X187835714Y-84964285D01*
X187835714Y-85178571D01*
X187764285Y-85321428D01*
X187692857Y-85392857D01*
X187550000Y-85464285D01*
X186978571Y-85464285D01*
X189550000Y-84821428D02*
X189621428Y-84750000D01*
X189764285Y-84678571D01*
X190121428Y-84678571D01*
X190264285Y-84750000D01*
X190335714Y-84821428D01*
X190407142Y-84964285D01*
X190407142Y-85107142D01*
X190335714Y-85321428D01*
X189478571Y-86178571D01*
X190407142Y-86178571D01*
X179964285Y-58878571D02*
X179964285Y-57378571D01*
X179964285Y-58092857D02*
X180821428Y-58092857D01*
X180821428Y-58878571D02*
X180821428Y-57378571D01*
X181535714Y-58092857D02*
X182035714Y-58092857D01*
X182250000Y-58878571D02*
X181535714Y-58878571D01*
X181535714Y-57378571D01*
X182250000Y-57378571D01*
X182821428Y-58450000D02*
X183535714Y-58450000D01*
X182678571Y-58878571D02*
X183178571Y-57378571D01*
X183678571Y-58878571D01*
X183964285Y-57378571D02*
X184821428Y-57378571D01*
X184392857Y-58878571D02*
X184392857Y-57378571D01*
X185321428Y-58092857D02*
X185821428Y-58092857D01*
X186035714Y-58878571D02*
X185321428Y-58878571D01*
X185321428Y-57378571D01*
X186035714Y-57378571D01*
X187535714Y-58878571D02*
X187035714Y-58164285D01*
X186678571Y-58878571D02*
X186678571Y-57378571D01*
X187250000Y-57378571D01*
X187392857Y-57450000D01*
X187464285Y-57521428D01*
X187535714Y-57664285D01*
X187535714Y-57878571D01*
X187464285Y-58021428D01*
X187392857Y-58092857D01*
X187250000Y-58164285D01*
X186678571Y-58164285D01*
X190107142Y-58878571D02*
X189250000Y-58878571D01*
X189678571Y-58878571D02*
X189678571Y-57378571D01*
X189535714Y-57592857D01*
X189392857Y-57735714D01*
X189250000Y-57807142D01*
D12*
G04 #@! TO.C,R3*
X127130564Y-108479000D02*
X125926436Y-108479000D01*
X127130564Y-106659000D02*
X125926436Y-106659000D01*
D13*
G04 #@! TO.C,U6*
X126725000Y-98057000D02*
X126725000Y-98357000D01*
X126725000Y-98357000D02*
X125875000Y-98357000D01*
X120925000Y-98007000D02*
X120925000Y-98357000D01*
X120925000Y-98357000D02*
X121775000Y-98357000D01*
X126725000Y-90207000D02*
X126725000Y-89857000D01*
X126725000Y-89857000D02*
X126025000Y-89857000D01*
X120575000Y-90307000D02*
X121125000Y-90307000D01*
X121125000Y-90307000D02*
X121175000Y-90307000D01*
X121175000Y-90307000D02*
X121625000Y-89857000D01*
X121625000Y-89857000D02*
X122025000Y-89857000D01*
D12*
G04 #@! TO.C,JP1*
X139399000Y-55642000D02*
G75*
G02X140099000Y-56342000I0J-700000D01*
G01*
X140099000Y-56942000D02*
G75*
G02X139399000Y-57642000I-700000J0D01*
G01*
X137999000Y-57642000D02*
G75*
G02X137299000Y-56942000I0J700000D01*
G01*
X137299000Y-56342000D02*
G75*
G02X137999000Y-55642000I700000J0D01*
G01*
X137299000Y-56942000D02*
X137299000Y-56342000D01*
X139399000Y-57642000D02*
X137999000Y-57642000D01*
X140099000Y-56342000D02*
X140099000Y-56942000D01*
X137999000Y-55642000D02*
X139399000Y-55642000D01*
G04 #@! TO.C,SW1*
X159350000Y-97800000D02*
X159350000Y-97550000D01*
X159350000Y-97550000D02*
X165650000Y-97550000D01*
X165650000Y-97550000D02*
X165650000Y-97800000D01*
X159350000Y-102300000D02*
X159350000Y-99700000D01*
X165650000Y-104200000D02*
X165650000Y-104450000D01*
X165650000Y-104450000D02*
X159350000Y-104450000D01*
X159350000Y-104450000D02*
X159350000Y-104200000D01*
X165650000Y-99700000D02*
X165650000Y-102300000D01*
G04 #@! TO.C,JP2*
X148826000Y-81580000D02*
X148826000Y-80980000D01*
X152276000Y-82280000D02*
X149476000Y-82280000D01*
X152926000Y-80980000D02*
X152926000Y-81580000D01*
X149476000Y-80280000D02*
X152276000Y-80280000D01*
X152226000Y-80280000D02*
G75*
G02X152926000Y-80980000I0J-700000D01*
G01*
X152926000Y-81580000D02*
G75*
G02X152226000Y-82280000I-700000J0D01*
G01*
X149526000Y-82280000D02*
G75*
G02X148826000Y-81580000I0J700000D01*
G01*
X148826000Y-80980000D02*
G75*
G02X149526000Y-80280000I700000J0D01*
G01*
G04 #@! TO.C,J1*
X110700000Y-80300000D02*
X110700000Y-80900000D01*
X110100000Y-80600000D02*
X110700000Y-80300000D01*
X110700000Y-80900000D02*
X110100000Y-80600000D01*
X103300000Y-77950000D02*
X103300000Y-88330000D01*
X109410000Y-81650000D02*
X109410000Y-84630000D01*
X109410000Y-88330000D02*
X109410000Y-86730000D01*
X109410000Y-77950000D02*
X109410000Y-79550000D01*
X99990000Y-88330000D02*
X109410000Y-88330000D01*
X99990000Y-77950000D02*
X99990000Y-88330000D01*
X109410000Y-77950000D02*
X99990000Y-77950000D01*
G04 #@! TO.C,BZ1*
X170020000Y-57912000D02*
G75*
G03X170020000Y-57912000I-6230000J0D01*
G01*
X157390000Y-59411999D02*
G75*
G02X157390000Y-56412000I6400000J1499999D01*
G01*
G04 #@! TO.C,C1*
X159132748Y-96849000D02*
X159655252Y-96849000D01*
X159132748Y-95429000D02*
X159655252Y-95429000D01*
G04 #@! TO.C,C2*
X154170748Y-73458000D02*
X154693252Y-73458000D01*
X154170748Y-74878000D02*
X154693252Y-74878000D01*
G04 #@! TO.C,C3*
X119511252Y-78030000D02*
X118988748Y-78030000D01*
X119511252Y-79450000D02*
X118988748Y-79450000D01*
G04 #@! TO.C,C5*
X159241748Y-118820000D02*
X159764252Y-118820000D01*
X159241748Y-117400000D02*
X159764252Y-117400000D01*
G04 #@! TO.C,C6*
X148201748Y-107771000D02*
X148724252Y-107771000D01*
X148201748Y-106351000D02*
X148724252Y-106351000D01*
G04 #@! TO.C,C7*
X159250748Y-106351000D02*
X159773252Y-106351000D01*
X159250748Y-107771000D02*
X159773252Y-107771000D01*
G04 #@! TO.C,C8*
X189738748Y-105915000D02*
X190261252Y-105915000D01*
X189738748Y-107335000D02*
X190261252Y-107335000D01*
G04 #@! TO.C,C9*
X197540000Y-96386252D02*
X197540000Y-95863748D01*
X198960000Y-96386252D02*
X198960000Y-95863748D01*
G04 #@! TO.C,C10*
X182585000Y-96386252D02*
X182585000Y-95863748D01*
X181165000Y-96386252D02*
X181165000Y-95863748D01*
G04 #@! TO.C,C11*
X170172748Y-106351000D02*
X170695252Y-106351000D01*
X170172748Y-107771000D02*
X170695252Y-107771000D01*
G04 #@! TO.C,C12*
X148210748Y-117400000D02*
X148733252Y-117400000D01*
X148210748Y-118820000D02*
X148733252Y-118820000D01*
G04 #@! TO.C,C13*
X170238748Y-118820000D02*
X170761252Y-118820000D01*
X170238748Y-117400000D02*
X170761252Y-117400000D01*
G04 #@! TO.C,D1*
X192135000Y-115460000D02*
X192135000Y-111400000D01*
X189865000Y-115460000D02*
X192135000Y-115460000D01*
X189865000Y-111400000D02*
X189865000Y-115460000D01*
G04 #@! TO.C,D2*
X185865000Y-111400000D02*
X185865000Y-115460000D01*
X185865000Y-115460000D02*
X188135000Y-115460000D01*
X188135000Y-115460000D02*
X188135000Y-111400000D01*
G04 #@! TO.C,D3*
X184135000Y-115460000D02*
X184135000Y-111400000D01*
X181865000Y-115460000D02*
X184135000Y-115460000D01*
X181865000Y-111400000D02*
X181865000Y-115460000D01*
G04 #@! TO.C,D4*
X184662500Y-66385000D02*
X188722500Y-66385000D01*
X188722500Y-66385000D02*
X188722500Y-64115000D01*
X188722500Y-64115000D02*
X184662500Y-64115000D01*
G04 #@! TO.C,D5*
X184662500Y-77885000D02*
X188722500Y-77885000D01*
X188722500Y-77885000D02*
X188722500Y-75615000D01*
X188722500Y-75615000D02*
X184662500Y-75615000D01*
G04 #@! TO.C,J2*
X190752500Y-70480000D02*
X200172500Y-70480000D01*
X200172500Y-70480000D02*
X200172500Y-60100000D01*
X200172500Y-60100000D02*
X190752500Y-60100000D01*
X190752500Y-70480000D02*
X190752500Y-68880000D01*
X190752500Y-60100000D02*
X190752500Y-61700000D01*
X190752500Y-66780000D02*
X190752500Y-63800000D01*
X196862500Y-70480000D02*
X196862500Y-60100000D01*
X189462500Y-67530000D02*
X190062500Y-67830000D01*
X190062500Y-67830000D02*
X189462500Y-68130000D01*
X189462500Y-68130000D02*
X189462500Y-67530000D01*
G04 #@! TO.C,Q3*
X155700000Y-58476000D02*
X155700000Y-57546000D01*
X155700000Y-55316000D02*
X155700000Y-56246000D01*
X155700000Y-55316000D02*
X153540000Y-55316000D01*
X155700000Y-58476000D02*
X154240000Y-58476000D01*
G04 #@! TO.C,R1*
X119232000Y-70263936D02*
X119232000Y-71468064D01*
X121052000Y-70263936D02*
X121052000Y-71468064D01*
G04 #@! TO.C,R2*
X123592000Y-70263936D02*
X123592000Y-71468064D01*
X121772000Y-70263936D02*
X121772000Y-71468064D01*
G04 #@! TO.C,R4*
X150527936Y-88794000D02*
X151732064Y-88794000D01*
X150527936Y-86974000D02*
X151732064Y-86974000D01*
G04 #@! TO.C,R5*
X197340000Y-90647936D02*
X197340000Y-91852064D01*
X199160000Y-90647936D02*
X199160000Y-91852064D01*
G04 #@! TO.C,R6*
X180965000Y-90647936D02*
X180965000Y-91852064D01*
X182785000Y-90647936D02*
X182785000Y-91852064D01*
G04 #@! TO.C,R7*
X191910000Y-117910436D02*
X191910000Y-119114564D01*
X190090000Y-117910436D02*
X190090000Y-119114564D01*
G04 #@! TO.C,R8*
X186090000Y-117910436D02*
X186090000Y-119114564D01*
X187910000Y-117910436D02*
X187910000Y-119114564D01*
G04 #@! TO.C,R9*
X183910000Y-117910436D02*
X183910000Y-119114564D01*
X182090000Y-117910436D02*
X182090000Y-119114564D01*
G04 #@! TO.C,R10*
X186864564Y-63660000D02*
X185660436Y-63660000D01*
X186864564Y-61840000D02*
X185660436Y-61840000D01*
G04 #@! TO.C,R11*
X186864564Y-75160000D02*
X185660436Y-75160000D01*
X186864564Y-73340000D02*
X185660436Y-73340000D01*
G04 #@! TO.C,R12*
X155251564Y-61616000D02*
X154047436Y-61616000D01*
X155251564Y-59796000D02*
X154047436Y-59796000D01*
G04 #@! TO.C,R15*
X155324564Y-54504000D02*
X154120436Y-54504000D01*
X155324564Y-52684000D02*
X154120436Y-52684000D01*
G04 #@! TO.C,SW2*
X159350000Y-119800000D02*
X159350000Y-119550000D01*
X159350000Y-119550000D02*
X165650000Y-119550000D01*
X165650000Y-119550000D02*
X165650000Y-119800000D01*
X159350000Y-124300000D02*
X159350000Y-121700000D01*
X165650000Y-126200000D02*
X165650000Y-126450000D01*
X165650000Y-126450000D02*
X159350000Y-126450000D01*
X159350000Y-126450000D02*
X159350000Y-126200000D01*
X165650000Y-121700000D02*
X165650000Y-124300000D01*
G04 #@! TO.C,SW3*
X148350000Y-108800000D02*
X148350000Y-108550000D01*
X148350000Y-108550000D02*
X154650000Y-108550000D01*
X154650000Y-108550000D02*
X154650000Y-108800000D01*
X148350000Y-113300000D02*
X148350000Y-110700000D01*
X154650000Y-115200000D02*
X154650000Y-115450000D01*
X154650000Y-115450000D02*
X148350000Y-115450000D01*
X148350000Y-115450000D02*
X148350000Y-115200000D01*
X154650000Y-110700000D02*
X154650000Y-113300000D01*
G04 #@! TO.C,SW4*
X159350000Y-108800000D02*
X159350000Y-108550000D01*
X159350000Y-108550000D02*
X165650000Y-108550000D01*
X165650000Y-108550000D02*
X165650000Y-108800000D01*
X159350000Y-113300000D02*
X159350000Y-110700000D01*
X165650000Y-115200000D02*
X165650000Y-115450000D01*
X165650000Y-115450000D02*
X159350000Y-115450000D01*
X159350000Y-115450000D02*
X159350000Y-115200000D01*
X165650000Y-110700000D02*
X165650000Y-113300000D01*
G04 #@! TO.C,SW6*
X176650000Y-110700000D02*
X176650000Y-113300000D01*
X170350000Y-115450000D02*
X170350000Y-115200000D01*
X176650000Y-115450000D02*
X170350000Y-115450000D01*
X176650000Y-115200000D02*
X176650000Y-115450000D01*
X170350000Y-113300000D02*
X170350000Y-110700000D01*
X176650000Y-108550000D02*
X176650000Y-108800000D01*
X170350000Y-108550000D02*
X176650000Y-108550000D01*
X170350000Y-108800000D02*
X170350000Y-108550000D01*
G04 #@! TO.C,SW7*
X154650000Y-121700000D02*
X154650000Y-124300000D01*
X148350000Y-126450000D02*
X148350000Y-126200000D01*
X154650000Y-126450000D02*
X148350000Y-126450000D01*
X154650000Y-126200000D02*
X154650000Y-126450000D01*
X148350000Y-124300000D02*
X148350000Y-121700000D01*
X154650000Y-119550000D02*
X154650000Y-119800000D01*
X148350000Y-119550000D02*
X154650000Y-119550000D01*
X148350000Y-119800000D02*
X148350000Y-119550000D01*
G04 #@! TO.C,SW8*
X176650000Y-121700000D02*
X176650000Y-124300000D01*
X170350000Y-126450000D02*
X170350000Y-126200000D01*
X176650000Y-126450000D02*
X170350000Y-126450000D01*
X176650000Y-126200000D02*
X176650000Y-126450000D01*
X170350000Y-124300000D02*
X170350000Y-121700000D01*
X176650000Y-119550000D02*
X176650000Y-119800000D01*
X170350000Y-119550000D02*
X176650000Y-119550000D01*
X170350000Y-119800000D02*
X170350000Y-119550000D01*
G04 #@! TO.C,U1*
X167700000Y-70730000D02*
X167700000Y-68070000D01*
X160020000Y-70730000D02*
X167700000Y-70730000D01*
X160020000Y-68070000D02*
X167700000Y-68070000D01*
X160020000Y-70730000D02*
X160020000Y-68070000D01*
X158750000Y-70730000D02*
X157420000Y-70730000D01*
X157420000Y-70730000D02*
X157420000Y-69400000D01*
G04 #@! TO.C,U2*
X106270000Y-73730000D02*
X103730000Y-73730000D01*
X103730000Y-73730000D02*
X103730000Y-76400000D01*
X106270000Y-76400000D02*
X144500000Y-76400000D01*
X101060000Y-76400000D02*
X103730000Y-76400000D01*
X103730000Y-61030000D02*
X103730000Y-58360000D01*
X103730000Y-61030000D02*
X141830000Y-61030000D01*
X141830000Y-61030000D02*
X141830000Y-58360000D01*
X106270000Y-73730000D02*
X106270000Y-76400000D01*
X106270000Y-73730000D02*
X141830000Y-73730000D01*
X141830000Y-73730000D02*
X141830000Y-76400000D01*
X144500000Y-76400000D02*
X144500000Y-58360000D01*
X144500000Y-58360000D02*
X101060000Y-58360000D01*
X101060000Y-58360000D02*
X101060000Y-76400000D01*
G04 #@! TO.C,U3*
X123638000Y-103064000D02*
X123638000Y-105724000D01*
X141478000Y-103064000D02*
X123638000Y-103064000D01*
X141478000Y-105724000D02*
X123638000Y-105724000D01*
X141478000Y-103064000D02*
X141478000Y-105724000D01*
X142748000Y-103064000D02*
X144078000Y-103064000D01*
X144078000Y-103064000D02*
X144078000Y-104394000D01*
G04 #@! TO.C,U4*
X114840000Y-80340000D02*
X114840000Y-81600000D01*
X114840000Y-87160000D02*
X114840000Y-85900000D01*
X118600000Y-80340000D02*
X114840000Y-80340000D01*
X120850000Y-87160000D02*
X114840000Y-87160000D01*
D14*
G04 #@! TO.C,U5*
X154375000Y-85375000D02*
X154650000Y-85375000D01*
X154375000Y-77625000D02*
X154740000Y-77625000D01*
X170125000Y-77625000D02*
X169760000Y-77625000D01*
X170125000Y-85375000D02*
X169760000Y-85375000D01*
X154375000Y-85375000D02*
X154375000Y-77625000D01*
X170125000Y-85375000D02*
X170125000Y-77625000D01*
X154650000Y-85375000D02*
X154650000Y-87200000D01*
D12*
G04 #@! TO.C,J3*
X190752500Y-81780000D02*
X200172500Y-81780000D01*
X200172500Y-81780000D02*
X200172500Y-71400000D01*
X200172500Y-71400000D02*
X190752500Y-71400000D01*
X190752500Y-81780000D02*
X190752500Y-80180000D01*
X190752500Y-71400000D02*
X190752500Y-73000000D01*
X190752500Y-78080000D02*
X190752500Y-75100000D01*
X196862500Y-81780000D02*
X196862500Y-71400000D01*
X189462500Y-78830000D02*
X190062500Y-79130000D01*
X190062500Y-79130000D02*
X189462500Y-79430000D01*
X189462500Y-79430000D02*
X189462500Y-78830000D01*
G04 #@! TO.C,JP3*
X148826000Y-84882000D02*
X148826000Y-84282000D01*
X152276000Y-85582000D02*
X149476000Y-85582000D01*
X152926000Y-84282000D02*
X152926000Y-84882000D01*
X149476000Y-83582000D02*
X152276000Y-83582000D01*
X152226000Y-83582000D02*
G75*
G02X152926000Y-84282000I0J-700000D01*
G01*
X152926000Y-84882000D02*
G75*
G02X152226000Y-85582000I-700000J0D01*
G01*
X149526000Y-85582000D02*
G75*
G02X148826000Y-84882000I0J700000D01*
G01*
X148826000Y-84282000D02*
G75*
G02X149526000Y-83582000I700000J0D01*
G01*
G04 #@! TO.C,JP4*
X148826000Y-77678000D02*
G75*
G02X149526000Y-76978000I700000J0D01*
G01*
X149526000Y-78978000D02*
G75*
G02X148826000Y-78278000I0J700000D01*
G01*
X152926000Y-78278000D02*
G75*
G02X152226000Y-78978000I-700000J0D01*
G01*
X152226000Y-76978000D02*
G75*
G02X152926000Y-77678000I0J-700000D01*
G01*
X149476000Y-76978000D02*
X152276000Y-76978000D01*
X152926000Y-77678000D02*
X152926000Y-78278000D01*
X152276000Y-78978000D02*
X149476000Y-78978000D01*
X148826000Y-78278000D02*
X148826000Y-77678000D01*
G04 #@! TO.C,SW5*
X190000000Y-97000000D02*
X190000000Y-98000000D01*
X190500000Y-97500000D02*
X189500000Y-97500000D01*
X186700000Y-103600000D02*
X184100000Y-103600000D01*
X191300000Y-103600000D02*
X188700000Y-103600000D01*
X195900000Y-103600000D02*
X193300000Y-103600000D01*
X194100000Y-90300000D02*
X193800000Y-90000000D01*
X194100000Y-89700000D02*
X194100000Y-90300000D01*
X193800000Y-90000000D02*
X194100000Y-89700000D01*
X195800000Y-91400000D02*
X184100000Y-91400000D01*
X195800000Y-95500000D02*
X195800000Y-91400000D01*
X184100000Y-95500000D02*
X184100000Y-91400000D01*
X184100000Y-103600000D02*
X184100000Y-99500000D01*
X195900000Y-99500000D02*
X195900000Y-103600000D01*
X193000000Y-97500000D02*
G75*
G03X193000000Y-97500000I-3000000J0D01*
G01*
G04 #@! TO.C,C4*
X121490000Y-86510000D02*
X123190000Y-86510000D01*
X127010000Y-86510000D02*
X125310000Y-86510000D01*
X127010000Y-82054437D02*
X127010000Y-86510000D01*
X121490000Y-82054437D02*
X121490000Y-86510000D01*
X122554437Y-80990000D02*
X123190000Y-80990000D01*
X125945563Y-80990000D02*
X125310000Y-80990000D01*
X125945563Y-80990000D02*
X127010000Y-82054437D01*
X122554437Y-80990000D02*
X121490000Y-82054437D01*
X125935000Y-80125000D02*
X125935000Y-80750000D01*
X126247500Y-80437500D02*
X125622500Y-80437500D01*
G04 #@! TO.C,C14*
X113322000Y-115934500D02*
X114322000Y-115934500D01*
X113822000Y-116434500D02*
X113822000Y-115434500D01*
X119527563Y-115194500D02*
X120592000Y-114130063D01*
X113136437Y-115194500D02*
X112072000Y-114130063D01*
X113136437Y-115194500D02*
X114822000Y-115194500D01*
X119527563Y-115194500D02*
X117842000Y-115194500D01*
X120592000Y-114130063D02*
X120592000Y-106674500D01*
X112072000Y-114130063D02*
X112072000Y-106674500D01*
X112072000Y-106674500D02*
X114822000Y-106674500D01*
X120592000Y-106674500D02*
X117842000Y-106674500D01*
G04 #@! TO.C,C15*
X102039000Y-112453000D02*
X102039000Y-115203000D01*
X102039000Y-120973000D02*
X102039000Y-118223000D01*
X109494563Y-120973000D02*
X102039000Y-120973000D01*
X109494563Y-112453000D02*
X102039000Y-112453000D01*
X110559000Y-113517437D02*
X110559000Y-115203000D01*
X110559000Y-119908563D02*
X110559000Y-118223000D01*
X110559000Y-119908563D02*
X109494563Y-120973000D01*
X110559000Y-113517437D02*
X109494563Y-112453000D01*
X111799000Y-119223000D02*
X110799000Y-119223000D01*
X111299000Y-119723000D02*
X111299000Y-118723000D01*
G04 #@! TO.C,J4*
X110761000Y-120483000D02*
X110761000Y-129903000D01*
X110761000Y-129903000D02*
X121141000Y-129903000D01*
X121141000Y-129903000D02*
X121141000Y-120483000D01*
X110761000Y-120483000D02*
X112361000Y-120483000D01*
X121141000Y-120483000D02*
X119541000Y-120483000D01*
X114461000Y-120483000D02*
X117441000Y-120483000D01*
X110761000Y-126593000D02*
X121141000Y-126593000D01*
X113711000Y-119193000D02*
X113411000Y-119793000D01*
X113411000Y-119793000D02*
X113111000Y-119193000D01*
X113111000Y-119193000D02*
X113711000Y-119193000D01*
G04 #@! TO.C,J5*
X109387000Y-89933000D02*
X99967000Y-89933000D01*
X99967000Y-89933000D02*
X99967000Y-100313000D01*
X99967000Y-100313000D02*
X109387000Y-100313000D01*
X109387000Y-89933000D02*
X109387000Y-91533000D01*
X109387000Y-100313000D02*
X109387000Y-98713000D01*
X109387000Y-93633000D02*
X109387000Y-96613000D01*
X103277000Y-89933000D02*
X103277000Y-100313000D01*
X110677000Y-92883000D02*
X110077000Y-92583000D01*
X110077000Y-92583000D02*
X110677000Y-92283000D01*
X110677000Y-92283000D02*
X110677000Y-92883000D01*
G04 #@! TO.C,J6*
X110677000Y-103713000D02*
X110677000Y-104313000D01*
X110077000Y-104013000D02*
X110677000Y-103713000D01*
X110677000Y-104313000D02*
X110077000Y-104013000D01*
X103277000Y-101363000D02*
X103277000Y-111743000D01*
X109387000Y-105063000D02*
X109387000Y-108043000D01*
X109387000Y-111743000D02*
X109387000Y-110143000D01*
X109387000Y-101363000D02*
X109387000Y-102963000D01*
X99967000Y-111743000D02*
X109387000Y-111743000D01*
X99967000Y-101363000D02*
X99967000Y-111743000D01*
X109387000Y-101363000D02*
X99967000Y-101363000D01*
G04 #@! TO.C,Q1*
X188022500Y-70830000D02*
X188022500Y-69900000D01*
X188022500Y-67670000D02*
X188022500Y-68600000D01*
X188022500Y-67670000D02*
X184862500Y-67670000D01*
X188022500Y-70830000D02*
X186562500Y-70830000D01*
G04 #@! TO.C,Q2*
X188022500Y-82330000D02*
X186562500Y-82330000D01*
X188022500Y-79170000D02*
X184862500Y-79170000D01*
X188022500Y-79170000D02*
X188022500Y-80100000D01*
X188022500Y-82330000D02*
X188022500Y-81400000D01*
G04 #@! TD*
G04 #@! TO.C,R3*
D14*
X126333333Y-109952380D02*
X126000000Y-109476190D01*
X125761904Y-109952380D02*
X125761904Y-108952380D01*
X126142857Y-108952380D01*
X126238095Y-109000000D01*
X126285714Y-109047619D01*
X126333333Y-109142857D01*
X126333333Y-109285714D01*
X126285714Y-109380952D01*
X126238095Y-109428571D01*
X126142857Y-109476190D01*
X125761904Y-109476190D01*
X126666666Y-108952380D02*
X127285714Y-108952380D01*
X126952380Y-109333333D01*
X127095238Y-109333333D01*
X127190476Y-109380952D01*
X127238095Y-109428571D01*
X127285714Y-109523809D01*
X127285714Y-109761904D01*
X127238095Y-109857142D01*
X127190476Y-109904761D01*
X127095238Y-109952380D01*
X126809523Y-109952380D01*
X126714285Y-109904761D01*
X126666666Y-109857142D01*
G04 #@! TO.C,U6*
X118364095Y-99147380D02*
X118364095Y-99956904D01*
X118411714Y-100052142D01*
X118459333Y-100099761D01*
X118554571Y-100147380D01*
X118745047Y-100147380D01*
X118840285Y-100099761D01*
X118887904Y-100052142D01*
X118935523Y-99956904D01*
X118935523Y-99147380D01*
X119840285Y-99147380D02*
X119649809Y-99147380D01*
X119554571Y-99195000D01*
X119506952Y-99242619D01*
X119411714Y-99385476D01*
X119364095Y-99575952D01*
X119364095Y-99956904D01*
X119411714Y-100052142D01*
X119459333Y-100099761D01*
X119554571Y-100147380D01*
X119745047Y-100147380D01*
X119840285Y-100099761D01*
X119887904Y-100052142D01*
X119935523Y-99956904D01*
X119935523Y-99718809D01*
X119887904Y-99623571D01*
X119840285Y-99575952D01*
X119745047Y-99528333D01*
X119554571Y-99528333D01*
X119459333Y-99575952D01*
X119411714Y-99623571D01*
X119364095Y-99718809D01*
G04 #@! TO.C,JP1*
X139501666Y-54062380D02*
X139501666Y-54776666D01*
X139454047Y-54919523D01*
X139358809Y-55014761D01*
X139215952Y-55062380D01*
X139120714Y-55062380D01*
X139977857Y-55062380D02*
X139977857Y-54062380D01*
X140358809Y-54062380D01*
X140454047Y-54110000D01*
X140501666Y-54157619D01*
X140549285Y-54252857D01*
X140549285Y-54395714D01*
X140501666Y-54490952D01*
X140454047Y-54538571D01*
X140358809Y-54586190D01*
X139977857Y-54586190D01*
X141501666Y-55062380D02*
X140930238Y-55062380D01*
X141215952Y-55062380D02*
X141215952Y-54062380D01*
X141120714Y-54205238D01*
X141025476Y-54300476D01*
X140930238Y-54348095D01*
G04 #@! TO.C,SW1*
X161666666Y-96904761D02*
X161809523Y-96952380D01*
X162047619Y-96952380D01*
X162142857Y-96904761D01*
X162190476Y-96857142D01*
X162238095Y-96761904D01*
X162238095Y-96666666D01*
X162190476Y-96571428D01*
X162142857Y-96523809D01*
X162047619Y-96476190D01*
X161857142Y-96428571D01*
X161761904Y-96380952D01*
X161714285Y-96333333D01*
X161666666Y-96238095D01*
X161666666Y-96142857D01*
X161714285Y-96047619D01*
X161761904Y-96000000D01*
X161857142Y-95952380D01*
X162095238Y-95952380D01*
X162238095Y-96000000D01*
X162571428Y-95952380D02*
X162809523Y-96952380D01*
X163000000Y-96238095D01*
X163190476Y-96952380D01*
X163428571Y-95952380D01*
X164333333Y-96952380D02*
X163761904Y-96952380D01*
X164047619Y-96952380D02*
X164047619Y-95952380D01*
X163952380Y-96095238D01*
X163857142Y-96190476D01*
X163761904Y-96238095D01*
G04 #@! TO.C,JP2*
X145166666Y-80752380D02*
X145166666Y-81466666D01*
X145119047Y-81609523D01*
X145023809Y-81704761D01*
X144880952Y-81752380D01*
X144785714Y-81752380D01*
X145642857Y-81752380D02*
X145642857Y-80752380D01*
X146023809Y-80752380D01*
X146119047Y-80800000D01*
X146166666Y-80847619D01*
X146214285Y-80942857D01*
X146214285Y-81085714D01*
X146166666Y-81180952D01*
X146119047Y-81228571D01*
X146023809Y-81276190D01*
X145642857Y-81276190D01*
X146595238Y-80847619D02*
X146642857Y-80800000D01*
X146738095Y-80752380D01*
X146976190Y-80752380D01*
X147071428Y-80800000D01*
X147119047Y-80847619D01*
X147166666Y-80942857D01*
X147166666Y-81038095D01*
X147119047Y-81180952D01*
X146547619Y-81752380D01*
X147166666Y-81752380D01*
X153142666Y-80732380D02*
X153761714Y-80732380D01*
X153428380Y-81113333D01*
X153571238Y-81113333D01*
X153666476Y-81160952D01*
X153714095Y-81208571D01*
X153761714Y-81303809D01*
X153761714Y-81541904D01*
X153714095Y-81637142D01*
X153666476Y-81684761D01*
X153571238Y-81732380D01*
X153285523Y-81732380D01*
X153190285Y-81684761D01*
X153142666Y-81637142D01*
X148561714Y-80452380D02*
X147990285Y-80452380D01*
X148276000Y-80452380D02*
X148276000Y-79452380D01*
X148180761Y-79595238D01*
X148085523Y-79690476D01*
X147990285Y-79738095D01*
G04 #@! TO.C,J1*
X110552380Y-83473333D02*
X111266666Y-83473333D01*
X111409523Y-83520952D01*
X111504761Y-83616190D01*
X111552380Y-83759047D01*
X111552380Y-83854285D01*
X111552380Y-82473333D02*
X111552380Y-83044761D01*
X111552380Y-82759047D02*
X110552380Y-82759047D01*
X110695238Y-82854285D01*
X110790476Y-82949523D01*
X110838095Y-83044761D01*
G04 #@! TO.C,BZ1*
X171369047Y-57678571D02*
X171511904Y-57726190D01*
X171559523Y-57773809D01*
X171607142Y-57869047D01*
X171607142Y-58011904D01*
X171559523Y-58107142D01*
X171511904Y-58154761D01*
X171416666Y-58202380D01*
X171035714Y-58202380D01*
X171035714Y-57202380D01*
X171369047Y-57202380D01*
X171464285Y-57250000D01*
X171511904Y-57297619D01*
X171559523Y-57392857D01*
X171559523Y-57488095D01*
X171511904Y-57583333D01*
X171464285Y-57630952D01*
X171369047Y-57678571D01*
X171035714Y-57678571D01*
X171940476Y-57202380D02*
X172607142Y-57202380D01*
X171940476Y-58202380D01*
X172607142Y-58202380D01*
X173511904Y-58202380D02*
X172940476Y-58202380D01*
X173226190Y-58202380D02*
X173226190Y-57202380D01*
X173130952Y-57345238D01*
X173035714Y-57440476D01*
X172940476Y-57488095D01*
G04 #@! TO.C,C1*
X159227333Y-94846142D02*
X159179714Y-94893761D01*
X159036857Y-94941380D01*
X158941619Y-94941380D01*
X158798761Y-94893761D01*
X158703523Y-94798523D01*
X158655904Y-94703285D01*
X158608285Y-94512809D01*
X158608285Y-94369952D01*
X158655904Y-94179476D01*
X158703523Y-94084238D01*
X158798761Y-93989000D01*
X158941619Y-93941380D01*
X159036857Y-93941380D01*
X159179714Y-93989000D01*
X159227333Y-94036619D01*
X160179714Y-94941380D02*
X159608285Y-94941380D01*
X159894000Y-94941380D02*
X159894000Y-93941380D01*
X159798761Y-94084238D01*
X159703523Y-94179476D01*
X159608285Y-94227095D01*
G04 #@! TO.C,C2*
X155459333Y-72915142D02*
X155411714Y-72962761D01*
X155268857Y-73010380D01*
X155173619Y-73010380D01*
X155030761Y-72962761D01*
X154935523Y-72867523D01*
X154887904Y-72772285D01*
X154840285Y-72581809D01*
X154840285Y-72438952D01*
X154887904Y-72248476D01*
X154935523Y-72153238D01*
X155030761Y-72058000D01*
X155173619Y-72010380D01*
X155268857Y-72010380D01*
X155411714Y-72058000D01*
X155459333Y-72105619D01*
X155840285Y-72105619D02*
X155887904Y-72058000D01*
X155983142Y-72010380D01*
X156221238Y-72010380D01*
X156316476Y-72058000D01*
X156364095Y-72105619D01*
X156411714Y-72200857D01*
X156411714Y-72296095D01*
X156364095Y-72438952D01*
X155792666Y-73010380D01*
X156411714Y-73010380D01*
G04 #@! TO.C,C3*
X115833333Y-79222142D02*
X115785714Y-79269761D01*
X115642857Y-79317380D01*
X115547619Y-79317380D01*
X115404761Y-79269761D01*
X115309523Y-79174523D01*
X115261904Y-79079285D01*
X115214285Y-78888809D01*
X115214285Y-78745952D01*
X115261904Y-78555476D01*
X115309523Y-78460238D01*
X115404761Y-78365000D01*
X115547619Y-78317380D01*
X115642857Y-78317380D01*
X115785714Y-78365000D01*
X115833333Y-78412619D01*
X116166666Y-78317380D02*
X116785714Y-78317380D01*
X116452380Y-78698333D01*
X116595238Y-78698333D01*
X116690476Y-78745952D01*
X116738095Y-78793571D01*
X116785714Y-78888809D01*
X116785714Y-79126904D01*
X116738095Y-79222142D01*
X116690476Y-79269761D01*
X116595238Y-79317380D01*
X116309523Y-79317380D01*
X116214285Y-79269761D01*
X116166666Y-79222142D01*
G04 #@! TO.C,C5*
X162833333Y-118467142D02*
X162785714Y-118514761D01*
X162642857Y-118562380D01*
X162547619Y-118562380D01*
X162404761Y-118514761D01*
X162309523Y-118419523D01*
X162261904Y-118324285D01*
X162214285Y-118133809D01*
X162214285Y-117990952D01*
X162261904Y-117800476D01*
X162309523Y-117705238D01*
X162404761Y-117610000D01*
X162547619Y-117562380D01*
X162642857Y-117562380D01*
X162785714Y-117610000D01*
X162833333Y-117657619D01*
X163738095Y-117562380D02*
X163261904Y-117562380D01*
X163214285Y-118038571D01*
X163261904Y-117990952D01*
X163357142Y-117943333D01*
X163595238Y-117943333D01*
X163690476Y-117990952D01*
X163738095Y-118038571D01*
X163785714Y-118133809D01*
X163785714Y-118371904D01*
X163738095Y-118467142D01*
X163690476Y-118514761D01*
X163595238Y-118562380D01*
X163357142Y-118562380D01*
X163261904Y-118514761D01*
X163214285Y-118467142D01*
G04 #@! TO.C,C6*
X145375333Y-107418142D02*
X145327714Y-107465761D01*
X145184857Y-107513380D01*
X145089619Y-107513380D01*
X144946761Y-107465761D01*
X144851523Y-107370523D01*
X144803904Y-107275285D01*
X144756285Y-107084809D01*
X144756285Y-106941952D01*
X144803904Y-106751476D01*
X144851523Y-106656238D01*
X144946761Y-106561000D01*
X145089619Y-106513380D01*
X145184857Y-106513380D01*
X145327714Y-106561000D01*
X145375333Y-106608619D01*
X146232476Y-106513380D02*
X146042000Y-106513380D01*
X145946761Y-106561000D01*
X145899142Y-106608619D01*
X145803904Y-106751476D01*
X145756285Y-106941952D01*
X145756285Y-107322904D01*
X145803904Y-107418142D01*
X145851523Y-107465761D01*
X145946761Y-107513380D01*
X146137238Y-107513380D01*
X146232476Y-107465761D01*
X146280095Y-107418142D01*
X146327714Y-107322904D01*
X146327714Y-107084809D01*
X146280095Y-106989571D01*
X146232476Y-106941952D01*
X146137238Y-106894333D01*
X145946761Y-106894333D01*
X145851523Y-106941952D01*
X145803904Y-106989571D01*
X145756285Y-107084809D01*
G04 #@! TO.C,C7*
X156083333Y-107418142D02*
X156035714Y-107465761D01*
X155892857Y-107513380D01*
X155797619Y-107513380D01*
X155654761Y-107465761D01*
X155559523Y-107370523D01*
X155511904Y-107275285D01*
X155464285Y-107084809D01*
X155464285Y-106941952D01*
X155511904Y-106751476D01*
X155559523Y-106656238D01*
X155654761Y-106561000D01*
X155797619Y-106513380D01*
X155892857Y-106513380D01*
X156035714Y-106561000D01*
X156083333Y-106608619D01*
X156416666Y-106513380D02*
X157083333Y-106513380D01*
X156654761Y-107513380D01*
G04 #@! TO.C,C8*
X189958333Y-109232142D02*
X189910714Y-109279761D01*
X189767857Y-109327380D01*
X189672619Y-109327380D01*
X189529761Y-109279761D01*
X189434523Y-109184523D01*
X189386904Y-109089285D01*
X189339285Y-108898809D01*
X189339285Y-108755952D01*
X189386904Y-108565476D01*
X189434523Y-108470238D01*
X189529761Y-108375000D01*
X189672619Y-108327380D01*
X189767857Y-108327380D01*
X189910714Y-108375000D01*
X189958333Y-108422619D01*
X190529761Y-108755952D02*
X190434523Y-108708333D01*
X190386904Y-108660714D01*
X190339285Y-108565476D01*
X190339285Y-108517857D01*
X190386904Y-108422619D01*
X190434523Y-108375000D01*
X190529761Y-108327380D01*
X190720238Y-108327380D01*
X190815476Y-108375000D01*
X190863095Y-108422619D01*
X190910714Y-108517857D01*
X190910714Y-108565476D01*
X190863095Y-108660714D01*
X190815476Y-108708333D01*
X190720238Y-108755952D01*
X190529761Y-108755952D01*
X190434523Y-108803571D01*
X190386904Y-108851190D01*
X190339285Y-108946428D01*
X190339285Y-109136904D01*
X190386904Y-109232142D01*
X190434523Y-109279761D01*
X190529761Y-109327380D01*
X190720238Y-109327380D01*
X190815476Y-109279761D01*
X190863095Y-109232142D01*
X190910714Y-109136904D01*
X190910714Y-108946428D01*
X190863095Y-108851190D01*
X190815476Y-108803571D01*
X190720238Y-108755952D01*
G04 #@! TO.C,C9*
X198083333Y-99232142D02*
X198035714Y-99279761D01*
X197892857Y-99327380D01*
X197797619Y-99327380D01*
X197654761Y-99279761D01*
X197559523Y-99184523D01*
X197511904Y-99089285D01*
X197464285Y-98898809D01*
X197464285Y-98755952D01*
X197511904Y-98565476D01*
X197559523Y-98470238D01*
X197654761Y-98375000D01*
X197797619Y-98327380D01*
X197892857Y-98327380D01*
X198035714Y-98375000D01*
X198083333Y-98422619D01*
X198559523Y-99327380D02*
X198750000Y-99327380D01*
X198845238Y-99279761D01*
X198892857Y-99232142D01*
X198988095Y-99089285D01*
X199035714Y-98898809D01*
X199035714Y-98517857D01*
X198988095Y-98422619D01*
X198940476Y-98375000D01*
X198845238Y-98327380D01*
X198654761Y-98327380D01*
X198559523Y-98375000D01*
X198511904Y-98422619D01*
X198464285Y-98517857D01*
X198464285Y-98755952D01*
X198511904Y-98851190D01*
X198559523Y-98898809D01*
X198654761Y-98946428D01*
X198845238Y-98946428D01*
X198940476Y-98898809D01*
X198988095Y-98851190D01*
X199035714Y-98755952D01*
G04 #@! TO.C,C10*
X180582142Y-96767857D02*
X180629761Y-96815476D01*
X180677380Y-96958333D01*
X180677380Y-97053571D01*
X180629761Y-97196428D01*
X180534523Y-97291666D01*
X180439285Y-97339285D01*
X180248809Y-97386904D01*
X180105952Y-97386904D01*
X179915476Y-97339285D01*
X179820238Y-97291666D01*
X179725000Y-97196428D01*
X179677380Y-97053571D01*
X179677380Y-96958333D01*
X179725000Y-96815476D01*
X179772619Y-96767857D01*
X180677380Y-95815476D02*
X180677380Y-96386904D01*
X180677380Y-96101190D02*
X179677380Y-96101190D01*
X179820238Y-96196428D01*
X179915476Y-96291666D01*
X179963095Y-96386904D01*
X179677380Y-95196428D02*
X179677380Y-95101190D01*
X179725000Y-95005952D01*
X179772619Y-94958333D01*
X179867857Y-94910714D01*
X180058333Y-94863095D01*
X180296428Y-94863095D01*
X180486904Y-94910714D01*
X180582142Y-94958333D01*
X180629761Y-95005952D01*
X180677380Y-95101190D01*
X180677380Y-95196428D01*
X180629761Y-95291666D01*
X180582142Y-95339285D01*
X180486904Y-95386904D01*
X180296428Y-95434523D01*
X180058333Y-95434523D01*
X179867857Y-95386904D01*
X179772619Y-95339285D01*
X179725000Y-95291666D01*
X179677380Y-95196428D01*
G04 #@! TO.C,C11*
X169918142Y-105640142D02*
X169870523Y-105687761D01*
X169727666Y-105735380D01*
X169632428Y-105735380D01*
X169489571Y-105687761D01*
X169394333Y-105592523D01*
X169346714Y-105497285D01*
X169299095Y-105306809D01*
X169299095Y-105163952D01*
X169346714Y-104973476D01*
X169394333Y-104878238D01*
X169489571Y-104783000D01*
X169632428Y-104735380D01*
X169727666Y-104735380D01*
X169870523Y-104783000D01*
X169918142Y-104830619D01*
X170870523Y-105735380D02*
X170299095Y-105735380D01*
X170584809Y-105735380D02*
X170584809Y-104735380D01*
X170489571Y-104878238D01*
X170394333Y-104973476D01*
X170299095Y-105021095D01*
X171822904Y-105735380D02*
X171251476Y-105735380D01*
X171537190Y-105735380D02*
X171537190Y-104735380D01*
X171441952Y-104878238D01*
X171346714Y-104973476D01*
X171251476Y-105021095D01*
G04 #@! TO.C,C12*
X151249142Y-118594142D02*
X151201523Y-118641761D01*
X151058666Y-118689380D01*
X150963428Y-118689380D01*
X150820571Y-118641761D01*
X150725333Y-118546523D01*
X150677714Y-118451285D01*
X150630095Y-118260809D01*
X150630095Y-118117952D01*
X150677714Y-117927476D01*
X150725333Y-117832238D01*
X150820571Y-117737000D01*
X150963428Y-117689380D01*
X151058666Y-117689380D01*
X151201523Y-117737000D01*
X151249142Y-117784619D01*
X152201523Y-118689380D02*
X151630095Y-118689380D01*
X151915809Y-118689380D02*
X151915809Y-117689380D01*
X151820571Y-117832238D01*
X151725333Y-117927476D01*
X151630095Y-117975095D01*
X152582476Y-117784619D02*
X152630095Y-117737000D01*
X152725333Y-117689380D01*
X152963428Y-117689380D01*
X153058666Y-117737000D01*
X153106285Y-117784619D01*
X153153904Y-117879857D01*
X153153904Y-117975095D01*
X153106285Y-118117952D01*
X152534857Y-118689380D01*
X153153904Y-118689380D01*
G04 #@! TO.C,C13*
X173474142Y-118594142D02*
X173426523Y-118641761D01*
X173283666Y-118689380D01*
X173188428Y-118689380D01*
X173045571Y-118641761D01*
X172950333Y-118546523D01*
X172902714Y-118451285D01*
X172855095Y-118260809D01*
X172855095Y-118117952D01*
X172902714Y-117927476D01*
X172950333Y-117832238D01*
X173045571Y-117737000D01*
X173188428Y-117689380D01*
X173283666Y-117689380D01*
X173426523Y-117737000D01*
X173474142Y-117784619D01*
X174426523Y-118689380D02*
X173855095Y-118689380D01*
X174140809Y-118689380D02*
X174140809Y-117689380D01*
X174045571Y-117832238D01*
X173950333Y-117927476D01*
X173855095Y-117975095D01*
X174759857Y-117689380D02*
X175378904Y-117689380D01*
X175045571Y-118070333D01*
X175188428Y-118070333D01*
X175283666Y-118117952D01*
X175331285Y-118165571D01*
X175378904Y-118260809D01*
X175378904Y-118498904D01*
X175331285Y-118594142D01*
X175283666Y-118641761D01*
X175188428Y-118689380D01*
X174902714Y-118689380D01*
X174807476Y-118641761D01*
X174759857Y-118594142D01*
G04 #@! TO.C,D1*
X193452380Y-113738095D02*
X192452380Y-113738095D01*
X192452380Y-113500000D01*
X192500000Y-113357142D01*
X192595238Y-113261904D01*
X192690476Y-113214285D01*
X192880952Y-113166666D01*
X193023809Y-113166666D01*
X193214285Y-113214285D01*
X193309523Y-113261904D01*
X193404761Y-113357142D01*
X193452380Y-113500000D01*
X193452380Y-113738095D01*
X193452380Y-112214285D02*
X193452380Y-112785714D01*
X193452380Y-112500000D02*
X192452380Y-112500000D01*
X192595238Y-112595238D01*
X192690476Y-112690476D01*
X192738095Y-112785714D01*
G04 #@! TO.C,D2*
X189452380Y-113738095D02*
X188452380Y-113738095D01*
X188452380Y-113500000D01*
X188500000Y-113357142D01*
X188595238Y-113261904D01*
X188690476Y-113214285D01*
X188880952Y-113166666D01*
X189023809Y-113166666D01*
X189214285Y-113214285D01*
X189309523Y-113261904D01*
X189404761Y-113357142D01*
X189452380Y-113500000D01*
X189452380Y-113738095D01*
X188547619Y-112785714D02*
X188500000Y-112738095D01*
X188452380Y-112642857D01*
X188452380Y-112404761D01*
X188500000Y-112309523D01*
X188547619Y-112261904D01*
X188642857Y-112214285D01*
X188738095Y-112214285D01*
X188880952Y-112261904D01*
X189452380Y-112833333D01*
X189452380Y-112214285D01*
G04 #@! TO.C,D3*
X185452380Y-113738095D02*
X184452380Y-113738095D01*
X184452380Y-113500000D01*
X184500000Y-113357142D01*
X184595238Y-113261904D01*
X184690476Y-113214285D01*
X184880952Y-113166666D01*
X185023809Y-113166666D01*
X185214285Y-113214285D01*
X185309523Y-113261904D01*
X185404761Y-113357142D01*
X185452380Y-113500000D01*
X185452380Y-113738095D01*
X184452380Y-112833333D02*
X184452380Y-112214285D01*
X184833333Y-112547619D01*
X184833333Y-112404761D01*
X184880952Y-112309523D01*
X184928571Y-112261904D01*
X185023809Y-112214285D01*
X185261904Y-112214285D01*
X185357142Y-112261904D01*
X185404761Y-112309523D01*
X185452380Y-112404761D01*
X185452380Y-112690476D01*
X185404761Y-112785714D01*
X185357142Y-112833333D01*
G04 #@! TO.C,D4*
X181761904Y-65652380D02*
X181761904Y-64652380D01*
X182000000Y-64652380D01*
X182142857Y-64700000D01*
X182238095Y-64795238D01*
X182285714Y-64890476D01*
X182333333Y-65080952D01*
X182333333Y-65223809D01*
X182285714Y-65414285D01*
X182238095Y-65509523D01*
X182142857Y-65604761D01*
X182000000Y-65652380D01*
X181761904Y-65652380D01*
X183190476Y-64985714D02*
X183190476Y-65652380D01*
X182952380Y-64604761D02*
X182714285Y-65319047D01*
X183333333Y-65319047D01*
G04 #@! TO.C,D5*
X181761904Y-77252380D02*
X181761904Y-76252380D01*
X182000000Y-76252380D01*
X182142857Y-76300000D01*
X182238095Y-76395238D01*
X182285714Y-76490476D01*
X182333333Y-76680952D01*
X182333333Y-76823809D01*
X182285714Y-77014285D01*
X182238095Y-77109523D01*
X182142857Y-77204761D01*
X182000000Y-77252380D01*
X181761904Y-77252380D01*
X183238095Y-76252380D02*
X182761904Y-76252380D01*
X182714285Y-76728571D01*
X182761904Y-76680952D01*
X182857142Y-76633333D01*
X183095238Y-76633333D01*
X183190476Y-76680952D01*
X183238095Y-76728571D01*
X183285714Y-76823809D01*
X183285714Y-77061904D01*
X183238095Y-77157142D01*
X183190476Y-77204761D01*
X183095238Y-77252380D01*
X182857142Y-77252380D01*
X182761904Y-77204761D01*
X182714285Y-77157142D01*
G04 #@! TO.C,H1*
X172088095Y-66752380D02*
X172088095Y-65752380D01*
X172088095Y-66228571D02*
X172659523Y-66228571D01*
X172659523Y-66752380D02*
X172659523Y-65752380D01*
X173659523Y-66752380D02*
X173088095Y-66752380D01*
X173373809Y-66752380D02*
X173373809Y-65752380D01*
X173278571Y-65895238D01*
X173183333Y-65990476D01*
X173088095Y-66038095D01*
G04 #@! TO.C,H2*
X172212095Y-97226380D02*
X172212095Y-96226380D01*
X172212095Y-96702571D02*
X172783523Y-96702571D01*
X172783523Y-97226380D02*
X172783523Y-96226380D01*
X173212095Y-96321619D02*
X173259714Y-96274000D01*
X173354952Y-96226380D01*
X173593047Y-96226380D01*
X173688285Y-96274000D01*
X173735904Y-96321619D01*
X173783523Y-96416857D01*
X173783523Y-96512095D01*
X173735904Y-96654952D01*
X173164476Y-97226380D01*
X173783523Y-97226380D01*
G04 #@! TO.C,H3*
X151638095Y-97226380D02*
X151638095Y-96226380D01*
X151638095Y-96702571D02*
X152209523Y-96702571D01*
X152209523Y-97226380D02*
X152209523Y-96226380D01*
X152590476Y-96226380D02*
X153209523Y-96226380D01*
X152876190Y-96607333D01*
X153019047Y-96607333D01*
X153114285Y-96654952D01*
X153161904Y-96702571D01*
X153209523Y-96797809D01*
X153209523Y-97035904D01*
X153161904Y-97131142D01*
X153114285Y-97178761D01*
X153019047Y-97226380D01*
X152733333Y-97226380D01*
X152638095Y-97178761D01*
X152590476Y-97131142D01*
G04 #@! TO.C,H4*
X151388095Y-66752380D02*
X151388095Y-65752380D01*
X151388095Y-66228571D02*
X151959523Y-66228571D01*
X151959523Y-66752380D02*
X151959523Y-65752380D01*
X152864285Y-66085714D02*
X152864285Y-66752380D01*
X152626190Y-65704761D02*
X152388095Y-66419047D01*
X153007142Y-66419047D01*
G04 #@! TO.C,H7*
X190238095Y-52702380D02*
X190238095Y-51702380D01*
X190238095Y-52178571D02*
X190809523Y-52178571D01*
X190809523Y-52702380D02*
X190809523Y-51702380D01*
X191190476Y-51702380D02*
X191857142Y-51702380D01*
X191428571Y-52702380D01*
G04 #@! TO.C,H8*
X194238095Y-121452380D02*
X194238095Y-120452380D01*
X194238095Y-120928571D02*
X194809523Y-120928571D01*
X194809523Y-121452380D02*
X194809523Y-120452380D01*
X195428571Y-120880952D02*
X195333333Y-120833333D01*
X195285714Y-120785714D01*
X195238095Y-120690476D01*
X195238095Y-120642857D01*
X195285714Y-120547619D01*
X195333333Y-120500000D01*
X195428571Y-120452380D01*
X195619047Y-120452380D01*
X195714285Y-120500000D01*
X195761904Y-120547619D01*
X195809523Y-120642857D01*
X195809523Y-120690476D01*
X195761904Y-120785714D01*
X195714285Y-120833333D01*
X195619047Y-120880952D01*
X195428571Y-120880952D01*
X195333333Y-120928571D01*
X195285714Y-120976190D01*
X195238095Y-121071428D01*
X195238095Y-121261904D01*
X195285714Y-121357142D01*
X195333333Y-121404761D01*
X195428571Y-121452380D01*
X195619047Y-121452380D01*
X195714285Y-121404761D01*
X195761904Y-121357142D01*
X195809523Y-121261904D01*
X195809523Y-121071428D01*
X195761904Y-120976190D01*
X195714285Y-120928571D01*
X195619047Y-120880952D01*
G04 #@! TO.C,H9*
X107738095Y-128452380D02*
X107738095Y-127452380D01*
X107738095Y-127928571D02*
X108309523Y-127928571D01*
X108309523Y-128452380D02*
X108309523Y-127452380D01*
X108833333Y-128452380D02*
X109023809Y-128452380D01*
X109119047Y-128404761D01*
X109166666Y-128357142D01*
X109261904Y-128214285D01*
X109309523Y-128023809D01*
X109309523Y-127642857D01*
X109261904Y-127547619D01*
X109214285Y-127500000D01*
X109119047Y-127452380D01*
X108928571Y-127452380D01*
X108833333Y-127500000D01*
X108785714Y-127547619D01*
X108738095Y-127642857D01*
X108738095Y-127880952D01*
X108785714Y-127976190D01*
X108833333Y-128023809D01*
X108928571Y-128071428D01*
X109119047Y-128071428D01*
X109214285Y-128023809D01*
X109261904Y-127976190D01*
X109309523Y-127880952D01*
G04 #@! TO.C,H10*
X108261904Y-57452380D02*
X108261904Y-56452380D01*
X108261904Y-56928571D02*
X108833333Y-56928571D01*
X108833333Y-57452380D02*
X108833333Y-56452380D01*
X109833333Y-57452380D02*
X109261904Y-57452380D01*
X109547619Y-57452380D02*
X109547619Y-56452380D01*
X109452380Y-56595238D01*
X109357142Y-56690476D01*
X109261904Y-56738095D01*
X110452380Y-56452380D02*
X110547619Y-56452380D01*
X110642857Y-56500000D01*
X110690476Y-56547619D01*
X110738095Y-56642857D01*
X110785714Y-56833333D01*
X110785714Y-57071428D01*
X110738095Y-57261904D01*
X110690476Y-57357142D01*
X110642857Y-57404761D01*
X110547619Y-57452380D01*
X110452380Y-57452380D01*
X110357142Y-57404761D01*
X110309523Y-57357142D01*
X110261904Y-57261904D01*
X110214285Y-57071428D01*
X110214285Y-56833333D01*
X110261904Y-56642857D01*
X110309523Y-56547619D01*
X110357142Y-56500000D01*
X110452380Y-56452380D01*
G04 #@! TO.C,J2*
X197702380Y-59083333D02*
X198416666Y-59083333D01*
X198559523Y-59130952D01*
X198654761Y-59226190D01*
X198702380Y-59369047D01*
X198702380Y-59464285D01*
X197797619Y-58654761D02*
X197750000Y-58607142D01*
X197702380Y-58511904D01*
X197702380Y-58273809D01*
X197750000Y-58178571D01*
X197797619Y-58130952D01*
X197892857Y-58083333D01*
X197988095Y-58083333D01*
X198130952Y-58130952D01*
X198702380Y-58702380D01*
X198702380Y-58083333D01*
G04 #@! TO.C,Q3*
X151796761Y-57443619D02*
X151701523Y-57396000D01*
X151606285Y-57300761D01*
X151463428Y-57157904D01*
X151368190Y-57110285D01*
X151272952Y-57110285D01*
X151320571Y-57348380D02*
X151225333Y-57300761D01*
X151130095Y-57205523D01*
X151082476Y-57015047D01*
X151082476Y-56681714D01*
X151130095Y-56491238D01*
X151225333Y-56396000D01*
X151320571Y-56348380D01*
X151511047Y-56348380D01*
X151606285Y-56396000D01*
X151701523Y-56491238D01*
X151749142Y-56681714D01*
X151749142Y-57015047D01*
X151701523Y-57205523D01*
X151606285Y-57300761D01*
X151511047Y-57348380D01*
X151320571Y-57348380D01*
X152082476Y-56348380D02*
X152701523Y-56348380D01*
X152368190Y-56729333D01*
X152511047Y-56729333D01*
X152606285Y-56776952D01*
X152653904Y-56824571D01*
X152701523Y-56919809D01*
X152701523Y-57157904D01*
X152653904Y-57253142D01*
X152606285Y-57300761D01*
X152511047Y-57348380D01*
X152225333Y-57348380D01*
X152130095Y-57300761D01*
X152082476Y-57253142D01*
G04 #@! TO.C,R1*
X117833333Y-69452380D02*
X117500000Y-68976190D01*
X117261904Y-69452380D02*
X117261904Y-68452380D01*
X117642857Y-68452380D01*
X117738095Y-68500000D01*
X117785714Y-68547619D01*
X117833333Y-68642857D01*
X117833333Y-68785714D01*
X117785714Y-68880952D01*
X117738095Y-68928571D01*
X117642857Y-68976190D01*
X117261904Y-68976190D01*
X118785714Y-69452380D02*
X118214285Y-69452380D01*
X118500000Y-69452380D02*
X118500000Y-68452380D01*
X118404761Y-68595238D01*
X118309523Y-68690476D01*
X118214285Y-68738095D01*
G04 #@! TO.C,R2*
X124583333Y-69452380D02*
X124250000Y-68976190D01*
X124011904Y-69452380D02*
X124011904Y-68452380D01*
X124392857Y-68452380D01*
X124488095Y-68500000D01*
X124535714Y-68547619D01*
X124583333Y-68642857D01*
X124583333Y-68785714D01*
X124535714Y-68880952D01*
X124488095Y-68928571D01*
X124392857Y-68976190D01*
X124011904Y-68976190D01*
X124964285Y-68547619D02*
X125011904Y-68500000D01*
X125107142Y-68452380D01*
X125345238Y-68452380D01*
X125440476Y-68500000D01*
X125488095Y-68547619D01*
X125535714Y-68642857D01*
X125535714Y-68738095D01*
X125488095Y-68880952D01*
X124916666Y-69452380D01*
X125535714Y-69452380D01*
G04 #@! TO.C,R4*
X145933333Y-88352380D02*
X145600000Y-87876190D01*
X145361904Y-88352380D02*
X145361904Y-87352380D01*
X145742857Y-87352380D01*
X145838095Y-87400000D01*
X145885714Y-87447619D01*
X145933333Y-87542857D01*
X145933333Y-87685714D01*
X145885714Y-87780952D01*
X145838095Y-87828571D01*
X145742857Y-87876190D01*
X145361904Y-87876190D01*
X146790476Y-87685714D02*
X146790476Y-88352380D01*
X146552380Y-87304761D02*
X146314285Y-88019047D01*
X146933333Y-88019047D01*
G04 #@! TO.C,R5*
X196333333Y-88202380D02*
X196000000Y-87726190D01*
X195761904Y-88202380D02*
X195761904Y-87202380D01*
X196142857Y-87202380D01*
X196238095Y-87250000D01*
X196285714Y-87297619D01*
X196333333Y-87392857D01*
X196333333Y-87535714D01*
X196285714Y-87630952D01*
X196238095Y-87678571D01*
X196142857Y-87726190D01*
X195761904Y-87726190D01*
X197238095Y-87202380D02*
X196761904Y-87202380D01*
X196714285Y-87678571D01*
X196761904Y-87630952D01*
X196857142Y-87583333D01*
X197095238Y-87583333D01*
X197190476Y-87630952D01*
X197238095Y-87678571D01*
X197285714Y-87773809D01*
X197285714Y-88011904D01*
X197238095Y-88107142D01*
X197190476Y-88154761D01*
X197095238Y-88202380D01*
X196857142Y-88202380D01*
X196761904Y-88154761D01*
X196714285Y-88107142D01*
G04 #@! TO.C,R6*
X180452380Y-91416666D02*
X179976190Y-91750000D01*
X180452380Y-91988095D02*
X179452380Y-91988095D01*
X179452380Y-91607142D01*
X179500000Y-91511904D01*
X179547619Y-91464285D01*
X179642857Y-91416666D01*
X179785714Y-91416666D01*
X179880952Y-91464285D01*
X179928571Y-91511904D01*
X179976190Y-91607142D01*
X179976190Y-91988095D01*
X179452380Y-90559523D02*
X179452380Y-90750000D01*
X179500000Y-90845238D01*
X179547619Y-90892857D01*
X179690476Y-90988095D01*
X179880952Y-91035714D01*
X180261904Y-91035714D01*
X180357142Y-90988095D01*
X180404761Y-90940476D01*
X180452380Y-90845238D01*
X180452380Y-90654761D01*
X180404761Y-90559523D01*
X180357142Y-90511904D01*
X180261904Y-90464285D01*
X180023809Y-90464285D01*
X179928571Y-90511904D01*
X179880952Y-90559523D01*
X179833333Y-90654761D01*
X179833333Y-90845238D01*
X179880952Y-90940476D01*
X179928571Y-90988095D01*
X180023809Y-91035714D01*
G04 #@! TO.C,R7*
X191452380Y-122166666D02*
X190976190Y-122500000D01*
X191452380Y-122738095D02*
X190452380Y-122738095D01*
X190452380Y-122357142D01*
X190500000Y-122261904D01*
X190547619Y-122214285D01*
X190642857Y-122166666D01*
X190785714Y-122166666D01*
X190880952Y-122214285D01*
X190928571Y-122261904D01*
X190976190Y-122357142D01*
X190976190Y-122738095D01*
X190452380Y-121833333D02*
X190452380Y-121166666D01*
X191452380Y-121595238D01*
G04 #@! TO.C,R8*
X187452380Y-122166666D02*
X186976190Y-122500000D01*
X187452380Y-122738095D02*
X186452380Y-122738095D01*
X186452380Y-122357142D01*
X186500000Y-122261904D01*
X186547619Y-122214285D01*
X186642857Y-122166666D01*
X186785714Y-122166666D01*
X186880952Y-122214285D01*
X186928571Y-122261904D01*
X186976190Y-122357142D01*
X186976190Y-122738095D01*
X186880952Y-121595238D02*
X186833333Y-121690476D01*
X186785714Y-121738095D01*
X186690476Y-121785714D01*
X186642857Y-121785714D01*
X186547619Y-121738095D01*
X186500000Y-121690476D01*
X186452380Y-121595238D01*
X186452380Y-121404761D01*
X186500000Y-121309523D01*
X186547619Y-121261904D01*
X186642857Y-121214285D01*
X186690476Y-121214285D01*
X186785714Y-121261904D01*
X186833333Y-121309523D01*
X186880952Y-121404761D01*
X186880952Y-121595238D01*
X186928571Y-121690476D01*
X186976190Y-121738095D01*
X187071428Y-121785714D01*
X187261904Y-121785714D01*
X187357142Y-121738095D01*
X187404761Y-121690476D01*
X187452380Y-121595238D01*
X187452380Y-121404761D01*
X187404761Y-121309523D01*
X187357142Y-121261904D01*
X187261904Y-121214285D01*
X187071428Y-121214285D01*
X186976190Y-121261904D01*
X186928571Y-121309523D01*
X186880952Y-121404761D01*
G04 #@! TO.C,R9*
X183452380Y-122166666D02*
X182976190Y-122500000D01*
X183452380Y-122738095D02*
X182452380Y-122738095D01*
X182452380Y-122357142D01*
X182500000Y-122261904D01*
X182547619Y-122214285D01*
X182642857Y-122166666D01*
X182785714Y-122166666D01*
X182880952Y-122214285D01*
X182928571Y-122261904D01*
X182976190Y-122357142D01*
X182976190Y-122738095D01*
X183452380Y-121690476D02*
X183452380Y-121500000D01*
X183404761Y-121404761D01*
X183357142Y-121357142D01*
X183214285Y-121261904D01*
X183023809Y-121214285D01*
X182642857Y-121214285D01*
X182547619Y-121261904D01*
X182500000Y-121309523D01*
X182452380Y-121404761D01*
X182452380Y-121595238D01*
X182500000Y-121690476D01*
X182547619Y-121738095D01*
X182642857Y-121785714D01*
X182880952Y-121785714D01*
X182976190Y-121738095D01*
X183023809Y-121690476D01*
X183071428Y-121595238D01*
X183071428Y-121404761D01*
X183023809Y-121309523D01*
X182976190Y-121261904D01*
X182880952Y-121214285D01*
G04 #@! TO.C,R10*
X181457142Y-63352380D02*
X181123809Y-62876190D01*
X180885714Y-63352380D02*
X180885714Y-62352380D01*
X181266666Y-62352380D01*
X181361904Y-62400000D01*
X181409523Y-62447619D01*
X181457142Y-62542857D01*
X181457142Y-62685714D01*
X181409523Y-62780952D01*
X181361904Y-62828571D01*
X181266666Y-62876190D01*
X180885714Y-62876190D01*
X182409523Y-63352380D02*
X181838095Y-63352380D01*
X182123809Y-63352380D02*
X182123809Y-62352380D01*
X182028571Y-62495238D01*
X181933333Y-62590476D01*
X181838095Y-62638095D01*
X183028571Y-62352380D02*
X183123809Y-62352380D01*
X183219047Y-62400000D01*
X183266666Y-62447619D01*
X183314285Y-62542857D01*
X183361904Y-62733333D01*
X183361904Y-62971428D01*
X183314285Y-63161904D01*
X183266666Y-63257142D01*
X183219047Y-63304761D01*
X183123809Y-63352380D01*
X183028571Y-63352380D01*
X182933333Y-63304761D01*
X182885714Y-63257142D01*
X182838095Y-63161904D01*
X182790476Y-62971428D01*
X182790476Y-62733333D01*
X182838095Y-62542857D01*
X182885714Y-62447619D01*
X182933333Y-62400000D01*
X183028571Y-62352380D01*
G04 #@! TO.C,R11*
X181657142Y-74652380D02*
X181323809Y-74176190D01*
X181085714Y-74652380D02*
X181085714Y-73652380D01*
X181466666Y-73652380D01*
X181561904Y-73700000D01*
X181609523Y-73747619D01*
X181657142Y-73842857D01*
X181657142Y-73985714D01*
X181609523Y-74080952D01*
X181561904Y-74128571D01*
X181466666Y-74176190D01*
X181085714Y-74176190D01*
X182609523Y-74652380D02*
X182038095Y-74652380D01*
X182323809Y-74652380D02*
X182323809Y-73652380D01*
X182228571Y-73795238D01*
X182133333Y-73890476D01*
X182038095Y-73938095D01*
X183561904Y-74652380D02*
X182990476Y-74652380D01*
X183276190Y-74652380D02*
X183276190Y-73652380D01*
X183180952Y-73795238D01*
X183085714Y-73890476D01*
X182990476Y-73938095D01*
G04 #@! TO.C,R12*
X154043142Y-63190380D02*
X153709809Y-62714190D01*
X153471714Y-63190380D02*
X153471714Y-62190380D01*
X153852666Y-62190380D01*
X153947904Y-62238000D01*
X153995523Y-62285619D01*
X154043142Y-62380857D01*
X154043142Y-62523714D01*
X153995523Y-62618952D01*
X153947904Y-62666571D01*
X153852666Y-62714190D01*
X153471714Y-62714190D01*
X154995523Y-63190380D02*
X154424095Y-63190380D01*
X154709809Y-63190380D02*
X154709809Y-62190380D01*
X154614571Y-62333238D01*
X154519333Y-62428476D01*
X154424095Y-62476095D01*
X155376476Y-62285619D02*
X155424095Y-62238000D01*
X155519333Y-62190380D01*
X155757428Y-62190380D01*
X155852666Y-62238000D01*
X155900285Y-62285619D01*
X155947904Y-62380857D01*
X155947904Y-62476095D01*
X155900285Y-62618952D01*
X155328857Y-63190380D01*
X155947904Y-63190380D01*
G04 #@! TO.C,R15*
X154043142Y-52014380D02*
X153709809Y-51538190D01*
X153471714Y-52014380D02*
X153471714Y-51014380D01*
X153852666Y-51014380D01*
X153947904Y-51062000D01*
X153995523Y-51109619D01*
X154043142Y-51204857D01*
X154043142Y-51347714D01*
X153995523Y-51442952D01*
X153947904Y-51490571D01*
X153852666Y-51538190D01*
X153471714Y-51538190D01*
X154995523Y-52014380D02*
X154424095Y-52014380D01*
X154709809Y-52014380D02*
X154709809Y-51014380D01*
X154614571Y-51157238D01*
X154519333Y-51252476D01*
X154424095Y-51300095D01*
X155900285Y-51014380D02*
X155424095Y-51014380D01*
X155376476Y-51490571D01*
X155424095Y-51442952D01*
X155519333Y-51395333D01*
X155757428Y-51395333D01*
X155852666Y-51442952D01*
X155900285Y-51490571D01*
X155947904Y-51585809D01*
X155947904Y-51823904D01*
X155900285Y-51919142D01*
X155852666Y-51966761D01*
X155757428Y-52014380D01*
X155519333Y-52014380D01*
X155424095Y-51966761D01*
X155376476Y-51919142D01*
G04 #@! TO.C,SW2*
X160845666Y-127912761D02*
X160988523Y-127960380D01*
X161226619Y-127960380D01*
X161321857Y-127912761D01*
X161369476Y-127865142D01*
X161417095Y-127769904D01*
X161417095Y-127674666D01*
X161369476Y-127579428D01*
X161321857Y-127531809D01*
X161226619Y-127484190D01*
X161036142Y-127436571D01*
X160940904Y-127388952D01*
X160893285Y-127341333D01*
X160845666Y-127246095D01*
X160845666Y-127150857D01*
X160893285Y-127055619D01*
X160940904Y-127008000D01*
X161036142Y-126960380D01*
X161274238Y-126960380D01*
X161417095Y-127008000D01*
X161750428Y-126960380D02*
X161988523Y-127960380D01*
X162179000Y-127246095D01*
X162369476Y-127960380D01*
X162607571Y-126960380D01*
X162940904Y-127055619D02*
X162988523Y-127008000D01*
X163083761Y-126960380D01*
X163321857Y-126960380D01*
X163417095Y-127008000D01*
X163464714Y-127055619D01*
X163512333Y-127150857D01*
X163512333Y-127246095D01*
X163464714Y-127388952D01*
X162893285Y-127960380D01*
X163512333Y-127960380D01*
G04 #@! TO.C,SW3*
X151701666Y-107904761D02*
X151844523Y-107952380D01*
X152082619Y-107952380D01*
X152177857Y-107904761D01*
X152225476Y-107857142D01*
X152273095Y-107761904D01*
X152273095Y-107666666D01*
X152225476Y-107571428D01*
X152177857Y-107523809D01*
X152082619Y-107476190D01*
X151892142Y-107428571D01*
X151796904Y-107380952D01*
X151749285Y-107333333D01*
X151701666Y-107238095D01*
X151701666Y-107142857D01*
X151749285Y-107047619D01*
X151796904Y-107000000D01*
X151892142Y-106952380D01*
X152130238Y-106952380D01*
X152273095Y-107000000D01*
X152606428Y-106952380D02*
X152844523Y-107952380D01*
X153035000Y-107238095D01*
X153225476Y-107952380D01*
X153463571Y-106952380D01*
X153749285Y-106952380D02*
X154368333Y-106952380D01*
X154035000Y-107333333D01*
X154177857Y-107333333D01*
X154273095Y-107380952D01*
X154320714Y-107428571D01*
X154368333Y-107523809D01*
X154368333Y-107761904D01*
X154320714Y-107857142D01*
X154273095Y-107904761D01*
X154177857Y-107952380D01*
X153892142Y-107952380D01*
X153796904Y-107904761D01*
X153749285Y-107857142D01*
G04 #@! TO.C,SW4*
X162166666Y-107404761D02*
X162309523Y-107452380D01*
X162547619Y-107452380D01*
X162642857Y-107404761D01*
X162690476Y-107357142D01*
X162738095Y-107261904D01*
X162738095Y-107166666D01*
X162690476Y-107071428D01*
X162642857Y-107023809D01*
X162547619Y-106976190D01*
X162357142Y-106928571D01*
X162261904Y-106880952D01*
X162214285Y-106833333D01*
X162166666Y-106738095D01*
X162166666Y-106642857D01*
X162214285Y-106547619D01*
X162261904Y-106500000D01*
X162357142Y-106452380D01*
X162595238Y-106452380D01*
X162738095Y-106500000D01*
X163071428Y-106452380D02*
X163309523Y-107452380D01*
X163500000Y-106738095D01*
X163690476Y-107452380D01*
X163928571Y-106452380D01*
X164738095Y-106785714D02*
X164738095Y-107452380D01*
X164500000Y-106404761D02*
X164261904Y-107119047D01*
X164880952Y-107119047D01*
G04 #@! TO.C,SW6*
X174434666Y-107719761D02*
X174577523Y-107767380D01*
X174815619Y-107767380D01*
X174910857Y-107719761D01*
X174958476Y-107672142D01*
X175006095Y-107576904D01*
X175006095Y-107481666D01*
X174958476Y-107386428D01*
X174910857Y-107338809D01*
X174815619Y-107291190D01*
X174625142Y-107243571D01*
X174529904Y-107195952D01*
X174482285Y-107148333D01*
X174434666Y-107053095D01*
X174434666Y-106957857D01*
X174482285Y-106862619D01*
X174529904Y-106815000D01*
X174625142Y-106767380D01*
X174863238Y-106767380D01*
X175006095Y-106815000D01*
X175339428Y-106767380D02*
X175577523Y-107767380D01*
X175768000Y-107053095D01*
X175958476Y-107767380D01*
X176196571Y-106767380D01*
X177006095Y-106767380D02*
X176815619Y-106767380D01*
X176720380Y-106815000D01*
X176672761Y-106862619D01*
X176577523Y-107005476D01*
X176529904Y-107195952D01*
X176529904Y-107576904D01*
X176577523Y-107672142D01*
X176625142Y-107719761D01*
X176720380Y-107767380D01*
X176910857Y-107767380D01*
X177006095Y-107719761D01*
X177053714Y-107672142D01*
X177101333Y-107576904D01*
X177101333Y-107338809D01*
X177053714Y-107243571D01*
X177006095Y-107195952D01*
X176910857Y-107148333D01*
X176720380Y-107148333D01*
X176625142Y-107195952D01*
X176577523Y-107243571D01*
X176529904Y-107338809D01*
G04 #@! TO.C,SW7*
X149923666Y-127912761D02*
X150066523Y-127960380D01*
X150304619Y-127960380D01*
X150399857Y-127912761D01*
X150447476Y-127865142D01*
X150495095Y-127769904D01*
X150495095Y-127674666D01*
X150447476Y-127579428D01*
X150399857Y-127531809D01*
X150304619Y-127484190D01*
X150114142Y-127436571D01*
X150018904Y-127388952D01*
X149971285Y-127341333D01*
X149923666Y-127246095D01*
X149923666Y-127150857D01*
X149971285Y-127055619D01*
X150018904Y-127008000D01*
X150114142Y-126960380D01*
X150352238Y-126960380D01*
X150495095Y-127008000D01*
X150828428Y-126960380D02*
X151066523Y-127960380D01*
X151257000Y-127246095D01*
X151447476Y-127960380D01*
X151685571Y-126960380D01*
X151971285Y-126960380D02*
X152637952Y-126960380D01*
X152209380Y-127960380D01*
G04 #@! TO.C,SW8*
X172148666Y-127912761D02*
X172291523Y-127960380D01*
X172529619Y-127960380D01*
X172624857Y-127912761D01*
X172672476Y-127865142D01*
X172720095Y-127769904D01*
X172720095Y-127674666D01*
X172672476Y-127579428D01*
X172624857Y-127531809D01*
X172529619Y-127484190D01*
X172339142Y-127436571D01*
X172243904Y-127388952D01*
X172196285Y-127341333D01*
X172148666Y-127246095D01*
X172148666Y-127150857D01*
X172196285Y-127055619D01*
X172243904Y-127008000D01*
X172339142Y-126960380D01*
X172577238Y-126960380D01*
X172720095Y-127008000D01*
X173053428Y-126960380D02*
X173291523Y-127960380D01*
X173482000Y-127246095D01*
X173672476Y-127960380D01*
X173910571Y-126960380D01*
X174434380Y-127388952D02*
X174339142Y-127341333D01*
X174291523Y-127293714D01*
X174243904Y-127198476D01*
X174243904Y-127150857D01*
X174291523Y-127055619D01*
X174339142Y-127008000D01*
X174434380Y-126960380D01*
X174624857Y-126960380D01*
X174720095Y-127008000D01*
X174767714Y-127055619D01*
X174815333Y-127150857D01*
X174815333Y-127198476D01*
X174767714Y-127293714D01*
X174720095Y-127341333D01*
X174624857Y-127388952D01*
X174434380Y-127388952D01*
X174339142Y-127436571D01*
X174291523Y-127484190D01*
X174243904Y-127579428D01*
X174243904Y-127769904D01*
X174291523Y-127865142D01*
X174339142Y-127912761D01*
X174434380Y-127960380D01*
X174624857Y-127960380D01*
X174720095Y-127912761D01*
X174767714Y-127865142D01*
X174815333Y-127769904D01*
X174815333Y-127579428D01*
X174767714Y-127484190D01*
X174720095Y-127436571D01*
X174624857Y-127388952D01*
G04 #@! TO.C,U1*
X162238095Y-66202380D02*
X162238095Y-67011904D01*
X162285714Y-67107142D01*
X162333333Y-67154761D01*
X162428571Y-67202380D01*
X162619047Y-67202380D01*
X162714285Y-67154761D01*
X162761904Y-67107142D01*
X162809523Y-67011904D01*
X162809523Y-66202380D01*
X163809523Y-67202380D02*
X163238095Y-67202380D01*
X163523809Y-67202380D02*
X163523809Y-66202380D01*
X163428571Y-66345238D01*
X163333333Y-66440476D01*
X163238095Y-66488095D01*
G04 #@! TO.C,U2*
X124638095Y-56852380D02*
X124638095Y-57661904D01*
X124685714Y-57757142D01*
X124733333Y-57804761D01*
X124828571Y-57852380D01*
X125019047Y-57852380D01*
X125114285Y-57804761D01*
X125161904Y-57757142D01*
X125209523Y-57661904D01*
X125209523Y-56852380D01*
X125638095Y-56947619D02*
X125685714Y-56900000D01*
X125780952Y-56852380D01*
X126019047Y-56852380D01*
X126114285Y-56900000D01*
X126161904Y-56947619D01*
X126209523Y-57042857D01*
X126209523Y-57138095D01*
X126161904Y-57280952D01*
X125590476Y-57852380D01*
X126209523Y-57852380D01*
G04 #@! TO.C,U3*
X133488095Y-100702380D02*
X133488095Y-101511904D01*
X133535714Y-101607142D01*
X133583333Y-101654761D01*
X133678571Y-101702380D01*
X133869047Y-101702380D01*
X133964285Y-101654761D01*
X134011904Y-101607142D01*
X134059523Y-101511904D01*
X134059523Y-100702380D01*
X134440476Y-100702380D02*
X135059523Y-100702380D01*
X134726190Y-101083333D01*
X134869047Y-101083333D01*
X134964285Y-101130952D01*
X135011904Y-101178571D01*
X135059523Y-101273809D01*
X135059523Y-101511904D01*
X135011904Y-101607142D01*
X134964285Y-101654761D01*
X134869047Y-101702380D01*
X134583333Y-101702380D01*
X134488095Y-101654761D01*
X134440476Y-101607142D01*
G04 #@! TO.C,U4*
X115988095Y-87702380D02*
X115988095Y-88511904D01*
X116035714Y-88607142D01*
X116083333Y-88654761D01*
X116178571Y-88702380D01*
X116369047Y-88702380D01*
X116464285Y-88654761D01*
X116511904Y-88607142D01*
X116559523Y-88511904D01*
X116559523Y-87702380D01*
X117464285Y-88035714D02*
X117464285Y-88702380D01*
X117226190Y-87654761D02*
X116988095Y-88369047D01*
X117607142Y-88369047D01*
G04 #@! TO.C,U5*
X170648380Y-82803904D02*
X171457904Y-82803904D01*
X171553142Y-82756285D01*
X171600761Y-82708666D01*
X171648380Y-82613428D01*
X171648380Y-82422952D01*
X171600761Y-82327714D01*
X171553142Y-82280095D01*
X171457904Y-82232476D01*
X170648380Y-82232476D01*
X170648380Y-81280095D02*
X170648380Y-81756285D01*
X171124571Y-81803904D01*
X171076952Y-81756285D01*
X171029333Y-81661047D01*
X171029333Y-81422952D01*
X171076952Y-81327714D01*
X171124571Y-81280095D01*
X171219809Y-81232476D01*
X171457904Y-81232476D01*
X171553142Y-81280095D01*
X171600761Y-81327714D01*
X171648380Y-81422952D01*
X171648380Y-81661047D01*
X171600761Y-81756285D01*
X171553142Y-81803904D01*
G04 #@! TO.C,J3*
X197702380Y-83833333D02*
X198416666Y-83833333D01*
X198559523Y-83880952D01*
X198654761Y-83976190D01*
X198702380Y-84119047D01*
X198702380Y-84214285D01*
X197702380Y-83452380D02*
X197702380Y-82833333D01*
X198083333Y-83166666D01*
X198083333Y-83023809D01*
X198130952Y-82928571D01*
X198178571Y-82880952D01*
X198273809Y-82833333D01*
X198511904Y-82833333D01*
X198607142Y-82880952D01*
X198654761Y-82928571D01*
X198702380Y-83023809D01*
X198702380Y-83309523D01*
X198654761Y-83404761D01*
X198607142Y-83452380D01*
G04 #@! TO.C,JP3*
X145066666Y-84152380D02*
X145066666Y-84866666D01*
X145019047Y-85009523D01*
X144923809Y-85104761D01*
X144780952Y-85152380D01*
X144685714Y-85152380D01*
X145542857Y-85152380D02*
X145542857Y-84152380D01*
X145923809Y-84152380D01*
X146019047Y-84200000D01*
X146066666Y-84247619D01*
X146114285Y-84342857D01*
X146114285Y-84485714D01*
X146066666Y-84580952D01*
X146019047Y-84628571D01*
X145923809Y-84676190D01*
X145542857Y-84676190D01*
X146447619Y-84152380D02*
X147066666Y-84152380D01*
X146733333Y-84533333D01*
X146876190Y-84533333D01*
X146971428Y-84580952D01*
X147019047Y-84628571D01*
X147066666Y-84723809D01*
X147066666Y-84961904D01*
X147019047Y-85057142D01*
X146971428Y-85104761D01*
X146876190Y-85152380D01*
X146590476Y-85152380D01*
X146495238Y-85104761D01*
X146447619Y-85057142D01*
X153142666Y-84034380D02*
X153761714Y-84034380D01*
X153428380Y-84415333D01*
X153571238Y-84415333D01*
X153666476Y-84462952D01*
X153714095Y-84510571D01*
X153761714Y-84605809D01*
X153761714Y-84843904D01*
X153714095Y-84939142D01*
X153666476Y-84986761D01*
X153571238Y-85034380D01*
X153285523Y-85034380D01*
X153190285Y-84986761D01*
X153142666Y-84939142D01*
X148561714Y-83452380D02*
X147990285Y-83452380D01*
X148276000Y-83452380D02*
X148276000Y-82452380D01*
X148180761Y-82595238D01*
X148085523Y-82690476D01*
X147990285Y-82738095D01*
G04 #@! TO.C,JP4*
X145266666Y-77452380D02*
X145266666Y-78166666D01*
X145219047Y-78309523D01*
X145123809Y-78404761D01*
X144980952Y-78452380D01*
X144885714Y-78452380D01*
X145742857Y-78452380D02*
X145742857Y-77452380D01*
X146123809Y-77452380D01*
X146219047Y-77500000D01*
X146266666Y-77547619D01*
X146314285Y-77642857D01*
X146314285Y-77785714D01*
X146266666Y-77880952D01*
X146219047Y-77928571D01*
X146123809Y-77976190D01*
X145742857Y-77976190D01*
X147171428Y-77785714D02*
X147171428Y-78452380D01*
X146933333Y-77404761D02*
X146695238Y-78119047D01*
X147314285Y-78119047D01*
X148561714Y-76452380D02*
X147990285Y-76452380D01*
X148276000Y-76452380D02*
X148276000Y-75452380D01*
X148180761Y-75595238D01*
X148085523Y-75690476D01*
X147990285Y-75738095D01*
X153142666Y-77430380D02*
X153761714Y-77430380D01*
X153428380Y-77811333D01*
X153571238Y-77811333D01*
X153666476Y-77858952D01*
X153714095Y-77906571D01*
X153761714Y-78001809D01*
X153761714Y-78239904D01*
X153714095Y-78335142D01*
X153666476Y-78382761D01*
X153571238Y-78430380D01*
X153285523Y-78430380D01*
X153190285Y-78382761D01*
X153142666Y-78335142D01*
G04 #@! TO.C,SW5*
X188916666Y-88404761D02*
X189059523Y-88452380D01*
X189297619Y-88452380D01*
X189392857Y-88404761D01*
X189440476Y-88357142D01*
X189488095Y-88261904D01*
X189488095Y-88166666D01*
X189440476Y-88071428D01*
X189392857Y-88023809D01*
X189297619Y-87976190D01*
X189107142Y-87928571D01*
X189011904Y-87880952D01*
X188964285Y-87833333D01*
X188916666Y-87738095D01*
X188916666Y-87642857D01*
X188964285Y-87547619D01*
X189011904Y-87500000D01*
X189107142Y-87452380D01*
X189345238Y-87452380D01*
X189488095Y-87500000D01*
X189821428Y-87452380D02*
X190059523Y-88452380D01*
X190250000Y-87738095D01*
X190440476Y-88452380D01*
X190678571Y-87452380D01*
X191535714Y-87452380D02*
X191059523Y-87452380D01*
X191011904Y-87928571D01*
X191059523Y-87880952D01*
X191154761Y-87833333D01*
X191392857Y-87833333D01*
X191488095Y-87880952D01*
X191535714Y-87928571D01*
X191583333Y-88023809D01*
X191583333Y-88261904D01*
X191535714Y-88357142D01*
X191488095Y-88404761D01*
X191392857Y-88452380D01*
X191154761Y-88452380D01*
X191059523Y-88404761D01*
X191011904Y-88357142D01*
G04 #@! TO.C,C4*
X128307142Y-83916666D02*
X128354761Y-83964285D01*
X128402380Y-84107142D01*
X128402380Y-84202380D01*
X128354761Y-84345238D01*
X128259523Y-84440476D01*
X128164285Y-84488095D01*
X127973809Y-84535714D01*
X127830952Y-84535714D01*
X127640476Y-84488095D01*
X127545238Y-84440476D01*
X127450000Y-84345238D01*
X127402380Y-84202380D01*
X127402380Y-84107142D01*
X127450000Y-83964285D01*
X127497619Y-83916666D01*
X127735714Y-83059523D02*
X128402380Y-83059523D01*
X127354761Y-83297619D02*
X128069047Y-83535714D01*
X128069047Y-82916666D01*
G04 #@! TO.C,H5*
X143256095Y-124658380D02*
X143256095Y-123658380D01*
X143256095Y-124134571D02*
X143827523Y-124134571D01*
X143827523Y-124658380D02*
X143827523Y-123658380D01*
X144779904Y-123658380D02*
X144303714Y-123658380D01*
X144256095Y-124134571D01*
X144303714Y-124086952D01*
X144398952Y-124039333D01*
X144637047Y-124039333D01*
X144732285Y-124086952D01*
X144779904Y-124134571D01*
X144827523Y-124229809D01*
X144827523Y-124467904D01*
X144779904Y-124563142D01*
X144732285Y-124610761D01*
X144637047Y-124658380D01*
X144398952Y-124658380D01*
X144303714Y-124610761D01*
X144256095Y-124563142D01*
G04 #@! TO.C,H6*
X122682095Y-124658380D02*
X122682095Y-123658380D01*
X122682095Y-124134571D02*
X123253523Y-124134571D01*
X123253523Y-124658380D02*
X123253523Y-123658380D01*
X124158285Y-123658380D02*
X123967809Y-123658380D01*
X123872571Y-123706000D01*
X123824952Y-123753619D01*
X123729714Y-123896476D01*
X123682095Y-124086952D01*
X123682095Y-124467904D01*
X123729714Y-124563142D01*
X123777333Y-124610761D01*
X123872571Y-124658380D01*
X124063047Y-124658380D01*
X124158285Y-124610761D01*
X124205904Y-124563142D01*
X124253523Y-124467904D01*
X124253523Y-124229809D01*
X124205904Y-124134571D01*
X124158285Y-124086952D01*
X124063047Y-124039333D01*
X123872571Y-124039333D01*
X123777333Y-124086952D01*
X123729714Y-124134571D01*
X123682095Y-124229809D01*
G04 #@! TO.C,C14*
X118737142Y-106084642D02*
X118689523Y-106132261D01*
X118546666Y-106179880D01*
X118451428Y-106179880D01*
X118308571Y-106132261D01*
X118213333Y-106037023D01*
X118165714Y-105941785D01*
X118118095Y-105751309D01*
X118118095Y-105608452D01*
X118165714Y-105417976D01*
X118213333Y-105322738D01*
X118308571Y-105227500D01*
X118451428Y-105179880D01*
X118546666Y-105179880D01*
X118689523Y-105227500D01*
X118737142Y-105275119D01*
X119689523Y-106179880D02*
X119118095Y-106179880D01*
X119403809Y-106179880D02*
X119403809Y-105179880D01*
X119308571Y-105322738D01*
X119213333Y-105417976D01*
X119118095Y-105465595D01*
X120546666Y-105513214D02*
X120546666Y-106179880D01*
X120308571Y-105132261D02*
X120070476Y-105846547D01*
X120689523Y-105846547D01*
G04 #@! TO.C,C15*
X108107142Y-122357142D02*
X108059523Y-122404761D01*
X107916666Y-122452380D01*
X107821428Y-122452380D01*
X107678571Y-122404761D01*
X107583333Y-122309523D01*
X107535714Y-122214285D01*
X107488095Y-122023809D01*
X107488095Y-121880952D01*
X107535714Y-121690476D01*
X107583333Y-121595238D01*
X107678571Y-121500000D01*
X107821428Y-121452380D01*
X107916666Y-121452380D01*
X108059523Y-121500000D01*
X108107142Y-121547619D01*
X109059523Y-122452380D02*
X108488095Y-122452380D01*
X108773809Y-122452380D02*
X108773809Y-121452380D01*
X108678571Y-121595238D01*
X108583333Y-121690476D01*
X108488095Y-121738095D01*
X109964285Y-121452380D02*
X109488095Y-121452380D01*
X109440476Y-121928571D01*
X109488095Y-121880952D01*
X109583333Y-121833333D01*
X109821428Y-121833333D01*
X109916666Y-121880952D01*
X109964285Y-121928571D01*
X110011904Y-122023809D01*
X110011904Y-122261904D01*
X109964285Y-122357142D01*
X109916666Y-122404761D01*
X109821428Y-122452380D01*
X109583333Y-122452380D01*
X109488095Y-122404761D01*
X109440476Y-122357142D01*
G04 #@! TO.C,J4*
X115617666Y-118245380D02*
X115617666Y-118959666D01*
X115570047Y-119102523D01*
X115474809Y-119197761D01*
X115331952Y-119245380D01*
X115236714Y-119245380D01*
X116522428Y-118578714D02*
X116522428Y-119245380D01*
X116284333Y-118197761D02*
X116046238Y-118912047D01*
X116665285Y-118912047D01*
G04 #@! TO.C,J5*
X110529380Y-95456333D02*
X111243666Y-95456333D01*
X111386523Y-95503952D01*
X111481761Y-95599190D01*
X111529380Y-95742047D01*
X111529380Y-95837285D01*
X110529380Y-94503952D02*
X110529380Y-94980142D01*
X111005571Y-95027761D01*
X110957952Y-94980142D01*
X110910333Y-94884904D01*
X110910333Y-94646809D01*
X110957952Y-94551571D01*
X111005571Y-94503952D01*
X111100809Y-94456333D01*
X111338904Y-94456333D01*
X111434142Y-94503952D01*
X111481761Y-94551571D01*
X111529380Y-94646809D01*
X111529380Y-94884904D01*
X111481761Y-94980142D01*
X111434142Y-95027761D01*
G04 #@! TO.C,J6*
X110529380Y-106886333D02*
X111243666Y-106886333D01*
X111386523Y-106933952D01*
X111481761Y-107029190D01*
X111529380Y-107172047D01*
X111529380Y-107267285D01*
X110529380Y-105981571D02*
X110529380Y-106172047D01*
X110577000Y-106267285D01*
X110624619Y-106314904D01*
X110767476Y-106410142D01*
X110957952Y-106457761D01*
X111338904Y-106457761D01*
X111434142Y-106410142D01*
X111481761Y-106362523D01*
X111529380Y-106267285D01*
X111529380Y-106076809D01*
X111481761Y-105981571D01*
X111434142Y-105933952D01*
X111338904Y-105886333D01*
X111100809Y-105886333D01*
X111005571Y-105933952D01*
X110957952Y-105981571D01*
X110910333Y-106076809D01*
X110910333Y-106267285D01*
X110957952Y-106362523D01*
X111005571Y-106410142D01*
X111100809Y-106457761D01*
G04 #@! TO.C,Q1*
X187167261Y-67297619D02*
X187072023Y-67250000D01*
X186976785Y-67154761D01*
X186833928Y-67011904D01*
X186738690Y-66964285D01*
X186643452Y-66964285D01*
X186691071Y-67202380D02*
X186595833Y-67154761D01*
X186500595Y-67059523D01*
X186452976Y-66869047D01*
X186452976Y-66535714D01*
X186500595Y-66345238D01*
X186595833Y-66250000D01*
X186691071Y-66202380D01*
X186881547Y-66202380D01*
X186976785Y-66250000D01*
X187072023Y-66345238D01*
X187119642Y-66535714D01*
X187119642Y-66869047D01*
X187072023Y-67059523D01*
X186976785Y-67154761D01*
X186881547Y-67202380D01*
X186691071Y-67202380D01*
X188072023Y-67202380D02*
X187500595Y-67202380D01*
X187786309Y-67202380D02*
X187786309Y-66202380D01*
X187691071Y-66345238D01*
X187595833Y-66440476D01*
X187500595Y-66488095D01*
G04 #@! TO.C,Q2*
X187167261Y-78797619D02*
X187072023Y-78750000D01*
X186976785Y-78654761D01*
X186833928Y-78511904D01*
X186738690Y-78464285D01*
X186643452Y-78464285D01*
X186691071Y-78702380D02*
X186595833Y-78654761D01*
X186500595Y-78559523D01*
X186452976Y-78369047D01*
X186452976Y-78035714D01*
X186500595Y-77845238D01*
X186595833Y-77750000D01*
X186691071Y-77702380D01*
X186881547Y-77702380D01*
X186976785Y-77750000D01*
X187072023Y-77845238D01*
X187119642Y-78035714D01*
X187119642Y-78369047D01*
X187072023Y-78559523D01*
X186976785Y-78654761D01*
X186881547Y-78702380D01*
X186691071Y-78702380D01*
X187500595Y-77797619D02*
X187548214Y-77750000D01*
X187643452Y-77702380D01*
X187881547Y-77702380D01*
X187976785Y-77750000D01*
X188024404Y-77797619D01*
X188072023Y-77892857D01*
X188072023Y-77988095D01*
X188024404Y-78130952D01*
X187452976Y-78702380D01*
X188072023Y-78702380D01*
G04 #@! TD*
M02*
