G04 #@! TF.GenerationSoftware,KiCad,Pcbnew,5.0.2+dfsg1-1*
G04 #@! TF.CreationDate,2020-12-25T18:29:03+01:00*
G04 #@! TF.ProjectId,Reflow_Control,5265666c-6f77-45f4-936f-6e74726f6c2e,rev?*
G04 #@! TF.SameCoordinates,Original*
G04 #@! TF.FileFunction,Copper,L2,Bot*
G04 #@! TF.FilePolarity,Positive*
%FSLAX46Y46*%
G04 Gerber Fmt 4.6, Leading zero omitted, Abs format (unit mm)*
G04 Created by KiCad (PCBNEW 5.0.2+dfsg1-1) date Fri 25 Dec 2020 06:29:03 PM CET*
%MOMM*%
%LPD*%
G01*
G04 APERTURE LIST*
G04 #@! TA.AperFunction,ComponentPad*
%ADD10O,3.600000X1.800000*%
G04 #@! TD*
G04 #@! TA.AperFunction,Conductor*
%ADD11C,0.100000*%
G04 #@! TD*
G04 #@! TA.AperFunction,ComponentPad*
%ADD12C,1.800000*%
G04 #@! TD*
G04 #@! TA.AperFunction,ComponentPad*
%ADD13R,2.000000X2.000000*%
G04 #@! TD*
G04 #@! TA.AperFunction,ComponentPad*
%ADD14C,2.000000*%
G04 #@! TD*
G04 #@! TA.AperFunction,ComponentPad*
%ADD15C,5.000000*%
G04 #@! TD*
G04 #@! TA.AperFunction,ComponentPad*
%ADD16C,0.800000*%
G04 #@! TD*
G04 #@! TA.AperFunction,ComponentPad*
%ADD17C,6.000000*%
G04 #@! TD*
G04 #@! TA.AperFunction,ComponentPad*
%ADD18R,1.700000X1.700000*%
G04 #@! TD*
G04 #@! TA.AperFunction,ComponentPad*
%ADD19O,1.700000X1.700000*%
G04 #@! TD*
G04 #@! TA.AperFunction,ComponentPad*
%ADD20R,1.600000X1.600000*%
G04 #@! TD*
G04 #@! TA.AperFunction,ComponentPad*
%ADD21O,1.600000X1.600000*%
G04 #@! TD*
G04 #@! TA.AperFunction,ComponentPad*
%ADD22C,1.500000*%
G04 #@! TD*
G04 #@! TA.AperFunction,ComponentPad*
%ADD23R,2.000000X3.200000*%
G04 #@! TD*
G04 #@! TA.AperFunction,ComponentPad*
%ADD24C,3.500000*%
G04 #@! TD*
G04 #@! TA.AperFunction,ViaPad*
%ADD25C,0.800000*%
G04 #@! TD*
G04 #@! TA.AperFunction,Conductor*
%ADD26C,0.250000*%
G04 #@! TD*
G04 #@! TA.AperFunction,Conductor*
%ADD27C,0.500000*%
G04 #@! TD*
G04 #@! TA.AperFunction,Conductor*
%ADD28C,0.254000*%
G04 #@! TD*
G04 APERTURE END LIST*
D10*
G04 #@! TO.P,J1,2*
G04 #@! TO.N,GND*
X108100000Y-85680000D03*
D11*
G04 #@! TD*
G04 #@! TO.N,+5V*
G04 #@! TO.C,J1*
G36*
X109674504Y-79701204D02*
X109698773Y-79704804D01*
X109722571Y-79710765D01*
X109745671Y-79719030D01*
X109767849Y-79729520D01*
X109788893Y-79742133D01*
X109808598Y-79756747D01*
X109826777Y-79773223D01*
X109843253Y-79791402D01*
X109857867Y-79811107D01*
X109870480Y-79832151D01*
X109880970Y-79854329D01*
X109889235Y-79877429D01*
X109895196Y-79901227D01*
X109898796Y-79925496D01*
X109900000Y-79950000D01*
X109900000Y-81250000D01*
X109898796Y-81274504D01*
X109895196Y-81298773D01*
X109889235Y-81322571D01*
X109880970Y-81345671D01*
X109870480Y-81367849D01*
X109857867Y-81388893D01*
X109843253Y-81408598D01*
X109826777Y-81426777D01*
X109808598Y-81443253D01*
X109788893Y-81457867D01*
X109767849Y-81470480D01*
X109745671Y-81480970D01*
X109722571Y-81489235D01*
X109698773Y-81495196D01*
X109674504Y-81498796D01*
X109650000Y-81500000D01*
X106550000Y-81500000D01*
X106525496Y-81498796D01*
X106501227Y-81495196D01*
X106477429Y-81489235D01*
X106454329Y-81480970D01*
X106432151Y-81470480D01*
X106411107Y-81457867D01*
X106391402Y-81443253D01*
X106373223Y-81426777D01*
X106356747Y-81408598D01*
X106342133Y-81388893D01*
X106329520Y-81367849D01*
X106319030Y-81345671D01*
X106310765Y-81322571D01*
X106304804Y-81298773D01*
X106301204Y-81274504D01*
X106300000Y-81250000D01*
X106300000Y-79950000D01*
X106301204Y-79925496D01*
X106304804Y-79901227D01*
X106310765Y-79877429D01*
X106319030Y-79854329D01*
X106329520Y-79832151D01*
X106342133Y-79811107D01*
X106356747Y-79791402D01*
X106373223Y-79773223D01*
X106391402Y-79756747D01*
X106411107Y-79742133D01*
X106432151Y-79729520D01*
X106454329Y-79719030D01*
X106477429Y-79710765D01*
X106501227Y-79704804D01*
X106525496Y-79701204D01*
X106550000Y-79700000D01*
X109650000Y-79700000D01*
X109674504Y-79701204D01*
X109674504Y-79701204D01*
G37*
D12*
G04 #@! TO.P,J1,1*
G04 #@! TO.N,+5V*
X108100000Y-80600000D03*
G04 #@! TD*
D13*
G04 #@! TO.P,BZ1,1*
G04 #@! TO.N,+3V3*
X161290000Y-57912000D03*
D14*
G04 #@! TO.P,BZ1,2*
G04 #@! TO.N,Net-(BZ1-Pad2)*
X166290000Y-57912000D03*
G04 #@! TD*
D15*
G04 #@! TO.P,H1,1*
G04 #@! TO.N,N/C*
X172850000Y-69800000D03*
G04 #@! TD*
G04 #@! TO.P,H2,1*
G04 #@! TO.N,N/C*
X172850000Y-93000000D03*
G04 #@! TD*
G04 #@! TO.P,H3,1*
G04 #@! TO.N,N/C*
X152150000Y-93000000D03*
G04 #@! TD*
G04 #@! TO.P,H4,1*
G04 #@! TO.N,N/C*
X152150000Y-69800000D03*
G04 #@! TD*
D16*
G04 #@! TO.P,H7,1*
G04 #@! TO.N,N/C*
X196590990Y-53409010D03*
X195000000Y-52750000D03*
X193409010Y-53409010D03*
X192750000Y-55000000D03*
X193409010Y-56590990D03*
X195000000Y-57250000D03*
X196590990Y-56590990D03*
X197250000Y-55000000D03*
D17*
X195000000Y-55000000D03*
G04 #@! TD*
G04 #@! TO.P,H8,1*
G04 #@! TO.N,N/C*
X195000000Y-125000000D03*
D16*
X197250000Y-125000000D03*
X196590990Y-126590990D03*
X195000000Y-127250000D03*
X193409010Y-126590990D03*
X192750000Y-125000000D03*
X193409010Y-123409010D03*
X195000000Y-122750000D03*
X196590990Y-123409010D03*
G04 #@! TD*
G04 #@! TO.P,H9,1*
G04 #@! TO.N,N/C*
X106590990Y-123409010D03*
X105000000Y-122750000D03*
X103409010Y-123409010D03*
X102750000Y-125000000D03*
X103409010Y-126590990D03*
X105000000Y-127250000D03*
X106590990Y-126590990D03*
X107250000Y-125000000D03*
D17*
X105000000Y-125000000D03*
G04 #@! TD*
D16*
G04 #@! TO.P,H10,1*
G04 #@! TO.N,N/C*
X106590990Y-53409010D03*
X105000000Y-52750000D03*
X103409010Y-53409010D03*
X102750000Y-55000000D03*
X103409010Y-56590990D03*
X105000000Y-57250000D03*
X106590990Y-56590990D03*
X107250000Y-55000000D03*
D17*
X105000000Y-55000000D03*
G04 #@! TD*
D11*
G04 #@! TO.N,Net-(D4-Pad1)*
G04 #@! TO.C,J2*
G36*
X193637004Y-66931204D02*
X193661273Y-66934804D01*
X193685071Y-66940765D01*
X193708171Y-66949030D01*
X193730349Y-66959520D01*
X193751393Y-66972133D01*
X193771098Y-66986747D01*
X193789277Y-67003223D01*
X193805753Y-67021402D01*
X193820367Y-67041107D01*
X193832980Y-67062151D01*
X193843470Y-67084329D01*
X193851735Y-67107429D01*
X193857696Y-67131227D01*
X193861296Y-67155496D01*
X193862500Y-67180000D01*
X193862500Y-68480000D01*
X193861296Y-68504504D01*
X193857696Y-68528773D01*
X193851735Y-68552571D01*
X193843470Y-68575671D01*
X193832980Y-68597849D01*
X193820367Y-68618893D01*
X193805753Y-68638598D01*
X193789277Y-68656777D01*
X193771098Y-68673253D01*
X193751393Y-68687867D01*
X193730349Y-68700480D01*
X193708171Y-68710970D01*
X193685071Y-68719235D01*
X193661273Y-68725196D01*
X193637004Y-68728796D01*
X193612500Y-68730000D01*
X190512500Y-68730000D01*
X190487996Y-68728796D01*
X190463727Y-68725196D01*
X190439929Y-68719235D01*
X190416829Y-68710970D01*
X190394651Y-68700480D01*
X190373607Y-68687867D01*
X190353902Y-68673253D01*
X190335723Y-68656777D01*
X190319247Y-68638598D01*
X190304633Y-68618893D01*
X190292020Y-68597849D01*
X190281530Y-68575671D01*
X190273265Y-68552571D01*
X190267304Y-68528773D01*
X190263704Y-68504504D01*
X190262500Y-68480000D01*
X190262500Y-67180000D01*
X190263704Y-67155496D01*
X190267304Y-67131227D01*
X190273265Y-67107429D01*
X190281530Y-67084329D01*
X190292020Y-67062151D01*
X190304633Y-67041107D01*
X190319247Y-67021402D01*
X190335723Y-67003223D01*
X190353902Y-66986747D01*
X190373607Y-66972133D01*
X190394651Y-66959520D01*
X190416829Y-66949030D01*
X190439929Y-66940765D01*
X190463727Y-66934804D01*
X190487996Y-66931204D01*
X190512500Y-66930000D01*
X193612500Y-66930000D01*
X193637004Y-66931204D01*
X193637004Y-66931204D01*
G37*
D12*
G04 #@! TD*
G04 #@! TO.P,J2,1*
G04 #@! TO.N,Net-(D4-Pad1)*
X192062500Y-67830000D03*
D10*
G04 #@! TO.P,J2,2*
G04 #@! TO.N,+3V3*
X192062500Y-62750000D03*
G04 #@! TD*
D18*
G04 #@! TO.P,U1,1*
G04 #@! TO.N,GND*
X158750000Y-69400000D03*
D19*
G04 #@! TO.P,U1,2*
G04 #@! TO.N,+3V3*
X161290000Y-69400000D03*
G04 #@! TO.P,U1,3*
G04 #@! TO.N,I2C1_SCL*
X163830000Y-69400000D03*
G04 #@! TO.P,U1,4*
G04 #@! TO.N,I2C1_SDA*
X166370000Y-69400000D03*
G04 #@! TD*
D20*
G04 #@! TO.P,U2,1*
G04 #@! TO.N,N/C*
X105000000Y-75000000D03*
D21*
G04 #@! TO.P,U2,17*
G04 #@! TO.N,Net-(JP1-Pad1)*
X138020000Y-59760000D03*
G04 #@! TO.P,U2,2*
G04 #@! TO.N,N/C*
X107540000Y-75000000D03*
G04 #@! TO.P,U2,18*
X135480000Y-59760000D03*
G04 #@! TO.P,U2,3*
X110080000Y-75000000D03*
G04 #@! TO.P,U2,19*
G04 #@! TO.N,INT_ENC_A*
X132940000Y-59760000D03*
G04 #@! TO.P,U2,4*
G04 #@! TO.N,GND*
X112620000Y-75000000D03*
G04 #@! TO.P,U2,20*
G04 #@! TO.N,INT_ENC_B*
X130400000Y-59760000D03*
G04 #@! TO.P,U2,5*
G04 #@! TO.N,N/C*
X115160000Y-75000000D03*
G04 #@! TO.P,U2,21*
G04 #@! TO.N,INT_MAX31865_RDY*
X127860000Y-59760000D03*
G04 #@! TO.P,U2,6*
G04 #@! TO.N,N/C*
X117700000Y-75000000D03*
G04 #@! TO.P,U2,22*
G04 #@! TO.N,INT_PCA9555*
X125320000Y-59760000D03*
G04 #@! TO.P,U2,7*
G04 #@! TO.N,I2C1_SDA*
X120240000Y-75000000D03*
G04 #@! TO.P,U2,23*
G04 #@! TO.N,N/C*
X122780000Y-59760000D03*
G04 #@! TO.P,U2,8*
G04 #@! TO.N,I2C1_SCL*
X122780000Y-75000000D03*
G04 #@! TO.P,U2,24*
G04 #@! TO.N,N/C*
X120240000Y-59760000D03*
G04 #@! TO.P,U2,9*
X125320000Y-75000000D03*
G04 #@! TO.P,U2,25*
G04 #@! TO.N,TIM3_CH1_HEATER_PWM*
X117700000Y-59760000D03*
G04 #@! TO.P,U2,10*
G04 #@! TO.N,N/C*
X127860000Y-75000000D03*
G04 #@! TO.P,U2,26*
G04 #@! TO.N,TIM3_CH2_HEATER_PWM*
X115160000Y-59760000D03*
G04 #@! TO.P,U2,11*
G04 #@! TO.N,N/C*
X130400000Y-75000000D03*
G04 #@! TO.P,U2,27*
G04 #@! TO.N,+5V*
X112620000Y-59760000D03*
G04 #@! TO.P,U2,12*
G04 #@! TO.N,TIM1_CH1_PWM_Buzzer*
X132940000Y-75000000D03*
G04 #@! TO.P,U2,28*
G04 #@! TO.N,N/C*
X110080000Y-59760000D03*
G04 #@! TO.P,U2,13*
G04 #@! TO.N,SPI1_CS_MAX31865*
X135480000Y-75000000D03*
G04 #@! TO.P,U2,29*
G04 #@! TO.N,GND*
X107540000Y-59760000D03*
G04 #@! TO.P,U2,14*
G04 #@! TO.N,SPI1_MOSI*
X138020000Y-75000000D03*
G04 #@! TO.P,U2,30*
G04 #@! TO.N,N/C*
X105000000Y-59760000D03*
G04 #@! TO.P,U2,15*
G04 #@! TO.N,SPI1_MISO*
X140560000Y-75000000D03*
G04 #@! TO.P,U2,16*
G04 #@! TO.N,SPI1_SCK*
X140560000Y-59760000D03*
G04 #@! TD*
D18*
G04 #@! TO.P,U3,1*
G04 #@! TO.N,N/C*
X125984000Y-111760000D03*
D19*
G04 #@! TO.P,U3,2*
G04 #@! TO.N,GND*
X125984000Y-109220000D03*
G04 #@! TO.P,U3,3*
G04 #@! TO.N,+3V3*
X125984000Y-106680000D03*
G04 #@! TO.P,U3,4*
G04 #@! TO.N,SPI1_SCK*
X125984000Y-104140000D03*
G04 #@! TO.P,U3,5*
G04 #@! TO.N,SPI1_MISO*
X125984000Y-101600000D03*
G04 #@! TO.P,U3,6*
G04 #@! TO.N,SPI1_MOSI*
X125984000Y-99060000D03*
G04 #@! TO.P,U3,7*
G04 #@! TO.N,SPI1_CS_MAX31865*
X125984000Y-96520000D03*
G04 #@! TO.P,U3,8*
G04 #@! TO.N,INT_MAX31865_RDY*
X125984000Y-93980000D03*
G04 #@! TD*
D11*
G04 #@! TO.N,Net-(D5-Pad1)*
G04 #@! TO.C,J3*
G36*
X193637004Y-78231204D02*
X193661273Y-78234804D01*
X193685071Y-78240765D01*
X193708171Y-78249030D01*
X193730349Y-78259520D01*
X193751393Y-78272133D01*
X193771098Y-78286747D01*
X193789277Y-78303223D01*
X193805753Y-78321402D01*
X193820367Y-78341107D01*
X193832980Y-78362151D01*
X193843470Y-78384329D01*
X193851735Y-78407429D01*
X193857696Y-78431227D01*
X193861296Y-78455496D01*
X193862500Y-78480000D01*
X193862500Y-79780000D01*
X193861296Y-79804504D01*
X193857696Y-79828773D01*
X193851735Y-79852571D01*
X193843470Y-79875671D01*
X193832980Y-79897849D01*
X193820367Y-79918893D01*
X193805753Y-79938598D01*
X193789277Y-79956777D01*
X193771098Y-79973253D01*
X193751393Y-79987867D01*
X193730349Y-80000480D01*
X193708171Y-80010970D01*
X193685071Y-80019235D01*
X193661273Y-80025196D01*
X193637004Y-80028796D01*
X193612500Y-80030000D01*
X190512500Y-80030000D01*
X190487996Y-80028796D01*
X190463727Y-80025196D01*
X190439929Y-80019235D01*
X190416829Y-80010970D01*
X190394651Y-80000480D01*
X190373607Y-79987867D01*
X190353902Y-79973253D01*
X190335723Y-79956777D01*
X190319247Y-79938598D01*
X190304633Y-79918893D01*
X190292020Y-79897849D01*
X190281530Y-79875671D01*
X190273265Y-79852571D01*
X190267304Y-79828773D01*
X190263704Y-79804504D01*
X190262500Y-79780000D01*
X190262500Y-78480000D01*
X190263704Y-78455496D01*
X190267304Y-78431227D01*
X190273265Y-78407429D01*
X190281530Y-78384329D01*
X190292020Y-78362151D01*
X190304633Y-78341107D01*
X190319247Y-78321402D01*
X190335723Y-78303223D01*
X190353902Y-78286747D01*
X190373607Y-78272133D01*
X190394651Y-78259520D01*
X190416829Y-78249030D01*
X190439929Y-78240765D01*
X190463727Y-78234804D01*
X190487996Y-78231204D01*
X190512500Y-78230000D01*
X193612500Y-78230000D01*
X193637004Y-78231204D01*
X193637004Y-78231204D01*
G37*
D12*
G04 #@! TD*
G04 #@! TO.P,J3,1*
G04 #@! TO.N,Net-(D5-Pad1)*
X192062500Y-79130000D03*
D10*
G04 #@! TO.P,J3,2*
G04 #@! TO.N,+3V3*
X192062500Y-74050000D03*
G04 #@! TD*
D22*
G04 #@! TO.P,SW5,S2*
G04 #@! TO.N,GND*
X187500000Y-104500000D03*
G04 #@! TO.P,SW5,S1*
G04 #@! TO.N,ENC_Switch*
X192500000Y-104500000D03*
D23*
G04 #@! TO.P,SW5,MP*
G04 #@! TO.N,N/C*
X184400000Y-97500000D03*
X195600000Y-97500000D03*
D14*
G04 #@! TO.P,SW5,B*
G04 #@! TO.N,INT_ENC_A*
X187500000Y-90000000D03*
G04 #@! TO.P,SW5,C*
G04 #@! TO.N,GND*
X190000000Y-90000000D03*
D13*
G04 #@! TO.P,SW5,A*
G04 #@! TO.N,INT_ENC_B*
X192500000Y-90000000D03*
G04 #@! TD*
D24*
G04 #@! TO.P,H5,1*
G04 #@! TO.N,N/C*
X103378000Y-113030000D03*
G04 #@! TD*
G04 #@! TO.P,H6,1*
G04 #@! TO.N,N/C*
X103378000Y-92710000D03*
G04 #@! TD*
D25*
G04 #@! TO.N,+3V3*
X128524000Y-80518000D03*
X118364000Y-93980000D03*
X129540000Y-80518000D03*
X130556000Y-80518000D03*
X131572000Y-80518000D03*
X132588000Y-80518000D03*
X131572000Y-81534000D03*
X132588000Y-81534000D03*
X128524000Y-81534000D03*
X129540000Y-81534000D03*
X130556000Y-81534000D03*
X148209000Y-77978000D03*
X148209000Y-81280000D03*
X148209000Y-84582000D03*
X148209000Y-87884000D03*
X181875000Y-87768000D03*
X198250000Y-87633000D03*
X122682000Y-67310000D03*
X156972000Y-74168000D03*
X140800000Y-56600000D03*
X140800000Y-56600000D03*
X121412000Y-68072000D03*
G04 #@! TO.N,BTN_UP*
X165100000Y-98806000D03*
X159829500Y-98742500D03*
G04 #@! TO.N,BTN_DOWN*
X164846000Y-120777000D03*
X160083500Y-120777000D03*
G04 #@! TO.N,BTN_LEFT*
X153924000Y-109728000D03*
X149288500Y-109728000D03*
G04 #@! TO.N,BTN_CENTER*
X164973000Y-109728000D03*
X160210500Y-109728000D03*
G04 #@! TO.N,ENC_Switch*
X168402000Y-88696800D03*
G04 #@! TO.N,BTN_RIGHT*
X176085500Y-109791500D03*
X171196000Y-109791500D03*
G04 #@! TO.N,BTN_A*
X153797000Y-120777000D03*
X148907500Y-120777000D03*
G04 #@! TO.N,BTN_B*
X175958500Y-120713500D03*
X171450000Y-120713500D03*
G04 #@! TO.N,Net-(D1-Pad2)*
X163000000Y-79400000D03*
X191000000Y-109800000D03*
G04 #@! TO.N,Net-(D2-Pad2)*
X161600000Y-79400000D03*
X187000000Y-109800000D03*
G04 #@! TO.N,Net-(D3-Pad2)*
X160400000Y-79400000D03*
X183000000Y-109800000D03*
G04 #@! TO.N,INT_PCA9555*
X144526000Y-74777600D03*
X144272000Y-63652400D03*
G04 #@! TO.N,TIM1_CH1_PWM_Buzzer*
X140970000Y-62839596D03*
G04 #@! TO.N,SPI1_SCK*
X142811500Y-74803000D03*
G04 #@! TD*
D26*
G04 #@! TO.N,+3V3*
X128524000Y-80518000D02*
X126445001Y-78439001D01*
X121811999Y-68471999D02*
X121412000Y-68072000D01*
X126445001Y-78439001D02*
X126445001Y-73105001D01*
X126445001Y-73105001D02*
X121811999Y-68471999D01*
G04 #@! TO.N,BTN_UP*
X159893000Y-98806000D02*
X159829500Y-98742500D01*
X165100000Y-98806000D02*
X159893000Y-98806000D01*
G04 #@! TO.N,BTN_DOWN*
X164846000Y-120777000D02*
X160083500Y-120777000D01*
G04 #@! TO.N,BTN_LEFT*
X153924000Y-109728000D02*
X149288500Y-109728000D01*
G04 #@! TO.N,BTN_CENTER*
X164973000Y-109728000D02*
X160210500Y-109728000D01*
G04 #@! TO.N,ENC_Switch*
X178624999Y-103424999D02*
X168249600Y-93049600D01*
X168249600Y-88849200D02*
X168402000Y-88696800D01*
X191424999Y-103424999D02*
X178624999Y-103424999D01*
X168249600Y-93049600D02*
X168249600Y-88849200D01*
X192500000Y-104500000D02*
X191424999Y-103424999D01*
G04 #@! TO.N,BTN_RIGHT*
X176085500Y-109791500D02*
X171196000Y-109791500D01*
G04 #@! TO.N,BTN_A*
X153797000Y-120777000D02*
X148907500Y-120777000D01*
G04 #@! TO.N,BTN_B*
X175958500Y-120713500D02*
X171450000Y-120713500D01*
G04 #@! TO.N,Net-(D1-Pad2)*
X180763589Y-106200000D02*
X163000000Y-88436411D01*
X191000000Y-109800000D02*
X187400000Y-106200000D01*
X163000000Y-79965685D02*
X163000000Y-79400000D01*
X163000000Y-88436411D02*
X163000000Y-79965685D01*
X187400000Y-106200000D02*
X180763589Y-106200000D01*
G04 #@! TO.N,Net-(D2-Pad2)*
X186600001Y-109400001D02*
X187000000Y-109800000D01*
X180727178Y-106800000D02*
X184000000Y-106800000D01*
X184000000Y-106800000D02*
X186600001Y-109400001D01*
X161600000Y-87672822D02*
X180727178Y-106800000D01*
X161600000Y-79400000D02*
X161600000Y-87672822D01*
G04 #@! TO.N,Net-(D3-Pad2)*
X160400000Y-87200000D02*
X160400000Y-79400000D01*
X183000000Y-109800000D02*
X160400000Y-87200000D01*
D27*
G04 #@! TO.N,INT_MAX31865_RDY*
X126989997Y-60559999D02*
X127060001Y-60559999D01*
X116410001Y-84406001D02*
X116410001Y-71139995D01*
X116410001Y-71139995D02*
X126989997Y-60559999D01*
X125984000Y-93980000D02*
X116410001Y-84406001D01*
X127060001Y-60559999D02*
X127860000Y-59760000D01*
D26*
G04 #@! TO.N,INT_PCA9555*
X144526000Y-63906400D02*
X144272000Y-63652400D01*
X144526000Y-74777600D02*
X144526000Y-63906400D01*
D27*
G04 #@! TO.N,TIM1_CH1_PWM_Buzzer*
X140570001Y-63239595D02*
X140970000Y-62839596D01*
X132940000Y-75000000D02*
X132940000Y-70869596D01*
X132940000Y-70869596D02*
X140570001Y-63239595D01*
G04 #@! TO.N,SPI1_SCK*
X142811500Y-62011500D02*
X140560000Y-59760000D01*
X142811500Y-74803000D02*
X142811500Y-62011500D01*
G04 #@! TD*
D28*
G04 #@! TO.N,+3V3*
G36*
X199544000Y-129544000D02*
X100456000Y-129544000D01*
X100456000Y-124327477D01*
X101619000Y-124327477D01*
X101619000Y-125672523D01*
X102133726Y-126915183D01*
X103084817Y-127866274D01*
X104327477Y-128381000D01*
X105672523Y-128381000D01*
X106915183Y-127866274D01*
X107866274Y-126915183D01*
X108381000Y-125672523D01*
X108381000Y-124327477D01*
X191619000Y-124327477D01*
X191619000Y-125672523D01*
X192133726Y-126915183D01*
X193084817Y-127866274D01*
X194327477Y-128381000D01*
X195672523Y-128381000D01*
X196915183Y-127866274D01*
X197866274Y-126915183D01*
X198381000Y-125672523D01*
X198381000Y-124327477D01*
X197866274Y-123084817D01*
X196915183Y-122133726D01*
X195672523Y-121619000D01*
X194327477Y-121619000D01*
X193084817Y-122133726D01*
X192133726Y-123084817D01*
X191619000Y-124327477D01*
X108381000Y-124327477D01*
X107866274Y-123084817D01*
X106915183Y-122133726D01*
X105672523Y-121619000D01*
X104327477Y-121619000D01*
X103084817Y-122133726D01*
X102133726Y-123084817D01*
X101619000Y-124327477D01*
X100456000Y-124327477D01*
X100456000Y-120621649D01*
X148126500Y-120621649D01*
X148126500Y-120932351D01*
X148245400Y-121219401D01*
X148465099Y-121439100D01*
X148752149Y-121558000D01*
X149062851Y-121558000D01*
X149349901Y-121439100D01*
X149506001Y-121283000D01*
X153198499Y-121283000D01*
X153354599Y-121439100D01*
X153641649Y-121558000D01*
X153952351Y-121558000D01*
X154239401Y-121439100D01*
X154459100Y-121219401D01*
X154578000Y-120932351D01*
X154578000Y-120621649D01*
X159302500Y-120621649D01*
X159302500Y-120932351D01*
X159421400Y-121219401D01*
X159641099Y-121439100D01*
X159928149Y-121558000D01*
X160238851Y-121558000D01*
X160525901Y-121439100D01*
X160682001Y-121283000D01*
X164247499Y-121283000D01*
X164403599Y-121439100D01*
X164690649Y-121558000D01*
X165001351Y-121558000D01*
X165288401Y-121439100D01*
X165508100Y-121219401D01*
X165627000Y-120932351D01*
X165627000Y-120621649D01*
X165600698Y-120558149D01*
X170669000Y-120558149D01*
X170669000Y-120868851D01*
X170787900Y-121155901D01*
X171007599Y-121375600D01*
X171294649Y-121494500D01*
X171605351Y-121494500D01*
X171892401Y-121375600D01*
X172048501Y-121219500D01*
X175359999Y-121219500D01*
X175516099Y-121375600D01*
X175803149Y-121494500D01*
X176113851Y-121494500D01*
X176400901Y-121375600D01*
X176620600Y-121155901D01*
X176739500Y-120868851D01*
X176739500Y-120558149D01*
X176620600Y-120271099D01*
X176400901Y-120051400D01*
X176113851Y-119932500D01*
X175803149Y-119932500D01*
X175516099Y-120051400D01*
X175359999Y-120207500D01*
X172048501Y-120207500D01*
X171892401Y-120051400D01*
X171605351Y-119932500D01*
X171294649Y-119932500D01*
X171007599Y-120051400D01*
X170787900Y-120271099D01*
X170669000Y-120558149D01*
X165600698Y-120558149D01*
X165508100Y-120334599D01*
X165288401Y-120114900D01*
X165001351Y-119996000D01*
X164690649Y-119996000D01*
X164403599Y-120114900D01*
X164247499Y-120271000D01*
X160682001Y-120271000D01*
X160525901Y-120114900D01*
X160238851Y-119996000D01*
X159928149Y-119996000D01*
X159641099Y-120114900D01*
X159421400Y-120334599D01*
X159302500Y-120621649D01*
X154578000Y-120621649D01*
X154459100Y-120334599D01*
X154239401Y-120114900D01*
X153952351Y-119996000D01*
X153641649Y-119996000D01*
X153354599Y-120114900D01*
X153198499Y-120271000D01*
X149506001Y-120271000D01*
X149349901Y-120114900D01*
X149062851Y-119996000D01*
X148752149Y-119996000D01*
X148465099Y-120114900D01*
X148245400Y-120334599D01*
X148126500Y-120621649D01*
X100456000Y-120621649D01*
X100456000Y-112606118D01*
X101247000Y-112606118D01*
X101247000Y-113453882D01*
X101571425Y-114237115D01*
X102170885Y-114836575D01*
X102954118Y-115161000D01*
X103801882Y-115161000D01*
X104585115Y-114836575D01*
X105184575Y-114237115D01*
X105509000Y-113453882D01*
X105509000Y-112606118D01*
X105184575Y-111822885D01*
X104585115Y-111223425D01*
X103828439Y-110910000D01*
X124745536Y-110910000D01*
X124745536Y-112610000D01*
X124775106Y-112758659D01*
X124859314Y-112884686D01*
X124985341Y-112968894D01*
X125134000Y-112998464D01*
X126834000Y-112998464D01*
X126982659Y-112968894D01*
X127108686Y-112884686D01*
X127192894Y-112758659D01*
X127222464Y-112610000D01*
X127222464Y-110910000D01*
X127192894Y-110761341D01*
X127108686Y-110635314D01*
X126982659Y-110551106D01*
X126834000Y-110521536D01*
X125134000Y-110521536D01*
X124985341Y-110551106D01*
X124859314Y-110635314D01*
X124775106Y-110761341D01*
X124745536Y-110910000D01*
X103828439Y-110910000D01*
X103801882Y-110899000D01*
X102954118Y-110899000D01*
X102170885Y-111223425D01*
X101571425Y-111822885D01*
X101247000Y-112606118D01*
X100456000Y-112606118D01*
X100456000Y-107036890D01*
X124542524Y-107036890D01*
X124712355Y-107446924D01*
X125102642Y-107875183D01*
X125500963Y-108062245D01*
X125096499Y-108332499D01*
X124824424Y-108739688D01*
X124728884Y-109220000D01*
X124824424Y-109700312D01*
X125096499Y-110107501D01*
X125503688Y-110379576D01*
X125862761Y-110451000D01*
X126105239Y-110451000D01*
X126464312Y-110379576D01*
X126871501Y-110107501D01*
X127143576Y-109700312D01*
X127168969Y-109572649D01*
X148507500Y-109572649D01*
X148507500Y-109883351D01*
X148626400Y-110170401D01*
X148846099Y-110390100D01*
X149133149Y-110509000D01*
X149443851Y-110509000D01*
X149730901Y-110390100D01*
X149887001Y-110234000D01*
X153325499Y-110234000D01*
X153481599Y-110390100D01*
X153768649Y-110509000D01*
X154079351Y-110509000D01*
X154366401Y-110390100D01*
X154586100Y-110170401D01*
X154705000Y-109883351D01*
X154705000Y-109572649D01*
X159429500Y-109572649D01*
X159429500Y-109883351D01*
X159548400Y-110170401D01*
X159768099Y-110390100D01*
X160055149Y-110509000D01*
X160365851Y-110509000D01*
X160652901Y-110390100D01*
X160809001Y-110234000D01*
X164374499Y-110234000D01*
X164530599Y-110390100D01*
X164817649Y-110509000D01*
X165128351Y-110509000D01*
X165415401Y-110390100D01*
X165635100Y-110170401D01*
X165754000Y-109883351D01*
X165754000Y-109636149D01*
X170415000Y-109636149D01*
X170415000Y-109946851D01*
X170533900Y-110233901D01*
X170753599Y-110453600D01*
X171040649Y-110572500D01*
X171351351Y-110572500D01*
X171638401Y-110453600D01*
X171794501Y-110297500D01*
X175486999Y-110297500D01*
X175643099Y-110453600D01*
X175930149Y-110572500D01*
X176240851Y-110572500D01*
X176527901Y-110453600D01*
X176747600Y-110233901D01*
X176866500Y-109946851D01*
X176866500Y-109636149D01*
X176747600Y-109349099D01*
X176527901Y-109129400D01*
X176240851Y-109010500D01*
X175930149Y-109010500D01*
X175643099Y-109129400D01*
X175486999Y-109285500D01*
X171794501Y-109285500D01*
X171638401Y-109129400D01*
X171351351Y-109010500D01*
X171040649Y-109010500D01*
X170753599Y-109129400D01*
X170533900Y-109349099D01*
X170415000Y-109636149D01*
X165754000Y-109636149D01*
X165754000Y-109572649D01*
X165635100Y-109285599D01*
X165415401Y-109065900D01*
X165128351Y-108947000D01*
X164817649Y-108947000D01*
X164530599Y-109065900D01*
X164374499Y-109222000D01*
X160809001Y-109222000D01*
X160652901Y-109065900D01*
X160365851Y-108947000D01*
X160055149Y-108947000D01*
X159768099Y-109065900D01*
X159548400Y-109285599D01*
X159429500Y-109572649D01*
X154705000Y-109572649D01*
X154586100Y-109285599D01*
X154366401Y-109065900D01*
X154079351Y-108947000D01*
X153768649Y-108947000D01*
X153481599Y-109065900D01*
X153325499Y-109222000D01*
X149887001Y-109222000D01*
X149730901Y-109065900D01*
X149443851Y-108947000D01*
X149133149Y-108947000D01*
X148846099Y-109065900D01*
X148626400Y-109285599D01*
X148507500Y-109572649D01*
X127168969Y-109572649D01*
X127239116Y-109220000D01*
X127143576Y-108739688D01*
X126871501Y-108332499D01*
X126467037Y-108062245D01*
X126865358Y-107875183D01*
X127255645Y-107446924D01*
X127425476Y-107036890D01*
X127304155Y-106807000D01*
X126111000Y-106807000D01*
X126111000Y-106827000D01*
X125857000Y-106827000D01*
X125857000Y-106807000D01*
X124663845Y-106807000D01*
X124542524Y-107036890D01*
X100456000Y-107036890D01*
X100456000Y-106323110D01*
X124542524Y-106323110D01*
X124663845Y-106553000D01*
X125857000Y-106553000D01*
X125857000Y-106533000D01*
X126111000Y-106533000D01*
X126111000Y-106553000D01*
X127304155Y-106553000D01*
X127425476Y-106323110D01*
X127255645Y-105913076D01*
X126865358Y-105484817D01*
X126467037Y-105297755D01*
X126871501Y-105027501D01*
X127143576Y-104620312D01*
X127239116Y-104140000D01*
X127143576Y-103659688D01*
X126871501Y-103252499D01*
X126464312Y-102980424D01*
X126105239Y-102909000D01*
X125862761Y-102909000D01*
X125503688Y-102980424D01*
X125096499Y-103252499D01*
X124824424Y-103659688D01*
X124728884Y-104140000D01*
X124824424Y-104620312D01*
X125096499Y-105027501D01*
X125500963Y-105297755D01*
X125102642Y-105484817D01*
X124712355Y-105913076D01*
X124542524Y-106323110D01*
X100456000Y-106323110D01*
X100456000Y-101600000D01*
X124728884Y-101600000D01*
X124824424Y-102080312D01*
X125096499Y-102487501D01*
X125503688Y-102759576D01*
X125862761Y-102831000D01*
X126105239Y-102831000D01*
X126464312Y-102759576D01*
X126871501Y-102487501D01*
X127143576Y-102080312D01*
X127239116Y-101600000D01*
X127143576Y-101119688D01*
X126871501Y-100712499D01*
X126464312Y-100440424D01*
X126105239Y-100369000D01*
X125862761Y-100369000D01*
X125503688Y-100440424D01*
X125096499Y-100712499D01*
X124824424Y-101119688D01*
X124728884Y-101600000D01*
X100456000Y-101600000D01*
X100456000Y-99060000D01*
X124728884Y-99060000D01*
X124824424Y-99540312D01*
X125096499Y-99947501D01*
X125503688Y-100219576D01*
X125862761Y-100291000D01*
X126105239Y-100291000D01*
X126464312Y-100219576D01*
X126871501Y-99947501D01*
X127143576Y-99540312D01*
X127239116Y-99060000D01*
X127145061Y-98587149D01*
X159048500Y-98587149D01*
X159048500Y-98897851D01*
X159167400Y-99184901D01*
X159387099Y-99404600D01*
X159674149Y-99523500D01*
X159984851Y-99523500D01*
X160271901Y-99404600D01*
X160364501Y-99312000D01*
X164501499Y-99312000D01*
X164657599Y-99468100D01*
X164944649Y-99587000D01*
X165255351Y-99587000D01*
X165542401Y-99468100D01*
X165762100Y-99248401D01*
X165881000Y-98961351D01*
X165881000Y-98650649D01*
X165762100Y-98363599D01*
X165542401Y-98143900D01*
X165255351Y-98025000D01*
X164944649Y-98025000D01*
X164657599Y-98143900D01*
X164501499Y-98300000D01*
X160491501Y-98300000D01*
X160271901Y-98080400D01*
X159984851Y-97961500D01*
X159674149Y-97961500D01*
X159387099Y-98080400D01*
X159167400Y-98300099D01*
X159048500Y-98587149D01*
X127145061Y-98587149D01*
X127143576Y-98579688D01*
X126871501Y-98172499D01*
X126464312Y-97900424D01*
X126105239Y-97829000D01*
X125862761Y-97829000D01*
X125503688Y-97900424D01*
X125096499Y-98172499D01*
X124824424Y-98579688D01*
X124728884Y-99060000D01*
X100456000Y-99060000D01*
X100456000Y-96520000D01*
X124728884Y-96520000D01*
X124824424Y-97000312D01*
X125096499Y-97407501D01*
X125503688Y-97679576D01*
X125862761Y-97751000D01*
X126105239Y-97751000D01*
X126464312Y-97679576D01*
X126871501Y-97407501D01*
X127143576Y-97000312D01*
X127239116Y-96520000D01*
X127143576Y-96039688D01*
X126871501Y-95632499D01*
X126464312Y-95360424D01*
X126105239Y-95289000D01*
X125862761Y-95289000D01*
X125503688Y-95360424D01*
X125096499Y-95632499D01*
X124824424Y-96039688D01*
X124728884Y-96520000D01*
X100456000Y-96520000D01*
X100456000Y-92399649D01*
X100467996Y-92407664D01*
X100711000Y-92456000D01*
X101247000Y-92456000D01*
X101247000Y-93133882D01*
X101571425Y-93917115D01*
X102170885Y-94516575D01*
X102954118Y-94841000D01*
X103801882Y-94841000D01*
X104585115Y-94516575D01*
X105184575Y-93917115D01*
X105509000Y-93133882D01*
X105509000Y-92456000D01*
X112141000Y-92456000D01*
X112384004Y-92407664D01*
X112590013Y-92270013D01*
X112727664Y-92064004D01*
X112776000Y-91821000D01*
X112776000Y-76173107D01*
X113080803Y-76112478D01*
X113471453Y-75851453D01*
X113732478Y-75460803D01*
X113824137Y-75000000D01*
X113955863Y-75000000D01*
X114047522Y-75460803D01*
X114308547Y-75851453D01*
X114699197Y-76112478D01*
X115043682Y-76181000D01*
X115276318Y-76181000D01*
X115620803Y-76112478D01*
X115779002Y-76006773D01*
X115779001Y-84343853D01*
X115766639Y-84406001D01*
X115779001Y-84468148D01*
X115815612Y-84652204D01*
X115955075Y-84860927D01*
X116007766Y-84896134D01*
X124789068Y-93677437D01*
X124728884Y-93980000D01*
X124824424Y-94460312D01*
X125096499Y-94867501D01*
X125503688Y-95139576D01*
X125862761Y-95211000D01*
X126105239Y-95211000D01*
X126464312Y-95139576D01*
X126871501Y-94867501D01*
X127143576Y-94460312D01*
X127239116Y-93980000D01*
X127143576Y-93499688D01*
X126871501Y-93092499D01*
X126464312Y-92820424D01*
X126105239Y-92749000D01*
X125862761Y-92749000D01*
X125681437Y-92785068D01*
X125323302Y-92426933D01*
X149269000Y-92426933D01*
X149269000Y-93573067D01*
X149707606Y-94631955D01*
X150518045Y-95442394D01*
X151576933Y-95881000D01*
X152723067Y-95881000D01*
X153781955Y-95442394D01*
X154592394Y-94631955D01*
X155031000Y-93573067D01*
X155031000Y-92426933D01*
X154592394Y-91368045D01*
X153781955Y-90557606D01*
X152723067Y-90119000D01*
X151576933Y-90119000D01*
X150518045Y-90557606D01*
X149707606Y-91368045D01*
X149269000Y-92426933D01*
X125323302Y-92426933D01*
X117041001Y-84144633D01*
X117041001Y-79244649D01*
X159619000Y-79244649D01*
X159619000Y-79555351D01*
X159737900Y-79842401D01*
X159894001Y-79998502D01*
X159894000Y-87150166D01*
X159884087Y-87200000D01*
X159894000Y-87249834D01*
X159923359Y-87397430D01*
X160035194Y-87564806D01*
X160077448Y-87593039D01*
X182219000Y-109734593D01*
X182219000Y-109955351D01*
X182337900Y-110242401D01*
X182557599Y-110462100D01*
X182844649Y-110581000D01*
X183155351Y-110581000D01*
X183442401Y-110462100D01*
X183662100Y-110242401D01*
X183781000Y-109955351D01*
X183781000Y-109644649D01*
X183662100Y-109357599D01*
X183442401Y-109137900D01*
X183155351Y-109019000D01*
X182934593Y-109019000D01*
X181221593Y-107306000D01*
X183790409Y-107306000D01*
X186219000Y-109734592D01*
X186219000Y-109955351D01*
X186337900Y-110242401D01*
X186557599Y-110462100D01*
X186844649Y-110581000D01*
X187155351Y-110581000D01*
X187442401Y-110462100D01*
X187662100Y-110242401D01*
X187781000Y-109955351D01*
X187781000Y-109644649D01*
X187662100Y-109357599D01*
X187442401Y-109137900D01*
X187155351Y-109019000D01*
X186934592Y-109019000D01*
X184621591Y-106706000D01*
X187190409Y-106706000D01*
X190219000Y-109734592D01*
X190219000Y-109955351D01*
X190337900Y-110242401D01*
X190557599Y-110462100D01*
X190844649Y-110581000D01*
X191155351Y-110581000D01*
X191442401Y-110462100D01*
X191662100Y-110242401D01*
X191781000Y-109955351D01*
X191781000Y-109644649D01*
X191662100Y-109357599D01*
X191442401Y-109137900D01*
X191155351Y-109019000D01*
X190934592Y-109019000D01*
X187793039Y-105877448D01*
X187764806Y-105835194D01*
X187597431Y-105723359D01*
X187449835Y-105694000D01*
X187449834Y-105694000D01*
X187400000Y-105684087D01*
X187350166Y-105694000D01*
X180973181Y-105694000D01*
X179210180Y-103930999D01*
X186511502Y-103930999D01*
X186369000Y-104275030D01*
X186369000Y-104724970D01*
X186541184Y-105140660D01*
X186859340Y-105458816D01*
X187275030Y-105631000D01*
X187724970Y-105631000D01*
X188140660Y-105458816D01*
X188458816Y-105140660D01*
X188631000Y-104724970D01*
X188631000Y-104275030D01*
X188488498Y-103930999D01*
X191215408Y-103930999D01*
X191424778Y-104140369D01*
X191369000Y-104275030D01*
X191369000Y-104724970D01*
X191541184Y-105140660D01*
X191859340Y-105458816D01*
X192275030Y-105631000D01*
X192724970Y-105631000D01*
X193140660Y-105458816D01*
X193458816Y-105140660D01*
X193631000Y-104724970D01*
X193631000Y-104275030D01*
X193458816Y-103859340D01*
X193140660Y-103541184D01*
X192724970Y-103369000D01*
X192275030Y-103369000D01*
X192140369Y-103424778D01*
X191818037Y-103102446D01*
X191789805Y-103060193D01*
X191622430Y-102948358D01*
X191474834Y-102918999D01*
X191474833Y-102918999D01*
X191424999Y-102909086D01*
X191375165Y-102918999D01*
X178834591Y-102918999D01*
X171815592Y-95900000D01*
X183011536Y-95900000D01*
X183011536Y-99100000D01*
X183041106Y-99248659D01*
X183125314Y-99374686D01*
X183251341Y-99458894D01*
X183400000Y-99488464D01*
X185400000Y-99488464D01*
X185548659Y-99458894D01*
X185674686Y-99374686D01*
X185758894Y-99248659D01*
X185788464Y-99100000D01*
X185788464Y-95900000D01*
X194211536Y-95900000D01*
X194211536Y-99100000D01*
X194241106Y-99248659D01*
X194325314Y-99374686D01*
X194451341Y-99458894D01*
X194600000Y-99488464D01*
X196600000Y-99488464D01*
X196748659Y-99458894D01*
X196874686Y-99374686D01*
X196958894Y-99248659D01*
X196988464Y-99100000D01*
X196988464Y-95900000D01*
X196958894Y-95751341D01*
X196874686Y-95625314D01*
X196748659Y-95541106D01*
X196600000Y-95511536D01*
X194600000Y-95511536D01*
X194451341Y-95541106D01*
X194325314Y-95625314D01*
X194241106Y-95751341D01*
X194211536Y-95900000D01*
X185788464Y-95900000D01*
X185758894Y-95751341D01*
X185674686Y-95625314D01*
X185548659Y-95541106D01*
X185400000Y-95511536D01*
X183400000Y-95511536D01*
X183251341Y-95541106D01*
X183125314Y-95625314D01*
X183041106Y-95751341D01*
X183011536Y-95900000D01*
X171815592Y-95900000D01*
X171456938Y-95541347D01*
X172276933Y-95881000D01*
X173423067Y-95881000D01*
X174481955Y-95442394D01*
X175292394Y-94631955D01*
X175731000Y-93573067D01*
X175731000Y-92426933D01*
X175292394Y-91368045D01*
X174481955Y-90557606D01*
X173423067Y-90119000D01*
X172276933Y-90119000D01*
X171218045Y-90557606D01*
X170407606Y-91368045D01*
X169969000Y-92426933D01*
X169969000Y-93573067D01*
X170308653Y-94393062D01*
X168755600Y-92840009D01*
X168755600Y-89725302D01*
X186119000Y-89725302D01*
X186119000Y-90274698D01*
X186329245Y-90782273D01*
X186717727Y-91170755D01*
X187225302Y-91381000D01*
X187774698Y-91381000D01*
X188282273Y-91170755D01*
X188670755Y-90782273D01*
X188750000Y-90590959D01*
X188829245Y-90782273D01*
X189217727Y-91170755D01*
X189725302Y-91381000D01*
X190274698Y-91381000D01*
X190782273Y-91170755D01*
X191111536Y-90841492D01*
X191111536Y-91000000D01*
X191141106Y-91148659D01*
X191225314Y-91274686D01*
X191351341Y-91358894D01*
X191500000Y-91388464D01*
X193500000Y-91388464D01*
X193648659Y-91358894D01*
X193774686Y-91274686D01*
X193858894Y-91148659D01*
X193888464Y-91000000D01*
X193888464Y-89000000D01*
X193858894Y-88851341D01*
X193774686Y-88725314D01*
X193648659Y-88641106D01*
X193500000Y-88611536D01*
X191500000Y-88611536D01*
X191351341Y-88641106D01*
X191225314Y-88725314D01*
X191141106Y-88851341D01*
X191111536Y-89000000D01*
X191111536Y-89158508D01*
X190782273Y-88829245D01*
X190274698Y-88619000D01*
X189725302Y-88619000D01*
X189217727Y-88829245D01*
X188829245Y-89217727D01*
X188750000Y-89409041D01*
X188670755Y-89217727D01*
X188282273Y-88829245D01*
X187774698Y-88619000D01*
X187225302Y-88619000D01*
X186717727Y-88829245D01*
X186329245Y-89217727D01*
X186119000Y-89725302D01*
X168755600Y-89725302D01*
X168755600Y-89395683D01*
X168844401Y-89358900D01*
X169064100Y-89139201D01*
X169183000Y-88852151D01*
X169183000Y-88541449D01*
X169064100Y-88254399D01*
X168844401Y-88034700D01*
X168557351Y-87915800D01*
X168246649Y-87915800D01*
X167959599Y-88034700D01*
X167739900Y-88254399D01*
X167621000Y-88541449D01*
X167621000Y-88852151D01*
X167739900Y-89139201D01*
X167743601Y-89142902D01*
X167743600Y-92464420D01*
X163506000Y-88226820D01*
X163506000Y-79998501D01*
X163662100Y-79842401D01*
X163781000Y-79555351D01*
X163781000Y-79244649D01*
X163662100Y-78957599D01*
X163442401Y-78737900D01*
X163155351Y-78619000D01*
X162844649Y-78619000D01*
X162557599Y-78737900D01*
X162337900Y-78957599D01*
X162300000Y-79049098D01*
X162262100Y-78957599D01*
X162042401Y-78737900D01*
X161755351Y-78619000D01*
X161444649Y-78619000D01*
X161157599Y-78737900D01*
X161000000Y-78895499D01*
X160842401Y-78737900D01*
X160555351Y-78619000D01*
X160244649Y-78619000D01*
X159957599Y-78737900D01*
X159737900Y-78957599D01*
X159619000Y-79244649D01*
X117041001Y-79244649D01*
X117041001Y-78480000D01*
X189874036Y-78480000D01*
X189874036Y-79780000D01*
X189922636Y-80024330D01*
X190061038Y-80231462D01*
X190268170Y-80369864D01*
X190512500Y-80418464D01*
X193612500Y-80418464D01*
X193856830Y-80369864D01*
X194063962Y-80231462D01*
X194202364Y-80024330D01*
X194250964Y-79780000D01*
X194250964Y-78480000D01*
X194202364Y-78235670D01*
X194063962Y-78028538D01*
X193856830Y-77890136D01*
X193612500Y-77841536D01*
X190512500Y-77841536D01*
X190268170Y-77890136D01*
X190061038Y-78028538D01*
X189922636Y-78235670D01*
X189874036Y-78480000D01*
X117041001Y-78480000D01*
X117041001Y-75980047D01*
X117239197Y-76112478D01*
X117583682Y-76181000D01*
X117816318Y-76181000D01*
X118160803Y-76112478D01*
X118551453Y-75851453D01*
X118812478Y-75460803D01*
X118904137Y-75000000D01*
X119035863Y-75000000D01*
X119127522Y-75460803D01*
X119388547Y-75851453D01*
X119779197Y-76112478D01*
X120123682Y-76181000D01*
X120356318Y-76181000D01*
X120700803Y-76112478D01*
X121091453Y-75851453D01*
X121352478Y-75460803D01*
X121444137Y-75000000D01*
X121575863Y-75000000D01*
X121667522Y-75460803D01*
X121928547Y-75851453D01*
X122319197Y-76112478D01*
X122663682Y-76181000D01*
X122896318Y-76181000D01*
X123240803Y-76112478D01*
X123631453Y-75851453D01*
X123892478Y-75460803D01*
X123984137Y-75000000D01*
X124115863Y-75000000D01*
X124207522Y-75460803D01*
X124468547Y-75851453D01*
X124859197Y-76112478D01*
X125203682Y-76181000D01*
X125436318Y-76181000D01*
X125780803Y-76112478D01*
X126171453Y-75851453D01*
X126432478Y-75460803D01*
X126524137Y-75000000D01*
X126655863Y-75000000D01*
X126747522Y-75460803D01*
X127008547Y-75851453D01*
X127399197Y-76112478D01*
X127743682Y-76181000D01*
X127976318Y-76181000D01*
X128320803Y-76112478D01*
X128711453Y-75851453D01*
X128972478Y-75460803D01*
X129064137Y-75000000D01*
X129195863Y-75000000D01*
X129287522Y-75460803D01*
X129548547Y-75851453D01*
X129939197Y-76112478D01*
X130283682Y-76181000D01*
X130516318Y-76181000D01*
X130860803Y-76112478D01*
X131251453Y-75851453D01*
X131512478Y-75460803D01*
X131604137Y-75000000D01*
X131735863Y-75000000D01*
X131827522Y-75460803D01*
X132088547Y-75851453D01*
X132479197Y-76112478D01*
X132823682Y-76181000D01*
X133056318Y-76181000D01*
X133400803Y-76112478D01*
X133791453Y-75851453D01*
X134052478Y-75460803D01*
X134144137Y-75000000D01*
X134275863Y-75000000D01*
X134367522Y-75460803D01*
X134628547Y-75851453D01*
X135019197Y-76112478D01*
X135363682Y-76181000D01*
X135596318Y-76181000D01*
X135940803Y-76112478D01*
X136331453Y-75851453D01*
X136592478Y-75460803D01*
X136684137Y-75000000D01*
X136815863Y-75000000D01*
X136907522Y-75460803D01*
X137168547Y-75851453D01*
X137559197Y-76112478D01*
X137903682Y-76181000D01*
X138136318Y-76181000D01*
X138480803Y-76112478D01*
X138871453Y-75851453D01*
X139132478Y-75460803D01*
X139224137Y-75000000D01*
X139355863Y-75000000D01*
X139447522Y-75460803D01*
X139708547Y-75851453D01*
X140099197Y-76112478D01*
X140443682Y-76181000D01*
X140676318Y-76181000D01*
X141020803Y-76112478D01*
X141411453Y-75851453D01*
X141672478Y-75460803D01*
X141764137Y-75000000D01*
X141672478Y-74539197D01*
X141411453Y-74148547D01*
X141020803Y-73887522D01*
X140676318Y-73819000D01*
X140443682Y-73819000D01*
X140099197Y-73887522D01*
X139708547Y-74148547D01*
X139447522Y-74539197D01*
X139355863Y-75000000D01*
X139224137Y-75000000D01*
X139132478Y-74539197D01*
X138871453Y-74148547D01*
X138480803Y-73887522D01*
X138136318Y-73819000D01*
X137903682Y-73819000D01*
X137559197Y-73887522D01*
X137168547Y-74148547D01*
X136907522Y-74539197D01*
X136815863Y-75000000D01*
X136684137Y-75000000D01*
X136592478Y-74539197D01*
X136331453Y-74148547D01*
X135940803Y-73887522D01*
X135596318Y-73819000D01*
X135363682Y-73819000D01*
X135019197Y-73887522D01*
X134628547Y-74148547D01*
X134367522Y-74539197D01*
X134275863Y-75000000D01*
X134144137Y-75000000D01*
X134052478Y-74539197D01*
X133791453Y-74148547D01*
X133571000Y-74001244D01*
X133571000Y-71130964D01*
X141060130Y-63641835D01*
X141060132Y-63641832D01*
X141081368Y-63620596D01*
X141125351Y-63620596D01*
X141412401Y-63501696D01*
X141632100Y-63281997D01*
X141751000Y-62994947D01*
X141751000Y-62684245D01*
X141632100Y-62397195D01*
X141412401Y-62177496D01*
X141125351Y-62058596D01*
X140814649Y-62058596D01*
X140527599Y-62177496D01*
X140307900Y-62397195D01*
X140189000Y-62684245D01*
X140189000Y-62728228D01*
X140167764Y-62749464D01*
X140167761Y-62749466D01*
X132537763Y-70379465D01*
X132485075Y-70414670D01*
X132449871Y-70467357D01*
X132345611Y-70623393D01*
X132296638Y-70869596D01*
X132309001Y-70931749D01*
X132309000Y-74001244D01*
X132088547Y-74148547D01*
X131827522Y-74539197D01*
X131735863Y-75000000D01*
X131604137Y-75000000D01*
X131512478Y-74539197D01*
X131251453Y-74148547D01*
X130860803Y-73887522D01*
X130516318Y-73819000D01*
X130283682Y-73819000D01*
X129939197Y-73887522D01*
X129548547Y-74148547D01*
X129287522Y-74539197D01*
X129195863Y-75000000D01*
X129064137Y-75000000D01*
X128972478Y-74539197D01*
X128711453Y-74148547D01*
X128320803Y-73887522D01*
X127976318Y-73819000D01*
X127743682Y-73819000D01*
X127399197Y-73887522D01*
X127008547Y-74148547D01*
X126747522Y-74539197D01*
X126655863Y-75000000D01*
X126524137Y-75000000D01*
X126432478Y-74539197D01*
X126171453Y-74148547D01*
X125780803Y-73887522D01*
X125436318Y-73819000D01*
X125203682Y-73819000D01*
X124859197Y-73887522D01*
X124468547Y-74148547D01*
X124207522Y-74539197D01*
X124115863Y-75000000D01*
X123984137Y-75000000D01*
X123892478Y-74539197D01*
X123631453Y-74148547D01*
X123240803Y-73887522D01*
X122896318Y-73819000D01*
X122663682Y-73819000D01*
X122319197Y-73887522D01*
X121928547Y-74148547D01*
X121667522Y-74539197D01*
X121575863Y-75000000D01*
X121444137Y-75000000D01*
X121352478Y-74539197D01*
X121091453Y-74148547D01*
X120700803Y-73887522D01*
X120356318Y-73819000D01*
X120123682Y-73819000D01*
X119779197Y-73887522D01*
X119388547Y-74148547D01*
X119127522Y-74539197D01*
X119035863Y-75000000D01*
X118904137Y-75000000D01*
X118812478Y-74539197D01*
X118551453Y-74148547D01*
X118160803Y-73887522D01*
X117816318Y-73819000D01*
X117583682Y-73819000D01*
X117239197Y-73887522D01*
X117041001Y-74019953D01*
X117041001Y-71401363D01*
X127283450Y-61158914D01*
X127306205Y-61154388D01*
X127514927Y-61014925D01*
X127550133Y-60962235D01*
X127599957Y-60912411D01*
X127743682Y-60941000D01*
X127976318Y-60941000D01*
X128320803Y-60872478D01*
X128711453Y-60611453D01*
X128972478Y-60220803D01*
X129064137Y-59760000D01*
X129195863Y-59760000D01*
X129287522Y-60220803D01*
X129548547Y-60611453D01*
X129939197Y-60872478D01*
X130283682Y-60941000D01*
X130516318Y-60941000D01*
X130860803Y-60872478D01*
X131251453Y-60611453D01*
X131512478Y-60220803D01*
X131604137Y-59760000D01*
X131735863Y-59760000D01*
X131827522Y-60220803D01*
X132088547Y-60611453D01*
X132479197Y-60872478D01*
X132823682Y-60941000D01*
X133056318Y-60941000D01*
X133400803Y-60872478D01*
X133791453Y-60611453D01*
X134052478Y-60220803D01*
X134144137Y-59760000D01*
X134275863Y-59760000D01*
X134367522Y-60220803D01*
X134628547Y-60611453D01*
X135019197Y-60872478D01*
X135363682Y-60941000D01*
X135596318Y-60941000D01*
X135940803Y-60872478D01*
X136331453Y-60611453D01*
X136592478Y-60220803D01*
X136684137Y-59760000D01*
X136815863Y-59760000D01*
X136907522Y-60220803D01*
X137168547Y-60611453D01*
X137559197Y-60872478D01*
X137903682Y-60941000D01*
X138136318Y-60941000D01*
X138480803Y-60872478D01*
X138871453Y-60611453D01*
X139132478Y-60220803D01*
X139224137Y-59760000D01*
X139355863Y-59760000D01*
X139447522Y-60220803D01*
X139708547Y-60611453D01*
X140099197Y-60872478D01*
X140443682Y-60941000D01*
X140676318Y-60941000D01*
X140820043Y-60912411D01*
X142180501Y-62272869D01*
X142180500Y-74329499D01*
X142149400Y-74360599D01*
X142030500Y-74647649D01*
X142030500Y-74958351D01*
X142149400Y-75245401D01*
X142369099Y-75465100D01*
X142656149Y-75584000D01*
X142966851Y-75584000D01*
X143253901Y-75465100D01*
X143473600Y-75245401D01*
X143592500Y-74958351D01*
X143592500Y-74647649D01*
X143473600Y-74360599D01*
X143442500Y-74329499D01*
X143442500Y-63497049D01*
X143491000Y-63497049D01*
X143491000Y-63807751D01*
X143609900Y-64094801D01*
X143829599Y-64314500D01*
X144020001Y-64393367D01*
X144020000Y-74179099D01*
X143863900Y-74335199D01*
X143745000Y-74622249D01*
X143745000Y-74932951D01*
X143863900Y-75220001D01*
X144083599Y-75439700D01*
X144370649Y-75558600D01*
X144681351Y-75558600D01*
X144968401Y-75439700D01*
X145188100Y-75220001D01*
X145307000Y-74932951D01*
X145307000Y-74622249D01*
X145221047Y-74414740D01*
X189671464Y-74414740D01*
X189695744Y-74520086D01*
X189987288Y-75045606D01*
X190457748Y-75419554D01*
X191035500Y-75585000D01*
X191935500Y-75585000D01*
X191935500Y-74177000D01*
X192189500Y-74177000D01*
X192189500Y-75585000D01*
X193089500Y-75585000D01*
X193667252Y-75419554D01*
X194137712Y-75045606D01*
X194429256Y-74520086D01*
X194453536Y-74414740D01*
X194332878Y-74177000D01*
X192189500Y-74177000D01*
X191935500Y-74177000D01*
X189792122Y-74177000D01*
X189671464Y-74414740D01*
X145221047Y-74414740D01*
X145188100Y-74335199D01*
X145032000Y-74179099D01*
X145032000Y-73685260D01*
X189671464Y-73685260D01*
X189792122Y-73923000D01*
X191935500Y-73923000D01*
X191935500Y-72515000D01*
X192189500Y-72515000D01*
X192189500Y-73923000D01*
X194332878Y-73923000D01*
X194453536Y-73685260D01*
X194429256Y-73579914D01*
X194137712Y-73054394D01*
X193667252Y-72680446D01*
X193089500Y-72515000D01*
X192189500Y-72515000D01*
X191935500Y-72515000D01*
X191035500Y-72515000D01*
X190457748Y-72680446D01*
X189987288Y-73054394D01*
X189695744Y-73579914D01*
X189671464Y-73685260D01*
X145032000Y-73685260D01*
X145032000Y-69226933D01*
X149269000Y-69226933D01*
X149269000Y-70373067D01*
X149707606Y-71431955D01*
X150518045Y-72242394D01*
X151576933Y-72681000D01*
X152723067Y-72681000D01*
X153781955Y-72242394D01*
X154592394Y-71431955D01*
X155031000Y-70373067D01*
X155031000Y-69226933D01*
X154750606Y-68550000D01*
X157511536Y-68550000D01*
X157511536Y-70250000D01*
X157541106Y-70398659D01*
X157625314Y-70524686D01*
X157751341Y-70608894D01*
X157900000Y-70638464D01*
X159600000Y-70638464D01*
X159748659Y-70608894D01*
X159874686Y-70524686D01*
X159958894Y-70398659D01*
X159988464Y-70250000D01*
X159988464Y-70054895D01*
X160094817Y-70281358D01*
X160523076Y-70671645D01*
X160933110Y-70841476D01*
X161163000Y-70720155D01*
X161163000Y-69527000D01*
X161143000Y-69527000D01*
X161143000Y-69273000D01*
X161163000Y-69273000D01*
X161163000Y-68079845D01*
X161417000Y-68079845D01*
X161417000Y-69273000D01*
X161437000Y-69273000D01*
X161437000Y-69527000D01*
X161417000Y-69527000D01*
X161417000Y-70720155D01*
X161646890Y-70841476D01*
X162056924Y-70671645D01*
X162485183Y-70281358D01*
X162672245Y-69883037D01*
X162942499Y-70287501D01*
X163349688Y-70559576D01*
X163708761Y-70631000D01*
X163951239Y-70631000D01*
X164310312Y-70559576D01*
X164717501Y-70287501D01*
X164989576Y-69880312D01*
X165085116Y-69400000D01*
X165114884Y-69400000D01*
X165210424Y-69880312D01*
X165482499Y-70287501D01*
X165889688Y-70559576D01*
X166248761Y-70631000D01*
X166491239Y-70631000D01*
X166850312Y-70559576D01*
X167257501Y-70287501D01*
X167529576Y-69880312D01*
X167625116Y-69400000D01*
X167590691Y-69226933D01*
X169969000Y-69226933D01*
X169969000Y-70373067D01*
X170407606Y-71431955D01*
X171218045Y-72242394D01*
X172276933Y-72681000D01*
X173423067Y-72681000D01*
X174481955Y-72242394D01*
X175292394Y-71431955D01*
X175731000Y-70373067D01*
X175731000Y-69226933D01*
X175292394Y-68168045D01*
X174481955Y-67357606D01*
X174053177Y-67180000D01*
X189874036Y-67180000D01*
X189874036Y-68480000D01*
X189922636Y-68724330D01*
X190061038Y-68931462D01*
X190268170Y-69069864D01*
X190512500Y-69118464D01*
X193612500Y-69118464D01*
X193856830Y-69069864D01*
X194063962Y-68931462D01*
X194202364Y-68724330D01*
X194250964Y-68480000D01*
X194250964Y-67180000D01*
X194202364Y-66935670D01*
X194063962Y-66728538D01*
X193856830Y-66590136D01*
X193612500Y-66541536D01*
X190512500Y-66541536D01*
X190268170Y-66590136D01*
X190061038Y-66728538D01*
X189922636Y-66935670D01*
X189874036Y-67180000D01*
X174053177Y-67180000D01*
X173423067Y-66919000D01*
X172276933Y-66919000D01*
X171218045Y-67357606D01*
X170407606Y-68168045D01*
X169969000Y-69226933D01*
X167590691Y-69226933D01*
X167529576Y-68919688D01*
X167257501Y-68512499D01*
X166850312Y-68240424D01*
X166491239Y-68169000D01*
X166248761Y-68169000D01*
X165889688Y-68240424D01*
X165482499Y-68512499D01*
X165210424Y-68919688D01*
X165114884Y-69400000D01*
X165085116Y-69400000D01*
X164989576Y-68919688D01*
X164717501Y-68512499D01*
X164310312Y-68240424D01*
X163951239Y-68169000D01*
X163708761Y-68169000D01*
X163349688Y-68240424D01*
X162942499Y-68512499D01*
X162672245Y-68916963D01*
X162485183Y-68518642D01*
X162056924Y-68128355D01*
X161646890Y-67958524D01*
X161417000Y-68079845D01*
X161163000Y-68079845D01*
X160933110Y-67958524D01*
X160523076Y-68128355D01*
X160094817Y-68518642D01*
X159988464Y-68745105D01*
X159988464Y-68550000D01*
X159958894Y-68401341D01*
X159874686Y-68275314D01*
X159748659Y-68191106D01*
X159600000Y-68161536D01*
X157900000Y-68161536D01*
X157751341Y-68191106D01*
X157625314Y-68275314D01*
X157541106Y-68401341D01*
X157511536Y-68550000D01*
X154750606Y-68550000D01*
X154592394Y-68168045D01*
X153781955Y-67357606D01*
X152723067Y-66919000D01*
X151576933Y-66919000D01*
X150518045Y-67357606D01*
X149707606Y-68168045D01*
X149269000Y-69226933D01*
X145032000Y-69226933D01*
X145032000Y-63956233D01*
X145041913Y-63906399D01*
X145032253Y-63857838D01*
X145053000Y-63807751D01*
X145053000Y-63497049D01*
X144934100Y-63209999D01*
X144838841Y-63114740D01*
X189671464Y-63114740D01*
X189695744Y-63220086D01*
X189987288Y-63745606D01*
X190457748Y-64119554D01*
X191035500Y-64285000D01*
X191935500Y-64285000D01*
X191935500Y-62877000D01*
X192189500Y-62877000D01*
X192189500Y-64285000D01*
X193089500Y-64285000D01*
X193667252Y-64119554D01*
X194137712Y-63745606D01*
X194429256Y-63220086D01*
X194453536Y-63114740D01*
X194332878Y-62877000D01*
X192189500Y-62877000D01*
X191935500Y-62877000D01*
X189792122Y-62877000D01*
X189671464Y-63114740D01*
X144838841Y-63114740D01*
X144714401Y-62990300D01*
X144427351Y-62871400D01*
X144116649Y-62871400D01*
X143829599Y-62990300D01*
X143609900Y-63209999D01*
X143491000Y-63497049D01*
X143442500Y-63497049D01*
X143442500Y-62385260D01*
X189671464Y-62385260D01*
X189792122Y-62623000D01*
X191935500Y-62623000D01*
X191935500Y-61215000D01*
X192189500Y-61215000D01*
X192189500Y-62623000D01*
X194332878Y-62623000D01*
X194453536Y-62385260D01*
X194429256Y-62279914D01*
X194137712Y-61754394D01*
X193667252Y-61380446D01*
X193089500Y-61215000D01*
X192189500Y-61215000D01*
X191935500Y-61215000D01*
X191035500Y-61215000D01*
X190457748Y-61380446D01*
X189987288Y-61754394D01*
X189695744Y-62279914D01*
X189671464Y-62385260D01*
X143442500Y-62385260D01*
X143442500Y-62073648D01*
X143454862Y-62011500D01*
X143405889Y-61765296D01*
X143266426Y-61556574D01*
X143213735Y-61521367D01*
X141712411Y-60020043D01*
X141764137Y-59760000D01*
X141672478Y-59299197D01*
X141411453Y-58908547D01*
X141020803Y-58647522D01*
X140676318Y-58579000D01*
X140443682Y-58579000D01*
X140099197Y-58647522D01*
X139708547Y-58908547D01*
X139447522Y-59299197D01*
X139355863Y-59760000D01*
X139224137Y-59760000D01*
X139132478Y-59299197D01*
X138871453Y-58908547D01*
X138480803Y-58647522D01*
X138136318Y-58579000D01*
X137903682Y-58579000D01*
X137559197Y-58647522D01*
X137168547Y-58908547D01*
X136907522Y-59299197D01*
X136815863Y-59760000D01*
X136684137Y-59760000D01*
X136592478Y-59299197D01*
X136331453Y-58908547D01*
X135940803Y-58647522D01*
X135596318Y-58579000D01*
X135363682Y-58579000D01*
X135019197Y-58647522D01*
X134628547Y-58908547D01*
X134367522Y-59299197D01*
X134275863Y-59760000D01*
X134144137Y-59760000D01*
X134052478Y-59299197D01*
X133791453Y-58908547D01*
X133400803Y-58647522D01*
X133056318Y-58579000D01*
X132823682Y-58579000D01*
X132479197Y-58647522D01*
X132088547Y-58908547D01*
X131827522Y-59299197D01*
X131735863Y-59760000D01*
X131604137Y-59760000D01*
X131512478Y-59299197D01*
X131251453Y-58908547D01*
X130860803Y-58647522D01*
X130516318Y-58579000D01*
X130283682Y-58579000D01*
X129939197Y-58647522D01*
X129548547Y-58908547D01*
X129287522Y-59299197D01*
X129195863Y-59760000D01*
X129064137Y-59760000D01*
X128972478Y-59299197D01*
X128711453Y-58908547D01*
X128320803Y-58647522D01*
X127976318Y-58579000D01*
X127743682Y-58579000D01*
X127399197Y-58647522D01*
X127008547Y-58908547D01*
X126747522Y-59299197D01*
X126655863Y-59760000D01*
X126702279Y-59993349D01*
X126535071Y-60105073D01*
X126499864Y-60157764D01*
X126423724Y-60233904D01*
X126432478Y-60220803D01*
X126524137Y-59760000D01*
X126432478Y-59299197D01*
X126171453Y-58908547D01*
X125780803Y-58647522D01*
X125436318Y-58579000D01*
X125203682Y-58579000D01*
X124859197Y-58647522D01*
X124468547Y-58908547D01*
X124207522Y-59299197D01*
X124115863Y-59760000D01*
X124207522Y-60220803D01*
X124468547Y-60611453D01*
X124859197Y-60872478D01*
X125203682Y-60941000D01*
X125436318Y-60941000D01*
X125780803Y-60872478D01*
X125793904Y-60863724D01*
X116007764Y-70649864D01*
X115955076Y-70685069D01*
X115919872Y-70737756D01*
X115815612Y-70893792D01*
X115766639Y-71139995D01*
X115779002Y-71202148D01*
X115779002Y-73993227D01*
X115620803Y-73887522D01*
X115276318Y-73819000D01*
X115043682Y-73819000D01*
X114699197Y-73887522D01*
X114308547Y-74148547D01*
X114047522Y-74539197D01*
X113955863Y-75000000D01*
X113824137Y-75000000D01*
X113732478Y-74539197D01*
X113471453Y-74148547D01*
X113080803Y-73887522D01*
X112776000Y-73826893D01*
X112776000Y-60933107D01*
X113080803Y-60872478D01*
X113471453Y-60611453D01*
X113732478Y-60220803D01*
X113824137Y-59760000D01*
X113955863Y-59760000D01*
X114047522Y-60220803D01*
X114308547Y-60611453D01*
X114699197Y-60872478D01*
X115043682Y-60941000D01*
X115276318Y-60941000D01*
X115620803Y-60872478D01*
X116011453Y-60611453D01*
X116272478Y-60220803D01*
X116364137Y-59760000D01*
X116495863Y-59760000D01*
X116587522Y-60220803D01*
X116848547Y-60611453D01*
X117239197Y-60872478D01*
X117583682Y-60941000D01*
X117816318Y-60941000D01*
X118160803Y-60872478D01*
X118551453Y-60611453D01*
X118812478Y-60220803D01*
X118904137Y-59760000D01*
X119035863Y-59760000D01*
X119127522Y-60220803D01*
X119388547Y-60611453D01*
X119779197Y-60872478D01*
X120123682Y-60941000D01*
X120356318Y-60941000D01*
X120700803Y-60872478D01*
X121091453Y-60611453D01*
X121352478Y-60220803D01*
X121444137Y-59760000D01*
X121575863Y-59760000D01*
X121667522Y-60220803D01*
X121928547Y-60611453D01*
X122319197Y-60872478D01*
X122663682Y-60941000D01*
X122896318Y-60941000D01*
X123240803Y-60872478D01*
X123631453Y-60611453D01*
X123892478Y-60220803D01*
X123984137Y-59760000D01*
X123892478Y-59299197D01*
X123631453Y-58908547D01*
X123240803Y-58647522D01*
X122896318Y-58579000D01*
X122663682Y-58579000D01*
X122319197Y-58647522D01*
X121928547Y-58908547D01*
X121667522Y-59299197D01*
X121575863Y-59760000D01*
X121444137Y-59760000D01*
X121352478Y-59299197D01*
X121091453Y-58908547D01*
X120700803Y-58647522D01*
X120356318Y-58579000D01*
X120123682Y-58579000D01*
X119779197Y-58647522D01*
X119388547Y-58908547D01*
X119127522Y-59299197D01*
X119035863Y-59760000D01*
X118904137Y-59760000D01*
X118812478Y-59299197D01*
X118551453Y-58908547D01*
X118160803Y-58647522D01*
X117816318Y-58579000D01*
X117583682Y-58579000D01*
X117239197Y-58647522D01*
X116848547Y-58908547D01*
X116587522Y-59299197D01*
X116495863Y-59760000D01*
X116364137Y-59760000D01*
X116272478Y-59299197D01*
X116011453Y-58908547D01*
X115620803Y-58647522D01*
X115276318Y-58579000D01*
X115043682Y-58579000D01*
X114699197Y-58647522D01*
X114308547Y-58908547D01*
X114047522Y-59299197D01*
X113955863Y-59760000D01*
X113824137Y-59760000D01*
X113732478Y-59299197D01*
X113471453Y-58908547D01*
X113080803Y-58647522D01*
X112776000Y-58586893D01*
X112776000Y-58197750D01*
X159655000Y-58197750D01*
X159655000Y-59038310D01*
X159751673Y-59271699D01*
X159930302Y-59450327D01*
X160163691Y-59547000D01*
X161004250Y-59547000D01*
X161163000Y-59388250D01*
X161163000Y-58039000D01*
X161417000Y-58039000D01*
X161417000Y-59388250D01*
X161575750Y-59547000D01*
X162416309Y-59547000D01*
X162649698Y-59450327D01*
X162828327Y-59271699D01*
X162925000Y-59038310D01*
X162925000Y-58197750D01*
X162766250Y-58039000D01*
X161417000Y-58039000D01*
X161163000Y-58039000D01*
X159813750Y-58039000D01*
X159655000Y-58197750D01*
X112776000Y-58197750D01*
X112776000Y-57277000D01*
X112727664Y-57033996D01*
X112590013Y-56827987D01*
X112526712Y-56785690D01*
X159655000Y-56785690D01*
X159655000Y-57626250D01*
X159813750Y-57785000D01*
X161163000Y-57785000D01*
X161163000Y-56435750D01*
X161417000Y-56435750D01*
X161417000Y-57785000D01*
X162766250Y-57785000D01*
X162913948Y-57637302D01*
X164909000Y-57637302D01*
X164909000Y-58186698D01*
X165119245Y-58694273D01*
X165507727Y-59082755D01*
X166015302Y-59293000D01*
X166564698Y-59293000D01*
X167072273Y-59082755D01*
X167460755Y-58694273D01*
X167671000Y-58186698D01*
X167671000Y-57637302D01*
X167460755Y-57129727D01*
X167072273Y-56741245D01*
X166564698Y-56531000D01*
X166015302Y-56531000D01*
X165507727Y-56741245D01*
X165119245Y-57129727D01*
X164909000Y-57637302D01*
X162913948Y-57637302D01*
X162925000Y-57626250D01*
X162925000Y-56785690D01*
X162828327Y-56552301D01*
X162649698Y-56373673D01*
X162416309Y-56277000D01*
X161575750Y-56277000D01*
X161417000Y-56435750D01*
X161163000Y-56435750D01*
X161004250Y-56277000D01*
X160163691Y-56277000D01*
X159930302Y-56373673D01*
X159751673Y-56552301D01*
X159655000Y-56785690D01*
X112526712Y-56785690D01*
X112384004Y-56690336D01*
X112141000Y-56642000D01*
X107979430Y-56642000D01*
X108381000Y-55672523D01*
X108381000Y-54327477D01*
X191619000Y-54327477D01*
X191619000Y-55672523D01*
X192133726Y-56915183D01*
X193084817Y-57866274D01*
X194327477Y-58381000D01*
X195672523Y-58381000D01*
X196915183Y-57866274D01*
X197866274Y-56915183D01*
X198381000Y-55672523D01*
X198381000Y-54327477D01*
X197866274Y-53084817D01*
X196915183Y-52133726D01*
X195672523Y-51619000D01*
X194327477Y-51619000D01*
X193084817Y-52133726D01*
X192133726Y-53084817D01*
X191619000Y-54327477D01*
X108381000Y-54327477D01*
X107866274Y-53084817D01*
X106915183Y-52133726D01*
X105672523Y-51619000D01*
X104327477Y-51619000D01*
X103084817Y-52133726D01*
X102133726Y-53084817D01*
X101619000Y-54327477D01*
X101619000Y-55672523D01*
X102020570Y-56642000D01*
X100838000Y-56642000D01*
X100594996Y-56690336D01*
X100456000Y-56783210D01*
X100456000Y-50456000D01*
X199544001Y-50456000D01*
X199544000Y-129544000D01*
X199544000Y-129544000D01*
G37*
X199544000Y-129544000D02*
X100456000Y-129544000D01*
X100456000Y-124327477D01*
X101619000Y-124327477D01*
X101619000Y-125672523D01*
X102133726Y-126915183D01*
X103084817Y-127866274D01*
X104327477Y-128381000D01*
X105672523Y-128381000D01*
X106915183Y-127866274D01*
X107866274Y-126915183D01*
X108381000Y-125672523D01*
X108381000Y-124327477D01*
X191619000Y-124327477D01*
X191619000Y-125672523D01*
X192133726Y-126915183D01*
X193084817Y-127866274D01*
X194327477Y-128381000D01*
X195672523Y-128381000D01*
X196915183Y-127866274D01*
X197866274Y-126915183D01*
X198381000Y-125672523D01*
X198381000Y-124327477D01*
X197866274Y-123084817D01*
X196915183Y-122133726D01*
X195672523Y-121619000D01*
X194327477Y-121619000D01*
X193084817Y-122133726D01*
X192133726Y-123084817D01*
X191619000Y-124327477D01*
X108381000Y-124327477D01*
X107866274Y-123084817D01*
X106915183Y-122133726D01*
X105672523Y-121619000D01*
X104327477Y-121619000D01*
X103084817Y-122133726D01*
X102133726Y-123084817D01*
X101619000Y-124327477D01*
X100456000Y-124327477D01*
X100456000Y-120621649D01*
X148126500Y-120621649D01*
X148126500Y-120932351D01*
X148245400Y-121219401D01*
X148465099Y-121439100D01*
X148752149Y-121558000D01*
X149062851Y-121558000D01*
X149349901Y-121439100D01*
X149506001Y-121283000D01*
X153198499Y-121283000D01*
X153354599Y-121439100D01*
X153641649Y-121558000D01*
X153952351Y-121558000D01*
X154239401Y-121439100D01*
X154459100Y-121219401D01*
X154578000Y-120932351D01*
X154578000Y-120621649D01*
X159302500Y-120621649D01*
X159302500Y-120932351D01*
X159421400Y-121219401D01*
X159641099Y-121439100D01*
X159928149Y-121558000D01*
X160238851Y-121558000D01*
X160525901Y-121439100D01*
X160682001Y-121283000D01*
X164247499Y-121283000D01*
X164403599Y-121439100D01*
X164690649Y-121558000D01*
X165001351Y-121558000D01*
X165288401Y-121439100D01*
X165508100Y-121219401D01*
X165627000Y-120932351D01*
X165627000Y-120621649D01*
X165600698Y-120558149D01*
X170669000Y-120558149D01*
X170669000Y-120868851D01*
X170787900Y-121155901D01*
X171007599Y-121375600D01*
X171294649Y-121494500D01*
X171605351Y-121494500D01*
X171892401Y-121375600D01*
X172048501Y-121219500D01*
X175359999Y-121219500D01*
X175516099Y-121375600D01*
X175803149Y-121494500D01*
X176113851Y-121494500D01*
X176400901Y-121375600D01*
X176620600Y-121155901D01*
X176739500Y-120868851D01*
X176739500Y-120558149D01*
X176620600Y-120271099D01*
X176400901Y-120051400D01*
X176113851Y-119932500D01*
X175803149Y-119932500D01*
X175516099Y-120051400D01*
X175359999Y-120207500D01*
X172048501Y-120207500D01*
X171892401Y-120051400D01*
X171605351Y-119932500D01*
X171294649Y-119932500D01*
X171007599Y-120051400D01*
X170787900Y-120271099D01*
X170669000Y-120558149D01*
X165600698Y-120558149D01*
X165508100Y-120334599D01*
X165288401Y-120114900D01*
X165001351Y-119996000D01*
X164690649Y-119996000D01*
X164403599Y-120114900D01*
X164247499Y-120271000D01*
X160682001Y-120271000D01*
X160525901Y-120114900D01*
X160238851Y-119996000D01*
X159928149Y-119996000D01*
X159641099Y-120114900D01*
X159421400Y-120334599D01*
X159302500Y-120621649D01*
X154578000Y-120621649D01*
X154459100Y-120334599D01*
X154239401Y-120114900D01*
X153952351Y-119996000D01*
X153641649Y-119996000D01*
X153354599Y-120114900D01*
X153198499Y-120271000D01*
X149506001Y-120271000D01*
X149349901Y-120114900D01*
X149062851Y-119996000D01*
X148752149Y-119996000D01*
X148465099Y-120114900D01*
X148245400Y-120334599D01*
X148126500Y-120621649D01*
X100456000Y-120621649D01*
X100456000Y-112606118D01*
X101247000Y-112606118D01*
X101247000Y-113453882D01*
X101571425Y-114237115D01*
X102170885Y-114836575D01*
X102954118Y-115161000D01*
X103801882Y-115161000D01*
X104585115Y-114836575D01*
X105184575Y-114237115D01*
X105509000Y-113453882D01*
X105509000Y-112606118D01*
X105184575Y-111822885D01*
X104585115Y-111223425D01*
X103828439Y-110910000D01*
X124745536Y-110910000D01*
X124745536Y-112610000D01*
X124775106Y-112758659D01*
X124859314Y-112884686D01*
X124985341Y-112968894D01*
X125134000Y-112998464D01*
X126834000Y-112998464D01*
X126982659Y-112968894D01*
X127108686Y-112884686D01*
X127192894Y-112758659D01*
X127222464Y-112610000D01*
X127222464Y-110910000D01*
X127192894Y-110761341D01*
X127108686Y-110635314D01*
X126982659Y-110551106D01*
X126834000Y-110521536D01*
X125134000Y-110521536D01*
X124985341Y-110551106D01*
X124859314Y-110635314D01*
X124775106Y-110761341D01*
X124745536Y-110910000D01*
X103828439Y-110910000D01*
X103801882Y-110899000D01*
X102954118Y-110899000D01*
X102170885Y-111223425D01*
X101571425Y-111822885D01*
X101247000Y-112606118D01*
X100456000Y-112606118D01*
X100456000Y-107036890D01*
X124542524Y-107036890D01*
X124712355Y-107446924D01*
X125102642Y-107875183D01*
X125500963Y-108062245D01*
X125096499Y-108332499D01*
X124824424Y-108739688D01*
X124728884Y-109220000D01*
X124824424Y-109700312D01*
X125096499Y-110107501D01*
X125503688Y-110379576D01*
X125862761Y-110451000D01*
X126105239Y-110451000D01*
X126464312Y-110379576D01*
X126871501Y-110107501D01*
X127143576Y-109700312D01*
X127168969Y-109572649D01*
X148507500Y-109572649D01*
X148507500Y-109883351D01*
X148626400Y-110170401D01*
X148846099Y-110390100D01*
X149133149Y-110509000D01*
X149443851Y-110509000D01*
X149730901Y-110390100D01*
X149887001Y-110234000D01*
X153325499Y-110234000D01*
X153481599Y-110390100D01*
X153768649Y-110509000D01*
X154079351Y-110509000D01*
X154366401Y-110390100D01*
X154586100Y-110170401D01*
X154705000Y-109883351D01*
X154705000Y-109572649D01*
X159429500Y-109572649D01*
X159429500Y-109883351D01*
X159548400Y-110170401D01*
X159768099Y-110390100D01*
X160055149Y-110509000D01*
X160365851Y-110509000D01*
X160652901Y-110390100D01*
X160809001Y-110234000D01*
X164374499Y-110234000D01*
X164530599Y-110390100D01*
X164817649Y-110509000D01*
X165128351Y-110509000D01*
X165415401Y-110390100D01*
X165635100Y-110170401D01*
X165754000Y-109883351D01*
X165754000Y-109636149D01*
X170415000Y-109636149D01*
X170415000Y-109946851D01*
X170533900Y-110233901D01*
X170753599Y-110453600D01*
X171040649Y-110572500D01*
X171351351Y-110572500D01*
X171638401Y-110453600D01*
X171794501Y-110297500D01*
X175486999Y-110297500D01*
X175643099Y-110453600D01*
X175930149Y-110572500D01*
X176240851Y-110572500D01*
X176527901Y-110453600D01*
X176747600Y-110233901D01*
X176866500Y-109946851D01*
X176866500Y-109636149D01*
X176747600Y-109349099D01*
X176527901Y-109129400D01*
X176240851Y-109010500D01*
X175930149Y-109010500D01*
X175643099Y-109129400D01*
X175486999Y-109285500D01*
X171794501Y-109285500D01*
X171638401Y-109129400D01*
X171351351Y-109010500D01*
X171040649Y-109010500D01*
X170753599Y-109129400D01*
X170533900Y-109349099D01*
X170415000Y-109636149D01*
X165754000Y-109636149D01*
X165754000Y-109572649D01*
X165635100Y-109285599D01*
X165415401Y-109065900D01*
X165128351Y-108947000D01*
X164817649Y-108947000D01*
X164530599Y-109065900D01*
X164374499Y-109222000D01*
X160809001Y-109222000D01*
X160652901Y-109065900D01*
X160365851Y-108947000D01*
X160055149Y-108947000D01*
X159768099Y-109065900D01*
X159548400Y-109285599D01*
X159429500Y-109572649D01*
X154705000Y-109572649D01*
X154586100Y-109285599D01*
X154366401Y-109065900D01*
X154079351Y-108947000D01*
X153768649Y-108947000D01*
X153481599Y-109065900D01*
X153325499Y-109222000D01*
X149887001Y-109222000D01*
X149730901Y-109065900D01*
X149443851Y-108947000D01*
X149133149Y-108947000D01*
X148846099Y-109065900D01*
X148626400Y-109285599D01*
X148507500Y-109572649D01*
X127168969Y-109572649D01*
X127239116Y-109220000D01*
X127143576Y-108739688D01*
X126871501Y-108332499D01*
X126467037Y-108062245D01*
X126865358Y-107875183D01*
X127255645Y-107446924D01*
X127425476Y-107036890D01*
X127304155Y-106807000D01*
X126111000Y-106807000D01*
X126111000Y-106827000D01*
X125857000Y-106827000D01*
X125857000Y-106807000D01*
X124663845Y-106807000D01*
X124542524Y-107036890D01*
X100456000Y-107036890D01*
X100456000Y-106323110D01*
X124542524Y-106323110D01*
X124663845Y-106553000D01*
X125857000Y-106553000D01*
X125857000Y-106533000D01*
X126111000Y-106533000D01*
X126111000Y-106553000D01*
X127304155Y-106553000D01*
X127425476Y-106323110D01*
X127255645Y-105913076D01*
X126865358Y-105484817D01*
X126467037Y-105297755D01*
X126871501Y-105027501D01*
X127143576Y-104620312D01*
X127239116Y-104140000D01*
X127143576Y-103659688D01*
X126871501Y-103252499D01*
X126464312Y-102980424D01*
X126105239Y-102909000D01*
X125862761Y-102909000D01*
X125503688Y-102980424D01*
X125096499Y-103252499D01*
X124824424Y-103659688D01*
X124728884Y-104140000D01*
X124824424Y-104620312D01*
X125096499Y-105027501D01*
X125500963Y-105297755D01*
X125102642Y-105484817D01*
X124712355Y-105913076D01*
X124542524Y-106323110D01*
X100456000Y-106323110D01*
X100456000Y-101600000D01*
X124728884Y-101600000D01*
X124824424Y-102080312D01*
X125096499Y-102487501D01*
X125503688Y-102759576D01*
X125862761Y-102831000D01*
X126105239Y-102831000D01*
X126464312Y-102759576D01*
X126871501Y-102487501D01*
X127143576Y-102080312D01*
X127239116Y-101600000D01*
X127143576Y-101119688D01*
X126871501Y-100712499D01*
X126464312Y-100440424D01*
X126105239Y-100369000D01*
X125862761Y-100369000D01*
X125503688Y-100440424D01*
X125096499Y-100712499D01*
X124824424Y-101119688D01*
X124728884Y-101600000D01*
X100456000Y-101600000D01*
X100456000Y-99060000D01*
X124728884Y-99060000D01*
X124824424Y-99540312D01*
X125096499Y-99947501D01*
X125503688Y-100219576D01*
X125862761Y-100291000D01*
X126105239Y-100291000D01*
X126464312Y-100219576D01*
X126871501Y-99947501D01*
X127143576Y-99540312D01*
X127239116Y-99060000D01*
X127145061Y-98587149D01*
X159048500Y-98587149D01*
X159048500Y-98897851D01*
X159167400Y-99184901D01*
X159387099Y-99404600D01*
X159674149Y-99523500D01*
X159984851Y-99523500D01*
X160271901Y-99404600D01*
X160364501Y-99312000D01*
X164501499Y-99312000D01*
X164657599Y-99468100D01*
X164944649Y-99587000D01*
X165255351Y-99587000D01*
X165542401Y-99468100D01*
X165762100Y-99248401D01*
X165881000Y-98961351D01*
X165881000Y-98650649D01*
X165762100Y-98363599D01*
X165542401Y-98143900D01*
X165255351Y-98025000D01*
X164944649Y-98025000D01*
X164657599Y-98143900D01*
X164501499Y-98300000D01*
X160491501Y-98300000D01*
X160271901Y-98080400D01*
X159984851Y-97961500D01*
X159674149Y-97961500D01*
X159387099Y-98080400D01*
X159167400Y-98300099D01*
X159048500Y-98587149D01*
X127145061Y-98587149D01*
X127143576Y-98579688D01*
X126871501Y-98172499D01*
X126464312Y-97900424D01*
X126105239Y-97829000D01*
X125862761Y-97829000D01*
X125503688Y-97900424D01*
X125096499Y-98172499D01*
X124824424Y-98579688D01*
X124728884Y-99060000D01*
X100456000Y-99060000D01*
X100456000Y-96520000D01*
X124728884Y-96520000D01*
X124824424Y-97000312D01*
X125096499Y-97407501D01*
X125503688Y-97679576D01*
X125862761Y-97751000D01*
X126105239Y-97751000D01*
X126464312Y-97679576D01*
X126871501Y-97407501D01*
X127143576Y-97000312D01*
X127239116Y-96520000D01*
X127143576Y-96039688D01*
X126871501Y-95632499D01*
X126464312Y-95360424D01*
X126105239Y-95289000D01*
X125862761Y-95289000D01*
X125503688Y-95360424D01*
X125096499Y-95632499D01*
X124824424Y-96039688D01*
X124728884Y-96520000D01*
X100456000Y-96520000D01*
X100456000Y-92399649D01*
X100467996Y-92407664D01*
X100711000Y-92456000D01*
X101247000Y-92456000D01*
X101247000Y-93133882D01*
X101571425Y-93917115D01*
X102170885Y-94516575D01*
X102954118Y-94841000D01*
X103801882Y-94841000D01*
X104585115Y-94516575D01*
X105184575Y-93917115D01*
X105509000Y-93133882D01*
X105509000Y-92456000D01*
X112141000Y-92456000D01*
X112384004Y-92407664D01*
X112590013Y-92270013D01*
X112727664Y-92064004D01*
X112776000Y-91821000D01*
X112776000Y-76173107D01*
X113080803Y-76112478D01*
X113471453Y-75851453D01*
X113732478Y-75460803D01*
X113824137Y-75000000D01*
X113955863Y-75000000D01*
X114047522Y-75460803D01*
X114308547Y-75851453D01*
X114699197Y-76112478D01*
X115043682Y-76181000D01*
X115276318Y-76181000D01*
X115620803Y-76112478D01*
X115779002Y-76006773D01*
X115779001Y-84343853D01*
X115766639Y-84406001D01*
X115779001Y-84468148D01*
X115815612Y-84652204D01*
X115955075Y-84860927D01*
X116007766Y-84896134D01*
X124789068Y-93677437D01*
X124728884Y-93980000D01*
X124824424Y-94460312D01*
X125096499Y-94867501D01*
X125503688Y-95139576D01*
X125862761Y-95211000D01*
X126105239Y-95211000D01*
X126464312Y-95139576D01*
X126871501Y-94867501D01*
X127143576Y-94460312D01*
X127239116Y-93980000D01*
X127143576Y-93499688D01*
X126871501Y-93092499D01*
X126464312Y-92820424D01*
X126105239Y-92749000D01*
X125862761Y-92749000D01*
X125681437Y-92785068D01*
X125323302Y-92426933D01*
X149269000Y-92426933D01*
X149269000Y-93573067D01*
X149707606Y-94631955D01*
X150518045Y-95442394D01*
X151576933Y-95881000D01*
X152723067Y-95881000D01*
X153781955Y-95442394D01*
X154592394Y-94631955D01*
X155031000Y-93573067D01*
X155031000Y-92426933D01*
X154592394Y-91368045D01*
X153781955Y-90557606D01*
X152723067Y-90119000D01*
X151576933Y-90119000D01*
X150518045Y-90557606D01*
X149707606Y-91368045D01*
X149269000Y-92426933D01*
X125323302Y-92426933D01*
X117041001Y-84144633D01*
X117041001Y-79244649D01*
X159619000Y-79244649D01*
X159619000Y-79555351D01*
X159737900Y-79842401D01*
X159894001Y-79998502D01*
X159894000Y-87150166D01*
X159884087Y-87200000D01*
X159894000Y-87249834D01*
X159923359Y-87397430D01*
X160035194Y-87564806D01*
X160077448Y-87593039D01*
X182219000Y-109734593D01*
X182219000Y-109955351D01*
X182337900Y-110242401D01*
X182557599Y-110462100D01*
X182844649Y-110581000D01*
X183155351Y-110581000D01*
X183442401Y-110462100D01*
X183662100Y-110242401D01*
X183781000Y-109955351D01*
X183781000Y-109644649D01*
X183662100Y-109357599D01*
X183442401Y-109137900D01*
X183155351Y-109019000D01*
X182934593Y-109019000D01*
X181221593Y-107306000D01*
X183790409Y-107306000D01*
X186219000Y-109734592D01*
X186219000Y-109955351D01*
X186337900Y-110242401D01*
X186557599Y-110462100D01*
X186844649Y-110581000D01*
X187155351Y-110581000D01*
X187442401Y-110462100D01*
X187662100Y-110242401D01*
X187781000Y-109955351D01*
X187781000Y-109644649D01*
X187662100Y-109357599D01*
X187442401Y-109137900D01*
X187155351Y-109019000D01*
X186934592Y-109019000D01*
X184621591Y-106706000D01*
X187190409Y-106706000D01*
X190219000Y-109734592D01*
X190219000Y-109955351D01*
X190337900Y-110242401D01*
X190557599Y-110462100D01*
X190844649Y-110581000D01*
X191155351Y-110581000D01*
X191442401Y-110462100D01*
X191662100Y-110242401D01*
X191781000Y-109955351D01*
X191781000Y-109644649D01*
X191662100Y-109357599D01*
X191442401Y-109137900D01*
X191155351Y-109019000D01*
X190934592Y-109019000D01*
X187793039Y-105877448D01*
X187764806Y-105835194D01*
X187597431Y-105723359D01*
X187449835Y-105694000D01*
X187449834Y-105694000D01*
X187400000Y-105684087D01*
X187350166Y-105694000D01*
X180973181Y-105694000D01*
X179210180Y-103930999D01*
X186511502Y-103930999D01*
X186369000Y-104275030D01*
X186369000Y-104724970D01*
X186541184Y-105140660D01*
X186859340Y-105458816D01*
X187275030Y-105631000D01*
X187724970Y-105631000D01*
X188140660Y-105458816D01*
X188458816Y-105140660D01*
X188631000Y-104724970D01*
X188631000Y-104275030D01*
X188488498Y-103930999D01*
X191215408Y-103930999D01*
X191424778Y-104140369D01*
X191369000Y-104275030D01*
X191369000Y-104724970D01*
X191541184Y-105140660D01*
X191859340Y-105458816D01*
X192275030Y-105631000D01*
X192724970Y-105631000D01*
X193140660Y-105458816D01*
X193458816Y-105140660D01*
X193631000Y-104724970D01*
X193631000Y-104275030D01*
X193458816Y-103859340D01*
X193140660Y-103541184D01*
X192724970Y-103369000D01*
X192275030Y-103369000D01*
X192140369Y-103424778D01*
X191818037Y-103102446D01*
X191789805Y-103060193D01*
X191622430Y-102948358D01*
X191474834Y-102918999D01*
X191474833Y-102918999D01*
X191424999Y-102909086D01*
X191375165Y-102918999D01*
X178834591Y-102918999D01*
X171815592Y-95900000D01*
X183011536Y-95900000D01*
X183011536Y-99100000D01*
X183041106Y-99248659D01*
X183125314Y-99374686D01*
X183251341Y-99458894D01*
X183400000Y-99488464D01*
X185400000Y-99488464D01*
X185548659Y-99458894D01*
X185674686Y-99374686D01*
X185758894Y-99248659D01*
X185788464Y-99100000D01*
X185788464Y-95900000D01*
X194211536Y-95900000D01*
X194211536Y-99100000D01*
X194241106Y-99248659D01*
X194325314Y-99374686D01*
X194451341Y-99458894D01*
X194600000Y-99488464D01*
X196600000Y-99488464D01*
X196748659Y-99458894D01*
X196874686Y-99374686D01*
X196958894Y-99248659D01*
X196988464Y-99100000D01*
X196988464Y-95900000D01*
X196958894Y-95751341D01*
X196874686Y-95625314D01*
X196748659Y-95541106D01*
X196600000Y-95511536D01*
X194600000Y-95511536D01*
X194451341Y-95541106D01*
X194325314Y-95625314D01*
X194241106Y-95751341D01*
X194211536Y-95900000D01*
X185788464Y-95900000D01*
X185758894Y-95751341D01*
X185674686Y-95625314D01*
X185548659Y-95541106D01*
X185400000Y-95511536D01*
X183400000Y-95511536D01*
X183251341Y-95541106D01*
X183125314Y-95625314D01*
X183041106Y-95751341D01*
X183011536Y-95900000D01*
X171815592Y-95900000D01*
X171456938Y-95541347D01*
X172276933Y-95881000D01*
X173423067Y-95881000D01*
X174481955Y-95442394D01*
X175292394Y-94631955D01*
X175731000Y-93573067D01*
X175731000Y-92426933D01*
X175292394Y-91368045D01*
X174481955Y-90557606D01*
X173423067Y-90119000D01*
X172276933Y-90119000D01*
X171218045Y-90557606D01*
X170407606Y-91368045D01*
X169969000Y-92426933D01*
X169969000Y-93573067D01*
X170308653Y-94393062D01*
X168755600Y-92840009D01*
X168755600Y-89725302D01*
X186119000Y-89725302D01*
X186119000Y-90274698D01*
X186329245Y-90782273D01*
X186717727Y-91170755D01*
X187225302Y-91381000D01*
X187774698Y-91381000D01*
X188282273Y-91170755D01*
X188670755Y-90782273D01*
X188750000Y-90590959D01*
X188829245Y-90782273D01*
X189217727Y-91170755D01*
X189725302Y-91381000D01*
X190274698Y-91381000D01*
X190782273Y-91170755D01*
X191111536Y-90841492D01*
X191111536Y-91000000D01*
X191141106Y-91148659D01*
X191225314Y-91274686D01*
X191351341Y-91358894D01*
X191500000Y-91388464D01*
X193500000Y-91388464D01*
X193648659Y-91358894D01*
X193774686Y-91274686D01*
X193858894Y-91148659D01*
X193888464Y-91000000D01*
X193888464Y-89000000D01*
X193858894Y-88851341D01*
X193774686Y-88725314D01*
X193648659Y-88641106D01*
X193500000Y-88611536D01*
X191500000Y-88611536D01*
X191351341Y-88641106D01*
X191225314Y-88725314D01*
X191141106Y-88851341D01*
X191111536Y-89000000D01*
X191111536Y-89158508D01*
X190782273Y-88829245D01*
X190274698Y-88619000D01*
X189725302Y-88619000D01*
X189217727Y-88829245D01*
X188829245Y-89217727D01*
X188750000Y-89409041D01*
X188670755Y-89217727D01*
X188282273Y-88829245D01*
X187774698Y-88619000D01*
X187225302Y-88619000D01*
X186717727Y-88829245D01*
X186329245Y-89217727D01*
X186119000Y-89725302D01*
X168755600Y-89725302D01*
X168755600Y-89395683D01*
X168844401Y-89358900D01*
X169064100Y-89139201D01*
X169183000Y-88852151D01*
X169183000Y-88541449D01*
X169064100Y-88254399D01*
X168844401Y-88034700D01*
X168557351Y-87915800D01*
X168246649Y-87915800D01*
X167959599Y-88034700D01*
X167739900Y-88254399D01*
X167621000Y-88541449D01*
X167621000Y-88852151D01*
X167739900Y-89139201D01*
X167743601Y-89142902D01*
X167743600Y-92464420D01*
X163506000Y-88226820D01*
X163506000Y-79998501D01*
X163662100Y-79842401D01*
X163781000Y-79555351D01*
X163781000Y-79244649D01*
X163662100Y-78957599D01*
X163442401Y-78737900D01*
X163155351Y-78619000D01*
X162844649Y-78619000D01*
X162557599Y-78737900D01*
X162337900Y-78957599D01*
X162300000Y-79049098D01*
X162262100Y-78957599D01*
X162042401Y-78737900D01*
X161755351Y-78619000D01*
X161444649Y-78619000D01*
X161157599Y-78737900D01*
X161000000Y-78895499D01*
X160842401Y-78737900D01*
X160555351Y-78619000D01*
X160244649Y-78619000D01*
X159957599Y-78737900D01*
X159737900Y-78957599D01*
X159619000Y-79244649D01*
X117041001Y-79244649D01*
X117041001Y-78480000D01*
X189874036Y-78480000D01*
X189874036Y-79780000D01*
X189922636Y-80024330D01*
X190061038Y-80231462D01*
X190268170Y-80369864D01*
X190512500Y-80418464D01*
X193612500Y-80418464D01*
X193856830Y-80369864D01*
X194063962Y-80231462D01*
X194202364Y-80024330D01*
X194250964Y-79780000D01*
X194250964Y-78480000D01*
X194202364Y-78235670D01*
X194063962Y-78028538D01*
X193856830Y-77890136D01*
X193612500Y-77841536D01*
X190512500Y-77841536D01*
X190268170Y-77890136D01*
X190061038Y-78028538D01*
X189922636Y-78235670D01*
X189874036Y-78480000D01*
X117041001Y-78480000D01*
X117041001Y-75980047D01*
X117239197Y-76112478D01*
X117583682Y-76181000D01*
X117816318Y-76181000D01*
X118160803Y-76112478D01*
X118551453Y-75851453D01*
X118812478Y-75460803D01*
X118904137Y-75000000D01*
X119035863Y-75000000D01*
X119127522Y-75460803D01*
X119388547Y-75851453D01*
X119779197Y-76112478D01*
X120123682Y-76181000D01*
X120356318Y-76181000D01*
X120700803Y-76112478D01*
X121091453Y-75851453D01*
X121352478Y-75460803D01*
X121444137Y-75000000D01*
X121575863Y-75000000D01*
X121667522Y-75460803D01*
X121928547Y-75851453D01*
X122319197Y-76112478D01*
X122663682Y-76181000D01*
X122896318Y-76181000D01*
X123240803Y-76112478D01*
X123631453Y-75851453D01*
X123892478Y-75460803D01*
X123984137Y-75000000D01*
X124115863Y-75000000D01*
X124207522Y-75460803D01*
X124468547Y-75851453D01*
X124859197Y-76112478D01*
X125203682Y-76181000D01*
X125436318Y-76181000D01*
X125780803Y-76112478D01*
X126171453Y-75851453D01*
X126432478Y-75460803D01*
X126524137Y-75000000D01*
X126655863Y-75000000D01*
X126747522Y-75460803D01*
X127008547Y-75851453D01*
X127399197Y-76112478D01*
X127743682Y-76181000D01*
X127976318Y-76181000D01*
X128320803Y-76112478D01*
X128711453Y-75851453D01*
X128972478Y-75460803D01*
X129064137Y-75000000D01*
X129195863Y-75000000D01*
X129287522Y-75460803D01*
X129548547Y-75851453D01*
X129939197Y-76112478D01*
X130283682Y-76181000D01*
X130516318Y-76181000D01*
X130860803Y-76112478D01*
X131251453Y-75851453D01*
X131512478Y-75460803D01*
X131604137Y-75000000D01*
X131735863Y-75000000D01*
X131827522Y-75460803D01*
X132088547Y-75851453D01*
X132479197Y-76112478D01*
X132823682Y-76181000D01*
X133056318Y-76181000D01*
X133400803Y-76112478D01*
X133791453Y-75851453D01*
X134052478Y-75460803D01*
X134144137Y-75000000D01*
X134275863Y-75000000D01*
X134367522Y-75460803D01*
X134628547Y-75851453D01*
X135019197Y-76112478D01*
X135363682Y-76181000D01*
X135596318Y-76181000D01*
X135940803Y-76112478D01*
X136331453Y-75851453D01*
X136592478Y-75460803D01*
X136684137Y-75000000D01*
X136815863Y-75000000D01*
X136907522Y-75460803D01*
X137168547Y-75851453D01*
X137559197Y-76112478D01*
X137903682Y-76181000D01*
X138136318Y-76181000D01*
X138480803Y-76112478D01*
X138871453Y-75851453D01*
X139132478Y-75460803D01*
X139224137Y-75000000D01*
X139355863Y-75000000D01*
X139447522Y-75460803D01*
X139708547Y-75851453D01*
X140099197Y-76112478D01*
X140443682Y-76181000D01*
X140676318Y-76181000D01*
X141020803Y-76112478D01*
X141411453Y-75851453D01*
X141672478Y-75460803D01*
X141764137Y-75000000D01*
X141672478Y-74539197D01*
X141411453Y-74148547D01*
X141020803Y-73887522D01*
X140676318Y-73819000D01*
X140443682Y-73819000D01*
X140099197Y-73887522D01*
X139708547Y-74148547D01*
X139447522Y-74539197D01*
X139355863Y-75000000D01*
X139224137Y-75000000D01*
X139132478Y-74539197D01*
X138871453Y-74148547D01*
X138480803Y-73887522D01*
X138136318Y-73819000D01*
X137903682Y-73819000D01*
X137559197Y-73887522D01*
X137168547Y-74148547D01*
X136907522Y-74539197D01*
X136815863Y-75000000D01*
X136684137Y-75000000D01*
X136592478Y-74539197D01*
X136331453Y-74148547D01*
X135940803Y-73887522D01*
X135596318Y-73819000D01*
X135363682Y-73819000D01*
X135019197Y-73887522D01*
X134628547Y-74148547D01*
X134367522Y-74539197D01*
X134275863Y-75000000D01*
X134144137Y-75000000D01*
X134052478Y-74539197D01*
X133791453Y-74148547D01*
X133571000Y-74001244D01*
X133571000Y-71130964D01*
X141060130Y-63641835D01*
X141060132Y-63641832D01*
X141081368Y-63620596D01*
X141125351Y-63620596D01*
X141412401Y-63501696D01*
X141632100Y-63281997D01*
X141751000Y-62994947D01*
X141751000Y-62684245D01*
X141632100Y-62397195D01*
X141412401Y-62177496D01*
X141125351Y-62058596D01*
X140814649Y-62058596D01*
X140527599Y-62177496D01*
X140307900Y-62397195D01*
X140189000Y-62684245D01*
X140189000Y-62728228D01*
X140167764Y-62749464D01*
X140167761Y-62749466D01*
X132537763Y-70379465D01*
X132485075Y-70414670D01*
X132449871Y-70467357D01*
X132345611Y-70623393D01*
X132296638Y-70869596D01*
X132309001Y-70931749D01*
X132309000Y-74001244D01*
X132088547Y-74148547D01*
X131827522Y-74539197D01*
X131735863Y-75000000D01*
X131604137Y-75000000D01*
X131512478Y-74539197D01*
X131251453Y-74148547D01*
X130860803Y-73887522D01*
X130516318Y-73819000D01*
X130283682Y-73819000D01*
X129939197Y-73887522D01*
X129548547Y-74148547D01*
X129287522Y-74539197D01*
X129195863Y-75000000D01*
X129064137Y-75000000D01*
X128972478Y-74539197D01*
X128711453Y-74148547D01*
X128320803Y-73887522D01*
X127976318Y-73819000D01*
X127743682Y-73819000D01*
X127399197Y-73887522D01*
X127008547Y-74148547D01*
X126747522Y-74539197D01*
X126655863Y-75000000D01*
X126524137Y-75000000D01*
X126432478Y-74539197D01*
X126171453Y-74148547D01*
X125780803Y-73887522D01*
X125436318Y-73819000D01*
X125203682Y-73819000D01*
X124859197Y-73887522D01*
X124468547Y-74148547D01*
X124207522Y-74539197D01*
X124115863Y-75000000D01*
X123984137Y-75000000D01*
X123892478Y-74539197D01*
X123631453Y-74148547D01*
X123240803Y-73887522D01*
X122896318Y-73819000D01*
X122663682Y-73819000D01*
X122319197Y-73887522D01*
X121928547Y-74148547D01*
X121667522Y-74539197D01*
X121575863Y-75000000D01*
X121444137Y-75000000D01*
X121352478Y-74539197D01*
X121091453Y-74148547D01*
X120700803Y-73887522D01*
X120356318Y-73819000D01*
X120123682Y-73819000D01*
X119779197Y-73887522D01*
X119388547Y-74148547D01*
X119127522Y-74539197D01*
X119035863Y-75000000D01*
X118904137Y-75000000D01*
X118812478Y-74539197D01*
X118551453Y-74148547D01*
X118160803Y-73887522D01*
X117816318Y-73819000D01*
X117583682Y-73819000D01*
X117239197Y-73887522D01*
X117041001Y-74019953D01*
X117041001Y-71401363D01*
X127283450Y-61158914D01*
X127306205Y-61154388D01*
X127514927Y-61014925D01*
X127550133Y-60962235D01*
X127599957Y-60912411D01*
X127743682Y-60941000D01*
X127976318Y-60941000D01*
X128320803Y-60872478D01*
X128711453Y-60611453D01*
X128972478Y-60220803D01*
X129064137Y-59760000D01*
X129195863Y-59760000D01*
X129287522Y-60220803D01*
X129548547Y-60611453D01*
X129939197Y-60872478D01*
X130283682Y-60941000D01*
X130516318Y-60941000D01*
X130860803Y-60872478D01*
X131251453Y-60611453D01*
X131512478Y-60220803D01*
X131604137Y-59760000D01*
X131735863Y-59760000D01*
X131827522Y-60220803D01*
X132088547Y-60611453D01*
X132479197Y-60872478D01*
X132823682Y-60941000D01*
X133056318Y-60941000D01*
X133400803Y-60872478D01*
X133791453Y-60611453D01*
X134052478Y-60220803D01*
X134144137Y-59760000D01*
X134275863Y-59760000D01*
X134367522Y-60220803D01*
X134628547Y-60611453D01*
X135019197Y-60872478D01*
X135363682Y-60941000D01*
X135596318Y-60941000D01*
X135940803Y-60872478D01*
X136331453Y-60611453D01*
X136592478Y-60220803D01*
X136684137Y-59760000D01*
X136815863Y-59760000D01*
X136907522Y-60220803D01*
X137168547Y-60611453D01*
X137559197Y-60872478D01*
X137903682Y-60941000D01*
X138136318Y-60941000D01*
X138480803Y-60872478D01*
X138871453Y-60611453D01*
X139132478Y-60220803D01*
X139224137Y-59760000D01*
X139355863Y-59760000D01*
X139447522Y-60220803D01*
X139708547Y-60611453D01*
X140099197Y-60872478D01*
X140443682Y-60941000D01*
X140676318Y-60941000D01*
X140820043Y-60912411D01*
X142180501Y-62272869D01*
X142180500Y-74329499D01*
X142149400Y-74360599D01*
X142030500Y-74647649D01*
X142030500Y-74958351D01*
X142149400Y-75245401D01*
X142369099Y-75465100D01*
X142656149Y-75584000D01*
X142966851Y-75584000D01*
X143253901Y-75465100D01*
X143473600Y-75245401D01*
X143592500Y-74958351D01*
X143592500Y-74647649D01*
X143473600Y-74360599D01*
X143442500Y-74329499D01*
X143442500Y-63497049D01*
X143491000Y-63497049D01*
X143491000Y-63807751D01*
X143609900Y-64094801D01*
X143829599Y-64314500D01*
X144020001Y-64393367D01*
X144020000Y-74179099D01*
X143863900Y-74335199D01*
X143745000Y-74622249D01*
X143745000Y-74932951D01*
X143863900Y-75220001D01*
X144083599Y-75439700D01*
X144370649Y-75558600D01*
X144681351Y-75558600D01*
X144968401Y-75439700D01*
X145188100Y-75220001D01*
X145307000Y-74932951D01*
X145307000Y-74622249D01*
X145221047Y-74414740D01*
X189671464Y-74414740D01*
X189695744Y-74520086D01*
X189987288Y-75045606D01*
X190457748Y-75419554D01*
X191035500Y-75585000D01*
X191935500Y-75585000D01*
X191935500Y-74177000D01*
X192189500Y-74177000D01*
X192189500Y-75585000D01*
X193089500Y-75585000D01*
X193667252Y-75419554D01*
X194137712Y-75045606D01*
X194429256Y-74520086D01*
X194453536Y-74414740D01*
X194332878Y-74177000D01*
X192189500Y-74177000D01*
X191935500Y-74177000D01*
X189792122Y-74177000D01*
X189671464Y-74414740D01*
X145221047Y-74414740D01*
X145188100Y-74335199D01*
X145032000Y-74179099D01*
X145032000Y-73685260D01*
X189671464Y-73685260D01*
X189792122Y-73923000D01*
X191935500Y-73923000D01*
X191935500Y-72515000D01*
X192189500Y-72515000D01*
X192189500Y-73923000D01*
X194332878Y-73923000D01*
X194453536Y-73685260D01*
X194429256Y-73579914D01*
X194137712Y-73054394D01*
X193667252Y-72680446D01*
X193089500Y-72515000D01*
X192189500Y-72515000D01*
X191935500Y-72515000D01*
X191035500Y-72515000D01*
X190457748Y-72680446D01*
X189987288Y-73054394D01*
X189695744Y-73579914D01*
X189671464Y-73685260D01*
X145032000Y-73685260D01*
X145032000Y-69226933D01*
X149269000Y-69226933D01*
X149269000Y-70373067D01*
X149707606Y-71431955D01*
X150518045Y-72242394D01*
X151576933Y-72681000D01*
X152723067Y-72681000D01*
X153781955Y-72242394D01*
X154592394Y-71431955D01*
X155031000Y-70373067D01*
X155031000Y-69226933D01*
X154750606Y-68550000D01*
X157511536Y-68550000D01*
X157511536Y-70250000D01*
X157541106Y-70398659D01*
X157625314Y-70524686D01*
X157751341Y-70608894D01*
X157900000Y-70638464D01*
X159600000Y-70638464D01*
X159748659Y-70608894D01*
X159874686Y-70524686D01*
X159958894Y-70398659D01*
X159988464Y-70250000D01*
X159988464Y-70054895D01*
X160094817Y-70281358D01*
X160523076Y-70671645D01*
X160933110Y-70841476D01*
X161163000Y-70720155D01*
X161163000Y-69527000D01*
X161143000Y-69527000D01*
X161143000Y-69273000D01*
X161163000Y-69273000D01*
X161163000Y-68079845D01*
X161417000Y-68079845D01*
X161417000Y-69273000D01*
X161437000Y-69273000D01*
X161437000Y-69527000D01*
X161417000Y-69527000D01*
X161417000Y-70720155D01*
X161646890Y-70841476D01*
X162056924Y-70671645D01*
X162485183Y-70281358D01*
X162672245Y-69883037D01*
X162942499Y-70287501D01*
X163349688Y-70559576D01*
X163708761Y-70631000D01*
X163951239Y-70631000D01*
X164310312Y-70559576D01*
X164717501Y-70287501D01*
X164989576Y-69880312D01*
X165085116Y-69400000D01*
X165114884Y-69400000D01*
X165210424Y-69880312D01*
X165482499Y-70287501D01*
X165889688Y-70559576D01*
X166248761Y-70631000D01*
X166491239Y-70631000D01*
X166850312Y-70559576D01*
X167257501Y-70287501D01*
X167529576Y-69880312D01*
X167625116Y-69400000D01*
X167590691Y-69226933D01*
X169969000Y-69226933D01*
X169969000Y-70373067D01*
X170407606Y-71431955D01*
X171218045Y-72242394D01*
X172276933Y-72681000D01*
X173423067Y-72681000D01*
X174481955Y-72242394D01*
X175292394Y-71431955D01*
X175731000Y-70373067D01*
X175731000Y-69226933D01*
X175292394Y-68168045D01*
X174481955Y-67357606D01*
X174053177Y-67180000D01*
X189874036Y-67180000D01*
X189874036Y-68480000D01*
X189922636Y-68724330D01*
X190061038Y-68931462D01*
X190268170Y-69069864D01*
X190512500Y-69118464D01*
X193612500Y-69118464D01*
X193856830Y-69069864D01*
X194063962Y-68931462D01*
X194202364Y-68724330D01*
X194250964Y-68480000D01*
X194250964Y-67180000D01*
X194202364Y-66935670D01*
X194063962Y-66728538D01*
X193856830Y-66590136D01*
X193612500Y-66541536D01*
X190512500Y-66541536D01*
X190268170Y-66590136D01*
X190061038Y-66728538D01*
X189922636Y-66935670D01*
X189874036Y-67180000D01*
X174053177Y-67180000D01*
X173423067Y-66919000D01*
X172276933Y-66919000D01*
X171218045Y-67357606D01*
X170407606Y-68168045D01*
X169969000Y-69226933D01*
X167590691Y-69226933D01*
X167529576Y-68919688D01*
X167257501Y-68512499D01*
X166850312Y-68240424D01*
X166491239Y-68169000D01*
X166248761Y-68169000D01*
X165889688Y-68240424D01*
X165482499Y-68512499D01*
X165210424Y-68919688D01*
X165114884Y-69400000D01*
X165085116Y-69400000D01*
X164989576Y-68919688D01*
X164717501Y-68512499D01*
X164310312Y-68240424D01*
X163951239Y-68169000D01*
X163708761Y-68169000D01*
X163349688Y-68240424D01*
X162942499Y-68512499D01*
X162672245Y-68916963D01*
X162485183Y-68518642D01*
X162056924Y-68128355D01*
X161646890Y-67958524D01*
X161417000Y-68079845D01*
X161163000Y-68079845D01*
X160933110Y-67958524D01*
X160523076Y-68128355D01*
X160094817Y-68518642D01*
X159988464Y-68745105D01*
X159988464Y-68550000D01*
X159958894Y-68401341D01*
X159874686Y-68275314D01*
X159748659Y-68191106D01*
X159600000Y-68161536D01*
X157900000Y-68161536D01*
X157751341Y-68191106D01*
X157625314Y-68275314D01*
X157541106Y-68401341D01*
X157511536Y-68550000D01*
X154750606Y-68550000D01*
X154592394Y-68168045D01*
X153781955Y-67357606D01*
X152723067Y-66919000D01*
X151576933Y-66919000D01*
X150518045Y-67357606D01*
X149707606Y-68168045D01*
X149269000Y-69226933D01*
X145032000Y-69226933D01*
X145032000Y-63956233D01*
X145041913Y-63906399D01*
X145032253Y-63857838D01*
X145053000Y-63807751D01*
X145053000Y-63497049D01*
X144934100Y-63209999D01*
X144838841Y-63114740D01*
X189671464Y-63114740D01*
X189695744Y-63220086D01*
X189987288Y-63745606D01*
X190457748Y-64119554D01*
X191035500Y-64285000D01*
X191935500Y-64285000D01*
X191935500Y-62877000D01*
X192189500Y-62877000D01*
X192189500Y-64285000D01*
X193089500Y-64285000D01*
X193667252Y-64119554D01*
X194137712Y-63745606D01*
X194429256Y-63220086D01*
X194453536Y-63114740D01*
X194332878Y-62877000D01*
X192189500Y-62877000D01*
X191935500Y-62877000D01*
X189792122Y-62877000D01*
X189671464Y-63114740D01*
X144838841Y-63114740D01*
X144714401Y-62990300D01*
X144427351Y-62871400D01*
X144116649Y-62871400D01*
X143829599Y-62990300D01*
X143609900Y-63209999D01*
X143491000Y-63497049D01*
X143442500Y-63497049D01*
X143442500Y-62385260D01*
X189671464Y-62385260D01*
X189792122Y-62623000D01*
X191935500Y-62623000D01*
X191935500Y-61215000D01*
X192189500Y-61215000D01*
X192189500Y-62623000D01*
X194332878Y-62623000D01*
X194453536Y-62385260D01*
X194429256Y-62279914D01*
X194137712Y-61754394D01*
X193667252Y-61380446D01*
X193089500Y-61215000D01*
X192189500Y-61215000D01*
X191935500Y-61215000D01*
X191035500Y-61215000D01*
X190457748Y-61380446D01*
X189987288Y-61754394D01*
X189695744Y-62279914D01*
X189671464Y-62385260D01*
X143442500Y-62385260D01*
X143442500Y-62073648D01*
X143454862Y-62011500D01*
X143405889Y-61765296D01*
X143266426Y-61556574D01*
X143213735Y-61521367D01*
X141712411Y-60020043D01*
X141764137Y-59760000D01*
X141672478Y-59299197D01*
X141411453Y-58908547D01*
X141020803Y-58647522D01*
X140676318Y-58579000D01*
X140443682Y-58579000D01*
X140099197Y-58647522D01*
X139708547Y-58908547D01*
X139447522Y-59299197D01*
X139355863Y-59760000D01*
X139224137Y-59760000D01*
X139132478Y-59299197D01*
X138871453Y-58908547D01*
X138480803Y-58647522D01*
X138136318Y-58579000D01*
X137903682Y-58579000D01*
X137559197Y-58647522D01*
X137168547Y-58908547D01*
X136907522Y-59299197D01*
X136815863Y-59760000D01*
X136684137Y-59760000D01*
X136592478Y-59299197D01*
X136331453Y-58908547D01*
X135940803Y-58647522D01*
X135596318Y-58579000D01*
X135363682Y-58579000D01*
X135019197Y-58647522D01*
X134628547Y-58908547D01*
X134367522Y-59299197D01*
X134275863Y-59760000D01*
X134144137Y-59760000D01*
X134052478Y-59299197D01*
X133791453Y-58908547D01*
X133400803Y-58647522D01*
X133056318Y-58579000D01*
X132823682Y-58579000D01*
X132479197Y-58647522D01*
X132088547Y-58908547D01*
X131827522Y-59299197D01*
X131735863Y-59760000D01*
X131604137Y-59760000D01*
X131512478Y-59299197D01*
X131251453Y-58908547D01*
X130860803Y-58647522D01*
X130516318Y-58579000D01*
X130283682Y-58579000D01*
X129939197Y-58647522D01*
X129548547Y-58908547D01*
X129287522Y-59299197D01*
X129195863Y-59760000D01*
X129064137Y-59760000D01*
X128972478Y-59299197D01*
X128711453Y-58908547D01*
X128320803Y-58647522D01*
X127976318Y-58579000D01*
X127743682Y-58579000D01*
X127399197Y-58647522D01*
X127008547Y-58908547D01*
X126747522Y-59299197D01*
X126655863Y-59760000D01*
X126702279Y-59993349D01*
X126535071Y-60105073D01*
X126499864Y-60157764D01*
X126423724Y-60233904D01*
X126432478Y-60220803D01*
X126524137Y-59760000D01*
X126432478Y-59299197D01*
X126171453Y-58908547D01*
X125780803Y-58647522D01*
X125436318Y-58579000D01*
X125203682Y-58579000D01*
X124859197Y-58647522D01*
X124468547Y-58908547D01*
X124207522Y-59299197D01*
X124115863Y-59760000D01*
X124207522Y-60220803D01*
X124468547Y-60611453D01*
X124859197Y-60872478D01*
X125203682Y-60941000D01*
X125436318Y-60941000D01*
X125780803Y-60872478D01*
X125793904Y-60863724D01*
X116007764Y-70649864D01*
X115955076Y-70685069D01*
X115919872Y-70737756D01*
X115815612Y-70893792D01*
X115766639Y-71139995D01*
X115779002Y-71202148D01*
X115779002Y-73993227D01*
X115620803Y-73887522D01*
X115276318Y-73819000D01*
X115043682Y-73819000D01*
X114699197Y-73887522D01*
X114308547Y-74148547D01*
X114047522Y-74539197D01*
X113955863Y-75000000D01*
X113824137Y-75000000D01*
X113732478Y-74539197D01*
X113471453Y-74148547D01*
X113080803Y-73887522D01*
X112776000Y-73826893D01*
X112776000Y-60933107D01*
X113080803Y-60872478D01*
X113471453Y-60611453D01*
X113732478Y-60220803D01*
X113824137Y-59760000D01*
X113955863Y-59760000D01*
X114047522Y-60220803D01*
X114308547Y-60611453D01*
X114699197Y-60872478D01*
X115043682Y-60941000D01*
X115276318Y-60941000D01*
X115620803Y-60872478D01*
X116011453Y-60611453D01*
X116272478Y-60220803D01*
X116364137Y-59760000D01*
X116495863Y-59760000D01*
X116587522Y-60220803D01*
X116848547Y-60611453D01*
X117239197Y-60872478D01*
X117583682Y-60941000D01*
X117816318Y-60941000D01*
X118160803Y-60872478D01*
X118551453Y-60611453D01*
X118812478Y-60220803D01*
X118904137Y-59760000D01*
X119035863Y-59760000D01*
X119127522Y-60220803D01*
X119388547Y-60611453D01*
X119779197Y-60872478D01*
X120123682Y-60941000D01*
X120356318Y-60941000D01*
X120700803Y-60872478D01*
X121091453Y-60611453D01*
X121352478Y-60220803D01*
X121444137Y-59760000D01*
X121575863Y-59760000D01*
X121667522Y-60220803D01*
X121928547Y-60611453D01*
X122319197Y-60872478D01*
X122663682Y-60941000D01*
X122896318Y-60941000D01*
X123240803Y-60872478D01*
X123631453Y-60611453D01*
X123892478Y-60220803D01*
X123984137Y-59760000D01*
X123892478Y-59299197D01*
X123631453Y-58908547D01*
X123240803Y-58647522D01*
X122896318Y-58579000D01*
X122663682Y-58579000D01*
X122319197Y-58647522D01*
X121928547Y-58908547D01*
X121667522Y-59299197D01*
X121575863Y-59760000D01*
X121444137Y-59760000D01*
X121352478Y-59299197D01*
X121091453Y-58908547D01*
X120700803Y-58647522D01*
X120356318Y-58579000D01*
X120123682Y-58579000D01*
X119779197Y-58647522D01*
X119388547Y-58908547D01*
X119127522Y-59299197D01*
X119035863Y-59760000D01*
X118904137Y-59760000D01*
X118812478Y-59299197D01*
X118551453Y-58908547D01*
X118160803Y-58647522D01*
X117816318Y-58579000D01*
X117583682Y-58579000D01*
X117239197Y-58647522D01*
X116848547Y-58908547D01*
X116587522Y-59299197D01*
X116495863Y-59760000D01*
X116364137Y-59760000D01*
X116272478Y-59299197D01*
X116011453Y-58908547D01*
X115620803Y-58647522D01*
X115276318Y-58579000D01*
X115043682Y-58579000D01*
X114699197Y-58647522D01*
X114308547Y-58908547D01*
X114047522Y-59299197D01*
X113955863Y-59760000D01*
X113824137Y-59760000D01*
X113732478Y-59299197D01*
X113471453Y-58908547D01*
X113080803Y-58647522D01*
X112776000Y-58586893D01*
X112776000Y-58197750D01*
X159655000Y-58197750D01*
X159655000Y-59038310D01*
X159751673Y-59271699D01*
X159930302Y-59450327D01*
X160163691Y-59547000D01*
X161004250Y-59547000D01*
X161163000Y-59388250D01*
X161163000Y-58039000D01*
X161417000Y-58039000D01*
X161417000Y-59388250D01*
X161575750Y-59547000D01*
X162416309Y-59547000D01*
X162649698Y-59450327D01*
X162828327Y-59271699D01*
X162925000Y-59038310D01*
X162925000Y-58197750D01*
X162766250Y-58039000D01*
X161417000Y-58039000D01*
X161163000Y-58039000D01*
X159813750Y-58039000D01*
X159655000Y-58197750D01*
X112776000Y-58197750D01*
X112776000Y-57277000D01*
X112727664Y-57033996D01*
X112590013Y-56827987D01*
X112526712Y-56785690D01*
X159655000Y-56785690D01*
X159655000Y-57626250D01*
X159813750Y-57785000D01*
X161163000Y-57785000D01*
X161163000Y-56435750D01*
X161417000Y-56435750D01*
X161417000Y-57785000D01*
X162766250Y-57785000D01*
X162913948Y-57637302D01*
X164909000Y-57637302D01*
X164909000Y-58186698D01*
X165119245Y-58694273D01*
X165507727Y-59082755D01*
X166015302Y-59293000D01*
X166564698Y-59293000D01*
X167072273Y-59082755D01*
X167460755Y-58694273D01*
X167671000Y-58186698D01*
X167671000Y-57637302D01*
X167460755Y-57129727D01*
X167072273Y-56741245D01*
X166564698Y-56531000D01*
X166015302Y-56531000D01*
X165507727Y-56741245D01*
X165119245Y-57129727D01*
X164909000Y-57637302D01*
X162913948Y-57637302D01*
X162925000Y-57626250D01*
X162925000Y-56785690D01*
X162828327Y-56552301D01*
X162649698Y-56373673D01*
X162416309Y-56277000D01*
X161575750Y-56277000D01*
X161417000Y-56435750D01*
X161163000Y-56435750D01*
X161004250Y-56277000D01*
X160163691Y-56277000D01*
X159930302Y-56373673D01*
X159751673Y-56552301D01*
X159655000Y-56785690D01*
X112526712Y-56785690D01*
X112384004Y-56690336D01*
X112141000Y-56642000D01*
X107979430Y-56642000D01*
X108381000Y-55672523D01*
X108381000Y-54327477D01*
X191619000Y-54327477D01*
X191619000Y-55672523D01*
X192133726Y-56915183D01*
X193084817Y-57866274D01*
X194327477Y-58381000D01*
X195672523Y-58381000D01*
X196915183Y-57866274D01*
X197866274Y-56915183D01*
X198381000Y-55672523D01*
X198381000Y-54327477D01*
X197866274Y-53084817D01*
X196915183Y-52133726D01*
X195672523Y-51619000D01*
X194327477Y-51619000D01*
X193084817Y-52133726D01*
X192133726Y-53084817D01*
X191619000Y-54327477D01*
X108381000Y-54327477D01*
X107866274Y-53084817D01*
X106915183Y-52133726D01*
X105672523Y-51619000D01*
X104327477Y-51619000D01*
X103084817Y-52133726D01*
X102133726Y-53084817D01*
X101619000Y-54327477D01*
X101619000Y-55672523D01*
X102020570Y-56642000D01*
X100838000Y-56642000D01*
X100594996Y-56690336D01*
X100456000Y-56783210D01*
X100456000Y-50456000D01*
X199544001Y-50456000D01*
X199544000Y-129544000D01*
G04 #@! TO.N,GND*
G36*
X102940938Y-58081604D02*
X104168181Y-58589945D01*
X103965423Y-58725423D01*
X103648260Y-59200091D01*
X103536887Y-59760000D01*
X103648260Y-60319909D01*
X103965423Y-60794577D01*
X104440091Y-61111740D01*
X104858667Y-61195000D01*
X105141333Y-61195000D01*
X105559909Y-61111740D01*
X106034577Y-60794577D01*
X106290947Y-60410892D01*
X106387611Y-60615134D01*
X106802577Y-60991041D01*
X107190961Y-61151904D01*
X107413000Y-61029915D01*
X107413000Y-59887000D01*
X107393000Y-59887000D01*
X107393000Y-59633000D01*
X107413000Y-59633000D01*
X107413000Y-58490085D01*
X107190961Y-58368096D01*
X106802577Y-58528959D01*
X106387611Y-58904866D01*
X106290947Y-59109108D01*
X106034577Y-58725423D01*
X105831819Y-58589945D01*
X107059062Y-58081604D01*
X107736666Y-57404000D01*
X112014000Y-57404000D01*
X112014000Y-58439057D01*
X111585423Y-58725423D01*
X111350000Y-59077758D01*
X111114577Y-58725423D01*
X110639909Y-58408260D01*
X110221333Y-58325000D01*
X109938667Y-58325000D01*
X109520091Y-58408260D01*
X109045423Y-58725423D01*
X108789053Y-59109108D01*
X108692389Y-58904866D01*
X108277423Y-58528959D01*
X107889039Y-58368096D01*
X107667000Y-58490085D01*
X107667000Y-59633000D01*
X107687000Y-59633000D01*
X107687000Y-59887000D01*
X107667000Y-59887000D01*
X107667000Y-61029915D01*
X107889039Y-61151904D01*
X108277423Y-60991041D01*
X108692389Y-60615134D01*
X108789053Y-60410892D01*
X109045423Y-60794577D01*
X109520091Y-61111740D01*
X109938667Y-61195000D01*
X110221333Y-61195000D01*
X110639909Y-61111740D01*
X111114577Y-60794577D01*
X111350000Y-60442242D01*
X111585423Y-60794577D01*
X112014000Y-61080943D01*
X112014000Y-73714526D01*
X111882577Y-73768959D01*
X111467611Y-74144866D01*
X111370947Y-74349108D01*
X111114577Y-73965423D01*
X110639909Y-73648260D01*
X110221333Y-73565000D01*
X109938667Y-73565000D01*
X109520091Y-73648260D01*
X109045423Y-73965423D01*
X108810000Y-74317758D01*
X108574577Y-73965423D01*
X108099909Y-73648260D01*
X107681333Y-73565000D01*
X107398667Y-73565000D01*
X106980091Y-73648260D01*
X106505423Y-73965423D01*
X106424785Y-74086106D01*
X106398157Y-73952235D01*
X106257809Y-73742191D01*
X106047765Y-73601843D01*
X105800000Y-73552560D01*
X104200000Y-73552560D01*
X103952235Y-73601843D01*
X103742191Y-73742191D01*
X103601843Y-73952235D01*
X103552560Y-74200000D01*
X103552560Y-75800000D01*
X103601843Y-76047765D01*
X103742191Y-76257809D01*
X103952235Y-76398157D01*
X104200000Y-76447440D01*
X105800000Y-76447440D01*
X106047765Y-76398157D01*
X106257809Y-76257809D01*
X106398157Y-76047765D01*
X106424785Y-75913894D01*
X106505423Y-76034577D01*
X106980091Y-76351740D01*
X107398667Y-76435000D01*
X107681333Y-76435000D01*
X108099909Y-76351740D01*
X108574577Y-76034577D01*
X108810000Y-75682242D01*
X109045423Y-76034577D01*
X109520091Y-76351740D01*
X109938667Y-76435000D01*
X110221333Y-76435000D01*
X110639909Y-76351740D01*
X111114577Y-76034577D01*
X111370947Y-75650892D01*
X111467611Y-75855134D01*
X111882577Y-76231041D01*
X112014000Y-76285474D01*
X112014000Y-91694000D01*
X105538664Y-91694000D01*
X105399905Y-91359006D01*
X104728994Y-90688095D01*
X103852406Y-90325000D01*
X102903594Y-90325000D01*
X102027006Y-90688095D01*
X101356095Y-91359006D01*
X101217336Y-91694000D01*
X100838469Y-91694000D01*
X100859314Y-86044740D01*
X105708964Y-86044740D01*
X105733244Y-86150086D01*
X106024788Y-86675606D01*
X106495248Y-87049554D01*
X107073000Y-87215000D01*
X107973000Y-87215000D01*
X107973000Y-85807000D01*
X108227000Y-85807000D01*
X108227000Y-87215000D01*
X109127000Y-87215000D01*
X109704752Y-87049554D01*
X110175212Y-86675606D01*
X110466756Y-86150086D01*
X110491036Y-86044740D01*
X110370378Y-85807000D01*
X108227000Y-85807000D01*
X107973000Y-85807000D01*
X105829622Y-85807000D01*
X105708964Y-86044740D01*
X100859314Y-86044740D01*
X100862005Y-85315260D01*
X105708964Y-85315260D01*
X105829622Y-85553000D01*
X107973000Y-85553000D01*
X107973000Y-84145000D01*
X108227000Y-84145000D01*
X108227000Y-85553000D01*
X110370378Y-85553000D01*
X110491036Y-85315260D01*
X110466756Y-85209914D01*
X110175212Y-84684394D01*
X109704752Y-84310446D01*
X109127000Y-84145000D01*
X108227000Y-84145000D01*
X107973000Y-84145000D01*
X107073000Y-84145000D01*
X106495248Y-84310446D01*
X106024788Y-84684394D01*
X105733244Y-85209914D01*
X105708964Y-85315260D01*
X100862005Y-85315260D01*
X100881804Y-79950000D01*
X105652560Y-79950000D01*
X105652560Y-81250000D01*
X105720874Y-81593435D01*
X105915414Y-81884586D01*
X106206565Y-82079126D01*
X106550000Y-82147440D01*
X109650000Y-82147440D01*
X109993435Y-82079126D01*
X110284586Y-81884586D01*
X110479126Y-81593435D01*
X110547440Y-81250000D01*
X110547440Y-79950000D01*
X110479126Y-79606565D01*
X110284586Y-79315414D01*
X109993435Y-79120874D01*
X109650000Y-79052560D01*
X106550000Y-79052560D01*
X106206565Y-79120874D01*
X105915414Y-79315414D01*
X105720874Y-79606565D01*
X105652560Y-79950000D01*
X100881804Y-79950000D01*
X100964999Y-57404469D01*
X100965000Y-57404000D01*
X102263334Y-57404000D01*
X102940938Y-58081604D01*
X102940938Y-58081604D01*
G37*
X102940938Y-58081604D02*
X104168181Y-58589945D01*
X103965423Y-58725423D01*
X103648260Y-59200091D01*
X103536887Y-59760000D01*
X103648260Y-60319909D01*
X103965423Y-60794577D01*
X104440091Y-61111740D01*
X104858667Y-61195000D01*
X105141333Y-61195000D01*
X105559909Y-61111740D01*
X106034577Y-60794577D01*
X106290947Y-60410892D01*
X106387611Y-60615134D01*
X106802577Y-60991041D01*
X107190961Y-61151904D01*
X107413000Y-61029915D01*
X107413000Y-59887000D01*
X107393000Y-59887000D01*
X107393000Y-59633000D01*
X107413000Y-59633000D01*
X107413000Y-58490085D01*
X107190961Y-58368096D01*
X106802577Y-58528959D01*
X106387611Y-58904866D01*
X106290947Y-59109108D01*
X106034577Y-58725423D01*
X105831819Y-58589945D01*
X107059062Y-58081604D01*
X107736666Y-57404000D01*
X112014000Y-57404000D01*
X112014000Y-58439057D01*
X111585423Y-58725423D01*
X111350000Y-59077758D01*
X111114577Y-58725423D01*
X110639909Y-58408260D01*
X110221333Y-58325000D01*
X109938667Y-58325000D01*
X109520091Y-58408260D01*
X109045423Y-58725423D01*
X108789053Y-59109108D01*
X108692389Y-58904866D01*
X108277423Y-58528959D01*
X107889039Y-58368096D01*
X107667000Y-58490085D01*
X107667000Y-59633000D01*
X107687000Y-59633000D01*
X107687000Y-59887000D01*
X107667000Y-59887000D01*
X107667000Y-61029915D01*
X107889039Y-61151904D01*
X108277423Y-60991041D01*
X108692389Y-60615134D01*
X108789053Y-60410892D01*
X109045423Y-60794577D01*
X109520091Y-61111740D01*
X109938667Y-61195000D01*
X110221333Y-61195000D01*
X110639909Y-61111740D01*
X111114577Y-60794577D01*
X111350000Y-60442242D01*
X111585423Y-60794577D01*
X112014000Y-61080943D01*
X112014000Y-73714526D01*
X111882577Y-73768959D01*
X111467611Y-74144866D01*
X111370947Y-74349108D01*
X111114577Y-73965423D01*
X110639909Y-73648260D01*
X110221333Y-73565000D01*
X109938667Y-73565000D01*
X109520091Y-73648260D01*
X109045423Y-73965423D01*
X108810000Y-74317758D01*
X108574577Y-73965423D01*
X108099909Y-73648260D01*
X107681333Y-73565000D01*
X107398667Y-73565000D01*
X106980091Y-73648260D01*
X106505423Y-73965423D01*
X106424785Y-74086106D01*
X106398157Y-73952235D01*
X106257809Y-73742191D01*
X106047765Y-73601843D01*
X105800000Y-73552560D01*
X104200000Y-73552560D01*
X103952235Y-73601843D01*
X103742191Y-73742191D01*
X103601843Y-73952235D01*
X103552560Y-74200000D01*
X103552560Y-75800000D01*
X103601843Y-76047765D01*
X103742191Y-76257809D01*
X103952235Y-76398157D01*
X104200000Y-76447440D01*
X105800000Y-76447440D01*
X106047765Y-76398157D01*
X106257809Y-76257809D01*
X106398157Y-76047765D01*
X106424785Y-75913894D01*
X106505423Y-76034577D01*
X106980091Y-76351740D01*
X107398667Y-76435000D01*
X107681333Y-76435000D01*
X108099909Y-76351740D01*
X108574577Y-76034577D01*
X108810000Y-75682242D01*
X109045423Y-76034577D01*
X109520091Y-76351740D01*
X109938667Y-76435000D01*
X110221333Y-76435000D01*
X110639909Y-76351740D01*
X111114577Y-76034577D01*
X111370947Y-75650892D01*
X111467611Y-75855134D01*
X111882577Y-76231041D01*
X112014000Y-76285474D01*
X112014000Y-91694000D01*
X105538664Y-91694000D01*
X105399905Y-91359006D01*
X104728994Y-90688095D01*
X103852406Y-90325000D01*
X102903594Y-90325000D01*
X102027006Y-90688095D01*
X101356095Y-91359006D01*
X101217336Y-91694000D01*
X100838469Y-91694000D01*
X100859314Y-86044740D01*
X105708964Y-86044740D01*
X105733244Y-86150086D01*
X106024788Y-86675606D01*
X106495248Y-87049554D01*
X107073000Y-87215000D01*
X107973000Y-87215000D01*
X107973000Y-85807000D01*
X108227000Y-85807000D01*
X108227000Y-87215000D01*
X109127000Y-87215000D01*
X109704752Y-87049554D01*
X110175212Y-86675606D01*
X110466756Y-86150086D01*
X110491036Y-86044740D01*
X110370378Y-85807000D01*
X108227000Y-85807000D01*
X107973000Y-85807000D01*
X105829622Y-85807000D01*
X105708964Y-86044740D01*
X100859314Y-86044740D01*
X100862005Y-85315260D01*
X105708964Y-85315260D01*
X105829622Y-85553000D01*
X107973000Y-85553000D01*
X107973000Y-84145000D01*
X108227000Y-84145000D01*
X108227000Y-85553000D01*
X110370378Y-85553000D01*
X110491036Y-85315260D01*
X110466756Y-85209914D01*
X110175212Y-84684394D01*
X109704752Y-84310446D01*
X109127000Y-84145000D01*
X108227000Y-84145000D01*
X107973000Y-84145000D01*
X107073000Y-84145000D01*
X106495248Y-84310446D01*
X106024788Y-84684394D01*
X105733244Y-85209914D01*
X105708964Y-85315260D01*
X100862005Y-85315260D01*
X100881804Y-79950000D01*
X105652560Y-79950000D01*
X105652560Y-81250000D01*
X105720874Y-81593435D01*
X105915414Y-81884586D01*
X106206565Y-82079126D01*
X106550000Y-82147440D01*
X109650000Y-82147440D01*
X109993435Y-82079126D01*
X110284586Y-81884586D01*
X110479126Y-81593435D01*
X110547440Y-81250000D01*
X110547440Y-79950000D01*
X110479126Y-79606565D01*
X110284586Y-79315414D01*
X109993435Y-79120874D01*
X109650000Y-79052560D01*
X106550000Y-79052560D01*
X106206565Y-79120874D01*
X105915414Y-79315414D01*
X105720874Y-79606565D01*
X105652560Y-79950000D01*
X100881804Y-79950000D01*
X100964999Y-57404469D01*
X100965000Y-57404000D01*
X102263334Y-57404000D01*
X102940938Y-58081604D01*
G04 #@! TD*
M02*
