M48
;DRILL file {KiCad 5.0.2+dfsg1-1} date Mon 24 May 2021 01:18:40 PM CEST
;FORMAT={-:-/ absolute / metric / decimal}
FMAT,2
METRIC,TZ
T1C0.400
T2C0.500
T3C0.800
T4C1.000
T5C1.200
T6C1.500
T7C2.500
T8C2.540
T9C3.000
%
G90
G05
T1
X121.412Y-68.072
X122.682Y-67.31
X124.46Y-95.25
X125.476Y-96.393
X126.174Y-97.663
X127.381Y-89.599
X128.016Y-107.569
X128.524Y-80.518
X128.524Y-81.534
X129.159Y-93.472
X129.54Y-80.518
X129.54Y-81.534
X130.Y-88.
X130.556Y-80.518
X130.556Y-81.534
X131.Y-87.
X131.572Y-80.518
X131.572Y-81.534
X132.Y-86.
X132.588Y-80.518
X132.588Y-81.534
X140.8Y-56.6
X140.8Y-56.6
X141.681Y-62.027
X142.811Y-74.803
X143.Y-101.
X144.Y-100.
X144.272Y-63.652
X144.526Y-74.778
X145.Y-99.
X145.Y-101.
X145.Y-102.
X145.Y-103.
X148.209Y-77.978
X148.209Y-81.28
X148.209Y-84.582
X148.209Y-87.884
X148.907Y-120.777
X149.288Y-109.728
X153.797Y-120.777
X153.924Y-109.728
X156.972Y-74.168
X159.829Y-98.742
X160.083Y-120.777
X160.21Y-109.728
X160.4Y-79.4
X161.6Y-79.4
X163.Y-79.4
X164.846Y-120.777
X164.973Y-109.728
X165.1Y-98.806
X168.402Y-88.697
X171.196Y-109.791
X171.45Y-120.713
X172.Y-101.
X172.Y-102.
X172.Y-103.
X175.958Y-120.713
X176.085Y-109.791
X181.875Y-87.768
X183.Y-109.8
X187.Y-109.8
X191.Y-109.8
X198.25Y-87.633
T2
X102.75Y-55.
X103.409Y-53.409
X103.409Y-56.591
X105.Y-52.75
X105.Y-57.25
X106.591Y-53.409
X106.591Y-56.591
X107.25Y-55.
X192.75Y-55.
X193.409Y-53.409
X193.409Y-56.591
X195.Y-52.75
X195.Y-57.25
X196.591Y-53.409
X196.591Y-56.591
X197.25Y-55.
X192.75Y-125.
X193.409Y-123.409
X193.409Y-126.591
X195.Y-122.75
X195.Y-127.25
X196.591Y-123.409
X196.591Y-126.591
X197.25Y-125.
X102.75Y-125.
X103.409Y-123.409
X103.409Y-126.591
X105.Y-122.75
X105.Y-127.25
X106.591Y-123.409
X106.591Y-126.591
X107.25Y-125.
T3
X105.Y-59.76
X105.Y-75.
X107.54Y-59.76
X107.54Y-75.
X110.08Y-59.76
X110.08Y-75.
X112.62Y-59.76
X112.62Y-75.
X115.16Y-59.76
X115.16Y-75.
X117.7Y-59.76
X117.7Y-75.
X120.24Y-59.76
X120.24Y-75.
X122.78Y-59.76
X122.78Y-75.
X125.32Y-59.76
X125.32Y-75.
X127.86Y-59.76
X127.86Y-75.
X130.4Y-59.76
X130.4Y-75.
X132.94Y-59.76
X132.94Y-75.
X135.48Y-59.76
X135.48Y-75.
X138.02Y-59.76
X138.02Y-75.
X140.56Y-59.76
X140.56Y-75.
T4
X161.29Y-57.912
X166.29Y-57.912
X124.968Y-104.394
X127.508Y-104.394
X130.048Y-104.394
X132.588Y-104.394
X135.128Y-104.394
X137.668Y-104.394
X140.208Y-104.394
X142.748Y-104.394
X158.75Y-69.4
X161.29Y-69.4
X163.83Y-69.4
X166.37Y-69.4
X187.5Y-90.
X187.5Y-104.5
X190.Y-90.
X192.5Y-90.
X192.5Y-104.5
T5
X192.062Y-62.75
X192.062Y-67.83
X108.1Y-80.6
X108.1Y-85.68
X108.077Y-92.583
X108.077Y-97.663
X192.062Y-74.05
X192.062Y-79.13
X108.077Y-104.013
X108.077Y-109.093
X113.411Y-121.793
X118.491Y-121.793
T7
X152.15Y-93.
X172.85Y-69.8
X172.85Y-93.
X152.15Y-69.8
T8
X123.698Y-127.
X144.018Y-127.
T9
X105.Y-55.
X195.Y-125.
X105.Y-125.
X195.Y-55.
T6
X184.4Y-96.85G85X184.4Y-98.15
G05
X195.6Y-96.85G85X195.6Y-98.15
G05
T0
M30
