G04 #@! TF.GenerationSoftware,KiCad,Pcbnew,5.0.2+dfsg1-1*
G04 #@! TF.CreationDate,2021-05-24T13:33:32+02:00*
G04 #@! TF.ProjectId,Reflow_Control,5265666c-6f77-45f4-936f-6e74726f6c2e,rev?*
G04 #@! TF.SameCoordinates,Original*
G04 #@! TF.FileFunction,Soldermask,Top*
G04 #@! TF.FilePolarity,Negative*
%FSLAX46Y46*%
G04 Gerber Fmt 4.6, Leading zero omitted, Abs format (unit mm)*
G04 Created by KiCad (PCBNEW 5.0.2+dfsg1-1) date Mon 24 May 2021 01:33:32 PM CEST*
%MOMM*%
%LPD*%
G01*
G04 APERTURE LIST*
%ADD10C,0.100000*%
G04 APERTURE END LIST*
D10*
G36*
X144543331Y-125268211D02*
X144871092Y-125403974D01*
X145166073Y-125601074D01*
X145416926Y-125851927D01*
X145614026Y-126146908D01*
X145749789Y-126474669D01*
X145819000Y-126822616D01*
X145819000Y-127177384D01*
X145749789Y-127525331D01*
X145614026Y-127853092D01*
X145416926Y-128148073D01*
X145166073Y-128398926D01*
X144871092Y-128596026D01*
X144543331Y-128731789D01*
X144195384Y-128801000D01*
X143840616Y-128801000D01*
X143492669Y-128731789D01*
X143164908Y-128596026D01*
X142869927Y-128398926D01*
X142619074Y-128148073D01*
X142421974Y-127853092D01*
X142286211Y-127525331D01*
X142217000Y-127177384D01*
X142217000Y-126822616D01*
X142286211Y-126474669D01*
X142421974Y-126146908D01*
X142619074Y-125851927D01*
X142869927Y-125601074D01*
X143164908Y-125403974D01*
X143492669Y-125268211D01*
X143840616Y-125199000D01*
X144195384Y-125199000D01*
X144543331Y-125268211D01*
X144543331Y-125268211D01*
G37*
G36*
X124223331Y-125268211D02*
X124551092Y-125403974D01*
X124846073Y-125601074D01*
X125096926Y-125851927D01*
X125294026Y-126146908D01*
X125429789Y-126474669D01*
X125499000Y-126822616D01*
X125499000Y-127177384D01*
X125429789Y-127525331D01*
X125294026Y-127853092D01*
X125096926Y-128148073D01*
X124846073Y-128398926D01*
X124551092Y-128596026D01*
X124223331Y-128731789D01*
X123875384Y-128801000D01*
X123520616Y-128801000D01*
X123172669Y-128731789D01*
X122844908Y-128596026D01*
X122549927Y-128398926D01*
X122299074Y-128148073D01*
X122101974Y-127853092D01*
X121966211Y-127525331D01*
X121897000Y-127177384D01*
X121897000Y-126822616D01*
X121966211Y-126474669D01*
X122101974Y-126146908D01*
X122299074Y-125851927D01*
X122549927Y-125601074D01*
X122844908Y-125403974D01*
X123172669Y-125268211D01*
X123520616Y-125199000D01*
X123875384Y-125199000D01*
X124223331Y-125268211D01*
X124223331Y-125268211D01*
G37*
G36*
X105889941Y-122066248D02*
X105889943Y-122066249D01*
X105889944Y-122066249D01*
X106445190Y-122296239D01*
X106445191Y-122296240D01*
X106944902Y-122630136D01*
X107369864Y-123055098D01*
X107369866Y-123055101D01*
X107703761Y-123554810D01*
X107933751Y-124110056D01*
X107933752Y-124110059D01*
X108051000Y-124699501D01*
X108051000Y-125300499D01*
X107941313Y-125851930D01*
X107933751Y-125889944D01*
X107703761Y-126445190D01*
X107636021Y-126546570D01*
X107369864Y-126944902D01*
X106944902Y-127369864D01*
X106944899Y-127369866D01*
X106445190Y-127703761D01*
X105889944Y-127933751D01*
X105889943Y-127933751D01*
X105889941Y-127933752D01*
X105300499Y-128051000D01*
X104699501Y-128051000D01*
X104110059Y-127933752D01*
X104110057Y-127933751D01*
X104110056Y-127933751D01*
X103554810Y-127703761D01*
X103055101Y-127369866D01*
X103055098Y-127369864D01*
X102630136Y-126944902D01*
X102363979Y-126546570D01*
X102296239Y-126445190D01*
X102066249Y-125889944D01*
X102058688Y-125851930D01*
X101949000Y-125300499D01*
X101949000Y-124699501D01*
X102066248Y-124110059D01*
X102066249Y-124110056D01*
X102296239Y-123554810D01*
X102630134Y-123055101D01*
X102630136Y-123055098D01*
X103055098Y-122630136D01*
X103554809Y-122296240D01*
X103554810Y-122296239D01*
X104110056Y-122066249D01*
X104110057Y-122066249D01*
X104110059Y-122066248D01*
X104699501Y-121949000D01*
X105300499Y-121949000D01*
X105889941Y-122066248D01*
X105889941Y-122066248D01*
G37*
G36*
X195889941Y-122066248D02*
X195889943Y-122066249D01*
X195889944Y-122066249D01*
X196445190Y-122296239D01*
X196445191Y-122296240D01*
X196944902Y-122630136D01*
X197369864Y-123055098D01*
X197369866Y-123055101D01*
X197703761Y-123554810D01*
X197933751Y-124110056D01*
X197933752Y-124110059D01*
X198051000Y-124699501D01*
X198051000Y-125300499D01*
X197941313Y-125851930D01*
X197933751Y-125889944D01*
X197703761Y-126445190D01*
X197636021Y-126546570D01*
X197369864Y-126944902D01*
X196944902Y-127369864D01*
X196944899Y-127369866D01*
X196445190Y-127703761D01*
X195889944Y-127933751D01*
X195889943Y-127933751D01*
X195889941Y-127933752D01*
X195300499Y-128051000D01*
X194699501Y-128051000D01*
X194110059Y-127933752D01*
X194110057Y-127933751D01*
X194110056Y-127933751D01*
X193554810Y-127703761D01*
X193055101Y-127369866D01*
X193055098Y-127369864D01*
X192630136Y-126944902D01*
X192363979Y-126546570D01*
X192296239Y-126445190D01*
X192066249Y-125889944D01*
X192058688Y-125851930D01*
X191949000Y-125300499D01*
X191949000Y-124699501D01*
X192066248Y-124110059D01*
X192066249Y-124110056D01*
X192296239Y-123554810D01*
X192630134Y-123055101D01*
X192630136Y-123055098D01*
X193055098Y-122630136D01*
X193554809Y-122296240D01*
X193554810Y-122296239D01*
X194110056Y-122066249D01*
X194110057Y-122066249D01*
X194110059Y-122066248D01*
X194699501Y-121949000D01*
X195300499Y-121949000D01*
X195889941Y-122066248D01*
X195889941Y-122066248D01*
G37*
G36*
X178301000Y-125951000D02*
X176649000Y-125951000D01*
X176649000Y-124549000D01*
X178301000Y-124549000D01*
X178301000Y-125951000D01*
X178301000Y-125951000D01*
G37*
G36*
X159351000Y-125951000D02*
X157699000Y-125951000D01*
X157699000Y-124549000D01*
X159351000Y-124549000D01*
X159351000Y-125951000D01*
X159351000Y-125951000D01*
G37*
G36*
X167301000Y-125951000D02*
X165649000Y-125951000D01*
X165649000Y-124549000D01*
X167301000Y-124549000D01*
X167301000Y-125951000D01*
X167301000Y-125951000D01*
G37*
G36*
X170351000Y-125951000D02*
X168699000Y-125951000D01*
X168699000Y-124549000D01*
X170351000Y-124549000D01*
X170351000Y-125951000D01*
X170351000Y-125951000D01*
G37*
G36*
X148351000Y-125951000D02*
X146699000Y-125951000D01*
X146699000Y-124549000D01*
X148351000Y-124549000D01*
X148351000Y-125951000D01*
X148351000Y-125951000D01*
G37*
G36*
X156301000Y-125951000D02*
X154649000Y-125951000D01*
X154649000Y-124549000D01*
X156301000Y-124549000D01*
X156301000Y-125951000D01*
X156301000Y-125951000D01*
G37*
G36*
X118677424Y-119955760D02*
X118677427Y-119955761D01*
X118677428Y-119955761D01*
X118856692Y-120010140D01*
X118856694Y-120010141D01*
X118856697Y-120010142D01*
X119021904Y-120098446D01*
X119166712Y-120217288D01*
X119285552Y-120362095D01*
X119285553Y-120362097D01*
X119373860Y-120527307D01*
X119420229Y-120680165D01*
X119428240Y-120706575D01*
X119442000Y-120846282D01*
X119442000Y-122739718D01*
X119428240Y-122879425D01*
X119428239Y-122879428D01*
X119428239Y-122879429D01*
X119374950Y-123055101D01*
X119373859Y-123058695D01*
X119285552Y-123223905D01*
X119166712Y-123368712D01*
X119021905Y-123487552D01*
X118896075Y-123554810D01*
X118856693Y-123575860D01*
X118677429Y-123630239D01*
X118677428Y-123630239D01*
X118677425Y-123630240D01*
X118491000Y-123648601D01*
X118304576Y-123630240D01*
X118304573Y-123630239D01*
X118304572Y-123630239D01*
X118125308Y-123575860D01*
X118085926Y-123554810D01*
X117960096Y-123487552D01*
X117815289Y-123368712D01*
X117696449Y-123223905D01*
X117608142Y-123058695D01*
X117607052Y-123055101D01*
X117553762Y-122879429D01*
X117553762Y-122879428D01*
X117553761Y-122879425D01*
X117540000Y-122739717D01*
X117540000Y-120846283D01*
X117553760Y-120706576D01*
X117553761Y-120706572D01*
X117608140Y-120527308D01*
X117608141Y-120527306D01*
X117608142Y-120527303D01*
X117696446Y-120362096D01*
X117815288Y-120217288D01*
X117960095Y-120098448D01*
X118125305Y-120010141D01*
X118125307Y-120010140D01*
X118304571Y-119955761D01*
X118304572Y-119955761D01*
X118304575Y-119955760D01*
X118491000Y-119937399D01*
X118677424Y-119955760D01*
X118677424Y-119955760D01*
G37*
G36*
X114221918Y-119945934D02*
X114254424Y-119955795D01*
X114284383Y-119971808D01*
X114310641Y-119993359D01*
X114332192Y-120019617D01*
X114348205Y-120049576D01*
X114358066Y-120082082D01*
X114362000Y-120122029D01*
X114362000Y-123463971D01*
X114358066Y-123503918D01*
X114348205Y-123536424D01*
X114332192Y-123566383D01*
X114310641Y-123592641D01*
X114284383Y-123614192D01*
X114254424Y-123630205D01*
X114221918Y-123640066D01*
X114181971Y-123644000D01*
X112640029Y-123644000D01*
X112600082Y-123640066D01*
X112567576Y-123630205D01*
X112537617Y-123614192D01*
X112511359Y-123592641D01*
X112489808Y-123566383D01*
X112473795Y-123536424D01*
X112463934Y-123503918D01*
X112460000Y-123463971D01*
X112460000Y-120122029D01*
X112463934Y-120082082D01*
X112473795Y-120049576D01*
X112489808Y-120019617D01*
X112511359Y-119993359D01*
X112537617Y-119971808D01*
X112567576Y-119955795D01*
X112600082Y-119945934D01*
X112640029Y-119942000D01*
X114181971Y-119942000D01*
X114221918Y-119945934D01*
X114221918Y-119945934D01*
G37*
G36*
X156301000Y-121451000D02*
X154649000Y-121451000D01*
X154649000Y-120049000D01*
X156301000Y-120049000D01*
X156301000Y-121451000D01*
X156301000Y-121451000D01*
G37*
G36*
X148351000Y-121451000D02*
X146699000Y-121451000D01*
X146699000Y-120049000D01*
X148351000Y-120049000D01*
X148351000Y-121451000D01*
X148351000Y-121451000D01*
G37*
G36*
X170351000Y-121451000D02*
X168699000Y-121451000D01*
X168699000Y-120049000D01*
X170351000Y-120049000D01*
X170351000Y-121451000D01*
X170351000Y-121451000D01*
G37*
G36*
X178301000Y-121451000D02*
X176649000Y-121451000D01*
X176649000Y-120049000D01*
X178301000Y-120049000D01*
X178301000Y-121451000D01*
X178301000Y-121451000D01*
G37*
G36*
X159351000Y-121451000D02*
X157699000Y-121451000D01*
X157699000Y-120049000D01*
X159351000Y-120049000D01*
X159351000Y-121451000D01*
X159351000Y-121451000D01*
G37*
G36*
X167301000Y-121451000D02*
X165649000Y-121451000D01*
X165649000Y-120049000D01*
X167301000Y-120049000D01*
X167301000Y-121451000D01*
X167301000Y-121451000D01*
G37*
G36*
X187775562Y-119240681D02*
X187810477Y-119251273D01*
X187842665Y-119268478D01*
X187870873Y-119291627D01*
X187894022Y-119319835D01*
X187911227Y-119352023D01*
X187921819Y-119386938D01*
X187926000Y-119429395D01*
X187926000Y-120570605D01*
X187921819Y-120613062D01*
X187911227Y-120647977D01*
X187894022Y-120680165D01*
X187870873Y-120708373D01*
X187842665Y-120731522D01*
X187810477Y-120748727D01*
X187775562Y-120759319D01*
X187733105Y-120763500D01*
X186266895Y-120763500D01*
X186224438Y-120759319D01*
X186189523Y-120748727D01*
X186157335Y-120731522D01*
X186129127Y-120708373D01*
X186105978Y-120680165D01*
X186088773Y-120647977D01*
X186078181Y-120613062D01*
X186074000Y-120570605D01*
X186074000Y-119429395D01*
X186078181Y-119386938D01*
X186088773Y-119352023D01*
X186105978Y-119319835D01*
X186129127Y-119291627D01*
X186157335Y-119268478D01*
X186189523Y-119251273D01*
X186224438Y-119240681D01*
X186266895Y-119236500D01*
X187733105Y-119236500D01*
X187775562Y-119240681D01*
X187775562Y-119240681D01*
G37*
G36*
X183775562Y-119240681D02*
X183810477Y-119251273D01*
X183842665Y-119268478D01*
X183870873Y-119291627D01*
X183894022Y-119319835D01*
X183911227Y-119352023D01*
X183921819Y-119386938D01*
X183926000Y-119429395D01*
X183926000Y-120570605D01*
X183921819Y-120613062D01*
X183911227Y-120647977D01*
X183894022Y-120680165D01*
X183870873Y-120708373D01*
X183842665Y-120731522D01*
X183810477Y-120748727D01*
X183775562Y-120759319D01*
X183733105Y-120763500D01*
X182266895Y-120763500D01*
X182224438Y-120759319D01*
X182189523Y-120748727D01*
X182157335Y-120731522D01*
X182129127Y-120708373D01*
X182105978Y-120680165D01*
X182088773Y-120647977D01*
X182078181Y-120613062D01*
X182074000Y-120570605D01*
X182074000Y-119429395D01*
X182078181Y-119386938D01*
X182088773Y-119352023D01*
X182105978Y-119319835D01*
X182129127Y-119291627D01*
X182157335Y-119268478D01*
X182189523Y-119251273D01*
X182224438Y-119240681D01*
X182266895Y-119236500D01*
X183733105Y-119236500D01*
X183775562Y-119240681D01*
X183775562Y-119240681D01*
G37*
G36*
X191775562Y-119240681D02*
X191810477Y-119251273D01*
X191842665Y-119268478D01*
X191870873Y-119291627D01*
X191894022Y-119319835D01*
X191911227Y-119352023D01*
X191921819Y-119386938D01*
X191926000Y-119429395D01*
X191926000Y-120570605D01*
X191921819Y-120613062D01*
X191911227Y-120647977D01*
X191894022Y-120680165D01*
X191870873Y-120708373D01*
X191842665Y-120731522D01*
X191810477Y-120748727D01*
X191775562Y-120759319D01*
X191733105Y-120763500D01*
X190266895Y-120763500D01*
X190224438Y-120759319D01*
X190189523Y-120748727D01*
X190157335Y-120731522D01*
X190129127Y-120708373D01*
X190105978Y-120680165D01*
X190088773Y-120647977D01*
X190078181Y-120613062D01*
X190074000Y-120570605D01*
X190074000Y-119429395D01*
X190078181Y-119386938D01*
X190088773Y-119352023D01*
X190105978Y-119319835D01*
X190129127Y-119291627D01*
X190157335Y-119268478D01*
X190189523Y-119251273D01*
X190224438Y-119240681D01*
X190266895Y-119236500D01*
X191733105Y-119236500D01*
X191775562Y-119240681D01*
X191775562Y-119240681D01*
G37*
G36*
X169938677Y-117363465D02*
X169976364Y-117374898D01*
X170011103Y-117393466D01*
X170041548Y-117418452D01*
X170066534Y-117448897D01*
X170085102Y-117483636D01*
X170096535Y-117521323D01*
X170101000Y-117566661D01*
X170101000Y-118653339D01*
X170096535Y-118698677D01*
X170085102Y-118736364D01*
X170066534Y-118771103D01*
X170041548Y-118801548D01*
X170011103Y-118826534D01*
X169976364Y-118845102D01*
X169938677Y-118856535D01*
X169893339Y-118861000D01*
X169056661Y-118861000D01*
X169011323Y-118856535D01*
X168973636Y-118845102D01*
X168938897Y-118826534D01*
X168908452Y-118801548D01*
X168883466Y-118771103D01*
X168864898Y-118736364D01*
X168853465Y-118698677D01*
X168849000Y-118653339D01*
X168849000Y-117566661D01*
X168853465Y-117521323D01*
X168864898Y-117483636D01*
X168883466Y-117448897D01*
X168908452Y-117418452D01*
X168938897Y-117393466D01*
X168973636Y-117374898D01*
X169011323Y-117363465D01*
X169056661Y-117359000D01*
X169893339Y-117359000D01*
X169938677Y-117363465D01*
X169938677Y-117363465D01*
G37*
G36*
X147910677Y-117363465D02*
X147948364Y-117374898D01*
X147983103Y-117393466D01*
X148013548Y-117418452D01*
X148038534Y-117448897D01*
X148057102Y-117483636D01*
X148068535Y-117521323D01*
X148073000Y-117566661D01*
X148073000Y-118653339D01*
X148068535Y-118698677D01*
X148057102Y-118736364D01*
X148038534Y-118771103D01*
X148013548Y-118801548D01*
X147983103Y-118826534D01*
X147948364Y-118845102D01*
X147910677Y-118856535D01*
X147865339Y-118861000D01*
X147028661Y-118861000D01*
X146983323Y-118856535D01*
X146945636Y-118845102D01*
X146910897Y-118826534D01*
X146880452Y-118801548D01*
X146855466Y-118771103D01*
X146836898Y-118736364D01*
X146825465Y-118698677D01*
X146821000Y-118653339D01*
X146821000Y-117566661D01*
X146825465Y-117521323D01*
X146836898Y-117483636D01*
X146855466Y-117448897D01*
X146880452Y-117418452D01*
X146910897Y-117393466D01*
X146945636Y-117374898D01*
X146983323Y-117363465D01*
X147028661Y-117359000D01*
X147865339Y-117359000D01*
X147910677Y-117363465D01*
X147910677Y-117363465D01*
G37*
G36*
X160991677Y-117363465D02*
X161029364Y-117374898D01*
X161064103Y-117393466D01*
X161094548Y-117418452D01*
X161119534Y-117448897D01*
X161138102Y-117483636D01*
X161149535Y-117521323D01*
X161154000Y-117566661D01*
X161154000Y-118653339D01*
X161149535Y-118698677D01*
X161138102Y-118736364D01*
X161119534Y-118771103D01*
X161094548Y-118801548D01*
X161064103Y-118826534D01*
X161029364Y-118845102D01*
X160991677Y-118856535D01*
X160946339Y-118861000D01*
X160109661Y-118861000D01*
X160064323Y-118856535D01*
X160026636Y-118845102D01*
X159991897Y-118826534D01*
X159961452Y-118801548D01*
X159936466Y-118771103D01*
X159917898Y-118736364D01*
X159906465Y-118698677D01*
X159902000Y-118653339D01*
X159902000Y-117566661D01*
X159906465Y-117521323D01*
X159917898Y-117483636D01*
X159936466Y-117448897D01*
X159961452Y-117418452D01*
X159991897Y-117393466D01*
X160026636Y-117374898D01*
X160064323Y-117363465D01*
X160109661Y-117359000D01*
X160946339Y-117359000D01*
X160991677Y-117363465D01*
X160991677Y-117363465D01*
G37*
G36*
X158941677Y-117363465D02*
X158979364Y-117374898D01*
X159014103Y-117393466D01*
X159044548Y-117418452D01*
X159069534Y-117448897D01*
X159088102Y-117483636D01*
X159099535Y-117521323D01*
X159104000Y-117566661D01*
X159104000Y-118653339D01*
X159099535Y-118698677D01*
X159088102Y-118736364D01*
X159069534Y-118771103D01*
X159044548Y-118801548D01*
X159014103Y-118826534D01*
X158979364Y-118845102D01*
X158941677Y-118856535D01*
X158896339Y-118861000D01*
X158059661Y-118861000D01*
X158014323Y-118856535D01*
X157976636Y-118845102D01*
X157941897Y-118826534D01*
X157911452Y-118801548D01*
X157886466Y-118771103D01*
X157867898Y-118736364D01*
X157856465Y-118698677D01*
X157852000Y-118653339D01*
X157852000Y-117566661D01*
X157856465Y-117521323D01*
X157867898Y-117483636D01*
X157886466Y-117448897D01*
X157911452Y-117418452D01*
X157941897Y-117393466D01*
X157976636Y-117374898D01*
X158014323Y-117363465D01*
X158059661Y-117359000D01*
X158896339Y-117359000D01*
X158941677Y-117363465D01*
X158941677Y-117363465D01*
G37*
G36*
X149960677Y-117363465D02*
X149998364Y-117374898D01*
X150033103Y-117393466D01*
X150063548Y-117418452D01*
X150088534Y-117448897D01*
X150107102Y-117483636D01*
X150118535Y-117521323D01*
X150123000Y-117566661D01*
X150123000Y-118653339D01*
X150118535Y-118698677D01*
X150107102Y-118736364D01*
X150088534Y-118771103D01*
X150063548Y-118801548D01*
X150033103Y-118826534D01*
X149998364Y-118845102D01*
X149960677Y-118856535D01*
X149915339Y-118861000D01*
X149078661Y-118861000D01*
X149033323Y-118856535D01*
X148995636Y-118845102D01*
X148960897Y-118826534D01*
X148930452Y-118801548D01*
X148905466Y-118771103D01*
X148886898Y-118736364D01*
X148875465Y-118698677D01*
X148871000Y-118653339D01*
X148871000Y-117566661D01*
X148875465Y-117521323D01*
X148886898Y-117483636D01*
X148905466Y-117448897D01*
X148930452Y-117418452D01*
X148960897Y-117393466D01*
X148995636Y-117374898D01*
X149033323Y-117363465D01*
X149078661Y-117359000D01*
X149915339Y-117359000D01*
X149960677Y-117363465D01*
X149960677Y-117363465D01*
G37*
G36*
X171988677Y-117363465D02*
X172026364Y-117374898D01*
X172061103Y-117393466D01*
X172091548Y-117418452D01*
X172116534Y-117448897D01*
X172135102Y-117483636D01*
X172146535Y-117521323D01*
X172151000Y-117566661D01*
X172151000Y-118653339D01*
X172146535Y-118698677D01*
X172135102Y-118736364D01*
X172116534Y-118771103D01*
X172091548Y-118801548D01*
X172061103Y-118826534D01*
X172026364Y-118845102D01*
X171988677Y-118856535D01*
X171943339Y-118861000D01*
X171106661Y-118861000D01*
X171061323Y-118856535D01*
X171023636Y-118845102D01*
X170988897Y-118826534D01*
X170958452Y-118801548D01*
X170933466Y-118771103D01*
X170914898Y-118736364D01*
X170903465Y-118698677D01*
X170899000Y-118653339D01*
X170899000Y-117566661D01*
X170903465Y-117521323D01*
X170914898Y-117483636D01*
X170933466Y-117448897D01*
X170958452Y-117418452D01*
X170988897Y-117393466D01*
X171023636Y-117374898D01*
X171061323Y-117363465D01*
X171106661Y-117359000D01*
X171943339Y-117359000D01*
X171988677Y-117363465D01*
X171988677Y-117363465D01*
G37*
G36*
X111270935Y-115415671D02*
X111300874Y-115424753D01*
X111328469Y-115439503D01*
X111352651Y-115459349D01*
X111372497Y-115483531D01*
X111387247Y-115511126D01*
X111396329Y-115541065D01*
X111400000Y-115578340D01*
X111400000Y-117847660D01*
X111396329Y-117884935D01*
X111387247Y-117914874D01*
X111372497Y-117942469D01*
X111352651Y-117966651D01*
X111328469Y-117986497D01*
X111300874Y-118001247D01*
X111270935Y-118010329D01*
X111233660Y-118014000D01*
X107464340Y-118014000D01*
X107427065Y-118010329D01*
X107397126Y-118001247D01*
X107369531Y-117986497D01*
X107345349Y-117966651D01*
X107325503Y-117942469D01*
X107310753Y-117914874D01*
X107301671Y-117884935D01*
X107298000Y-117847660D01*
X107298000Y-115578340D01*
X107301671Y-115541065D01*
X107310753Y-115511126D01*
X107325503Y-115483531D01*
X107345349Y-115459349D01*
X107369531Y-115439503D01*
X107397126Y-115424753D01*
X107427065Y-115415671D01*
X107464340Y-115412000D01*
X111233660Y-115412000D01*
X111270935Y-115415671D01*
X111270935Y-115415671D01*
G37*
G36*
X105170935Y-115415671D02*
X105200874Y-115424753D01*
X105228469Y-115439503D01*
X105252651Y-115459349D01*
X105272497Y-115483531D01*
X105287247Y-115511126D01*
X105296329Y-115541065D01*
X105300000Y-115578340D01*
X105300000Y-117847660D01*
X105296329Y-117884935D01*
X105287247Y-117914874D01*
X105272497Y-117942469D01*
X105252651Y-117966651D01*
X105228469Y-117986497D01*
X105200874Y-118001247D01*
X105170935Y-118010329D01*
X105133660Y-118014000D01*
X101364340Y-118014000D01*
X101327065Y-118010329D01*
X101297126Y-118001247D01*
X101269531Y-117986497D01*
X101245349Y-117966651D01*
X101225503Y-117942469D01*
X101210753Y-117914874D01*
X101201671Y-117884935D01*
X101198000Y-117847660D01*
X101198000Y-115578340D01*
X101201671Y-115541065D01*
X101210753Y-115511126D01*
X101225503Y-115483531D01*
X101245349Y-115459349D01*
X101269531Y-115439503D01*
X101297126Y-115424753D01*
X101327065Y-115415671D01*
X101364340Y-115412000D01*
X105133660Y-115412000D01*
X105170935Y-115415671D01*
X105170935Y-115415671D01*
G37*
G36*
X191775562Y-116265681D02*
X191810477Y-116276273D01*
X191842665Y-116293478D01*
X191870873Y-116316627D01*
X191894022Y-116344835D01*
X191911227Y-116377023D01*
X191921819Y-116411938D01*
X191926000Y-116454395D01*
X191926000Y-117595605D01*
X191921819Y-117638062D01*
X191911227Y-117672977D01*
X191894022Y-117705165D01*
X191870873Y-117733373D01*
X191842665Y-117756522D01*
X191810477Y-117773727D01*
X191775562Y-117784319D01*
X191733105Y-117788500D01*
X190266895Y-117788500D01*
X190224438Y-117784319D01*
X190189523Y-117773727D01*
X190157335Y-117756522D01*
X190129127Y-117733373D01*
X190105978Y-117705165D01*
X190088773Y-117672977D01*
X190078181Y-117638062D01*
X190074000Y-117595605D01*
X190074000Y-116454395D01*
X190078181Y-116411938D01*
X190088773Y-116377023D01*
X190105978Y-116344835D01*
X190129127Y-116316627D01*
X190157335Y-116293478D01*
X190189523Y-116276273D01*
X190224438Y-116265681D01*
X190266895Y-116261500D01*
X191733105Y-116261500D01*
X191775562Y-116265681D01*
X191775562Y-116265681D01*
G37*
G36*
X187775562Y-116265681D02*
X187810477Y-116276273D01*
X187842665Y-116293478D01*
X187870873Y-116316627D01*
X187894022Y-116344835D01*
X187911227Y-116377023D01*
X187921819Y-116411938D01*
X187926000Y-116454395D01*
X187926000Y-117595605D01*
X187921819Y-117638062D01*
X187911227Y-117672977D01*
X187894022Y-117705165D01*
X187870873Y-117733373D01*
X187842665Y-117756522D01*
X187810477Y-117773727D01*
X187775562Y-117784319D01*
X187733105Y-117788500D01*
X186266895Y-117788500D01*
X186224438Y-117784319D01*
X186189523Y-117773727D01*
X186157335Y-117756522D01*
X186129127Y-117733373D01*
X186105978Y-117705165D01*
X186088773Y-117672977D01*
X186078181Y-117638062D01*
X186074000Y-117595605D01*
X186074000Y-116454395D01*
X186078181Y-116411938D01*
X186088773Y-116377023D01*
X186105978Y-116344835D01*
X186129127Y-116316627D01*
X186157335Y-116293478D01*
X186189523Y-116276273D01*
X186224438Y-116265681D01*
X186266895Y-116261500D01*
X187733105Y-116261500D01*
X187775562Y-116265681D01*
X187775562Y-116265681D01*
G37*
G36*
X183775562Y-116265681D02*
X183810477Y-116276273D01*
X183842665Y-116293478D01*
X183870873Y-116316627D01*
X183894022Y-116344835D01*
X183911227Y-116377023D01*
X183921819Y-116411938D01*
X183926000Y-116454395D01*
X183926000Y-117595605D01*
X183921819Y-117638062D01*
X183911227Y-117672977D01*
X183894022Y-117705165D01*
X183870873Y-117733373D01*
X183842665Y-117756522D01*
X183810477Y-117773727D01*
X183775562Y-117784319D01*
X183733105Y-117788500D01*
X182266895Y-117788500D01*
X182224438Y-117784319D01*
X182189523Y-117773727D01*
X182157335Y-117756522D01*
X182129127Y-117733373D01*
X182105978Y-117705165D01*
X182088773Y-117672977D01*
X182078181Y-117638062D01*
X182074000Y-117595605D01*
X182074000Y-116454395D01*
X182078181Y-116411938D01*
X182088773Y-116377023D01*
X182105978Y-116344835D01*
X182129127Y-116316627D01*
X182157335Y-116293478D01*
X182189523Y-116276273D01*
X182224438Y-116265681D01*
X182266895Y-116261500D01*
X183733105Y-116261500D01*
X183775562Y-116265681D01*
X183775562Y-116265681D01*
G37*
G36*
X117503935Y-111937171D02*
X117533874Y-111946253D01*
X117561469Y-111961003D01*
X117585651Y-111980849D01*
X117605497Y-112005031D01*
X117620247Y-112032626D01*
X117629329Y-112062565D01*
X117633000Y-112099840D01*
X117633000Y-115869160D01*
X117629329Y-115906435D01*
X117620247Y-115936374D01*
X117605497Y-115963969D01*
X117585651Y-115988151D01*
X117561469Y-116007997D01*
X117533874Y-116022747D01*
X117503935Y-116031829D01*
X117466660Y-116035500D01*
X115197340Y-116035500D01*
X115160065Y-116031829D01*
X115130126Y-116022747D01*
X115102531Y-116007997D01*
X115078349Y-115988151D01*
X115058503Y-115963969D01*
X115043753Y-115936374D01*
X115034671Y-115906435D01*
X115031000Y-115869160D01*
X115031000Y-112099840D01*
X115034671Y-112062565D01*
X115043753Y-112032626D01*
X115058503Y-112005031D01*
X115078349Y-111980849D01*
X115102531Y-111961003D01*
X115130126Y-111946253D01*
X115160065Y-111937171D01*
X115197340Y-111933500D01*
X117466660Y-111933500D01*
X117503935Y-111937171D01*
X117503935Y-111937171D01*
G37*
G36*
X191775562Y-113728181D02*
X191810477Y-113738773D01*
X191842665Y-113755978D01*
X191870873Y-113779127D01*
X191894022Y-113807335D01*
X191911227Y-113839523D01*
X191921819Y-113874438D01*
X191926000Y-113916895D01*
X191926000Y-115058105D01*
X191921819Y-115100562D01*
X191911227Y-115135477D01*
X191894022Y-115167665D01*
X191870873Y-115195873D01*
X191842665Y-115219022D01*
X191810477Y-115236227D01*
X191775562Y-115246819D01*
X191733105Y-115251000D01*
X190266895Y-115251000D01*
X190224438Y-115246819D01*
X190189523Y-115236227D01*
X190157335Y-115219022D01*
X190129127Y-115195873D01*
X190105978Y-115167665D01*
X190088773Y-115135477D01*
X190078181Y-115100562D01*
X190074000Y-115058105D01*
X190074000Y-113916895D01*
X190078181Y-113874438D01*
X190088773Y-113839523D01*
X190105978Y-113807335D01*
X190129127Y-113779127D01*
X190157335Y-113755978D01*
X190189523Y-113738773D01*
X190224438Y-113728181D01*
X190266895Y-113724000D01*
X191733105Y-113724000D01*
X191775562Y-113728181D01*
X191775562Y-113728181D01*
G37*
G36*
X183775562Y-113728181D02*
X183810477Y-113738773D01*
X183842665Y-113755978D01*
X183870873Y-113779127D01*
X183894022Y-113807335D01*
X183911227Y-113839523D01*
X183921819Y-113874438D01*
X183926000Y-113916895D01*
X183926000Y-115058105D01*
X183921819Y-115100562D01*
X183911227Y-115135477D01*
X183894022Y-115167665D01*
X183870873Y-115195873D01*
X183842665Y-115219022D01*
X183810477Y-115236227D01*
X183775562Y-115246819D01*
X183733105Y-115251000D01*
X182266895Y-115251000D01*
X182224438Y-115246819D01*
X182189523Y-115236227D01*
X182157335Y-115219022D01*
X182129127Y-115195873D01*
X182105978Y-115167665D01*
X182088773Y-115135477D01*
X182078181Y-115100562D01*
X182074000Y-115058105D01*
X182074000Y-113916895D01*
X182078181Y-113874438D01*
X182088773Y-113839523D01*
X182105978Y-113807335D01*
X182129127Y-113779127D01*
X182157335Y-113755978D01*
X182189523Y-113738773D01*
X182224438Y-113728181D01*
X182266895Y-113724000D01*
X183733105Y-113724000D01*
X183775562Y-113728181D01*
X183775562Y-113728181D01*
G37*
G36*
X187775562Y-113728181D02*
X187810477Y-113738773D01*
X187842665Y-113755978D01*
X187870873Y-113779127D01*
X187894022Y-113807335D01*
X187911227Y-113839523D01*
X187921819Y-113874438D01*
X187926000Y-113916895D01*
X187926000Y-115058105D01*
X187921819Y-115100562D01*
X187911227Y-115135477D01*
X187894022Y-115167665D01*
X187870873Y-115195873D01*
X187842665Y-115219022D01*
X187810477Y-115236227D01*
X187775562Y-115246819D01*
X187733105Y-115251000D01*
X186266895Y-115251000D01*
X186224438Y-115246819D01*
X186189523Y-115236227D01*
X186157335Y-115219022D01*
X186129127Y-115195873D01*
X186105978Y-115167665D01*
X186088773Y-115135477D01*
X186078181Y-115100562D01*
X186074000Y-115058105D01*
X186074000Y-113916895D01*
X186078181Y-113874438D01*
X186088773Y-113839523D01*
X186105978Y-113807335D01*
X186129127Y-113779127D01*
X186157335Y-113755978D01*
X186189523Y-113738773D01*
X186224438Y-113728181D01*
X186266895Y-113724000D01*
X187733105Y-113724000D01*
X187775562Y-113728181D01*
X187775562Y-113728181D01*
G37*
G36*
X159351000Y-114951000D02*
X157699000Y-114951000D01*
X157699000Y-113549000D01*
X159351000Y-113549000D01*
X159351000Y-114951000D01*
X159351000Y-114951000D01*
G37*
G36*
X148351000Y-114951000D02*
X146699000Y-114951000D01*
X146699000Y-113549000D01*
X148351000Y-113549000D01*
X148351000Y-114951000D01*
X148351000Y-114951000D01*
G37*
G36*
X156301000Y-114951000D02*
X154649000Y-114951000D01*
X154649000Y-113549000D01*
X156301000Y-113549000D01*
X156301000Y-114951000D01*
X156301000Y-114951000D01*
G37*
G36*
X167301000Y-114951000D02*
X165649000Y-114951000D01*
X165649000Y-113549000D01*
X167301000Y-113549000D01*
X167301000Y-114951000D01*
X167301000Y-114951000D01*
G37*
G36*
X178301000Y-114951000D02*
X176649000Y-114951000D01*
X176649000Y-113549000D01*
X178301000Y-113549000D01*
X178301000Y-114951000D01*
X178301000Y-114951000D01*
G37*
G36*
X170351000Y-114951000D02*
X168699000Y-114951000D01*
X168699000Y-113549000D01*
X170351000Y-113549000D01*
X170351000Y-114951000D01*
X170351000Y-114951000D01*
G37*
G36*
X187775562Y-110753181D02*
X187810477Y-110763773D01*
X187842665Y-110780978D01*
X187870873Y-110804127D01*
X187894022Y-110832335D01*
X187911227Y-110864523D01*
X187921819Y-110899438D01*
X187926000Y-110941895D01*
X187926000Y-112083105D01*
X187921819Y-112125562D01*
X187911227Y-112160477D01*
X187894022Y-112192665D01*
X187870873Y-112220873D01*
X187842665Y-112244022D01*
X187810477Y-112261227D01*
X187775562Y-112271819D01*
X187733105Y-112276000D01*
X186266895Y-112276000D01*
X186224438Y-112271819D01*
X186189523Y-112261227D01*
X186157335Y-112244022D01*
X186129127Y-112220873D01*
X186105978Y-112192665D01*
X186088773Y-112160477D01*
X186078181Y-112125562D01*
X186074000Y-112083105D01*
X186074000Y-110941895D01*
X186078181Y-110899438D01*
X186088773Y-110864523D01*
X186105978Y-110832335D01*
X186129127Y-110804127D01*
X186157335Y-110780978D01*
X186189523Y-110763773D01*
X186224438Y-110753181D01*
X186266895Y-110749000D01*
X187733105Y-110749000D01*
X187775562Y-110753181D01*
X187775562Y-110753181D01*
G37*
G36*
X191775562Y-110753181D02*
X191810477Y-110763773D01*
X191842665Y-110780978D01*
X191870873Y-110804127D01*
X191894022Y-110832335D01*
X191911227Y-110864523D01*
X191921819Y-110899438D01*
X191926000Y-110941895D01*
X191926000Y-112083105D01*
X191921819Y-112125562D01*
X191911227Y-112160477D01*
X191894022Y-112192665D01*
X191870873Y-112220873D01*
X191842665Y-112244022D01*
X191810477Y-112261227D01*
X191775562Y-112271819D01*
X191733105Y-112276000D01*
X190266895Y-112276000D01*
X190224438Y-112271819D01*
X190189523Y-112261227D01*
X190157335Y-112244022D01*
X190129127Y-112220873D01*
X190105978Y-112192665D01*
X190088773Y-112160477D01*
X190078181Y-112125562D01*
X190074000Y-112083105D01*
X190074000Y-110941895D01*
X190078181Y-110899438D01*
X190088773Y-110864523D01*
X190105978Y-110832335D01*
X190129127Y-110804127D01*
X190157335Y-110780978D01*
X190189523Y-110763773D01*
X190224438Y-110753181D01*
X190266895Y-110749000D01*
X191733105Y-110749000D01*
X191775562Y-110753181D01*
X191775562Y-110753181D01*
G37*
G36*
X183775562Y-110753181D02*
X183810477Y-110763773D01*
X183842665Y-110780978D01*
X183870873Y-110804127D01*
X183894022Y-110832335D01*
X183911227Y-110864523D01*
X183921819Y-110899438D01*
X183926000Y-110941895D01*
X183926000Y-112083105D01*
X183921819Y-112125562D01*
X183911227Y-112160477D01*
X183894022Y-112192665D01*
X183870873Y-112220873D01*
X183842665Y-112244022D01*
X183810477Y-112261227D01*
X183775562Y-112271819D01*
X183733105Y-112276000D01*
X182266895Y-112276000D01*
X182224438Y-112271819D01*
X182189523Y-112261227D01*
X182157335Y-112244022D01*
X182129127Y-112220873D01*
X182105978Y-112192665D01*
X182088773Y-112160477D01*
X182078181Y-112125562D01*
X182074000Y-112083105D01*
X182074000Y-110941895D01*
X182078181Y-110899438D01*
X182088773Y-110864523D01*
X182105978Y-110832335D01*
X182129127Y-110804127D01*
X182157335Y-110780978D01*
X182189523Y-110763773D01*
X182224438Y-110753181D01*
X182266895Y-110749000D01*
X183733105Y-110749000D01*
X183775562Y-110753181D01*
X183775562Y-110753181D01*
G37*
G36*
X178301000Y-110451000D02*
X176649000Y-110451000D01*
X176649000Y-109049000D01*
X178301000Y-109049000D01*
X178301000Y-110451000D01*
X178301000Y-110451000D01*
G37*
G36*
X170351000Y-110451000D02*
X168699000Y-110451000D01*
X168699000Y-109049000D01*
X170351000Y-109049000D01*
X170351000Y-110451000D01*
X170351000Y-110451000D01*
G37*
G36*
X148351000Y-110451000D02*
X146699000Y-110451000D01*
X146699000Y-109049000D01*
X148351000Y-109049000D01*
X148351000Y-110451000D01*
X148351000Y-110451000D01*
G37*
G36*
X156301000Y-110451000D02*
X154649000Y-110451000D01*
X154649000Y-109049000D01*
X156301000Y-109049000D01*
X156301000Y-110451000D01*
X156301000Y-110451000D01*
G37*
G36*
X159351000Y-110451000D02*
X157699000Y-110451000D01*
X157699000Y-109049000D01*
X159351000Y-109049000D01*
X159351000Y-110451000D01*
X159351000Y-110451000D01*
G37*
G36*
X167301000Y-110451000D02*
X165649000Y-110451000D01*
X165649000Y-109049000D01*
X167301000Y-109049000D01*
X167301000Y-110451000D01*
X167301000Y-110451000D01*
G37*
G36*
X109163425Y-108155760D02*
X109163428Y-108155761D01*
X109163429Y-108155761D01*
X109342693Y-108210140D01*
X109342695Y-108210141D01*
X109507905Y-108298448D01*
X109652712Y-108417288D01*
X109771552Y-108562095D01*
X109859859Y-108727305D01*
X109914240Y-108906575D01*
X109932601Y-109093000D01*
X109914240Y-109279425D01*
X109859859Y-109458695D01*
X109771552Y-109623905D01*
X109652712Y-109768712D01*
X109507905Y-109887552D01*
X109507903Y-109887553D01*
X109342693Y-109975860D01*
X109163429Y-110030239D01*
X109163428Y-110030239D01*
X109163425Y-110030240D01*
X109023718Y-110044000D01*
X107130282Y-110044000D01*
X106990575Y-110030240D01*
X106990572Y-110030239D01*
X106990571Y-110030239D01*
X106811307Y-109975860D01*
X106646097Y-109887553D01*
X106646095Y-109887552D01*
X106501288Y-109768712D01*
X106382448Y-109623905D01*
X106294141Y-109458695D01*
X106239760Y-109279425D01*
X106221399Y-109093000D01*
X106239760Y-108906575D01*
X106294141Y-108727305D01*
X106382448Y-108562095D01*
X106501288Y-108417288D01*
X106646095Y-108298448D01*
X106811305Y-108210141D01*
X106811307Y-108210140D01*
X106990571Y-108155761D01*
X106990572Y-108155761D01*
X106990575Y-108155760D01*
X107130282Y-108142000D01*
X109023718Y-108142000D01*
X109163425Y-108155760D01*
X109163425Y-108155760D01*
G37*
G36*
X117503935Y-105837171D02*
X117533874Y-105846253D01*
X117561469Y-105861003D01*
X117585651Y-105880849D01*
X117605497Y-105905031D01*
X117620247Y-105932626D01*
X117629329Y-105962565D01*
X117633000Y-105999840D01*
X117633000Y-109769160D01*
X117629329Y-109806435D01*
X117620247Y-109836374D01*
X117605497Y-109863969D01*
X117585651Y-109888151D01*
X117561469Y-109907997D01*
X117533874Y-109922747D01*
X117503935Y-109931829D01*
X117466660Y-109935500D01*
X115197340Y-109935500D01*
X115160065Y-109931829D01*
X115130126Y-109922747D01*
X115102531Y-109907997D01*
X115078349Y-109888151D01*
X115058503Y-109863969D01*
X115043753Y-109836374D01*
X115034671Y-109806435D01*
X115031000Y-109769160D01*
X115031000Y-105999840D01*
X115034671Y-105962565D01*
X115043753Y-105932626D01*
X115058503Y-105905031D01*
X115078349Y-105880849D01*
X115102531Y-105861003D01*
X115130126Y-105846253D01*
X115160065Y-105837171D01*
X115197340Y-105833500D01*
X117466660Y-105833500D01*
X117503935Y-105837171D01*
X117503935Y-105837171D01*
G37*
G36*
X125654062Y-106647181D02*
X125688977Y-106657773D01*
X125721165Y-106674978D01*
X125749373Y-106698127D01*
X125772522Y-106726335D01*
X125789727Y-106758523D01*
X125800319Y-106793438D01*
X125804500Y-106835895D01*
X125804500Y-108302105D01*
X125800319Y-108344562D01*
X125789727Y-108379477D01*
X125772522Y-108411665D01*
X125749373Y-108439873D01*
X125721165Y-108463022D01*
X125688977Y-108480227D01*
X125654062Y-108490819D01*
X125611605Y-108495000D01*
X124470395Y-108495000D01*
X124427938Y-108490819D01*
X124393023Y-108480227D01*
X124360835Y-108463022D01*
X124332627Y-108439873D01*
X124309478Y-108411665D01*
X124292273Y-108379477D01*
X124281681Y-108344562D01*
X124277500Y-108302105D01*
X124277500Y-106835895D01*
X124281681Y-106793438D01*
X124292273Y-106758523D01*
X124309478Y-106726335D01*
X124332627Y-106698127D01*
X124360835Y-106674978D01*
X124393023Y-106657773D01*
X124427938Y-106647181D01*
X124470395Y-106643000D01*
X125611605Y-106643000D01*
X125654062Y-106647181D01*
X125654062Y-106647181D01*
G37*
G36*
X128629062Y-106647181D02*
X128663977Y-106657773D01*
X128696165Y-106674978D01*
X128724373Y-106698127D01*
X128747522Y-106726335D01*
X128764727Y-106758523D01*
X128775319Y-106793438D01*
X128779500Y-106835895D01*
X128779500Y-108302105D01*
X128775319Y-108344562D01*
X128764727Y-108379477D01*
X128747522Y-108411665D01*
X128724373Y-108439873D01*
X128696165Y-108463022D01*
X128663977Y-108480227D01*
X128629062Y-108490819D01*
X128586605Y-108495000D01*
X127445395Y-108495000D01*
X127402938Y-108490819D01*
X127368023Y-108480227D01*
X127335835Y-108463022D01*
X127307627Y-108439873D01*
X127284478Y-108411665D01*
X127267273Y-108379477D01*
X127256681Y-108344562D01*
X127252500Y-108302105D01*
X127252500Y-106835895D01*
X127256681Y-106793438D01*
X127267273Y-106758523D01*
X127284478Y-106726335D01*
X127307627Y-106698127D01*
X127335835Y-106674978D01*
X127368023Y-106657773D01*
X127402938Y-106647181D01*
X127445395Y-106643000D01*
X128586605Y-106643000D01*
X128629062Y-106647181D01*
X128629062Y-106647181D01*
G37*
G36*
X171922677Y-106314465D02*
X171960364Y-106325898D01*
X171995103Y-106344466D01*
X172025548Y-106369452D01*
X172050534Y-106399897D01*
X172069102Y-106434636D01*
X172080535Y-106472323D01*
X172085000Y-106517661D01*
X172085000Y-107604339D01*
X172080535Y-107649677D01*
X172069102Y-107687364D01*
X172050534Y-107722103D01*
X172025548Y-107752548D01*
X171995103Y-107777534D01*
X171960364Y-107796102D01*
X171922677Y-107807535D01*
X171877339Y-107812000D01*
X171040661Y-107812000D01*
X170995323Y-107807535D01*
X170957636Y-107796102D01*
X170922897Y-107777534D01*
X170892452Y-107752548D01*
X170867466Y-107722103D01*
X170848898Y-107687364D01*
X170837465Y-107649677D01*
X170833000Y-107604339D01*
X170833000Y-106517661D01*
X170837465Y-106472323D01*
X170848898Y-106434636D01*
X170867466Y-106399897D01*
X170892452Y-106369452D01*
X170922897Y-106344466D01*
X170957636Y-106325898D01*
X170995323Y-106314465D01*
X171040661Y-106310000D01*
X171877339Y-106310000D01*
X171922677Y-106314465D01*
X171922677Y-106314465D01*
G37*
G36*
X169872677Y-106314465D02*
X169910364Y-106325898D01*
X169945103Y-106344466D01*
X169975548Y-106369452D01*
X170000534Y-106399897D01*
X170019102Y-106434636D01*
X170030535Y-106472323D01*
X170035000Y-106517661D01*
X170035000Y-107604339D01*
X170030535Y-107649677D01*
X170019102Y-107687364D01*
X170000534Y-107722103D01*
X169975548Y-107752548D01*
X169945103Y-107777534D01*
X169910364Y-107796102D01*
X169872677Y-107807535D01*
X169827339Y-107812000D01*
X168990661Y-107812000D01*
X168945323Y-107807535D01*
X168907636Y-107796102D01*
X168872897Y-107777534D01*
X168842452Y-107752548D01*
X168817466Y-107722103D01*
X168798898Y-107687364D01*
X168787465Y-107649677D01*
X168783000Y-107604339D01*
X168783000Y-106517661D01*
X168787465Y-106472323D01*
X168798898Y-106434636D01*
X168817466Y-106399897D01*
X168842452Y-106369452D01*
X168872897Y-106344466D01*
X168907636Y-106325898D01*
X168945323Y-106314465D01*
X168990661Y-106310000D01*
X169827339Y-106310000D01*
X169872677Y-106314465D01*
X169872677Y-106314465D01*
G37*
G36*
X158950677Y-106314465D02*
X158988364Y-106325898D01*
X159023103Y-106344466D01*
X159053548Y-106369452D01*
X159078534Y-106399897D01*
X159097102Y-106434636D01*
X159108535Y-106472323D01*
X159113000Y-106517661D01*
X159113000Y-107604339D01*
X159108535Y-107649677D01*
X159097102Y-107687364D01*
X159078534Y-107722103D01*
X159053548Y-107752548D01*
X159023103Y-107777534D01*
X158988364Y-107796102D01*
X158950677Y-107807535D01*
X158905339Y-107812000D01*
X158068661Y-107812000D01*
X158023323Y-107807535D01*
X157985636Y-107796102D01*
X157950897Y-107777534D01*
X157920452Y-107752548D01*
X157895466Y-107722103D01*
X157876898Y-107687364D01*
X157865465Y-107649677D01*
X157861000Y-107604339D01*
X157861000Y-106517661D01*
X157865465Y-106472323D01*
X157876898Y-106434636D01*
X157895466Y-106399897D01*
X157920452Y-106369452D01*
X157950897Y-106344466D01*
X157985636Y-106325898D01*
X158023323Y-106314465D01*
X158068661Y-106310000D01*
X158905339Y-106310000D01*
X158950677Y-106314465D01*
X158950677Y-106314465D01*
G37*
G36*
X147901677Y-106314465D02*
X147939364Y-106325898D01*
X147974103Y-106344466D01*
X148004548Y-106369452D01*
X148029534Y-106399897D01*
X148048102Y-106434636D01*
X148059535Y-106472323D01*
X148064000Y-106517661D01*
X148064000Y-107604339D01*
X148059535Y-107649677D01*
X148048102Y-107687364D01*
X148029534Y-107722103D01*
X148004548Y-107752548D01*
X147974103Y-107777534D01*
X147939364Y-107796102D01*
X147901677Y-107807535D01*
X147856339Y-107812000D01*
X147019661Y-107812000D01*
X146974323Y-107807535D01*
X146936636Y-107796102D01*
X146901897Y-107777534D01*
X146871452Y-107752548D01*
X146846466Y-107722103D01*
X146827898Y-107687364D01*
X146816465Y-107649677D01*
X146812000Y-107604339D01*
X146812000Y-106517661D01*
X146816465Y-106472323D01*
X146827898Y-106434636D01*
X146846466Y-106399897D01*
X146871452Y-106369452D01*
X146901897Y-106344466D01*
X146936636Y-106325898D01*
X146974323Y-106314465D01*
X147019661Y-106310000D01*
X147856339Y-106310000D01*
X147901677Y-106314465D01*
X147901677Y-106314465D01*
G37*
G36*
X149951677Y-106314465D02*
X149989364Y-106325898D01*
X150024103Y-106344466D01*
X150054548Y-106369452D01*
X150079534Y-106399897D01*
X150098102Y-106434636D01*
X150109535Y-106472323D01*
X150114000Y-106517661D01*
X150114000Y-107604339D01*
X150109535Y-107649677D01*
X150098102Y-107687364D01*
X150079534Y-107722103D01*
X150054548Y-107752548D01*
X150024103Y-107777534D01*
X149989364Y-107796102D01*
X149951677Y-107807535D01*
X149906339Y-107812000D01*
X149069661Y-107812000D01*
X149024323Y-107807535D01*
X148986636Y-107796102D01*
X148951897Y-107777534D01*
X148921452Y-107752548D01*
X148896466Y-107722103D01*
X148877898Y-107687364D01*
X148866465Y-107649677D01*
X148862000Y-107604339D01*
X148862000Y-106517661D01*
X148866465Y-106472323D01*
X148877898Y-106434636D01*
X148896466Y-106399897D01*
X148921452Y-106369452D01*
X148951897Y-106344466D01*
X148986636Y-106325898D01*
X149024323Y-106314465D01*
X149069661Y-106310000D01*
X149906339Y-106310000D01*
X149951677Y-106314465D01*
X149951677Y-106314465D01*
G37*
G36*
X161000677Y-106314465D02*
X161038364Y-106325898D01*
X161073103Y-106344466D01*
X161103548Y-106369452D01*
X161128534Y-106399897D01*
X161147102Y-106434636D01*
X161158535Y-106472323D01*
X161163000Y-106517661D01*
X161163000Y-107604339D01*
X161158535Y-107649677D01*
X161147102Y-107687364D01*
X161128534Y-107722103D01*
X161103548Y-107752548D01*
X161073103Y-107777534D01*
X161038364Y-107796102D01*
X161000677Y-107807535D01*
X160955339Y-107812000D01*
X160118661Y-107812000D01*
X160073323Y-107807535D01*
X160035636Y-107796102D01*
X160000897Y-107777534D01*
X159970452Y-107752548D01*
X159945466Y-107722103D01*
X159926898Y-107687364D01*
X159915465Y-107649677D01*
X159911000Y-107604339D01*
X159911000Y-106517661D01*
X159915465Y-106472323D01*
X159926898Y-106434636D01*
X159945466Y-106399897D01*
X159970452Y-106369452D01*
X160000897Y-106344466D01*
X160035636Y-106325898D01*
X160073323Y-106314465D01*
X160118661Y-106310000D01*
X160955339Y-106310000D01*
X161000677Y-106314465D01*
X161000677Y-106314465D01*
G37*
G36*
X189438677Y-105878465D02*
X189476364Y-105889898D01*
X189511103Y-105908466D01*
X189541548Y-105933452D01*
X189566534Y-105963897D01*
X189585102Y-105998636D01*
X189596535Y-106036323D01*
X189601000Y-106081661D01*
X189601000Y-107168339D01*
X189596535Y-107213677D01*
X189585102Y-107251364D01*
X189566534Y-107286103D01*
X189541548Y-107316548D01*
X189511103Y-107341534D01*
X189476364Y-107360102D01*
X189438677Y-107371535D01*
X189393339Y-107376000D01*
X188556661Y-107376000D01*
X188511323Y-107371535D01*
X188473636Y-107360102D01*
X188438897Y-107341534D01*
X188408452Y-107316548D01*
X188383466Y-107286103D01*
X188364898Y-107251364D01*
X188353465Y-107213677D01*
X188349000Y-107168339D01*
X188349000Y-106081661D01*
X188353465Y-106036323D01*
X188364898Y-105998636D01*
X188383466Y-105963897D01*
X188408452Y-105933452D01*
X188438897Y-105908466D01*
X188473636Y-105889898D01*
X188511323Y-105878465D01*
X188556661Y-105874000D01*
X189393339Y-105874000D01*
X189438677Y-105878465D01*
X189438677Y-105878465D01*
G37*
G36*
X191488677Y-105878465D02*
X191526364Y-105889898D01*
X191561103Y-105908466D01*
X191591548Y-105933452D01*
X191616534Y-105963897D01*
X191635102Y-105998636D01*
X191646535Y-106036323D01*
X191651000Y-106081661D01*
X191651000Y-107168339D01*
X191646535Y-107213677D01*
X191635102Y-107251364D01*
X191616534Y-107286103D01*
X191591548Y-107316548D01*
X191561103Y-107341534D01*
X191526364Y-107360102D01*
X191488677Y-107371535D01*
X191443339Y-107376000D01*
X190606661Y-107376000D01*
X190561323Y-107371535D01*
X190523636Y-107360102D01*
X190488897Y-107341534D01*
X190458452Y-107316548D01*
X190433466Y-107286103D01*
X190414898Y-107251364D01*
X190403465Y-107213677D01*
X190399000Y-107168339D01*
X190399000Y-106081661D01*
X190403465Y-106036323D01*
X190414898Y-105998636D01*
X190433466Y-105963897D01*
X190458452Y-105933452D01*
X190488897Y-105908466D01*
X190523636Y-105889898D01*
X190561323Y-105878465D01*
X190606661Y-105874000D01*
X191443339Y-105874000D01*
X191488677Y-105878465D01*
X191488677Y-105878465D01*
G37*
G36*
X187733643Y-103729781D02*
X187879415Y-103790162D01*
X188010611Y-103877824D01*
X188122176Y-103989389D01*
X188209838Y-104120585D01*
X188270219Y-104266357D01*
X188301000Y-104421107D01*
X188301000Y-104578893D01*
X188270219Y-104733643D01*
X188209838Y-104879415D01*
X188122176Y-105010611D01*
X188010611Y-105122176D01*
X187879415Y-105209838D01*
X187733643Y-105270219D01*
X187578893Y-105301000D01*
X187421107Y-105301000D01*
X187266357Y-105270219D01*
X187120585Y-105209838D01*
X186989389Y-105122176D01*
X186877824Y-105010611D01*
X186790162Y-104879415D01*
X186729781Y-104733643D01*
X186699000Y-104578893D01*
X186699000Y-104421107D01*
X186729781Y-104266357D01*
X186790162Y-104120585D01*
X186877824Y-103989389D01*
X186989389Y-103877824D01*
X187120585Y-103790162D01*
X187266357Y-103729781D01*
X187421107Y-103699000D01*
X187578893Y-103699000D01*
X187733643Y-103729781D01*
X187733643Y-103729781D01*
G37*
G36*
X192733643Y-103729781D02*
X192879415Y-103790162D01*
X193010611Y-103877824D01*
X193122176Y-103989389D01*
X193209838Y-104120585D01*
X193270219Y-104266357D01*
X193301000Y-104421107D01*
X193301000Y-104578893D01*
X193270219Y-104733643D01*
X193209838Y-104879415D01*
X193122176Y-105010611D01*
X193010611Y-105122176D01*
X192879415Y-105209838D01*
X192733643Y-105270219D01*
X192578893Y-105301000D01*
X192421107Y-105301000D01*
X192266357Y-105270219D01*
X192120585Y-105209838D01*
X191989389Y-105122176D01*
X191877824Y-105010611D01*
X191790162Y-104879415D01*
X191729781Y-104733643D01*
X191699000Y-104578893D01*
X191699000Y-104421107D01*
X191729781Y-104266357D01*
X191790162Y-104120585D01*
X191877824Y-103989389D01*
X191989389Y-103877824D01*
X192120585Y-103790162D01*
X192266357Y-103729781D01*
X192421107Y-103699000D01*
X192578893Y-103699000D01*
X192733643Y-103729781D01*
X192733643Y-103729781D01*
G37*
G36*
X140318442Y-103499518D02*
X140384627Y-103506037D01*
X140497853Y-103540384D01*
X140554467Y-103557557D01*
X140693087Y-103631652D01*
X140710991Y-103641222D01*
X140746729Y-103670552D01*
X140848186Y-103753814D01*
X140931448Y-103855271D01*
X140960778Y-103891009D01*
X140960779Y-103891011D01*
X141044443Y-104047533D01*
X141044443Y-104047534D01*
X141095963Y-104217373D01*
X141113359Y-104394000D01*
X141095963Y-104570627D01*
X141061616Y-104683853D01*
X141044443Y-104740467D01*
X140999837Y-104823918D01*
X140960778Y-104896991D01*
X140931448Y-104932729D01*
X140848186Y-105034186D01*
X140746729Y-105117448D01*
X140710991Y-105146778D01*
X140710989Y-105146779D01*
X140554467Y-105230443D01*
X140497853Y-105247616D01*
X140384627Y-105281963D01*
X140318443Y-105288481D01*
X140252260Y-105295000D01*
X140163740Y-105295000D01*
X140097558Y-105288482D01*
X140031373Y-105281963D01*
X139918147Y-105247616D01*
X139861533Y-105230443D01*
X139705011Y-105146779D01*
X139705009Y-105146778D01*
X139669271Y-105117448D01*
X139567814Y-105034186D01*
X139484552Y-104932729D01*
X139455222Y-104896991D01*
X139416163Y-104823918D01*
X139371557Y-104740467D01*
X139354384Y-104683853D01*
X139320037Y-104570627D01*
X139302641Y-104394000D01*
X139320037Y-104217373D01*
X139371557Y-104047534D01*
X139371557Y-104047533D01*
X139455221Y-103891011D01*
X139455222Y-103891009D01*
X139484552Y-103855271D01*
X139567814Y-103753814D01*
X139669271Y-103670552D01*
X139705009Y-103641222D01*
X139722913Y-103631652D01*
X139861533Y-103557557D01*
X139918147Y-103540384D01*
X140031373Y-103506037D01*
X140097557Y-103499519D01*
X140163740Y-103493000D01*
X140252260Y-103493000D01*
X140318442Y-103499518D01*
X140318442Y-103499518D01*
G37*
G36*
X143649000Y-105295000D02*
X141847000Y-105295000D01*
X141847000Y-103493000D01*
X143649000Y-103493000D01*
X143649000Y-105295000D01*
X143649000Y-105295000D01*
G37*
G36*
X137778442Y-103499518D02*
X137844627Y-103506037D01*
X137957853Y-103540384D01*
X138014467Y-103557557D01*
X138153087Y-103631652D01*
X138170991Y-103641222D01*
X138206729Y-103670552D01*
X138308186Y-103753814D01*
X138391448Y-103855271D01*
X138420778Y-103891009D01*
X138420779Y-103891011D01*
X138504443Y-104047533D01*
X138504443Y-104047534D01*
X138555963Y-104217373D01*
X138573359Y-104394000D01*
X138555963Y-104570627D01*
X138521616Y-104683853D01*
X138504443Y-104740467D01*
X138459837Y-104823918D01*
X138420778Y-104896991D01*
X138391448Y-104932729D01*
X138308186Y-105034186D01*
X138206729Y-105117448D01*
X138170991Y-105146778D01*
X138170989Y-105146779D01*
X138014467Y-105230443D01*
X137957853Y-105247616D01*
X137844627Y-105281963D01*
X137778443Y-105288481D01*
X137712260Y-105295000D01*
X137623740Y-105295000D01*
X137557558Y-105288482D01*
X137491373Y-105281963D01*
X137378147Y-105247616D01*
X137321533Y-105230443D01*
X137165011Y-105146779D01*
X137165009Y-105146778D01*
X137129271Y-105117448D01*
X137027814Y-105034186D01*
X136944552Y-104932729D01*
X136915222Y-104896991D01*
X136876163Y-104823918D01*
X136831557Y-104740467D01*
X136814384Y-104683853D01*
X136780037Y-104570627D01*
X136762641Y-104394000D01*
X136780037Y-104217373D01*
X136831557Y-104047534D01*
X136831557Y-104047533D01*
X136915221Y-103891011D01*
X136915222Y-103891009D01*
X136944552Y-103855271D01*
X137027814Y-103753814D01*
X137129271Y-103670552D01*
X137165009Y-103641222D01*
X137182913Y-103631652D01*
X137321533Y-103557557D01*
X137378147Y-103540384D01*
X137491373Y-103506037D01*
X137557557Y-103499519D01*
X137623740Y-103493000D01*
X137712260Y-103493000D01*
X137778442Y-103499518D01*
X137778442Y-103499518D01*
G37*
G36*
X135238442Y-103499518D02*
X135304627Y-103506037D01*
X135417853Y-103540384D01*
X135474467Y-103557557D01*
X135613087Y-103631652D01*
X135630991Y-103641222D01*
X135666729Y-103670552D01*
X135768186Y-103753814D01*
X135851448Y-103855271D01*
X135880778Y-103891009D01*
X135880779Y-103891011D01*
X135964443Y-104047533D01*
X135964443Y-104047534D01*
X136015963Y-104217373D01*
X136033359Y-104394000D01*
X136015963Y-104570627D01*
X135981616Y-104683853D01*
X135964443Y-104740467D01*
X135919837Y-104823918D01*
X135880778Y-104896991D01*
X135851448Y-104932729D01*
X135768186Y-105034186D01*
X135666729Y-105117448D01*
X135630991Y-105146778D01*
X135630989Y-105146779D01*
X135474467Y-105230443D01*
X135417853Y-105247616D01*
X135304627Y-105281963D01*
X135238443Y-105288481D01*
X135172260Y-105295000D01*
X135083740Y-105295000D01*
X135017558Y-105288482D01*
X134951373Y-105281963D01*
X134838147Y-105247616D01*
X134781533Y-105230443D01*
X134625011Y-105146779D01*
X134625009Y-105146778D01*
X134589271Y-105117448D01*
X134487814Y-105034186D01*
X134404552Y-104932729D01*
X134375222Y-104896991D01*
X134336163Y-104823918D01*
X134291557Y-104740467D01*
X134274384Y-104683853D01*
X134240037Y-104570627D01*
X134222641Y-104394000D01*
X134240037Y-104217373D01*
X134291557Y-104047534D01*
X134291557Y-104047533D01*
X134375221Y-103891011D01*
X134375222Y-103891009D01*
X134404552Y-103855271D01*
X134487814Y-103753814D01*
X134589271Y-103670552D01*
X134625009Y-103641222D01*
X134642913Y-103631652D01*
X134781533Y-103557557D01*
X134838147Y-103540384D01*
X134951373Y-103506037D01*
X135017557Y-103499519D01*
X135083740Y-103493000D01*
X135172260Y-103493000D01*
X135238442Y-103499518D01*
X135238442Y-103499518D01*
G37*
G36*
X132698442Y-103499518D02*
X132764627Y-103506037D01*
X132877853Y-103540384D01*
X132934467Y-103557557D01*
X133073087Y-103631652D01*
X133090991Y-103641222D01*
X133126729Y-103670552D01*
X133228186Y-103753814D01*
X133311448Y-103855271D01*
X133340778Y-103891009D01*
X133340779Y-103891011D01*
X133424443Y-104047533D01*
X133424443Y-104047534D01*
X133475963Y-104217373D01*
X133493359Y-104394000D01*
X133475963Y-104570627D01*
X133441616Y-104683853D01*
X133424443Y-104740467D01*
X133379837Y-104823918D01*
X133340778Y-104896991D01*
X133311448Y-104932729D01*
X133228186Y-105034186D01*
X133126729Y-105117448D01*
X133090991Y-105146778D01*
X133090989Y-105146779D01*
X132934467Y-105230443D01*
X132877853Y-105247616D01*
X132764627Y-105281963D01*
X132698443Y-105288481D01*
X132632260Y-105295000D01*
X132543740Y-105295000D01*
X132477558Y-105288482D01*
X132411373Y-105281963D01*
X132298147Y-105247616D01*
X132241533Y-105230443D01*
X132085011Y-105146779D01*
X132085009Y-105146778D01*
X132049271Y-105117448D01*
X131947814Y-105034186D01*
X131864552Y-104932729D01*
X131835222Y-104896991D01*
X131796163Y-104823918D01*
X131751557Y-104740467D01*
X131734384Y-104683853D01*
X131700037Y-104570627D01*
X131682641Y-104394000D01*
X131700037Y-104217373D01*
X131751557Y-104047534D01*
X131751557Y-104047533D01*
X131835221Y-103891011D01*
X131835222Y-103891009D01*
X131864552Y-103855271D01*
X131947814Y-103753814D01*
X132049271Y-103670552D01*
X132085009Y-103641222D01*
X132102913Y-103631652D01*
X132241533Y-103557557D01*
X132298147Y-103540384D01*
X132411373Y-103506037D01*
X132477557Y-103499519D01*
X132543740Y-103493000D01*
X132632260Y-103493000D01*
X132698442Y-103499518D01*
X132698442Y-103499518D01*
G37*
G36*
X130158442Y-103499518D02*
X130224627Y-103506037D01*
X130337853Y-103540384D01*
X130394467Y-103557557D01*
X130533087Y-103631652D01*
X130550991Y-103641222D01*
X130586729Y-103670552D01*
X130688186Y-103753814D01*
X130771448Y-103855271D01*
X130800778Y-103891009D01*
X130800779Y-103891011D01*
X130884443Y-104047533D01*
X130884443Y-104047534D01*
X130935963Y-104217373D01*
X130953359Y-104394000D01*
X130935963Y-104570627D01*
X130901616Y-104683853D01*
X130884443Y-104740467D01*
X130839837Y-104823918D01*
X130800778Y-104896991D01*
X130771448Y-104932729D01*
X130688186Y-105034186D01*
X130586729Y-105117448D01*
X130550991Y-105146778D01*
X130550989Y-105146779D01*
X130394467Y-105230443D01*
X130337853Y-105247616D01*
X130224627Y-105281963D01*
X130158443Y-105288481D01*
X130092260Y-105295000D01*
X130003740Y-105295000D01*
X129937558Y-105288482D01*
X129871373Y-105281963D01*
X129758147Y-105247616D01*
X129701533Y-105230443D01*
X129545011Y-105146779D01*
X129545009Y-105146778D01*
X129509271Y-105117448D01*
X129407814Y-105034186D01*
X129324552Y-104932729D01*
X129295222Y-104896991D01*
X129256163Y-104823918D01*
X129211557Y-104740467D01*
X129194384Y-104683853D01*
X129160037Y-104570627D01*
X129142641Y-104394000D01*
X129160037Y-104217373D01*
X129211557Y-104047534D01*
X129211557Y-104047533D01*
X129295221Y-103891011D01*
X129295222Y-103891009D01*
X129324552Y-103855271D01*
X129407814Y-103753814D01*
X129509271Y-103670552D01*
X129545009Y-103641222D01*
X129562913Y-103631652D01*
X129701533Y-103557557D01*
X129758147Y-103540384D01*
X129871373Y-103506037D01*
X129937557Y-103499519D01*
X130003740Y-103493000D01*
X130092260Y-103493000D01*
X130158442Y-103499518D01*
X130158442Y-103499518D01*
G37*
G36*
X127618442Y-103499518D02*
X127684627Y-103506037D01*
X127797853Y-103540384D01*
X127854467Y-103557557D01*
X127993087Y-103631652D01*
X128010991Y-103641222D01*
X128046729Y-103670552D01*
X128148186Y-103753814D01*
X128231448Y-103855271D01*
X128260778Y-103891009D01*
X128260779Y-103891011D01*
X128344443Y-104047533D01*
X128344443Y-104047534D01*
X128395963Y-104217373D01*
X128413359Y-104394000D01*
X128395963Y-104570627D01*
X128361616Y-104683853D01*
X128344443Y-104740467D01*
X128299837Y-104823918D01*
X128260778Y-104896991D01*
X128231448Y-104932729D01*
X128148186Y-105034186D01*
X128046729Y-105117448D01*
X128010991Y-105146778D01*
X128010989Y-105146779D01*
X127854467Y-105230443D01*
X127797853Y-105247616D01*
X127684627Y-105281963D01*
X127618443Y-105288481D01*
X127552260Y-105295000D01*
X127463740Y-105295000D01*
X127397558Y-105288482D01*
X127331373Y-105281963D01*
X127218147Y-105247616D01*
X127161533Y-105230443D01*
X127005011Y-105146779D01*
X127005009Y-105146778D01*
X126969271Y-105117448D01*
X126867814Y-105034186D01*
X126784552Y-104932729D01*
X126755222Y-104896991D01*
X126716163Y-104823918D01*
X126671557Y-104740467D01*
X126654384Y-104683853D01*
X126620037Y-104570627D01*
X126602641Y-104394000D01*
X126620037Y-104217373D01*
X126671557Y-104047534D01*
X126671557Y-104047533D01*
X126755221Y-103891011D01*
X126755222Y-103891009D01*
X126784552Y-103855271D01*
X126867814Y-103753814D01*
X126969271Y-103670552D01*
X127005009Y-103641222D01*
X127022913Y-103631652D01*
X127161533Y-103557557D01*
X127218147Y-103540384D01*
X127331373Y-103506037D01*
X127397557Y-103499519D01*
X127463740Y-103493000D01*
X127552260Y-103493000D01*
X127618442Y-103499518D01*
X127618442Y-103499518D01*
G37*
G36*
X125078442Y-103499518D02*
X125144627Y-103506037D01*
X125257853Y-103540384D01*
X125314467Y-103557557D01*
X125453087Y-103631652D01*
X125470991Y-103641222D01*
X125506729Y-103670552D01*
X125608186Y-103753814D01*
X125691448Y-103855271D01*
X125720778Y-103891009D01*
X125720779Y-103891011D01*
X125804443Y-104047533D01*
X125804443Y-104047534D01*
X125855963Y-104217373D01*
X125873359Y-104394000D01*
X125855963Y-104570627D01*
X125821616Y-104683853D01*
X125804443Y-104740467D01*
X125759837Y-104823918D01*
X125720778Y-104896991D01*
X125691448Y-104932729D01*
X125608186Y-105034186D01*
X125506729Y-105117448D01*
X125470991Y-105146778D01*
X125470989Y-105146779D01*
X125314467Y-105230443D01*
X125257853Y-105247616D01*
X125144627Y-105281963D01*
X125078443Y-105288481D01*
X125012260Y-105295000D01*
X124923740Y-105295000D01*
X124857558Y-105288482D01*
X124791373Y-105281963D01*
X124678147Y-105247616D01*
X124621533Y-105230443D01*
X124465011Y-105146779D01*
X124465009Y-105146778D01*
X124429271Y-105117448D01*
X124327814Y-105034186D01*
X124244552Y-104932729D01*
X124215222Y-104896991D01*
X124176163Y-104823918D01*
X124131557Y-104740467D01*
X124114384Y-104683853D01*
X124080037Y-104570627D01*
X124062641Y-104394000D01*
X124080037Y-104217373D01*
X124131557Y-104047534D01*
X124131557Y-104047533D01*
X124215221Y-103891011D01*
X124215222Y-103891009D01*
X124244552Y-103855271D01*
X124327814Y-103753814D01*
X124429271Y-103670552D01*
X124465009Y-103641222D01*
X124482913Y-103631652D01*
X124621533Y-103557557D01*
X124678147Y-103540384D01*
X124791373Y-103506037D01*
X124857557Y-103499519D01*
X124923740Y-103493000D01*
X125012260Y-103493000D01*
X125078442Y-103499518D01*
X125078442Y-103499518D01*
G37*
G36*
X109787918Y-103065934D02*
X109820424Y-103075795D01*
X109850383Y-103091808D01*
X109876641Y-103113359D01*
X109898192Y-103139617D01*
X109914205Y-103169576D01*
X109924066Y-103202082D01*
X109928000Y-103242029D01*
X109928000Y-104783971D01*
X109924066Y-104823918D01*
X109914205Y-104856424D01*
X109898192Y-104886383D01*
X109876641Y-104912641D01*
X109850383Y-104934192D01*
X109820424Y-104950205D01*
X109787918Y-104960066D01*
X109747971Y-104964000D01*
X106406029Y-104964000D01*
X106366082Y-104960066D01*
X106333576Y-104950205D01*
X106303617Y-104934192D01*
X106277359Y-104912641D01*
X106255808Y-104886383D01*
X106239795Y-104856424D01*
X106229934Y-104823918D01*
X106226000Y-104783971D01*
X106226000Y-103242029D01*
X106229934Y-103202082D01*
X106239795Y-103169576D01*
X106255808Y-103139617D01*
X106277359Y-103113359D01*
X106303617Y-103091808D01*
X106333576Y-103075795D01*
X106366082Y-103065934D01*
X106406029Y-103062000D01*
X109747971Y-103062000D01*
X109787918Y-103065934D01*
X109787918Y-103065934D01*
G37*
G36*
X159351000Y-103951000D02*
X157699000Y-103951000D01*
X157699000Y-102549000D01*
X159351000Y-102549000D01*
X159351000Y-103951000D01*
X159351000Y-103951000D01*
G37*
G36*
X167301000Y-103951000D02*
X165649000Y-103951000D01*
X165649000Y-102549000D01*
X167301000Y-102549000D01*
X167301000Y-103951000D01*
X167301000Y-103951000D01*
G37*
G36*
X167301000Y-99451000D02*
X165649000Y-99451000D01*
X165649000Y-98049000D01*
X167301000Y-98049000D01*
X167301000Y-99451000D01*
X167301000Y-99451000D01*
G37*
G36*
X159351000Y-99451000D02*
X157699000Y-99451000D01*
X157699000Y-98049000D01*
X159351000Y-98049000D01*
X159351000Y-99451000D01*
X159351000Y-99451000D01*
G37*
G36*
X196651000Y-99151000D02*
X194549000Y-99151000D01*
X194549000Y-95849000D01*
X196651000Y-95849000D01*
X196651000Y-99151000D01*
X196651000Y-99151000D01*
G37*
G36*
X185451000Y-99151000D02*
X183349000Y-99151000D01*
X183349000Y-95849000D01*
X185451000Y-95849000D01*
X185451000Y-99151000D01*
X185451000Y-99151000D01*
G37*
G36*
X109163425Y-96725760D02*
X109163428Y-96725761D01*
X109163429Y-96725761D01*
X109342693Y-96780140D01*
X109342695Y-96780141D01*
X109507905Y-96868448D01*
X109652712Y-96987288D01*
X109771552Y-97132095D01*
X109859859Y-97297305D01*
X109914240Y-97476575D01*
X109932601Y-97663000D01*
X109914240Y-97849425D01*
X109859859Y-98028695D01*
X109771552Y-98193905D01*
X109652712Y-98338712D01*
X109507905Y-98457552D01*
X109507903Y-98457553D01*
X109342693Y-98545860D01*
X109163429Y-98600239D01*
X109163428Y-98600239D01*
X109163425Y-98600240D01*
X109023718Y-98614000D01*
X107130282Y-98614000D01*
X106990575Y-98600240D01*
X106990572Y-98600239D01*
X106990571Y-98600239D01*
X106811307Y-98545860D01*
X106646097Y-98457553D01*
X106646095Y-98457552D01*
X106501288Y-98338712D01*
X106382448Y-98193905D01*
X106294141Y-98028695D01*
X106239760Y-97849425D01*
X106221399Y-97663000D01*
X106239760Y-97476575D01*
X106294141Y-97297305D01*
X106382448Y-97132095D01*
X106501288Y-96987288D01*
X106646095Y-96868448D01*
X106811305Y-96780141D01*
X106811307Y-96780140D01*
X106990571Y-96725761D01*
X106990572Y-96725761D01*
X106990575Y-96725760D01*
X107130282Y-96712000D01*
X109023718Y-96712000D01*
X109163425Y-96725760D01*
X109163425Y-96725760D01*
G37*
G36*
X120801000Y-97883000D02*
X119699000Y-97883000D01*
X119699000Y-90331000D01*
X120801000Y-90331000D01*
X120801000Y-97883000D01*
X120801000Y-97883000D01*
G37*
G36*
X127951000Y-97883000D02*
X126849000Y-97883000D01*
X126849000Y-90331000D01*
X127951000Y-90331000D01*
X127951000Y-97883000D01*
X127951000Y-97883000D01*
G37*
G36*
X182463677Y-96528465D02*
X182501364Y-96539898D01*
X182536103Y-96558466D01*
X182566548Y-96583452D01*
X182591534Y-96613897D01*
X182610102Y-96648636D01*
X182621535Y-96686323D01*
X182626000Y-96731661D01*
X182626000Y-97568339D01*
X182621535Y-97613677D01*
X182610102Y-97651364D01*
X182591534Y-97686103D01*
X182566548Y-97716548D01*
X182536103Y-97741534D01*
X182501364Y-97760102D01*
X182463677Y-97771535D01*
X182418339Y-97776000D01*
X181331661Y-97776000D01*
X181286323Y-97771535D01*
X181248636Y-97760102D01*
X181213897Y-97741534D01*
X181183452Y-97716548D01*
X181158466Y-97686103D01*
X181139898Y-97651364D01*
X181128465Y-97613677D01*
X181124000Y-97568339D01*
X181124000Y-96731661D01*
X181128465Y-96686323D01*
X181139898Y-96648636D01*
X181158466Y-96613897D01*
X181183452Y-96583452D01*
X181213897Y-96558466D01*
X181248636Y-96539898D01*
X181286323Y-96528465D01*
X181331661Y-96524000D01*
X182418339Y-96524000D01*
X182463677Y-96528465D01*
X182463677Y-96528465D01*
G37*
G36*
X198838677Y-96528465D02*
X198876364Y-96539898D01*
X198911103Y-96558466D01*
X198941548Y-96583452D01*
X198966534Y-96613897D01*
X198985102Y-96648636D01*
X198996535Y-96686323D01*
X199001000Y-96731661D01*
X199001000Y-97568339D01*
X198996535Y-97613677D01*
X198985102Y-97651364D01*
X198966534Y-97686103D01*
X198941548Y-97716548D01*
X198911103Y-97741534D01*
X198876364Y-97760102D01*
X198838677Y-97771535D01*
X198793339Y-97776000D01*
X197706661Y-97776000D01*
X197661323Y-97771535D01*
X197623636Y-97760102D01*
X197588897Y-97741534D01*
X197558452Y-97716548D01*
X197533466Y-97686103D01*
X197514898Y-97651364D01*
X197503465Y-97613677D01*
X197499000Y-97568339D01*
X197499000Y-96731661D01*
X197503465Y-96686323D01*
X197514898Y-96648636D01*
X197533466Y-96613897D01*
X197558452Y-96583452D01*
X197588897Y-96558466D01*
X197623636Y-96539898D01*
X197661323Y-96528465D01*
X197706661Y-96524000D01*
X198793339Y-96524000D01*
X198838677Y-96528465D01*
X198838677Y-96528465D01*
G37*
G36*
X158832677Y-95392465D02*
X158870364Y-95403898D01*
X158905103Y-95422466D01*
X158935548Y-95447452D01*
X158960534Y-95477897D01*
X158979102Y-95512636D01*
X158990535Y-95550323D01*
X158995000Y-95595661D01*
X158995000Y-96682339D01*
X158990535Y-96727677D01*
X158979102Y-96765364D01*
X158960534Y-96800103D01*
X158935548Y-96830548D01*
X158905103Y-96855534D01*
X158870364Y-96874102D01*
X158832677Y-96885535D01*
X158787339Y-96890000D01*
X157950661Y-96890000D01*
X157905323Y-96885535D01*
X157867636Y-96874102D01*
X157832897Y-96855534D01*
X157802452Y-96830548D01*
X157777466Y-96800103D01*
X157758898Y-96765364D01*
X157747465Y-96727677D01*
X157743000Y-96682339D01*
X157743000Y-95595661D01*
X157747465Y-95550323D01*
X157758898Y-95512636D01*
X157777466Y-95477897D01*
X157802452Y-95447452D01*
X157832897Y-95422466D01*
X157867636Y-95403898D01*
X157905323Y-95392465D01*
X157950661Y-95388000D01*
X158787339Y-95388000D01*
X158832677Y-95392465D01*
X158832677Y-95392465D01*
G37*
G36*
X160882677Y-95392465D02*
X160920364Y-95403898D01*
X160955103Y-95422466D01*
X160985548Y-95447452D01*
X161010534Y-95477897D01*
X161029102Y-95512636D01*
X161040535Y-95550323D01*
X161045000Y-95595661D01*
X161045000Y-96682339D01*
X161040535Y-96727677D01*
X161029102Y-96765364D01*
X161010534Y-96800103D01*
X160985548Y-96830548D01*
X160955103Y-96855534D01*
X160920364Y-96874102D01*
X160882677Y-96885535D01*
X160837339Y-96890000D01*
X160000661Y-96890000D01*
X159955323Y-96885535D01*
X159917636Y-96874102D01*
X159882897Y-96855534D01*
X159852452Y-96830548D01*
X159827466Y-96800103D01*
X159808898Y-96765364D01*
X159797465Y-96727677D01*
X159793000Y-96682339D01*
X159793000Y-95595661D01*
X159797465Y-95550323D01*
X159808898Y-95512636D01*
X159827466Y-95477897D01*
X159852452Y-95447452D01*
X159882897Y-95422466D01*
X159917636Y-95403898D01*
X159955323Y-95392465D01*
X160000661Y-95388000D01*
X160837339Y-95388000D01*
X160882677Y-95392465D01*
X160882677Y-95392465D01*
G37*
G36*
X198838677Y-94478465D02*
X198876364Y-94489898D01*
X198911103Y-94508466D01*
X198941548Y-94533452D01*
X198966534Y-94563897D01*
X198985102Y-94598636D01*
X198996535Y-94636323D01*
X199001000Y-94681661D01*
X199001000Y-95518339D01*
X198996535Y-95563677D01*
X198985102Y-95601364D01*
X198966534Y-95636103D01*
X198941548Y-95666548D01*
X198911103Y-95691534D01*
X198876364Y-95710102D01*
X198838677Y-95721535D01*
X198793339Y-95726000D01*
X197706661Y-95726000D01*
X197661323Y-95721535D01*
X197623636Y-95710102D01*
X197588897Y-95691534D01*
X197558452Y-95666548D01*
X197533466Y-95636103D01*
X197514898Y-95601364D01*
X197503465Y-95563677D01*
X197499000Y-95518339D01*
X197499000Y-94681661D01*
X197503465Y-94636323D01*
X197514898Y-94598636D01*
X197533466Y-94563897D01*
X197558452Y-94533452D01*
X197588897Y-94508466D01*
X197623636Y-94489898D01*
X197661323Y-94478465D01*
X197706661Y-94474000D01*
X198793339Y-94474000D01*
X198838677Y-94478465D01*
X198838677Y-94478465D01*
G37*
G36*
X182463677Y-94478465D02*
X182501364Y-94489898D01*
X182536103Y-94508466D01*
X182566548Y-94533452D01*
X182591534Y-94563897D01*
X182610102Y-94598636D01*
X182621535Y-94636323D01*
X182626000Y-94681661D01*
X182626000Y-95518339D01*
X182621535Y-95563677D01*
X182610102Y-95601364D01*
X182591534Y-95636103D01*
X182566548Y-95666548D01*
X182536103Y-95691534D01*
X182501364Y-95710102D01*
X182463677Y-95721535D01*
X182418339Y-95726000D01*
X181331661Y-95726000D01*
X181286323Y-95721535D01*
X181248636Y-95710102D01*
X181213897Y-95691534D01*
X181183452Y-95666548D01*
X181158466Y-95636103D01*
X181139898Y-95601364D01*
X181128465Y-95563677D01*
X181124000Y-95518339D01*
X181124000Y-94681661D01*
X181128465Y-94636323D01*
X181139898Y-94598636D01*
X181158466Y-94563897D01*
X181183452Y-94533452D01*
X181213897Y-94508466D01*
X181248636Y-94489898D01*
X181286323Y-94478465D01*
X181331661Y-94474000D01*
X182418339Y-94474000D01*
X182463677Y-94478465D01*
X182463677Y-94478465D01*
G37*
G36*
X173594096Y-90547033D02*
X173594098Y-90547034D01*
X173594099Y-90547034D01*
X174058352Y-90739333D01*
X174405066Y-90971000D01*
X174476171Y-91018511D01*
X174831489Y-91373829D01*
X174831491Y-91373832D01*
X175110667Y-91791648D01*
X175300936Y-92251000D01*
X175302967Y-92255904D01*
X175401000Y-92748747D01*
X175401000Y-93251253D01*
X175345355Y-93531000D01*
X175302966Y-93744099D01*
X175110667Y-94208352D01*
X174873099Y-94563897D01*
X174831489Y-94626171D01*
X174476171Y-94981489D01*
X174476168Y-94981491D01*
X174058352Y-95260667D01*
X173594099Y-95452966D01*
X173594098Y-95452966D01*
X173594096Y-95452967D01*
X173101253Y-95551000D01*
X172598747Y-95551000D01*
X172105904Y-95452967D01*
X172105902Y-95452966D01*
X172105901Y-95452966D01*
X171641648Y-95260667D01*
X171223832Y-94981491D01*
X171223829Y-94981489D01*
X170868511Y-94626171D01*
X170826901Y-94563897D01*
X170589333Y-94208352D01*
X170397034Y-93744099D01*
X170354646Y-93531000D01*
X170299000Y-93251253D01*
X170299000Y-92748747D01*
X170397033Y-92255904D01*
X170399064Y-92251000D01*
X170589333Y-91791648D01*
X170868509Y-91373832D01*
X170868511Y-91373829D01*
X171223829Y-91018511D01*
X171294934Y-90971000D01*
X171641648Y-90739333D01*
X172105901Y-90547034D01*
X172105902Y-90547034D01*
X172105904Y-90547033D01*
X172598747Y-90449000D01*
X173101253Y-90449000D01*
X173594096Y-90547033D01*
X173594096Y-90547033D01*
G37*
G36*
X152894096Y-90547033D02*
X152894098Y-90547034D01*
X152894099Y-90547034D01*
X153358352Y-90739333D01*
X153705066Y-90971000D01*
X153776171Y-91018511D01*
X154131489Y-91373829D01*
X154131491Y-91373832D01*
X154410667Y-91791648D01*
X154600936Y-92251000D01*
X154602967Y-92255904D01*
X154701000Y-92748747D01*
X154701000Y-93251253D01*
X154645355Y-93531000D01*
X154602966Y-93744099D01*
X154410667Y-94208352D01*
X154173099Y-94563897D01*
X154131489Y-94626171D01*
X153776171Y-94981489D01*
X153776168Y-94981491D01*
X153358352Y-95260667D01*
X152894099Y-95452966D01*
X152894098Y-95452966D01*
X152894096Y-95452967D01*
X152401253Y-95551000D01*
X151898747Y-95551000D01*
X151405904Y-95452967D01*
X151405902Y-95452966D01*
X151405901Y-95452966D01*
X150941648Y-95260667D01*
X150523832Y-94981491D01*
X150523829Y-94981489D01*
X150168511Y-94626171D01*
X150126901Y-94563897D01*
X149889333Y-94208352D01*
X149697034Y-93744099D01*
X149654646Y-93531000D01*
X149599000Y-93251253D01*
X149599000Y-92748747D01*
X149697033Y-92255904D01*
X149699064Y-92251000D01*
X149889333Y-91791648D01*
X150168509Y-91373832D01*
X150168511Y-91373829D01*
X150523829Y-91018511D01*
X150594934Y-90971000D01*
X150941648Y-90739333D01*
X151405901Y-90547034D01*
X151405902Y-90547034D01*
X151405904Y-90547033D01*
X151898747Y-90449000D01*
X152401253Y-90449000D01*
X152894096Y-90547033D01*
X152894096Y-90547033D01*
G37*
G36*
X109787918Y-91635934D02*
X109820424Y-91645795D01*
X109850383Y-91661808D01*
X109876641Y-91683359D01*
X109898192Y-91709617D01*
X109914205Y-91739576D01*
X109924066Y-91772082D01*
X109928000Y-91812029D01*
X109928000Y-93353971D01*
X109924066Y-93393918D01*
X109914205Y-93426424D01*
X109898192Y-93456383D01*
X109876641Y-93482641D01*
X109850383Y-93504192D01*
X109820424Y-93520205D01*
X109787918Y-93530066D01*
X109747971Y-93534000D01*
X106406029Y-93534000D01*
X106366082Y-93530066D01*
X106333576Y-93520205D01*
X106303617Y-93504192D01*
X106277359Y-93482641D01*
X106255808Y-93456383D01*
X106239795Y-93426424D01*
X106229934Y-93393918D01*
X106226000Y-93353971D01*
X106226000Y-91812029D01*
X106229934Y-91772082D01*
X106239795Y-91739576D01*
X106255808Y-91709617D01*
X106277359Y-91683359D01*
X106303617Y-91661808D01*
X106333576Y-91645795D01*
X106366082Y-91635934D01*
X106406029Y-91632000D01*
X109747971Y-91632000D01*
X109787918Y-91635934D01*
X109787918Y-91635934D01*
G37*
G36*
X199025562Y-91978181D02*
X199060477Y-91988773D01*
X199092665Y-92005978D01*
X199120873Y-92029127D01*
X199144022Y-92057335D01*
X199161227Y-92089523D01*
X199171819Y-92124438D01*
X199176000Y-92166895D01*
X199176000Y-93308105D01*
X199171819Y-93350562D01*
X199161227Y-93385477D01*
X199144022Y-93417665D01*
X199120873Y-93445873D01*
X199092665Y-93469022D01*
X199060477Y-93486227D01*
X199025562Y-93496819D01*
X198983105Y-93501000D01*
X197516895Y-93501000D01*
X197474438Y-93496819D01*
X197439523Y-93486227D01*
X197407335Y-93469022D01*
X197379127Y-93445873D01*
X197355978Y-93417665D01*
X197338773Y-93385477D01*
X197328181Y-93350562D01*
X197324000Y-93308105D01*
X197324000Y-92166895D01*
X197328181Y-92124438D01*
X197338773Y-92089523D01*
X197355978Y-92057335D01*
X197379127Y-92029127D01*
X197407335Y-92005978D01*
X197439523Y-91988773D01*
X197474438Y-91978181D01*
X197516895Y-91974000D01*
X198983105Y-91974000D01*
X199025562Y-91978181D01*
X199025562Y-91978181D01*
G37*
G36*
X182650562Y-91978181D02*
X182685477Y-91988773D01*
X182717665Y-92005978D01*
X182745873Y-92029127D01*
X182769022Y-92057335D01*
X182786227Y-92089523D01*
X182796819Y-92124438D01*
X182801000Y-92166895D01*
X182801000Y-93308105D01*
X182796819Y-93350562D01*
X182786227Y-93385477D01*
X182769022Y-93417665D01*
X182745873Y-93445873D01*
X182717665Y-93469022D01*
X182685477Y-93486227D01*
X182650562Y-93496819D01*
X182608105Y-93501000D01*
X181141895Y-93501000D01*
X181099438Y-93496819D01*
X181064523Y-93486227D01*
X181032335Y-93469022D01*
X181004127Y-93445873D01*
X180980978Y-93417665D01*
X180963773Y-93385477D01*
X180953181Y-93350562D01*
X180949000Y-93308105D01*
X180949000Y-92166895D01*
X180953181Y-92124438D01*
X180963773Y-92089523D01*
X180980978Y-92057335D01*
X181004127Y-92029127D01*
X181032335Y-92005978D01*
X181064523Y-91988773D01*
X181099438Y-91978181D01*
X181141895Y-91974000D01*
X182608105Y-91974000D01*
X182650562Y-91978181D01*
X182650562Y-91978181D01*
G37*
G36*
X187806565Y-88989389D02*
X187997834Y-89068615D01*
X188169976Y-89183637D01*
X188316363Y-89330024D01*
X188431385Y-89502166D01*
X188510611Y-89693435D01*
X188551000Y-89896484D01*
X188551000Y-90103516D01*
X188510611Y-90306565D01*
X188431385Y-90497834D01*
X188316363Y-90669976D01*
X188169976Y-90816363D01*
X187997834Y-90931385D01*
X187806565Y-91010611D01*
X187603516Y-91051000D01*
X187396484Y-91051000D01*
X187193435Y-91010611D01*
X187002166Y-90931385D01*
X186830024Y-90816363D01*
X186683637Y-90669976D01*
X186568615Y-90497834D01*
X186489389Y-90306565D01*
X186449000Y-90103516D01*
X186449000Y-89896484D01*
X186489389Y-89693435D01*
X186568615Y-89502166D01*
X186683637Y-89330024D01*
X186830024Y-89183637D01*
X187002166Y-89068615D01*
X187193435Y-88989389D01*
X187396484Y-88949000D01*
X187603516Y-88949000D01*
X187806565Y-88989389D01*
X187806565Y-88989389D01*
G37*
G36*
X190306565Y-88989389D02*
X190497834Y-89068615D01*
X190669976Y-89183637D01*
X190816363Y-89330024D01*
X190931385Y-89502166D01*
X191010611Y-89693435D01*
X191051000Y-89896484D01*
X191051000Y-90103516D01*
X191010611Y-90306565D01*
X190931385Y-90497834D01*
X190816363Y-90669976D01*
X190669976Y-90816363D01*
X190497834Y-90931385D01*
X190306565Y-91010611D01*
X190103516Y-91051000D01*
X189896484Y-91051000D01*
X189693435Y-91010611D01*
X189502166Y-90931385D01*
X189330024Y-90816363D01*
X189183637Y-90669976D01*
X189068615Y-90497834D01*
X188989389Y-90306565D01*
X188949000Y-90103516D01*
X188949000Y-89896484D01*
X188989389Y-89693435D01*
X189068615Y-89502166D01*
X189183637Y-89330024D01*
X189330024Y-89183637D01*
X189502166Y-89068615D01*
X189693435Y-88989389D01*
X189896484Y-88949000D01*
X190103516Y-88949000D01*
X190306565Y-88989389D01*
X190306565Y-88989389D01*
G37*
G36*
X193551000Y-91051000D02*
X191449000Y-91051000D01*
X191449000Y-88949000D01*
X193551000Y-88949000D01*
X193551000Y-91051000D01*
X193551000Y-91051000D01*
G37*
G36*
X182650562Y-89003181D02*
X182685477Y-89013773D01*
X182717665Y-89030978D01*
X182745873Y-89054127D01*
X182769022Y-89082335D01*
X182786227Y-89114523D01*
X182796819Y-89149438D01*
X182801000Y-89191895D01*
X182801000Y-90333105D01*
X182796819Y-90375562D01*
X182786227Y-90410477D01*
X182769022Y-90442665D01*
X182745873Y-90470873D01*
X182717665Y-90494022D01*
X182685477Y-90511227D01*
X182650562Y-90521819D01*
X182608105Y-90526000D01*
X181141895Y-90526000D01*
X181099438Y-90521819D01*
X181064523Y-90511227D01*
X181032335Y-90494022D01*
X181004127Y-90470873D01*
X180980978Y-90442665D01*
X180963773Y-90410477D01*
X180953181Y-90375562D01*
X180949000Y-90333105D01*
X180949000Y-89191895D01*
X180953181Y-89149438D01*
X180963773Y-89114523D01*
X180980978Y-89082335D01*
X181004127Y-89054127D01*
X181032335Y-89030978D01*
X181064523Y-89013773D01*
X181099438Y-89003181D01*
X181141895Y-88999000D01*
X182608105Y-88999000D01*
X182650562Y-89003181D01*
X182650562Y-89003181D01*
G37*
G36*
X199025562Y-89003181D02*
X199060477Y-89013773D01*
X199092665Y-89030978D01*
X199120873Y-89054127D01*
X199144022Y-89082335D01*
X199161227Y-89114523D01*
X199171819Y-89149438D01*
X199176000Y-89191895D01*
X199176000Y-90333105D01*
X199171819Y-90375562D01*
X199161227Y-90410477D01*
X199144022Y-90442665D01*
X199120873Y-90470873D01*
X199092665Y-90494022D01*
X199060477Y-90511227D01*
X199025562Y-90521819D01*
X198983105Y-90526000D01*
X197516895Y-90526000D01*
X197474438Y-90521819D01*
X197439523Y-90511227D01*
X197407335Y-90494022D01*
X197379127Y-90470873D01*
X197355978Y-90442665D01*
X197338773Y-90410477D01*
X197328181Y-90375562D01*
X197324000Y-90333105D01*
X197324000Y-89191895D01*
X197328181Y-89149438D01*
X197338773Y-89114523D01*
X197355978Y-89082335D01*
X197379127Y-89054127D01*
X197407335Y-89030978D01*
X197439523Y-89013773D01*
X197474438Y-89003181D01*
X197516895Y-88999000D01*
X198983105Y-88999000D01*
X199025562Y-89003181D01*
X199025562Y-89003181D01*
G37*
G36*
X153230562Y-86962181D02*
X153265477Y-86972773D01*
X153297665Y-86989978D01*
X153325873Y-87013127D01*
X153349022Y-87041335D01*
X153366227Y-87073523D01*
X153376819Y-87108438D01*
X153381000Y-87150895D01*
X153381000Y-88617105D01*
X153376819Y-88659562D01*
X153366227Y-88694477D01*
X153349022Y-88726665D01*
X153325873Y-88754873D01*
X153297665Y-88778022D01*
X153265477Y-88795227D01*
X153230562Y-88805819D01*
X153188105Y-88810000D01*
X152046895Y-88810000D01*
X152004438Y-88805819D01*
X151969523Y-88795227D01*
X151937335Y-88778022D01*
X151909127Y-88754873D01*
X151885978Y-88726665D01*
X151868773Y-88694477D01*
X151858181Y-88659562D01*
X151854000Y-88617105D01*
X151854000Y-87150895D01*
X151858181Y-87108438D01*
X151868773Y-87073523D01*
X151885978Y-87041335D01*
X151909127Y-87013127D01*
X151937335Y-86989978D01*
X151969523Y-86972773D01*
X152004438Y-86962181D01*
X152046895Y-86958000D01*
X153188105Y-86958000D01*
X153230562Y-86962181D01*
X153230562Y-86962181D01*
G37*
G36*
X150255562Y-86962181D02*
X150290477Y-86972773D01*
X150322665Y-86989978D01*
X150350873Y-87013127D01*
X150374022Y-87041335D01*
X150391227Y-87073523D01*
X150401819Y-87108438D01*
X150406000Y-87150895D01*
X150406000Y-88617105D01*
X150401819Y-88659562D01*
X150391227Y-88694477D01*
X150374022Y-88726665D01*
X150350873Y-88754873D01*
X150322665Y-88778022D01*
X150290477Y-88795227D01*
X150255562Y-88805819D01*
X150213105Y-88810000D01*
X149071895Y-88810000D01*
X149029438Y-88805819D01*
X148994523Y-88795227D01*
X148962335Y-88778022D01*
X148934127Y-88754873D01*
X148910978Y-88726665D01*
X148893773Y-88694477D01*
X148883181Y-88659562D01*
X148879000Y-88617105D01*
X148879000Y-87150895D01*
X148883181Y-87108438D01*
X148893773Y-87073523D01*
X148910978Y-87041335D01*
X148934127Y-87013127D01*
X148962335Y-86989978D01*
X148994523Y-86972773D01*
X149029438Y-86962181D01*
X149071895Y-86958000D01*
X150213105Y-86958000D01*
X150255562Y-86962181D01*
X150255562Y-86962181D01*
G37*
G36*
X124955996Y-84403051D02*
X124989653Y-84413261D01*
X125020667Y-84429838D01*
X125047852Y-84452148D01*
X125070162Y-84479333D01*
X125086739Y-84510347D01*
X125096949Y-84544004D01*
X125101000Y-84585138D01*
X125101000Y-87314862D01*
X125096949Y-87355996D01*
X125086739Y-87389653D01*
X125070162Y-87420667D01*
X125047852Y-87447852D01*
X125020667Y-87470162D01*
X124989653Y-87486739D01*
X124955996Y-87496949D01*
X124914862Y-87501000D01*
X123585138Y-87501000D01*
X123544004Y-87496949D01*
X123510347Y-87486739D01*
X123479333Y-87470162D01*
X123452148Y-87447852D01*
X123429838Y-87420667D01*
X123413261Y-87389653D01*
X123403051Y-87355996D01*
X123399000Y-87314862D01*
X123399000Y-84585138D01*
X123403051Y-84544004D01*
X123413261Y-84510347D01*
X123429838Y-84479333D01*
X123452148Y-84452148D01*
X123479333Y-84429838D01*
X123510347Y-84413261D01*
X123544004Y-84403051D01*
X123585138Y-84399000D01*
X124914862Y-84399000D01*
X124955996Y-84403051D01*
X124955996Y-84403051D01*
G37*
G36*
X155616000Y-87251000D02*
X154914000Y-87251000D01*
X154914000Y-85149000D01*
X155616000Y-85149000D01*
X155616000Y-87251000D01*
X155616000Y-87251000D01*
G37*
G36*
X167046000Y-87251000D02*
X166344000Y-87251000D01*
X166344000Y-85149000D01*
X167046000Y-85149000D01*
X167046000Y-87251000D01*
X167046000Y-87251000D01*
G37*
G36*
X168316000Y-87251000D02*
X167614000Y-87251000D01*
X167614000Y-85149000D01*
X168316000Y-85149000D01*
X168316000Y-87251000D01*
X168316000Y-87251000D01*
G37*
G36*
X165776000Y-87251000D02*
X165074000Y-87251000D01*
X165074000Y-85149000D01*
X165776000Y-85149000D01*
X165776000Y-87251000D01*
X165776000Y-87251000D01*
G37*
G36*
X169586000Y-87251000D02*
X168884000Y-87251000D01*
X168884000Y-85149000D01*
X169586000Y-85149000D01*
X169586000Y-87251000D01*
X169586000Y-87251000D01*
G37*
G36*
X160696000Y-87251000D02*
X159994000Y-87251000D01*
X159994000Y-85149000D01*
X160696000Y-85149000D01*
X160696000Y-87251000D01*
X160696000Y-87251000D01*
G37*
G36*
X161966000Y-87251000D02*
X161264000Y-87251000D01*
X161264000Y-85149000D01*
X161966000Y-85149000D01*
X161966000Y-87251000D01*
X161966000Y-87251000D01*
G37*
G36*
X163236000Y-87251000D02*
X162534000Y-87251000D01*
X162534000Y-85149000D01*
X163236000Y-85149000D01*
X163236000Y-87251000D01*
X163236000Y-87251000D01*
G37*
G36*
X159426000Y-87251000D02*
X158724000Y-87251000D01*
X158724000Y-85149000D01*
X159426000Y-85149000D01*
X159426000Y-87251000D01*
X159426000Y-87251000D01*
G37*
G36*
X156886000Y-87251000D02*
X156184000Y-87251000D01*
X156184000Y-85149000D01*
X156886000Y-85149000D01*
X156886000Y-87251000D01*
X156886000Y-87251000D01*
G37*
G36*
X158156000Y-87251000D02*
X157454000Y-87251000D01*
X157454000Y-85149000D01*
X158156000Y-85149000D01*
X158156000Y-87251000D01*
X158156000Y-87251000D01*
G37*
G36*
X164506000Y-87251000D02*
X163804000Y-87251000D01*
X163804000Y-85149000D01*
X164506000Y-85149000D01*
X164506000Y-87251000D01*
X164506000Y-87251000D01*
G37*
G36*
X120951000Y-86851000D02*
X118849000Y-86851000D01*
X118849000Y-85249000D01*
X120951000Y-85249000D01*
X120951000Y-86851000D01*
X120951000Y-86851000D01*
G37*
G36*
X109186425Y-84742760D02*
X109186428Y-84742761D01*
X109186429Y-84742761D01*
X109365693Y-84797140D01*
X109365695Y-84797141D01*
X109530905Y-84885448D01*
X109675712Y-85004288D01*
X109794552Y-85149095D01*
X109851022Y-85254742D01*
X109882860Y-85314307D01*
X109903956Y-85383852D01*
X109937240Y-85493575D01*
X109955601Y-85680000D01*
X109937240Y-85866425D01*
X109882859Y-86045695D01*
X109794552Y-86210905D01*
X109675712Y-86355712D01*
X109530905Y-86474552D01*
X109530903Y-86474553D01*
X109365693Y-86562860D01*
X109186429Y-86617239D01*
X109186428Y-86617239D01*
X109186425Y-86617240D01*
X109046718Y-86631000D01*
X107153282Y-86631000D01*
X107013575Y-86617240D01*
X107013572Y-86617239D01*
X107013571Y-86617239D01*
X106834307Y-86562860D01*
X106669097Y-86474553D01*
X106669095Y-86474552D01*
X106524288Y-86355712D01*
X106405448Y-86210905D01*
X106317141Y-86045695D01*
X106262760Y-85866425D01*
X106244399Y-85680000D01*
X106262760Y-85493575D01*
X106296044Y-85383852D01*
X106317140Y-85314307D01*
X106348978Y-85254742D01*
X106405448Y-85149095D01*
X106524288Y-85004288D01*
X106669095Y-84885448D01*
X106834305Y-84797141D01*
X106834307Y-84797140D01*
X107013571Y-84742761D01*
X107013572Y-84742761D01*
X107013575Y-84742760D01*
X107153282Y-84729000D01*
X109046718Y-84729000D01*
X109186425Y-84742760D01*
X109186425Y-84742760D01*
G37*
G36*
X114651000Y-85701000D02*
X112549000Y-85701000D01*
X112549000Y-81799000D01*
X114651000Y-81799000D01*
X114651000Y-85701000D01*
X114651000Y-85701000D01*
G37*
G36*
X150135999Y-83781737D02*
X150150534Y-83786147D01*
X150163717Y-83791607D01*
X150187751Y-83796387D01*
X150212255Y-83796387D01*
X150236288Y-83791606D01*
X150258927Y-83782228D01*
X150260765Y-83781000D01*
X151492053Y-83781000D01*
X151504165Y-83787474D01*
X151527614Y-83794587D01*
X151552000Y-83796989D01*
X151576386Y-83794587D01*
X151594564Y-83788083D01*
X151594608Y-83788227D01*
X151616001Y-83781737D01*
X151632140Y-83780148D01*
X152169860Y-83780148D01*
X152188198Y-83781954D01*
X152200450Y-83782556D01*
X152218869Y-83782556D01*
X152241149Y-83784750D01*
X152325236Y-83801476D01*
X152346655Y-83807974D01*
X152425871Y-83840785D01*
X152445607Y-83851335D01*
X152516897Y-83898969D01*
X152534208Y-83913176D01*
X152594824Y-83973792D01*
X152609031Y-83991103D01*
X152656665Y-84062393D01*
X152667215Y-84082129D01*
X152700026Y-84161345D01*
X152706524Y-84182764D01*
X152723250Y-84266851D01*
X152725444Y-84289131D01*
X152725444Y-84307550D01*
X152726046Y-84319802D01*
X152727852Y-84338140D01*
X152727852Y-84825861D01*
X152726046Y-84844198D01*
X152725444Y-84856450D01*
X152725444Y-84874869D01*
X152723250Y-84897149D01*
X152706524Y-84981236D01*
X152700026Y-85002655D01*
X152667215Y-85081871D01*
X152656665Y-85101607D01*
X152609031Y-85172897D01*
X152594824Y-85190208D01*
X152534208Y-85250824D01*
X152516897Y-85265031D01*
X152445607Y-85312665D01*
X152425871Y-85323215D01*
X152346655Y-85356026D01*
X152325236Y-85362524D01*
X152241149Y-85379250D01*
X152218869Y-85381444D01*
X152200450Y-85381444D01*
X152188198Y-85382046D01*
X152169861Y-85383852D01*
X151632140Y-85383852D01*
X151616001Y-85382263D01*
X151601466Y-85377853D01*
X151588283Y-85372393D01*
X151564249Y-85367613D01*
X151539745Y-85367613D01*
X151515712Y-85372394D01*
X151493073Y-85381772D01*
X151491235Y-85383000D01*
X150259947Y-85383000D01*
X150247835Y-85376526D01*
X150224386Y-85369413D01*
X150200000Y-85367011D01*
X150175614Y-85369413D01*
X150157436Y-85375917D01*
X150157392Y-85375773D01*
X150135999Y-85382263D01*
X150119860Y-85383852D01*
X149582139Y-85383852D01*
X149563802Y-85382046D01*
X149551550Y-85381444D01*
X149533131Y-85381444D01*
X149510851Y-85379250D01*
X149426764Y-85362524D01*
X149405345Y-85356026D01*
X149326129Y-85323215D01*
X149306393Y-85312665D01*
X149235103Y-85265031D01*
X149217792Y-85250824D01*
X149157176Y-85190208D01*
X149142969Y-85172897D01*
X149095335Y-85101607D01*
X149084785Y-85081871D01*
X149051974Y-85002655D01*
X149045476Y-84981236D01*
X149028750Y-84897149D01*
X149026556Y-84874869D01*
X149026556Y-84856450D01*
X149025954Y-84844198D01*
X149024148Y-84825861D01*
X149024148Y-84338140D01*
X149025954Y-84319802D01*
X149026556Y-84307550D01*
X149026556Y-84289131D01*
X149028750Y-84266851D01*
X149045476Y-84182764D01*
X149051974Y-84161345D01*
X149084785Y-84082129D01*
X149095335Y-84062393D01*
X149142969Y-83991103D01*
X149157176Y-83973792D01*
X149217792Y-83913176D01*
X149235103Y-83898969D01*
X149306393Y-83851335D01*
X149326129Y-83840785D01*
X149405345Y-83807974D01*
X149426764Y-83801476D01*
X149510851Y-83784750D01*
X149533131Y-83782556D01*
X149551550Y-83782556D01*
X149563802Y-83781954D01*
X149582140Y-83780148D01*
X150119860Y-83780148D01*
X150135999Y-83781737D01*
X150135999Y-83781737D01*
G37*
G36*
X120951000Y-84551000D02*
X118849000Y-84551000D01*
X118849000Y-82949000D01*
X120951000Y-82949000D01*
X120951000Y-84551000D01*
X120951000Y-84551000D01*
G37*
G36*
X124955996Y-80003051D02*
X124989653Y-80013261D01*
X125020667Y-80029838D01*
X125047852Y-80052148D01*
X125070162Y-80079333D01*
X125086739Y-80110347D01*
X125096949Y-80144004D01*
X125101000Y-80185138D01*
X125101000Y-82914862D01*
X125096949Y-82955996D01*
X125086739Y-82989653D01*
X125070162Y-83020667D01*
X125047852Y-83047852D01*
X125020667Y-83070162D01*
X124989653Y-83086739D01*
X124955996Y-83096949D01*
X124914862Y-83101000D01*
X123585138Y-83101000D01*
X123544004Y-83096949D01*
X123510347Y-83086739D01*
X123479333Y-83070162D01*
X123452148Y-83047852D01*
X123429838Y-83020667D01*
X123413261Y-82989653D01*
X123403051Y-82955996D01*
X123399000Y-82914862D01*
X123399000Y-80185138D01*
X123403051Y-80144004D01*
X123413261Y-80110347D01*
X123429838Y-80079333D01*
X123452148Y-80052148D01*
X123479333Y-80029838D01*
X123510347Y-80013261D01*
X123544004Y-80003051D01*
X123585138Y-79999000D01*
X124914862Y-79999000D01*
X124955996Y-80003051D01*
X124955996Y-80003051D01*
G37*
G36*
X120951000Y-82251000D02*
X118849000Y-82251000D01*
X118849000Y-80649000D01*
X120951000Y-80649000D01*
X120951000Y-82251000D01*
X120951000Y-82251000D01*
G37*
G36*
X186763500Y-82151000D02*
X184761500Y-82151000D01*
X184761500Y-81249000D01*
X186763500Y-81249000D01*
X186763500Y-82151000D01*
X186763500Y-82151000D01*
G37*
G36*
X150135999Y-80479737D02*
X150150534Y-80484147D01*
X150163717Y-80489607D01*
X150187751Y-80494387D01*
X150212255Y-80494387D01*
X150236288Y-80489606D01*
X150258927Y-80480228D01*
X150260765Y-80479000D01*
X151492053Y-80479000D01*
X151504165Y-80485474D01*
X151527614Y-80492587D01*
X151552000Y-80494989D01*
X151576386Y-80492587D01*
X151594564Y-80486083D01*
X151594608Y-80486227D01*
X151616001Y-80479737D01*
X151632140Y-80478148D01*
X152169860Y-80478148D01*
X152188198Y-80479954D01*
X152200450Y-80480556D01*
X152218869Y-80480556D01*
X152241149Y-80482750D01*
X152325236Y-80499476D01*
X152346655Y-80505974D01*
X152425871Y-80538785D01*
X152445607Y-80549335D01*
X152516897Y-80596969D01*
X152534208Y-80611176D01*
X152594824Y-80671792D01*
X152609031Y-80689103D01*
X152656665Y-80760393D01*
X152667215Y-80780129D01*
X152700026Y-80859345D01*
X152706524Y-80880764D01*
X152723250Y-80964851D01*
X152725444Y-80987131D01*
X152725444Y-81005550D01*
X152726046Y-81017802D01*
X152727852Y-81036140D01*
X152727852Y-81523861D01*
X152726046Y-81542198D01*
X152725444Y-81554450D01*
X152725444Y-81572869D01*
X152723250Y-81595149D01*
X152706524Y-81679236D01*
X152700026Y-81700655D01*
X152667215Y-81779871D01*
X152656665Y-81799607D01*
X152609031Y-81870897D01*
X152594824Y-81888208D01*
X152534208Y-81948824D01*
X152516897Y-81963031D01*
X152445607Y-82010665D01*
X152425871Y-82021215D01*
X152346655Y-82054026D01*
X152325236Y-82060524D01*
X152241149Y-82077250D01*
X152218869Y-82079444D01*
X152200450Y-82079444D01*
X152188198Y-82080046D01*
X152169861Y-82081852D01*
X151632140Y-82081852D01*
X151616001Y-82080263D01*
X151601466Y-82075853D01*
X151588283Y-82070393D01*
X151564249Y-82065613D01*
X151539745Y-82065613D01*
X151515712Y-82070394D01*
X151493073Y-82079772D01*
X151491235Y-82081000D01*
X150259947Y-82081000D01*
X150247835Y-82074526D01*
X150224386Y-82067413D01*
X150200000Y-82065011D01*
X150175614Y-82067413D01*
X150157436Y-82073917D01*
X150157392Y-82073773D01*
X150135999Y-82080263D01*
X150119860Y-82081852D01*
X149582139Y-82081852D01*
X149563802Y-82080046D01*
X149551550Y-82079444D01*
X149533131Y-82079444D01*
X149510851Y-82077250D01*
X149426764Y-82060524D01*
X149405345Y-82054026D01*
X149326129Y-82021215D01*
X149306393Y-82010665D01*
X149235103Y-81963031D01*
X149217792Y-81948824D01*
X149157176Y-81888208D01*
X149142969Y-81870897D01*
X149095335Y-81799607D01*
X149084785Y-81779871D01*
X149051974Y-81700655D01*
X149045476Y-81679236D01*
X149028750Y-81595149D01*
X149026556Y-81572869D01*
X149026556Y-81554450D01*
X149025954Y-81542198D01*
X149024148Y-81523861D01*
X149024148Y-81036140D01*
X149025954Y-81017802D01*
X149026556Y-81005550D01*
X149026556Y-80987131D01*
X149028750Y-80964851D01*
X149045476Y-80880764D01*
X149051974Y-80859345D01*
X149084785Y-80780129D01*
X149095335Y-80760393D01*
X149142969Y-80689103D01*
X149157176Y-80671792D01*
X149217792Y-80611176D01*
X149235103Y-80596969D01*
X149306393Y-80549335D01*
X149326129Y-80538785D01*
X149405345Y-80505974D01*
X149426764Y-80499476D01*
X149510851Y-80482750D01*
X149533131Y-80480556D01*
X149551550Y-80480556D01*
X149563802Y-80479954D01*
X149582140Y-80478148D01*
X150119860Y-80478148D01*
X150135999Y-80479737D01*
X150135999Y-80479737D01*
G37*
G36*
X109810918Y-79652934D02*
X109843424Y-79662795D01*
X109873383Y-79678808D01*
X109899641Y-79700359D01*
X109921192Y-79726617D01*
X109937205Y-79756576D01*
X109947066Y-79789082D01*
X109951000Y-79829029D01*
X109951000Y-81370971D01*
X109947066Y-81410918D01*
X109937205Y-81443424D01*
X109921192Y-81473383D01*
X109899641Y-81499641D01*
X109873383Y-81521192D01*
X109843424Y-81537205D01*
X109810918Y-81547066D01*
X109770971Y-81551000D01*
X106429029Y-81551000D01*
X106389082Y-81547066D01*
X106356576Y-81537205D01*
X106326617Y-81521192D01*
X106300359Y-81499641D01*
X106278808Y-81473383D01*
X106262795Y-81443424D01*
X106252934Y-81410918D01*
X106249000Y-81370971D01*
X106249000Y-79829029D01*
X106252934Y-79789082D01*
X106262795Y-79756576D01*
X106278808Y-79726617D01*
X106300359Y-79700359D01*
X106326617Y-79678808D01*
X106356576Y-79662795D01*
X106389082Y-79652934D01*
X106429029Y-79649000D01*
X109770971Y-79649000D01*
X109810918Y-79652934D01*
X109810918Y-79652934D01*
G37*
G36*
X189763500Y-81201000D02*
X187761500Y-81201000D01*
X187761500Y-80299000D01*
X189763500Y-80299000D01*
X189763500Y-81201000D01*
X189763500Y-81201000D01*
G37*
G36*
X186763500Y-80251000D02*
X184761500Y-80251000D01*
X184761500Y-79349000D01*
X186763500Y-79349000D01*
X186763500Y-80251000D01*
X186763500Y-80251000D01*
G37*
G36*
X193773418Y-78182934D02*
X193805924Y-78192795D01*
X193835883Y-78208808D01*
X193862141Y-78230359D01*
X193883692Y-78256617D01*
X193899705Y-78286576D01*
X193909566Y-78319082D01*
X193913500Y-78359029D01*
X193913500Y-79900971D01*
X193909566Y-79940918D01*
X193899705Y-79973424D01*
X193883692Y-80003383D01*
X193862141Y-80029641D01*
X193835883Y-80051192D01*
X193805924Y-80067205D01*
X193773418Y-80077066D01*
X193733471Y-80081000D01*
X190391529Y-80081000D01*
X190351582Y-80077066D01*
X190319076Y-80067205D01*
X190289117Y-80051192D01*
X190262859Y-80029641D01*
X190241308Y-80003383D01*
X190225295Y-79973424D01*
X190215434Y-79940918D01*
X190211500Y-79900971D01*
X190211500Y-78359029D01*
X190215434Y-78319082D01*
X190225295Y-78286576D01*
X190241308Y-78256617D01*
X190262859Y-78230359D01*
X190289117Y-78208808D01*
X190319076Y-78192795D01*
X190351582Y-78182934D01*
X190391529Y-78179000D01*
X193733471Y-78179000D01*
X193773418Y-78182934D01*
X193773418Y-78182934D01*
G37*
G36*
X118688677Y-77993465D02*
X118726364Y-78004898D01*
X118761103Y-78023466D01*
X118791548Y-78048452D01*
X118816534Y-78078897D01*
X118835102Y-78113636D01*
X118846535Y-78151323D01*
X118851000Y-78196661D01*
X118851000Y-79283339D01*
X118846535Y-79328677D01*
X118835102Y-79366364D01*
X118816534Y-79401103D01*
X118791548Y-79431548D01*
X118761103Y-79456534D01*
X118726364Y-79475102D01*
X118688677Y-79486535D01*
X118643339Y-79491000D01*
X117806661Y-79491000D01*
X117761323Y-79486535D01*
X117723636Y-79475102D01*
X117688897Y-79456534D01*
X117658452Y-79431548D01*
X117633466Y-79401103D01*
X117614898Y-79366364D01*
X117603465Y-79328677D01*
X117599000Y-79283339D01*
X117599000Y-78196661D01*
X117603465Y-78151323D01*
X117614898Y-78113636D01*
X117633466Y-78078897D01*
X117658452Y-78048452D01*
X117688897Y-78023466D01*
X117723636Y-78004898D01*
X117761323Y-77993465D01*
X117806661Y-77989000D01*
X118643339Y-77989000D01*
X118688677Y-77993465D01*
X118688677Y-77993465D01*
G37*
G36*
X120738677Y-77993465D02*
X120776364Y-78004898D01*
X120811103Y-78023466D01*
X120841548Y-78048452D01*
X120866534Y-78078897D01*
X120885102Y-78113636D01*
X120896535Y-78151323D01*
X120901000Y-78196661D01*
X120901000Y-79283339D01*
X120896535Y-79328677D01*
X120885102Y-79366364D01*
X120866534Y-79401103D01*
X120841548Y-79431548D01*
X120811103Y-79456534D01*
X120776364Y-79475102D01*
X120738677Y-79486535D01*
X120693339Y-79491000D01*
X119856661Y-79491000D01*
X119811323Y-79486535D01*
X119773636Y-79475102D01*
X119738897Y-79456534D01*
X119708452Y-79431548D01*
X119683466Y-79401103D01*
X119664898Y-79366364D01*
X119653465Y-79328677D01*
X119649000Y-79283339D01*
X119649000Y-78196661D01*
X119653465Y-78151323D01*
X119664898Y-78113636D01*
X119683466Y-78078897D01*
X119708452Y-78048452D01*
X119738897Y-78023466D01*
X119773636Y-78004898D01*
X119811323Y-77993465D01*
X119856661Y-77989000D01*
X120693339Y-77989000D01*
X120738677Y-77993465D01*
X120738677Y-77993465D01*
G37*
G36*
X150135999Y-77177737D02*
X150150534Y-77182147D01*
X150163717Y-77187607D01*
X150187751Y-77192387D01*
X150212255Y-77192387D01*
X150236288Y-77187606D01*
X150258927Y-77178228D01*
X150260765Y-77177000D01*
X151492053Y-77177000D01*
X151504165Y-77183474D01*
X151527614Y-77190587D01*
X151552000Y-77192989D01*
X151576386Y-77190587D01*
X151594564Y-77184083D01*
X151594608Y-77184227D01*
X151616001Y-77177737D01*
X151632140Y-77176148D01*
X152169860Y-77176148D01*
X152188198Y-77177954D01*
X152200450Y-77178556D01*
X152218869Y-77178556D01*
X152241149Y-77180750D01*
X152325236Y-77197476D01*
X152346655Y-77203974D01*
X152425871Y-77236785D01*
X152445607Y-77247335D01*
X152516897Y-77294969D01*
X152534208Y-77309176D01*
X152594824Y-77369792D01*
X152609031Y-77387103D01*
X152656665Y-77458393D01*
X152667215Y-77478129D01*
X152700026Y-77557345D01*
X152706524Y-77578764D01*
X152723250Y-77662851D01*
X152725444Y-77685131D01*
X152725444Y-77703550D01*
X152726046Y-77715802D01*
X152727852Y-77734140D01*
X152727852Y-78221861D01*
X152726046Y-78240198D01*
X152725444Y-78252450D01*
X152725444Y-78270869D01*
X152723250Y-78293149D01*
X152706524Y-78377236D01*
X152700026Y-78398655D01*
X152667215Y-78477871D01*
X152656665Y-78497607D01*
X152609031Y-78568897D01*
X152594824Y-78586208D01*
X152534208Y-78646824D01*
X152516897Y-78661031D01*
X152445607Y-78708665D01*
X152425871Y-78719215D01*
X152346655Y-78752026D01*
X152325236Y-78758524D01*
X152241149Y-78775250D01*
X152218869Y-78777444D01*
X152200450Y-78777444D01*
X152188198Y-78778046D01*
X152169861Y-78779852D01*
X151632140Y-78779852D01*
X151616001Y-78778263D01*
X151601466Y-78773853D01*
X151588283Y-78768393D01*
X151564249Y-78763613D01*
X151539745Y-78763613D01*
X151515712Y-78768394D01*
X151493073Y-78777772D01*
X151491235Y-78779000D01*
X150259947Y-78779000D01*
X150247835Y-78772526D01*
X150224386Y-78765413D01*
X150200000Y-78763011D01*
X150175614Y-78765413D01*
X150157436Y-78771917D01*
X150157392Y-78771773D01*
X150135999Y-78778263D01*
X150119860Y-78779852D01*
X149582139Y-78779852D01*
X149563802Y-78778046D01*
X149551550Y-78777444D01*
X149533131Y-78777444D01*
X149510851Y-78775250D01*
X149426764Y-78758524D01*
X149405345Y-78752026D01*
X149326129Y-78719215D01*
X149306393Y-78708665D01*
X149235103Y-78661031D01*
X149217792Y-78646824D01*
X149157176Y-78586208D01*
X149142969Y-78568897D01*
X149095335Y-78497607D01*
X149084785Y-78477871D01*
X149051974Y-78398655D01*
X149045476Y-78377236D01*
X149028750Y-78293149D01*
X149026556Y-78270869D01*
X149026556Y-78252450D01*
X149025954Y-78240198D01*
X149024148Y-78221861D01*
X149024148Y-77734140D01*
X149025954Y-77715802D01*
X149026556Y-77703550D01*
X149026556Y-77685131D01*
X149028750Y-77662851D01*
X149045476Y-77578764D01*
X149051974Y-77557345D01*
X149084785Y-77478129D01*
X149095335Y-77458393D01*
X149142969Y-77387103D01*
X149157176Y-77369792D01*
X149217792Y-77309176D01*
X149235103Y-77294969D01*
X149306393Y-77247335D01*
X149326129Y-77236785D01*
X149405345Y-77203974D01*
X149426764Y-77197476D01*
X149510851Y-77180750D01*
X149533131Y-77178556D01*
X149551550Y-77178556D01*
X149563802Y-77177954D01*
X149582140Y-77176148D01*
X150119860Y-77176148D01*
X150135999Y-77177737D01*
X150135999Y-77177737D01*
G37*
G36*
X156886000Y-77851000D02*
X156184000Y-77851000D01*
X156184000Y-75749000D01*
X156886000Y-75749000D01*
X156886000Y-77851000D01*
X156886000Y-77851000D01*
G37*
G36*
X167046000Y-77851000D02*
X166344000Y-77851000D01*
X166344000Y-75749000D01*
X167046000Y-75749000D01*
X167046000Y-77851000D01*
X167046000Y-77851000D01*
G37*
G36*
X168316000Y-77851000D02*
X167614000Y-77851000D01*
X167614000Y-75749000D01*
X168316000Y-75749000D01*
X168316000Y-77851000D01*
X168316000Y-77851000D01*
G37*
G36*
X158156000Y-77851000D02*
X157454000Y-77851000D01*
X157454000Y-75749000D01*
X158156000Y-75749000D01*
X158156000Y-77851000D01*
X158156000Y-77851000D01*
G37*
G36*
X159426000Y-77851000D02*
X158724000Y-77851000D01*
X158724000Y-75749000D01*
X159426000Y-75749000D01*
X159426000Y-77851000D01*
X159426000Y-77851000D01*
G37*
G36*
X160696000Y-77851000D02*
X159994000Y-77851000D01*
X159994000Y-75749000D01*
X160696000Y-75749000D01*
X160696000Y-77851000D01*
X160696000Y-77851000D01*
G37*
G36*
X161966000Y-77851000D02*
X161264000Y-77851000D01*
X161264000Y-75749000D01*
X161966000Y-75749000D01*
X161966000Y-77851000D01*
X161966000Y-77851000D01*
G37*
G36*
X169586000Y-77851000D02*
X168884000Y-77851000D01*
X168884000Y-75749000D01*
X169586000Y-75749000D01*
X169586000Y-77851000D01*
X169586000Y-77851000D01*
G37*
G36*
X163236000Y-77851000D02*
X162534000Y-77851000D01*
X162534000Y-75749000D01*
X163236000Y-75749000D01*
X163236000Y-77851000D01*
X163236000Y-77851000D01*
G37*
G36*
X164506000Y-77851000D02*
X163804000Y-77851000D01*
X163804000Y-75749000D01*
X164506000Y-75749000D01*
X164506000Y-77851000D01*
X164506000Y-77851000D01*
G37*
G36*
X155616000Y-77851000D02*
X154914000Y-77851000D01*
X154914000Y-75749000D01*
X155616000Y-75749000D01*
X155616000Y-77851000D01*
X155616000Y-77851000D01*
G37*
G36*
X165776000Y-77851000D02*
X165074000Y-77851000D01*
X165074000Y-75749000D01*
X165776000Y-75749000D01*
X165776000Y-77851000D01*
X165776000Y-77851000D01*
G37*
G36*
X188363062Y-75828181D02*
X188397977Y-75838773D01*
X188430165Y-75855978D01*
X188458373Y-75879127D01*
X188481522Y-75907335D01*
X188498727Y-75939523D01*
X188509319Y-75974438D01*
X188513500Y-76016895D01*
X188513500Y-77483105D01*
X188509319Y-77525562D01*
X188498727Y-77560477D01*
X188481522Y-77592665D01*
X188458373Y-77620873D01*
X188430165Y-77644022D01*
X188397977Y-77661227D01*
X188363062Y-77671819D01*
X188320605Y-77676000D01*
X187179395Y-77676000D01*
X187136938Y-77671819D01*
X187102023Y-77661227D01*
X187069835Y-77644022D01*
X187041627Y-77620873D01*
X187018478Y-77592665D01*
X187001273Y-77560477D01*
X186990681Y-77525562D01*
X186986500Y-77483105D01*
X186986500Y-76016895D01*
X186990681Y-75974438D01*
X187001273Y-75939523D01*
X187018478Y-75907335D01*
X187041627Y-75879127D01*
X187069835Y-75855978D01*
X187102023Y-75838773D01*
X187136938Y-75828181D01*
X187179395Y-75824000D01*
X188320605Y-75824000D01*
X188363062Y-75828181D01*
X188363062Y-75828181D01*
G37*
G36*
X185388062Y-75828181D02*
X185422977Y-75838773D01*
X185455165Y-75855978D01*
X185483373Y-75879127D01*
X185506522Y-75907335D01*
X185523727Y-75939523D01*
X185534319Y-75974438D01*
X185538500Y-76016895D01*
X185538500Y-77483105D01*
X185534319Y-77525562D01*
X185523727Y-77560477D01*
X185506522Y-77592665D01*
X185483373Y-77620873D01*
X185455165Y-77644022D01*
X185422977Y-77661227D01*
X185388062Y-77671819D01*
X185345605Y-77676000D01*
X184204395Y-77676000D01*
X184161938Y-77671819D01*
X184127023Y-77661227D01*
X184094835Y-77644022D01*
X184066627Y-77620873D01*
X184043478Y-77592665D01*
X184026273Y-77560477D01*
X184015681Y-77525562D01*
X184011500Y-77483105D01*
X184011500Y-76016895D01*
X184015681Y-75974438D01*
X184026273Y-75939523D01*
X184043478Y-75907335D01*
X184066627Y-75879127D01*
X184094835Y-75855978D01*
X184127023Y-75838773D01*
X184161938Y-75828181D01*
X184204395Y-75824000D01*
X185345605Y-75824000D01*
X185388062Y-75828181D01*
X185388062Y-75828181D01*
G37*
G36*
X107706821Y-74161313D02*
X107706824Y-74161314D01*
X107706825Y-74161314D01*
X107867239Y-74209975D01*
X107867241Y-74209976D01*
X107867244Y-74209977D01*
X108015078Y-74288995D01*
X108144659Y-74395341D01*
X108251005Y-74524922D01*
X108330023Y-74672756D01*
X108330024Y-74672759D01*
X108330025Y-74672761D01*
X108366913Y-74794364D01*
X108378687Y-74833179D01*
X108395117Y-75000000D01*
X108378687Y-75166821D01*
X108330023Y-75327244D01*
X108251005Y-75475078D01*
X108144659Y-75604659D01*
X108015078Y-75711005D01*
X107867244Y-75790023D01*
X107867241Y-75790024D01*
X107867239Y-75790025D01*
X107706825Y-75838686D01*
X107706824Y-75838686D01*
X107706821Y-75838687D01*
X107581804Y-75851000D01*
X107498196Y-75851000D01*
X107373179Y-75838687D01*
X107373176Y-75838686D01*
X107373175Y-75838686D01*
X107212761Y-75790025D01*
X107212759Y-75790024D01*
X107212756Y-75790023D01*
X107064922Y-75711005D01*
X106935341Y-75604659D01*
X106828995Y-75475078D01*
X106749977Y-75327244D01*
X106701313Y-75166821D01*
X106684883Y-75000000D01*
X106701313Y-74833179D01*
X106713087Y-74794364D01*
X106749975Y-74672761D01*
X106749976Y-74672759D01*
X106749977Y-74672756D01*
X106828995Y-74524922D01*
X106935341Y-74395341D01*
X107064922Y-74288995D01*
X107212756Y-74209977D01*
X107212759Y-74209976D01*
X107212761Y-74209975D01*
X107373175Y-74161314D01*
X107373176Y-74161314D01*
X107373179Y-74161313D01*
X107498196Y-74149000D01*
X107581804Y-74149000D01*
X107706821Y-74161313D01*
X107706821Y-74161313D01*
G37*
G36*
X140726821Y-74161313D02*
X140726824Y-74161314D01*
X140726825Y-74161314D01*
X140887239Y-74209975D01*
X140887241Y-74209976D01*
X140887244Y-74209977D01*
X141035078Y-74288995D01*
X141164659Y-74395341D01*
X141271005Y-74524922D01*
X141350023Y-74672756D01*
X141350024Y-74672759D01*
X141350025Y-74672761D01*
X141386913Y-74794364D01*
X141398687Y-74833179D01*
X141415117Y-75000000D01*
X141398687Y-75166821D01*
X141350023Y-75327244D01*
X141271005Y-75475078D01*
X141164659Y-75604659D01*
X141035078Y-75711005D01*
X140887244Y-75790023D01*
X140887241Y-75790024D01*
X140887239Y-75790025D01*
X140726825Y-75838686D01*
X140726824Y-75838686D01*
X140726821Y-75838687D01*
X140601804Y-75851000D01*
X140518196Y-75851000D01*
X140393179Y-75838687D01*
X140393176Y-75838686D01*
X140393175Y-75838686D01*
X140232761Y-75790025D01*
X140232759Y-75790024D01*
X140232756Y-75790023D01*
X140084922Y-75711005D01*
X139955341Y-75604659D01*
X139848995Y-75475078D01*
X139769977Y-75327244D01*
X139721313Y-75166821D01*
X139704883Y-75000000D01*
X139721313Y-74833179D01*
X139733087Y-74794364D01*
X139769975Y-74672761D01*
X139769976Y-74672759D01*
X139769977Y-74672756D01*
X139848995Y-74524922D01*
X139955341Y-74395341D01*
X140084922Y-74288995D01*
X140232756Y-74209977D01*
X140232759Y-74209976D01*
X140232761Y-74209975D01*
X140393175Y-74161314D01*
X140393176Y-74161314D01*
X140393179Y-74161313D01*
X140518196Y-74149000D01*
X140601804Y-74149000D01*
X140726821Y-74161313D01*
X140726821Y-74161313D01*
G37*
G36*
X138186821Y-74161313D02*
X138186824Y-74161314D01*
X138186825Y-74161314D01*
X138347239Y-74209975D01*
X138347241Y-74209976D01*
X138347244Y-74209977D01*
X138495078Y-74288995D01*
X138624659Y-74395341D01*
X138731005Y-74524922D01*
X138810023Y-74672756D01*
X138810024Y-74672759D01*
X138810025Y-74672761D01*
X138846913Y-74794364D01*
X138858687Y-74833179D01*
X138875117Y-75000000D01*
X138858687Y-75166821D01*
X138810023Y-75327244D01*
X138731005Y-75475078D01*
X138624659Y-75604659D01*
X138495078Y-75711005D01*
X138347244Y-75790023D01*
X138347241Y-75790024D01*
X138347239Y-75790025D01*
X138186825Y-75838686D01*
X138186824Y-75838686D01*
X138186821Y-75838687D01*
X138061804Y-75851000D01*
X137978196Y-75851000D01*
X137853179Y-75838687D01*
X137853176Y-75838686D01*
X137853175Y-75838686D01*
X137692761Y-75790025D01*
X137692759Y-75790024D01*
X137692756Y-75790023D01*
X137544922Y-75711005D01*
X137415341Y-75604659D01*
X137308995Y-75475078D01*
X137229977Y-75327244D01*
X137181313Y-75166821D01*
X137164883Y-75000000D01*
X137181313Y-74833179D01*
X137193087Y-74794364D01*
X137229975Y-74672761D01*
X137229976Y-74672759D01*
X137229977Y-74672756D01*
X137308995Y-74524922D01*
X137415341Y-74395341D01*
X137544922Y-74288995D01*
X137692756Y-74209977D01*
X137692759Y-74209976D01*
X137692761Y-74209975D01*
X137853175Y-74161314D01*
X137853176Y-74161314D01*
X137853179Y-74161313D01*
X137978196Y-74149000D01*
X138061804Y-74149000D01*
X138186821Y-74161313D01*
X138186821Y-74161313D01*
G37*
G36*
X105851000Y-75851000D02*
X104149000Y-75851000D01*
X104149000Y-74149000D01*
X105851000Y-74149000D01*
X105851000Y-75851000D01*
X105851000Y-75851000D01*
G37*
G36*
X110246821Y-74161313D02*
X110246824Y-74161314D01*
X110246825Y-74161314D01*
X110407239Y-74209975D01*
X110407241Y-74209976D01*
X110407244Y-74209977D01*
X110555078Y-74288995D01*
X110684659Y-74395341D01*
X110791005Y-74524922D01*
X110870023Y-74672756D01*
X110870024Y-74672759D01*
X110870025Y-74672761D01*
X110906913Y-74794364D01*
X110918687Y-74833179D01*
X110935117Y-75000000D01*
X110918687Y-75166821D01*
X110870023Y-75327244D01*
X110791005Y-75475078D01*
X110684659Y-75604659D01*
X110555078Y-75711005D01*
X110407244Y-75790023D01*
X110407241Y-75790024D01*
X110407239Y-75790025D01*
X110246825Y-75838686D01*
X110246824Y-75838686D01*
X110246821Y-75838687D01*
X110121804Y-75851000D01*
X110038196Y-75851000D01*
X109913179Y-75838687D01*
X109913176Y-75838686D01*
X109913175Y-75838686D01*
X109752761Y-75790025D01*
X109752759Y-75790024D01*
X109752756Y-75790023D01*
X109604922Y-75711005D01*
X109475341Y-75604659D01*
X109368995Y-75475078D01*
X109289977Y-75327244D01*
X109241313Y-75166821D01*
X109224883Y-75000000D01*
X109241313Y-74833179D01*
X109253087Y-74794364D01*
X109289975Y-74672761D01*
X109289976Y-74672759D01*
X109289977Y-74672756D01*
X109368995Y-74524922D01*
X109475341Y-74395341D01*
X109604922Y-74288995D01*
X109752756Y-74209977D01*
X109752759Y-74209976D01*
X109752761Y-74209975D01*
X109913175Y-74161314D01*
X109913176Y-74161314D01*
X109913179Y-74161313D01*
X110038196Y-74149000D01*
X110121804Y-74149000D01*
X110246821Y-74161313D01*
X110246821Y-74161313D01*
G37*
G36*
X112786821Y-74161313D02*
X112786824Y-74161314D01*
X112786825Y-74161314D01*
X112947239Y-74209975D01*
X112947241Y-74209976D01*
X112947244Y-74209977D01*
X113095078Y-74288995D01*
X113224659Y-74395341D01*
X113331005Y-74524922D01*
X113410023Y-74672756D01*
X113410024Y-74672759D01*
X113410025Y-74672761D01*
X113446913Y-74794364D01*
X113458687Y-74833179D01*
X113475117Y-75000000D01*
X113458687Y-75166821D01*
X113410023Y-75327244D01*
X113331005Y-75475078D01*
X113224659Y-75604659D01*
X113095078Y-75711005D01*
X112947244Y-75790023D01*
X112947241Y-75790024D01*
X112947239Y-75790025D01*
X112786825Y-75838686D01*
X112786824Y-75838686D01*
X112786821Y-75838687D01*
X112661804Y-75851000D01*
X112578196Y-75851000D01*
X112453179Y-75838687D01*
X112453176Y-75838686D01*
X112453175Y-75838686D01*
X112292761Y-75790025D01*
X112292759Y-75790024D01*
X112292756Y-75790023D01*
X112144922Y-75711005D01*
X112015341Y-75604659D01*
X111908995Y-75475078D01*
X111829977Y-75327244D01*
X111781313Y-75166821D01*
X111764883Y-75000000D01*
X111781313Y-74833179D01*
X111793087Y-74794364D01*
X111829975Y-74672761D01*
X111829976Y-74672759D01*
X111829977Y-74672756D01*
X111908995Y-74524922D01*
X112015341Y-74395341D01*
X112144922Y-74288995D01*
X112292756Y-74209977D01*
X112292759Y-74209976D01*
X112292761Y-74209975D01*
X112453175Y-74161314D01*
X112453176Y-74161314D01*
X112453179Y-74161313D01*
X112578196Y-74149000D01*
X112661804Y-74149000D01*
X112786821Y-74161313D01*
X112786821Y-74161313D01*
G37*
G36*
X115326821Y-74161313D02*
X115326824Y-74161314D01*
X115326825Y-74161314D01*
X115487239Y-74209975D01*
X115487241Y-74209976D01*
X115487244Y-74209977D01*
X115635078Y-74288995D01*
X115764659Y-74395341D01*
X115871005Y-74524922D01*
X115950023Y-74672756D01*
X115950024Y-74672759D01*
X115950025Y-74672761D01*
X115986913Y-74794364D01*
X115998687Y-74833179D01*
X116015117Y-75000000D01*
X115998687Y-75166821D01*
X115950023Y-75327244D01*
X115871005Y-75475078D01*
X115764659Y-75604659D01*
X115635078Y-75711005D01*
X115487244Y-75790023D01*
X115487241Y-75790024D01*
X115487239Y-75790025D01*
X115326825Y-75838686D01*
X115326824Y-75838686D01*
X115326821Y-75838687D01*
X115201804Y-75851000D01*
X115118196Y-75851000D01*
X114993179Y-75838687D01*
X114993176Y-75838686D01*
X114993175Y-75838686D01*
X114832761Y-75790025D01*
X114832759Y-75790024D01*
X114832756Y-75790023D01*
X114684922Y-75711005D01*
X114555341Y-75604659D01*
X114448995Y-75475078D01*
X114369977Y-75327244D01*
X114321313Y-75166821D01*
X114304883Y-75000000D01*
X114321313Y-74833179D01*
X114333087Y-74794364D01*
X114369975Y-74672761D01*
X114369976Y-74672759D01*
X114369977Y-74672756D01*
X114448995Y-74524922D01*
X114555341Y-74395341D01*
X114684922Y-74288995D01*
X114832756Y-74209977D01*
X114832759Y-74209976D01*
X114832761Y-74209975D01*
X114993175Y-74161314D01*
X114993176Y-74161314D01*
X114993179Y-74161313D01*
X115118196Y-74149000D01*
X115201804Y-74149000D01*
X115326821Y-74161313D01*
X115326821Y-74161313D01*
G37*
G36*
X135646821Y-74161313D02*
X135646824Y-74161314D01*
X135646825Y-74161314D01*
X135807239Y-74209975D01*
X135807241Y-74209976D01*
X135807244Y-74209977D01*
X135955078Y-74288995D01*
X136084659Y-74395341D01*
X136191005Y-74524922D01*
X136270023Y-74672756D01*
X136270024Y-74672759D01*
X136270025Y-74672761D01*
X136306913Y-74794364D01*
X136318687Y-74833179D01*
X136335117Y-75000000D01*
X136318687Y-75166821D01*
X136270023Y-75327244D01*
X136191005Y-75475078D01*
X136084659Y-75604659D01*
X135955078Y-75711005D01*
X135807244Y-75790023D01*
X135807241Y-75790024D01*
X135807239Y-75790025D01*
X135646825Y-75838686D01*
X135646824Y-75838686D01*
X135646821Y-75838687D01*
X135521804Y-75851000D01*
X135438196Y-75851000D01*
X135313179Y-75838687D01*
X135313176Y-75838686D01*
X135313175Y-75838686D01*
X135152761Y-75790025D01*
X135152759Y-75790024D01*
X135152756Y-75790023D01*
X135004922Y-75711005D01*
X134875341Y-75604659D01*
X134768995Y-75475078D01*
X134689977Y-75327244D01*
X134641313Y-75166821D01*
X134624883Y-75000000D01*
X134641313Y-74833179D01*
X134653087Y-74794364D01*
X134689975Y-74672761D01*
X134689976Y-74672759D01*
X134689977Y-74672756D01*
X134768995Y-74524922D01*
X134875341Y-74395341D01*
X135004922Y-74288995D01*
X135152756Y-74209977D01*
X135152759Y-74209976D01*
X135152761Y-74209975D01*
X135313175Y-74161314D01*
X135313176Y-74161314D01*
X135313179Y-74161313D01*
X135438196Y-74149000D01*
X135521804Y-74149000D01*
X135646821Y-74161313D01*
X135646821Y-74161313D01*
G37*
G36*
X117866821Y-74161313D02*
X117866824Y-74161314D01*
X117866825Y-74161314D01*
X118027239Y-74209975D01*
X118027241Y-74209976D01*
X118027244Y-74209977D01*
X118175078Y-74288995D01*
X118304659Y-74395341D01*
X118411005Y-74524922D01*
X118490023Y-74672756D01*
X118490024Y-74672759D01*
X118490025Y-74672761D01*
X118526913Y-74794364D01*
X118538687Y-74833179D01*
X118555117Y-75000000D01*
X118538687Y-75166821D01*
X118490023Y-75327244D01*
X118411005Y-75475078D01*
X118304659Y-75604659D01*
X118175078Y-75711005D01*
X118027244Y-75790023D01*
X118027241Y-75790024D01*
X118027239Y-75790025D01*
X117866825Y-75838686D01*
X117866824Y-75838686D01*
X117866821Y-75838687D01*
X117741804Y-75851000D01*
X117658196Y-75851000D01*
X117533179Y-75838687D01*
X117533176Y-75838686D01*
X117533175Y-75838686D01*
X117372761Y-75790025D01*
X117372759Y-75790024D01*
X117372756Y-75790023D01*
X117224922Y-75711005D01*
X117095341Y-75604659D01*
X116988995Y-75475078D01*
X116909977Y-75327244D01*
X116861313Y-75166821D01*
X116844883Y-75000000D01*
X116861313Y-74833179D01*
X116873087Y-74794364D01*
X116909975Y-74672761D01*
X116909976Y-74672759D01*
X116909977Y-74672756D01*
X116988995Y-74524922D01*
X117095341Y-74395341D01*
X117224922Y-74288995D01*
X117372756Y-74209977D01*
X117372759Y-74209976D01*
X117372761Y-74209975D01*
X117533175Y-74161314D01*
X117533176Y-74161314D01*
X117533179Y-74161313D01*
X117658196Y-74149000D01*
X117741804Y-74149000D01*
X117866821Y-74161313D01*
X117866821Y-74161313D01*
G37*
G36*
X122946821Y-74161313D02*
X122946824Y-74161314D01*
X122946825Y-74161314D01*
X123107239Y-74209975D01*
X123107241Y-74209976D01*
X123107244Y-74209977D01*
X123255078Y-74288995D01*
X123384659Y-74395341D01*
X123491005Y-74524922D01*
X123570023Y-74672756D01*
X123570024Y-74672759D01*
X123570025Y-74672761D01*
X123606913Y-74794364D01*
X123618687Y-74833179D01*
X123635117Y-75000000D01*
X123618687Y-75166821D01*
X123570023Y-75327244D01*
X123491005Y-75475078D01*
X123384659Y-75604659D01*
X123255078Y-75711005D01*
X123107244Y-75790023D01*
X123107241Y-75790024D01*
X123107239Y-75790025D01*
X122946825Y-75838686D01*
X122946824Y-75838686D01*
X122946821Y-75838687D01*
X122821804Y-75851000D01*
X122738196Y-75851000D01*
X122613179Y-75838687D01*
X122613176Y-75838686D01*
X122613175Y-75838686D01*
X122452761Y-75790025D01*
X122452759Y-75790024D01*
X122452756Y-75790023D01*
X122304922Y-75711005D01*
X122175341Y-75604659D01*
X122068995Y-75475078D01*
X121989977Y-75327244D01*
X121941313Y-75166821D01*
X121924883Y-75000000D01*
X121941313Y-74833179D01*
X121953087Y-74794364D01*
X121989975Y-74672761D01*
X121989976Y-74672759D01*
X121989977Y-74672756D01*
X122068995Y-74524922D01*
X122175341Y-74395341D01*
X122304922Y-74288995D01*
X122452756Y-74209977D01*
X122452759Y-74209976D01*
X122452761Y-74209975D01*
X122613175Y-74161314D01*
X122613176Y-74161314D01*
X122613179Y-74161313D01*
X122738196Y-74149000D01*
X122821804Y-74149000D01*
X122946821Y-74161313D01*
X122946821Y-74161313D01*
G37*
G36*
X120406821Y-74161313D02*
X120406824Y-74161314D01*
X120406825Y-74161314D01*
X120567239Y-74209975D01*
X120567241Y-74209976D01*
X120567244Y-74209977D01*
X120715078Y-74288995D01*
X120844659Y-74395341D01*
X120951005Y-74524922D01*
X121030023Y-74672756D01*
X121030024Y-74672759D01*
X121030025Y-74672761D01*
X121066913Y-74794364D01*
X121078687Y-74833179D01*
X121095117Y-75000000D01*
X121078687Y-75166821D01*
X121030023Y-75327244D01*
X120951005Y-75475078D01*
X120844659Y-75604659D01*
X120715078Y-75711005D01*
X120567244Y-75790023D01*
X120567241Y-75790024D01*
X120567239Y-75790025D01*
X120406825Y-75838686D01*
X120406824Y-75838686D01*
X120406821Y-75838687D01*
X120281804Y-75851000D01*
X120198196Y-75851000D01*
X120073179Y-75838687D01*
X120073176Y-75838686D01*
X120073175Y-75838686D01*
X119912761Y-75790025D01*
X119912759Y-75790024D01*
X119912756Y-75790023D01*
X119764922Y-75711005D01*
X119635341Y-75604659D01*
X119528995Y-75475078D01*
X119449977Y-75327244D01*
X119401313Y-75166821D01*
X119384883Y-75000000D01*
X119401313Y-74833179D01*
X119413087Y-74794364D01*
X119449975Y-74672761D01*
X119449976Y-74672759D01*
X119449977Y-74672756D01*
X119528995Y-74524922D01*
X119635341Y-74395341D01*
X119764922Y-74288995D01*
X119912756Y-74209977D01*
X119912759Y-74209976D01*
X119912761Y-74209975D01*
X120073175Y-74161314D01*
X120073176Y-74161314D01*
X120073179Y-74161313D01*
X120198196Y-74149000D01*
X120281804Y-74149000D01*
X120406821Y-74161313D01*
X120406821Y-74161313D01*
G37*
G36*
X125486821Y-74161313D02*
X125486824Y-74161314D01*
X125486825Y-74161314D01*
X125647239Y-74209975D01*
X125647241Y-74209976D01*
X125647244Y-74209977D01*
X125795078Y-74288995D01*
X125924659Y-74395341D01*
X126031005Y-74524922D01*
X126110023Y-74672756D01*
X126110024Y-74672759D01*
X126110025Y-74672761D01*
X126146913Y-74794364D01*
X126158687Y-74833179D01*
X126175117Y-75000000D01*
X126158687Y-75166821D01*
X126110023Y-75327244D01*
X126031005Y-75475078D01*
X125924659Y-75604659D01*
X125795078Y-75711005D01*
X125647244Y-75790023D01*
X125647241Y-75790024D01*
X125647239Y-75790025D01*
X125486825Y-75838686D01*
X125486824Y-75838686D01*
X125486821Y-75838687D01*
X125361804Y-75851000D01*
X125278196Y-75851000D01*
X125153179Y-75838687D01*
X125153176Y-75838686D01*
X125153175Y-75838686D01*
X124992761Y-75790025D01*
X124992759Y-75790024D01*
X124992756Y-75790023D01*
X124844922Y-75711005D01*
X124715341Y-75604659D01*
X124608995Y-75475078D01*
X124529977Y-75327244D01*
X124481313Y-75166821D01*
X124464883Y-75000000D01*
X124481313Y-74833179D01*
X124493087Y-74794364D01*
X124529975Y-74672761D01*
X124529976Y-74672759D01*
X124529977Y-74672756D01*
X124608995Y-74524922D01*
X124715341Y-74395341D01*
X124844922Y-74288995D01*
X124992756Y-74209977D01*
X124992759Y-74209976D01*
X124992761Y-74209975D01*
X125153175Y-74161314D01*
X125153176Y-74161314D01*
X125153179Y-74161313D01*
X125278196Y-74149000D01*
X125361804Y-74149000D01*
X125486821Y-74161313D01*
X125486821Y-74161313D01*
G37*
G36*
X133106821Y-74161313D02*
X133106824Y-74161314D01*
X133106825Y-74161314D01*
X133267239Y-74209975D01*
X133267241Y-74209976D01*
X133267244Y-74209977D01*
X133415078Y-74288995D01*
X133544659Y-74395341D01*
X133651005Y-74524922D01*
X133730023Y-74672756D01*
X133730024Y-74672759D01*
X133730025Y-74672761D01*
X133766913Y-74794364D01*
X133778687Y-74833179D01*
X133795117Y-75000000D01*
X133778687Y-75166821D01*
X133730023Y-75327244D01*
X133651005Y-75475078D01*
X133544659Y-75604659D01*
X133415078Y-75711005D01*
X133267244Y-75790023D01*
X133267241Y-75790024D01*
X133267239Y-75790025D01*
X133106825Y-75838686D01*
X133106824Y-75838686D01*
X133106821Y-75838687D01*
X132981804Y-75851000D01*
X132898196Y-75851000D01*
X132773179Y-75838687D01*
X132773176Y-75838686D01*
X132773175Y-75838686D01*
X132612761Y-75790025D01*
X132612759Y-75790024D01*
X132612756Y-75790023D01*
X132464922Y-75711005D01*
X132335341Y-75604659D01*
X132228995Y-75475078D01*
X132149977Y-75327244D01*
X132101313Y-75166821D01*
X132084883Y-75000000D01*
X132101313Y-74833179D01*
X132113087Y-74794364D01*
X132149975Y-74672761D01*
X132149976Y-74672759D01*
X132149977Y-74672756D01*
X132228995Y-74524922D01*
X132335341Y-74395341D01*
X132464922Y-74288995D01*
X132612756Y-74209977D01*
X132612759Y-74209976D01*
X132612761Y-74209975D01*
X132773175Y-74161314D01*
X132773176Y-74161314D01*
X132773179Y-74161313D01*
X132898196Y-74149000D01*
X132981804Y-74149000D01*
X133106821Y-74161313D01*
X133106821Y-74161313D01*
G37*
G36*
X130566821Y-74161313D02*
X130566824Y-74161314D01*
X130566825Y-74161314D01*
X130727239Y-74209975D01*
X130727241Y-74209976D01*
X130727244Y-74209977D01*
X130875078Y-74288995D01*
X131004659Y-74395341D01*
X131111005Y-74524922D01*
X131190023Y-74672756D01*
X131190024Y-74672759D01*
X131190025Y-74672761D01*
X131226913Y-74794364D01*
X131238687Y-74833179D01*
X131255117Y-75000000D01*
X131238687Y-75166821D01*
X131190023Y-75327244D01*
X131111005Y-75475078D01*
X131004659Y-75604659D01*
X130875078Y-75711005D01*
X130727244Y-75790023D01*
X130727241Y-75790024D01*
X130727239Y-75790025D01*
X130566825Y-75838686D01*
X130566824Y-75838686D01*
X130566821Y-75838687D01*
X130441804Y-75851000D01*
X130358196Y-75851000D01*
X130233179Y-75838687D01*
X130233176Y-75838686D01*
X130233175Y-75838686D01*
X130072761Y-75790025D01*
X130072759Y-75790024D01*
X130072756Y-75790023D01*
X129924922Y-75711005D01*
X129795341Y-75604659D01*
X129688995Y-75475078D01*
X129609977Y-75327244D01*
X129561313Y-75166821D01*
X129544883Y-75000000D01*
X129561313Y-74833179D01*
X129573087Y-74794364D01*
X129609975Y-74672761D01*
X129609976Y-74672759D01*
X129609977Y-74672756D01*
X129688995Y-74524922D01*
X129795341Y-74395341D01*
X129924922Y-74288995D01*
X130072756Y-74209977D01*
X130072759Y-74209976D01*
X130072761Y-74209975D01*
X130233175Y-74161314D01*
X130233176Y-74161314D01*
X130233179Y-74161313D01*
X130358196Y-74149000D01*
X130441804Y-74149000D01*
X130566821Y-74161313D01*
X130566821Y-74161313D01*
G37*
G36*
X128026821Y-74161313D02*
X128026824Y-74161314D01*
X128026825Y-74161314D01*
X128187239Y-74209975D01*
X128187241Y-74209976D01*
X128187244Y-74209977D01*
X128335078Y-74288995D01*
X128464659Y-74395341D01*
X128571005Y-74524922D01*
X128650023Y-74672756D01*
X128650024Y-74672759D01*
X128650025Y-74672761D01*
X128686913Y-74794364D01*
X128698687Y-74833179D01*
X128715117Y-75000000D01*
X128698687Y-75166821D01*
X128650023Y-75327244D01*
X128571005Y-75475078D01*
X128464659Y-75604659D01*
X128335078Y-75711005D01*
X128187244Y-75790023D01*
X128187241Y-75790024D01*
X128187239Y-75790025D01*
X128026825Y-75838686D01*
X128026824Y-75838686D01*
X128026821Y-75838687D01*
X127901804Y-75851000D01*
X127818196Y-75851000D01*
X127693179Y-75838687D01*
X127693176Y-75838686D01*
X127693175Y-75838686D01*
X127532761Y-75790025D01*
X127532759Y-75790024D01*
X127532756Y-75790023D01*
X127384922Y-75711005D01*
X127255341Y-75604659D01*
X127148995Y-75475078D01*
X127069977Y-75327244D01*
X127021313Y-75166821D01*
X127004883Y-75000000D01*
X127021313Y-74833179D01*
X127033087Y-74794364D01*
X127069975Y-74672761D01*
X127069976Y-74672759D01*
X127069977Y-74672756D01*
X127148995Y-74524922D01*
X127255341Y-74395341D01*
X127384922Y-74288995D01*
X127532756Y-74209977D01*
X127532759Y-74209976D01*
X127532761Y-74209975D01*
X127693175Y-74161314D01*
X127693176Y-74161314D01*
X127693179Y-74161313D01*
X127818196Y-74149000D01*
X127901804Y-74149000D01*
X128026821Y-74161313D01*
X128026821Y-74161313D01*
G37*
G36*
X188363062Y-73328181D02*
X188397977Y-73338773D01*
X188430165Y-73355978D01*
X188458373Y-73379127D01*
X188481522Y-73407335D01*
X188498727Y-73439523D01*
X188509319Y-73474438D01*
X188513500Y-73516895D01*
X188513500Y-74983105D01*
X188509319Y-75025562D01*
X188498727Y-75060477D01*
X188481522Y-75092665D01*
X188458373Y-75120873D01*
X188430165Y-75144022D01*
X188397977Y-75161227D01*
X188363062Y-75171819D01*
X188320605Y-75176000D01*
X187179395Y-75176000D01*
X187136938Y-75171819D01*
X187102023Y-75161227D01*
X187069835Y-75144022D01*
X187041627Y-75120873D01*
X187018478Y-75092665D01*
X187001273Y-75060477D01*
X186990681Y-75025562D01*
X186986500Y-74983105D01*
X186986500Y-73516895D01*
X186990681Y-73474438D01*
X187001273Y-73439523D01*
X187018478Y-73407335D01*
X187041627Y-73379127D01*
X187069835Y-73355978D01*
X187102023Y-73338773D01*
X187136938Y-73328181D01*
X187179395Y-73324000D01*
X188320605Y-73324000D01*
X188363062Y-73328181D01*
X188363062Y-73328181D01*
G37*
G36*
X185388062Y-73328181D02*
X185422977Y-73338773D01*
X185455165Y-73355978D01*
X185483373Y-73379127D01*
X185506522Y-73407335D01*
X185523727Y-73439523D01*
X185534319Y-73474438D01*
X185538500Y-73516895D01*
X185538500Y-74983105D01*
X185534319Y-75025562D01*
X185523727Y-75060477D01*
X185506522Y-75092665D01*
X185483373Y-75120873D01*
X185455165Y-75144022D01*
X185422977Y-75161227D01*
X185388062Y-75171819D01*
X185345605Y-75176000D01*
X184204395Y-75176000D01*
X184161938Y-75171819D01*
X184127023Y-75161227D01*
X184094835Y-75144022D01*
X184066627Y-75120873D01*
X184043478Y-75092665D01*
X184026273Y-75060477D01*
X184015681Y-75025562D01*
X184011500Y-74983105D01*
X184011500Y-73516895D01*
X184015681Y-73474438D01*
X184026273Y-73439523D01*
X184043478Y-73407335D01*
X184066627Y-73379127D01*
X184094835Y-73355978D01*
X184127023Y-73338773D01*
X184161938Y-73328181D01*
X184204395Y-73324000D01*
X185345605Y-73324000D01*
X185388062Y-73328181D01*
X185388062Y-73328181D01*
G37*
G36*
X193148925Y-73112760D02*
X193148928Y-73112761D01*
X193148929Y-73112761D01*
X193328193Y-73167140D01*
X193328195Y-73167141D01*
X193493405Y-73255448D01*
X193638212Y-73374288D01*
X193757052Y-73519095D01*
X193845359Y-73684305D01*
X193899740Y-73863575D01*
X193918101Y-74050000D01*
X193899740Y-74236425D01*
X193899739Y-74236428D01*
X193899739Y-74236429D01*
X193851534Y-74395341D01*
X193845359Y-74415695D01*
X193757052Y-74580905D01*
X193638212Y-74725712D01*
X193493405Y-74844552D01*
X193439938Y-74873131D01*
X193328193Y-74932860D01*
X193148929Y-74987239D01*
X193148928Y-74987239D01*
X193148925Y-74987240D01*
X193009218Y-75001000D01*
X191115782Y-75001000D01*
X190976075Y-74987240D01*
X190976072Y-74987239D01*
X190976071Y-74987239D01*
X190796807Y-74932860D01*
X190685062Y-74873131D01*
X190631595Y-74844552D01*
X190486788Y-74725712D01*
X190367948Y-74580905D01*
X190279641Y-74415695D01*
X190273467Y-74395341D01*
X190225261Y-74236429D01*
X190225261Y-74236428D01*
X190225260Y-74236425D01*
X190206899Y-74050000D01*
X190225260Y-73863575D01*
X190279641Y-73684305D01*
X190367948Y-73519095D01*
X190486788Y-73374288D01*
X190631595Y-73255448D01*
X190796805Y-73167141D01*
X190796807Y-73167140D01*
X190976071Y-73112761D01*
X190976072Y-73112761D01*
X190976075Y-73112760D01*
X191115782Y-73099000D01*
X193009218Y-73099000D01*
X193148925Y-73112760D01*
X193148925Y-73112760D01*
G37*
G36*
X155920677Y-73421465D02*
X155958364Y-73432898D01*
X155993103Y-73451466D01*
X156023548Y-73476452D01*
X156048534Y-73506897D01*
X156067102Y-73541636D01*
X156078535Y-73579323D01*
X156083000Y-73624661D01*
X156083000Y-74711339D01*
X156078535Y-74756677D01*
X156067102Y-74794364D01*
X156048534Y-74829103D01*
X156023548Y-74859548D01*
X155993103Y-74884534D01*
X155958364Y-74903102D01*
X155920677Y-74914535D01*
X155875339Y-74919000D01*
X155038661Y-74919000D01*
X154993323Y-74914535D01*
X154955636Y-74903102D01*
X154920897Y-74884534D01*
X154890452Y-74859548D01*
X154865466Y-74829103D01*
X154846898Y-74794364D01*
X154835465Y-74756677D01*
X154831000Y-74711339D01*
X154831000Y-73624661D01*
X154835465Y-73579323D01*
X154846898Y-73541636D01*
X154865466Y-73506897D01*
X154890452Y-73476452D01*
X154920897Y-73451466D01*
X154955636Y-73432898D01*
X154993323Y-73421465D01*
X155038661Y-73417000D01*
X155875339Y-73417000D01*
X155920677Y-73421465D01*
X155920677Y-73421465D01*
G37*
G36*
X153870677Y-73421465D02*
X153908364Y-73432898D01*
X153943103Y-73451466D01*
X153973548Y-73476452D01*
X153998534Y-73506897D01*
X154017102Y-73541636D01*
X154028535Y-73579323D01*
X154033000Y-73624661D01*
X154033000Y-74711339D01*
X154028535Y-74756677D01*
X154017102Y-74794364D01*
X153998534Y-74829103D01*
X153973548Y-74859548D01*
X153943103Y-74884534D01*
X153908364Y-74903102D01*
X153870677Y-74914535D01*
X153825339Y-74919000D01*
X152988661Y-74919000D01*
X152943323Y-74914535D01*
X152905636Y-74903102D01*
X152870897Y-74884534D01*
X152840452Y-74859548D01*
X152815466Y-74829103D01*
X152796898Y-74794364D01*
X152785465Y-74756677D01*
X152781000Y-74711339D01*
X152781000Y-73624661D01*
X152785465Y-73579323D01*
X152796898Y-73541636D01*
X152815466Y-73506897D01*
X152840452Y-73476452D01*
X152870897Y-73451466D01*
X152905636Y-73432898D01*
X152943323Y-73421465D01*
X152988661Y-73417000D01*
X153825339Y-73417000D01*
X153870677Y-73421465D01*
X153870677Y-73421465D01*
G37*
G36*
X123457562Y-71594181D02*
X123492477Y-71604773D01*
X123524665Y-71621978D01*
X123552873Y-71645127D01*
X123576022Y-71673335D01*
X123593227Y-71705523D01*
X123603819Y-71740438D01*
X123608000Y-71782895D01*
X123608000Y-72924105D01*
X123603819Y-72966562D01*
X123593227Y-73001477D01*
X123576022Y-73033665D01*
X123552873Y-73061873D01*
X123524665Y-73085022D01*
X123492477Y-73102227D01*
X123457562Y-73112819D01*
X123415105Y-73117000D01*
X121948895Y-73117000D01*
X121906438Y-73112819D01*
X121871523Y-73102227D01*
X121839335Y-73085022D01*
X121811127Y-73061873D01*
X121787978Y-73033665D01*
X121770773Y-73001477D01*
X121760181Y-72966562D01*
X121756000Y-72924105D01*
X121756000Y-71782895D01*
X121760181Y-71740438D01*
X121770773Y-71705523D01*
X121787978Y-71673335D01*
X121811127Y-71645127D01*
X121839335Y-71621978D01*
X121871523Y-71604773D01*
X121906438Y-71594181D01*
X121948895Y-71590000D01*
X123415105Y-71590000D01*
X123457562Y-71594181D01*
X123457562Y-71594181D01*
G37*
G36*
X120917562Y-71594181D02*
X120952477Y-71604773D01*
X120984665Y-71621978D01*
X121012873Y-71645127D01*
X121036022Y-71673335D01*
X121053227Y-71705523D01*
X121063819Y-71740438D01*
X121068000Y-71782895D01*
X121068000Y-72924105D01*
X121063819Y-72966562D01*
X121053227Y-73001477D01*
X121036022Y-73033665D01*
X121012873Y-73061873D01*
X120984665Y-73085022D01*
X120952477Y-73102227D01*
X120917562Y-73112819D01*
X120875105Y-73117000D01*
X119408895Y-73117000D01*
X119366438Y-73112819D01*
X119331523Y-73102227D01*
X119299335Y-73085022D01*
X119271127Y-73061873D01*
X119247978Y-73033665D01*
X119230773Y-73001477D01*
X119220181Y-72966562D01*
X119216000Y-72924105D01*
X119216000Y-71782895D01*
X119220181Y-71740438D01*
X119230773Y-71705523D01*
X119247978Y-71673335D01*
X119271127Y-71645127D01*
X119299335Y-71621978D01*
X119331523Y-71604773D01*
X119366438Y-71594181D01*
X119408895Y-71590000D01*
X120875105Y-71590000D01*
X120917562Y-71594181D01*
X120917562Y-71594181D01*
G37*
G36*
X173594096Y-67347033D02*
X173594098Y-67347034D01*
X173594099Y-67347034D01*
X174058352Y-67539333D01*
X174474284Y-67817250D01*
X174476171Y-67818511D01*
X174831489Y-68173829D01*
X174831491Y-68173832D01*
X175110667Y-68591648D01*
X175302966Y-69055901D01*
X175302967Y-69055904D01*
X175401000Y-69548747D01*
X175401000Y-70051253D01*
X175393915Y-70086873D01*
X175302966Y-70544099D01*
X175110667Y-71008352D01*
X174832750Y-71424284D01*
X174831489Y-71426171D01*
X174476171Y-71781489D01*
X174476168Y-71781491D01*
X174058352Y-72060667D01*
X173594099Y-72252966D01*
X173594098Y-72252966D01*
X173594096Y-72252967D01*
X173101253Y-72351000D01*
X172598747Y-72351000D01*
X172105904Y-72252967D01*
X172105902Y-72252966D01*
X172105901Y-72252966D01*
X171641648Y-72060667D01*
X171223832Y-71781491D01*
X171223829Y-71781489D01*
X170868511Y-71426171D01*
X170867250Y-71424284D01*
X170589333Y-71008352D01*
X170397034Y-70544099D01*
X170306086Y-70086873D01*
X170299000Y-70051253D01*
X170299000Y-69548747D01*
X170397033Y-69055904D01*
X170397034Y-69055901D01*
X170589333Y-68591648D01*
X170868509Y-68173832D01*
X170868511Y-68173829D01*
X171223829Y-67818511D01*
X171225716Y-67817250D01*
X171641648Y-67539333D01*
X172105901Y-67347034D01*
X172105902Y-67347034D01*
X172105904Y-67347033D01*
X172598747Y-67249000D01*
X173101253Y-67249000D01*
X173594096Y-67347033D01*
X173594096Y-67347033D01*
G37*
G36*
X152894096Y-67347033D02*
X152894098Y-67347034D01*
X152894099Y-67347034D01*
X153358352Y-67539333D01*
X153774284Y-67817250D01*
X153776171Y-67818511D01*
X154131489Y-68173829D01*
X154131491Y-68173832D01*
X154410667Y-68591648D01*
X154602966Y-69055901D01*
X154602967Y-69055904D01*
X154701000Y-69548747D01*
X154701000Y-70051253D01*
X154693915Y-70086873D01*
X154602966Y-70544099D01*
X154410667Y-71008352D01*
X154132750Y-71424284D01*
X154131489Y-71426171D01*
X153776171Y-71781489D01*
X153776168Y-71781491D01*
X153358352Y-72060667D01*
X152894099Y-72252966D01*
X152894098Y-72252966D01*
X152894096Y-72252967D01*
X152401253Y-72351000D01*
X151898747Y-72351000D01*
X151405904Y-72252967D01*
X151405902Y-72252966D01*
X151405901Y-72252966D01*
X150941648Y-72060667D01*
X150523832Y-71781491D01*
X150523829Y-71781489D01*
X150168511Y-71426171D01*
X150167250Y-71424284D01*
X149889333Y-71008352D01*
X149697034Y-70544099D01*
X149606086Y-70086873D01*
X149599000Y-70051253D01*
X149599000Y-69548747D01*
X149697033Y-69055904D01*
X149697034Y-69055901D01*
X149889333Y-68591648D01*
X150168509Y-68173832D01*
X150168511Y-68173829D01*
X150523829Y-67818511D01*
X150525716Y-67817250D01*
X150941648Y-67539333D01*
X151405901Y-67347034D01*
X151405902Y-67347034D01*
X151405904Y-67347033D01*
X151898747Y-67249000D01*
X152401253Y-67249000D01*
X152894096Y-67347033D01*
X152894096Y-67347033D01*
G37*
G36*
X186763500Y-70651000D02*
X184761500Y-70651000D01*
X184761500Y-69749000D01*
X186763500Y-69749000D01*
X186763500Y-70651000D01*
X186763500Y-70651000D01*
G37*
G36*
X166480442Y-68505518D02*
X166546627Y-68512037D01*
X166659853Y-68546384D01*
X166716467Y-68563557D01*
X166850859Y-68635392D01*
X166872991Y-68647222D01*
X166904918Y-68673424D01*
X167010186Y-68759814D01*
X167049644Y-68807895D01*
X167122778Y-68897009D01*
X167122779Y-68897011D01*
X167206443Y-69053533D01*
X167206443Y-69053534D01*
X167257963Y-69223373D01*
X167275359Y-69400000D01*
X167257963Y-69576627D01*
X167223616Y-69689853D01*
X167206443Y-69746467D01*
X167205089Y-69749000D01*
X167122778Y-69902991D01*
X167103592Y-69926369D01*
X167010186Y-70040186D01*
X166908729Y-70123448D01*
X166872991Y-70152778D01*
X166872989Y-70152779D01*
X166716467Y-70236443D01*
X166659853Y-70253616D01*
X166546627Y-70287963D01*
X166480443Y-70294481D01*
X166414260Y-70301000D01*
X166325740Y-70301000D01*
X166259557Y-70294481D01*
X166193373Y-70287963D01*
X166080147Y-70253616D01*
X166023533Y-70236443D01*
X165867011Y-70152779D01*
X165867009Y-70152778D01*
X165831271Y-70123448D01*
X165729814Y-70040186D01*
X165636408Y-69926369D01*
X165617222Y-69902991D01*
X165534911Y-69749000D01*
X165533557Y-69746467D01*
X165516384Y-69689853D01*
X165482037Y-69576627D01*
X165464641Y-69400000D01*
X165482037Y-69223373D01*
X165533557Y-69053534D01*
X165533557Y-69053533D01*
X165617221Y-68897011D01*
X165617222Y-68897009D01*
X165690356Y-68807895D01*
X165729814Y-68759814D01*
X165835082Y-68673424D01*
X165867009Y-68647222D01*
X165889141Y-68635392D01*
X166023533Y-68563557D01*
X166080147Y-68546384D01*
X166193373Y-68512037D01*
X166259558Y-68505518D01*
X166325740Y-68499000D01*
X166414260Y-68499000D01*
X166480442Y-68505518D01*
X166480442Y-68505518D01*
G37*
G36*
X159651000Y-70301000D02*
X157849000Y-70301000D01*
X157849000Y-68499000D01*
X159651000Y-68499000D01*
X159651000Y-70301000D01*
X159651000Y-70301000D01*
G37*
G36*
X161400442Y-68505518D02*
X161466627Y-68512037D01*
X161579853Y-68546384D01*
X161636467Y-68563557D01*
X161770859Y-68635392D01*
X161792991Y-68647222D01*
X161824918Y-68673424D01*
X161930186Y-68759814D01*
X161969644Y-68807895D01*
X162042778Y-68897009D01*
X162042779Y-68897011D01*
X162126443Y-69053533D01*
X162126443Y-69053534D01*
X162177963Y-69223373D01*
X162195359Y-69400000D01*
X162177963Y-69576627D01*
X162143616Y-69689853D01*
X162126443Y-69746467D01*
X162125089Y-69749000D01*
X162042778Y-69902991D01*
X162023592Y-69926369D01*
X161930186Y-70040186D01*
X161828729Y-70123448D01*
X161792991Y-70152778D01*
X161792989Y-70152779D01*
X161636467Y-70236443D01*
X161579853Y-70253616D01*
X161466627Y-70287963D01*
X161400443Y-70294481D01*
X161334260Y-70301000D01*
X161245740Y-70301000D01*
X161179557Y-70294481D01*
X161113373Y-70287963D01*
X161000147Y-70253616D01*
X160943533Y-70236443D01*
X160787011Y-70152779D01*
X160787009Y-70152778D01*
X160751271Y-70123448D01*
X160649814Y-70040186D01*
X160556408Y-69926369D01*
X160537222Y-69902991D01*
X160454911Y-69749000D01*
X160453557Y-69746467D01*
X160436384Y-69689853D01*
X160402037Y-69576627D01*
X160384641Y-69400000D01*
X160402037Y-69223373D01*
X160453557Y-69053534D01*
X160453557Y-69053533D01*
X160537221Y-68897011D01*
X160537222Y-68897009D01*
X160610356Y-68807895D01*
X160649814Y-68759814D01*
X160755082Y-68673424D01*
X160787009Y-68647222D01*
X160809141Y-68635392D01*
X160943533Y-68563557D01*
X161000147Y-68546384D01*
X161113373Y-68512037D01*
X161179558Y-68505518D01*
X161245740Y-68499000D01*
X161334260Y-68499000D01*
X161400442Y-68505518D01*
X161400442Y-68505518D01*
G37*
G36*
X163940442Y-68505518D02*
X164006627Y-68512037D01*
X164119853Y-68546384D01*
X164176467Y-68563557D01*
X164310859Y-68635392D01*
X164332991Y-68647222D01*
X164364918Y-68673424D01*
X164470186Y-68759814D01*
X164509644Y-68807895D01*
X164582778Y-68897009D01*
X164582779Y-68897011D01*
X164666443Y-69053533D01*
X164666443Y-69053534D01*
X164717963Y-69223373D01*
X164735359Y-69400000D01*
X164717963Y-69576627D01*
X164683616Y-69689853D01*
X164666443Y-69746467D01*
X164665089Y-69749000D01*
X164582778Y-69902991D01*
X164563592Y-69926369D01*
X164470186Y-70040186D01*
X164368729Y-70123448D01*
X164332991Y-70152778D01*
X164332989Y-70152779D01*
X164176467Y-70236443D01*
X164119853Y-70253616D01*
X164006627Y-70287963D01*
X163940443Y-70294481D01*
X163874260Y-70301000D01*
X163785740Y-70301000D01*
X163719557Y-70294481D01*
X163653373Y-70287963D01*
X163540147Y-70253616D01*
X163483533Y-70236443D01*
X163327011Y-70152779D01*
X163327009Y-70152778D01*
X163291271Y-70123448D01*
X163189814Y-70040186D01*
X163096408Y-69926369D01*
X163077222Y-69902991D01*
X162994911Y-69749000D01*
X162993557Y-69746467D01*
X162976384Y-69689853D01*
X162942037Y-69576627D01*
X162924641Y-69400000D01*
X162942037Y-69223373D01*
X162993557Y-69053534D01*
X162993557Y-69053533D01*
X163077221Y-68897011D01*
X163077222Y-68897009D01*
X163150356Y-68807895D01*
X163189814Y-68759814D01*
X163295082Y-68673424D01*
X163327009Y-68647222D01*
X163349141Y-68635392D01*
X163483533Y-68563557D01*
X163540147Y-68546384D01*
X163653373Y-68512037D01*
X163719558Y-68505518D01*
X163785740Y-68499000D01*
X163874260Y-68499000D01*
X163940442Y-68505518D01*
X163940442Y-68505518D01*
G37*
G36*
X123457562Y-68619181D02*
X123492477Y-68629773D01*
X123524665Y-68646978D01*
X123552873Y-68670127D01*
X123576022Y-68698335D01*
X123593227Y-68730523D01*
X123603819Y-68765438D01*
X123608000Y-68807895D01*
X123608000Y-69949105D01*
X123603819Y-69991562D01*
X123593227Y-70026477D01*
X123576022Y-70058665D01*
X123552873Y-70086873D01*
X123524665Y-70110022D01*
X123492477Y-70127227D01*
X123457562Y-70137819D01*
X123415105Y-70142000D01*
X121948895Y-70142000D01*
X121906438Y-70137819D01*
X121871523Y-70127227D01*
X121839335Y-70110022D01*
X121811127Y-70086873D01*
X121787978Y-70058665D01*
X121770773Y-70026477D01*
X121760181Y-69991562D01*
X121756000Y-69949105D01*
X121756000Y-68807895D01*
X121760181Y-68765438D01*
X121770773Y-68730523D01*
X121787978Y-68698335D01*
X121811127Y-68670127D01*
X121839335Y-68646978D01*
X121871523Y-68629773D01*
X121906438Y-68619181D01*
X121948895Y-68615000D01*
X123415105Y-68615000D01*
X123457562Y-68619181D01*
X123457562Y-68619181D01*
G37*
G36*
X120917562Y-68619181D02*
X120952477Y-68629773D01*
X120984665Y-68646978D01*
X121012873Y-68670127D01*
X121036022Y-68698335D01*
X121053227Y-68730523D01*
X121063819Y-68765438D01*
X121068000Y-68807895D01*
X121068000Y-69949105D01*
X121063819Y-69991562D01*
X121053227Y-70026477D01*
X121036022Y-70058665D01*
X121012873Y-70086873D01*
X120984665Y-70110022D01*
X120952477Y-70127227D01*
X120917562Y-70137819D01*
X120875105Y-70142000D01*
X119408895Y-70142000D01*
X119366438Y-70137819D01*
X119331523Y-70127227D01*
X119299335Y-70110022D01*
X119271127Y-70086873D01*
X119247978Y-70058665D01*
X119230773Y-70026477D01*
X119220181Y-69991562D01*
X119216000Y-69949105D01*
X119216000Y-68807895D01*
X119220181Y-68765438D01*
X119230773Y-68730523D01*
X119247978Y-68698335D01*
X119271127Y-68670127D01*
X119299335Y-68646978D01*
X119331523Y-68629773D01*
X119366438Y-68619181D01*
X119408895Y-68615000D01*
X120875105Y-68615000D01*
X120917562Y-68619181D01*
X120917562Y-68619181D01*
G37*
G36*
X189763500Y-69701000D02*
X187761500Y-69701000D01*
X187761500Y-68799000D01*
X189763500Y-68799000D01*
X189763500Y-69701000D01*
X189763500Y-69701000D01*
G37*
G36*
X193773418Y-66882934D02*
X193805924Y-66892795D01*
X193835883Y-66908808D01*
X193862141Y-66930359D01*
X193883692Y-66956617D01*
X193899705Y-66986576D01*
X193909566Y-67019082D01*
X193913500Y-67059029D01*
X193913500Y-68600971D01*
X193909566Y-68640918D01*
X193899705Y-68673424D01*
X193883692Y-68703383D01*
X193862141Y-68729641D01*
X193835883Y-68751192D01*
X193805924Y-68767205D01*
X193773418Y-68777066D01*
X193733471Y-68781000D01*
X190391529Y-68781000D01*
X190351582Y-68777066D01*
X190319076Y-68767205D01*
X190289117Y-68751192D01*
X190262859Y-68729641D01*
X190241308Y-68703383D01*
X190225295Y-68673424D01*
X190215434Y-68640918D01*
X190211500Y-68600971D01*
X190211500Y-67059029D01*
X190215434Y-67019082D01*
X190225295Y-66986576D01*
X190241308Y-66956617D01*
X190262859Y-66930359D01*
X190289117Y-66908808D01*
X190319076Y-66892795D01*
X190351582Y-66882934D01*
X190391529Y-66879000D01*
X193733471Y-66879000D01*
X193773418Y-66882934D01*
X193773418Y-66882934D01*
G37*
G36*
X186763500Y-68751000D02*
X184761500Y-68751000D01*
X184761500Y-67849000D01*
X186763500Y-67849000D01*
X186763500Y-68751000D01*
X186763500Y-68751000D01*
G37*
G36*
X185388062Y-64328181D02*
X185422977Y-64338773D01*
X185455165Y-64355978D01*
X185483373Y-64379127D01*
X185506522Y-64407335D01*
X185523727Y-64439523D01*
X185534319Y-64474438D01*
X185538500Y-64516895D01*
X185538500Y-65983105D01*
X185534319Y-66025562D01*
X185523727Y-66060477D01*
X185506522Y-66092665D01*
X185483373Y-66120873D01*
X185455165Y-66144022D01*
X185422977Y-66161227D01*
X185388062Y-66171819D01*
X185345605Y-66176000D01*
X184204395Y-66176000D01*
X184161938Y-66171819D01*
X184127023Y-66161227D01*
X184094835Y-66144022D01*
X184066627Y-66120873D01*
X184043478Y-66092665D01*
X184026273Y-66060477D01*
X184015681Y-66025562D01*
X184011500Y-65983105D01*
X184011500Y-64516895D01*
X184015681Y-64474438D01*
X184026273Y-64439523D01*
X184043478Y-64407335D01*
X184066627Y-64379127D01*
X184094835Y-64355978D01*
X184127023Y-64338773D01*
X184161938Y-64328181D01*
X184204395Y-64324000D01*
X185345605Y-64324000D01*
X185388062Y-64328181D01*
X185388062Y-64328181D01*
G37*
G36*
X188363062Y-64328181D02*
X188397977Y-64338773D01*
X188430165Y-64355978D01*
X188458373Y-64379127D01*
X188481522Y-64407335D01*
X188498727Y-64439523D01*
X188509319Y-64474438D01*
X188513500Y-64516895D01*
X188513500Y-65983105D01*
X188509319Y-66025562D01*
X188498727Y-66060477D01*
X188481522Y-66092665D01*
X188458373Y-66120873D01*
X188430165Y-66144022D01*
X188397977Y-66161227D01*
X188363062Y-66171819D01*
X188320605Y-66176000D01*
X187179395Y-66176000D01*
X187136938Y-66171819D01*
X187102023Y-66161227D01*
X187069835Y-66144022D01*
X187041627Y-66120873D01*
X187018478Y-66092665D01*
X187001273Y-66060477D01*
X186990681Y-66025562D01*
X186986500Y-65983105D01*
X186986500Y-64516895D01*
X186990681Y-64474438D01*
X187001273Y-64439523D01*
X187018478Y-64407335D01*
X187041627Y-64379127D01*
X187069835Y-64355978D01*
X187102023Y-64338773D01*
X187136938Y-64328181D01*
X187179395Y-64324000D01*
X188320605Y-64324000D01*
X188363062Y-64328181D01*
X188363062Y-64328181D01*
G37*
G36*
X193148925Y-61812760D02*
X193148928Y-61812761D01*
X193148929Y-61812761D01*
X193328193Y-61867140D01*
X193328195Y-61867141D01*
X193493405Y-61955448D01*
X193638212Y-62074288D01*
X193757052Y-62219095D01*
X193845359Y-62384305D01*
X193899740Y-62563575D01*
X193918101Y-62750000D01*
X193899740Y-62936425D01*
X193845359Y-63115695D01*
X193757052Y-63280905D01*
X193638212Y-63425712D01*
X193493405Y-63544552D01*
X193403392Y-63592665D01*
X193328193Y-63632860D01*
X193148929Y-63687239D01*
X193148928Y-63687239D01*
X193148925Y-63687240D01*
X193009218Y-63701000D01*
X191115782Y-63701000D01*
X190976075Y-63687240D01*
X190976072Y-63687239D01*
X190976071Y-63687239D01*
X190796807Y-63632860D01*
X190721608Y-63592665D01*
X190631595Y-63544552D01*
X190486788Y-63425712D01*
X190367948Y-63280905D01*
X190279641Y-63115695D01*
X190225260Y-62936425D01*
X190206899Y-62750000D01*
X190225260Y-62563575D01*
X190279641Y-62384305D01*
X190367948Y-62219095D01*
X190486788Y-62074288D01*
X190631595Y-61955448D01*
X190796805Y-61867141D01*
X190796807Y-61867140D01*
X190976071Y-61812761D01*
X190976072Y-61812761D01*
X190976075Y-61812760D01*
X191115782Y-61799000D01*
X193009218Y-61799000D01*
X193148925Y-61812760D01*
X193148925Y-61812760D01*
G37*
G36*
X188363062Y-61828181D02*
X188397977Y-61838773D01*
X188430165Y-61855978D01*
X188458373Y-61879127D01*
X188481522Y-61907335D01*
X188498727Y-61939523D01*
X188509319Y-61974438D01*
X188513500Y-62016895D01*
X188513500Y-63483105D01*
X188509319Y-63525562D01*
X188498727Y-63560477D01*
X188481522Y-63592665D01*
X188458373Y-63620873D01*
X188430165Y-63644022D01*
X188397977Y-63661227D01*
X188363062Y-63671819D01*
X188320605Y-63676000D01*
X187179395Y-63676000D01*
X187136938Y-63671819D01*
X187102023Y-63661227D01*
X187069835Y-63644022D01*
X187041627Y-63620873D01*
X187018478Y-63592665D01*
X187001273Y-63560477D01*
X186990681Y-63525562D01*
X186986500Y-63483105D01*
X186986500Y-62016895D01*
X186990681Y-61974438D01*
X187001273Y-61939523D01*
X187018478Y-61907335D01*
X187041627Y-61879127D01*
X187069835Y-61855978D01*
X187102023Y-61838773D01*
X187136938Y-61828181D01*
X187179395Y-61824000D01*
X188320605Y-61824000D01*
X188363062Y-61828181D01*
X188363062Y-61828181D01*
G37*
G36*
X185388062Y-61828181D02*
X185422977Y-61838773D01*
X185455165Y-61855978D01*
X185483373Y-61879127D01*
X185506522Y-61907335D01*
X185523727Y-61939523D01*
X185534319Y-61974438D01*
X185538500Y-62016895D01*
X185538500Y-63483105D01*
X185534319Y-63525562D01*
X185523727Y-63560477D01*
X185506522Y-63592665D01*
X185483373Y-63620873D01*
X185455165Y-63644022D01*
X185422977Y-63661227D01*
X185388062Y-63671819D01*
X185345605Y-63676000D01*
X184204395Y-63676000D01*
X184161938Y-63671819D01*
X184127023Y-63661227D01*
X184094835Y-63644022D01*
X184066627Y-63620873D01*
X184043478Y-63592665D01*
X184026273Y-63560477D01*
X184015681Y-63525562D01*
X184011500Y-63483105D01*
X184011500Y-62016895D01*
X184015681Y-61974438D01*
X184026273Y-61939523D01*
X184043478Y-61907335D01*
X184066627Y-61879127D01*
X184094835Y-61855978D01*
X184127023Y-61838773D01*
X184161938Y-61828181D01*
X184204395Y-61824000D01*
X185345605Y-61824000D01*
X185388062Y-61828181D01*
X185388062Y-61828181D01*
G37*
G36*
X156750062Y-59784181D02*
X156784977Y-59794773D01*
X156817165Y-59811978D01*
X156845373Y-59835127D01*
X156868522Y-59863335D01*
X156885727Y-59895523D01*
X156896319Y-59930438D01*
X156900500Y-59972895D01*
X156900500Y-61439105D01*
X156896319Y-61481562D01*
X156885727Y-61516477D01*
X156868522Y-61548665D01*
X156845373Y-61576873D01*
X156817165Y-61600022D01*
X156784977Y-61617227D01*
X156750062Y-61627819D01*
X156707605Y-61632000D01*
X155566395Y-61632000D01*
X155523938Y-61627819D01*
X155489023Y-61617227D01*
X155456835Y-61600022D01*
X155428627Y-61576873D01*
X155405478Y-61548665D01*
X155388273Y-61516477D01*
X155377681Y-61481562D01*
X155373500Y-61439105D01*
X155373500Y-59972895D01*
X155377681Y-59930438D01*
X155388273Y-59895523D01*
X155405478Y-59863335D01*
X155428627Y-59835127D01*
X155456835Y-59811978D01*
X155489023Y-59794773D01*
X155523938Y-59784181D01*
X155566395Y-59780000D01*
X156707605Y-59780000D01*
X156750062Y-59784181D01*
X156750062Y-59784181D01*
G37*
G36*
X153775062Y-59784181D02*
X153809977Y-59794773D01*
X153842165Y-59811978D01*
X153870373Y-59835127D01*
X153893522Y-59863335D01*
X153910727Y-59895523D01*
X153921319Y-59930438D01*
X153925500Y-59972895D01*
X153925500Y-61439105D01*
X153921319Y-61481562D01*
X153910727Y-61516477D01*
X153893522Y-61548665D01*
X153870373Y-61576873D01*
X153842165Y-61600022D01*
X153809977Y-61617227D01*
X153775062Y-61627819D01*
X153732605Y-61632000D01*
X152591395Y-61632000D01*
X152548938Y-61627819D01*
X152514023Y-61617227D01*
X152481835Y-61600022D01*
X152453627Y-61576873D01*
X152430478Y-61548665D01*
X152413273Y-61516477D01*
X152402681Y-61481562D01*
X152398500Y-61439105D01*
X152398500Y-59972895D01*
X152402681Y-59930438D01*
X152413273Y-59895523D01*
X152430478Y-59863335D01*
X152453627Y-59835127D01*
X152481835Y-59811978D01*
X152514023Y-59794773D01*
X152548938Y-59784181D01*
X152591395Y-59780000D01*
X153732605Y-59780000D01*
X153775062Y-59784181D01*
X153775062Y-59784181D01*
G37*
G36*
X133106821Y-58921313D02*
X133106824Y-58921314D01*
X133106825Y-58921314D01*
X133267239Y-58969975D01*
X133267241Y-58969976D01*
X133267244Y-58969977D01*
X133415078Y-59048995D01*
X133544659Y-59155341D01*
X133651005Y-59284922D01*
X133730023Y-59432756D01*
X133778687Y-59593179D01*
X133795117Y-59760000D01*
X133778687Y-59926821D01*
X133778686Y-59926824D01*
X133778686Y-59926825D01*
X133741960Y-60047895D01*
X133730023Y-60087244D01*
X133651005Y-60235078D01*
X133544659Y-60364659D01*
X133415078Y-60471005D01*
X133267244Y-60550023D01*
X133267241Y-60550024D01*
X133267239Y-60550025D01*
X133106825Y-60598686D01*
X133106824Y-60598686D01*
X133106821Y-60598687D01*
X132981804Y-60611000D01*
X132898196Y-60611000D01*
X132773179Y-60598687D01*
X132773176Y-60598686D01*
X132773175Y-60598686D01*
X132612761Y-60550025D01*
X132612759Y-60550024D01*
X132612756Y-60550023D01*
X132464922Y-60471005D01*
X132335341Y-60364659D01*
X132228995Y-60235078D01*
X132149977Y-60087244D01*
X132138041Y-60047895D01*
X132101314Y-59926825D01*
X132101314Y-59926824D01*
X132101313Y-59926821D01*
X132084883Y-59760000D01*
X132101313Y-59593179D01*
X132149977Y-59432756D01*
X132228995Y-59284922D01*
X132335341Y-59155341D01*
X132464922Y-59048995D01*
X132612756Y-58969977D01*
X132612759Y-58969976D01*
X132612761Y-58969975D01*
X132773175Y-58921314D01*
X132773176Y-58921314D01*
X132773179Y-58921313D01*
X132898196Y-58909000D01*
X132981804Y-58909000D01*
X133106821Y-58921313D01*
X133106821Y-58921313D01*
G37*
G36*
X140726821Y-58921313D02*
X140726824Y-58921314D01*
X140726825Y-58921314D01*
X140887239Y-58969975D01*
X140887241Y-58969976D01*
X140887244Y-58969977D01*
X141035078Y-59048995D01*
X141164659Y-59155341D01*
X141271005Y-59284922D01*
X141350023Y-59432756D01*
X141398687Y-59593179D01*
X141415117Y-59760000D01*
X141398687Y-59926821D01*
X141398686Y-59926824D01*
X141398686Y-59926825D01*
X141361960Y-60047895D01*
X141350023Y-60087244D01*
X141271005Y-60235078D01*
X141164659Y-60364659D01*
X141035078Y-60471005D01*
X140887244Y-60550023D01*
X140887241Y-60550024D01*
X140887239Y-60550025D01*
X140726825Y-60598686D01*
X140726824Y-60598686D01*
X140726821Y-60598687D01*
X140601804Y-60611000D01*
X140518196Y-60611000D01*
X140393179Y-60598687D01*
X140393176Y-60598686D01*
X140393175Y-60598686D01*
X140232761Y-60550025D01*
X140232759Y-60550024D01*
X140232756Y-60550023D01*
X140084922Y-60471005D01*
X139955341Y-60364659D01*
X139848995Y-60235078D01*
X139769977Y-60087244D01*
X139758041Y-60047895D01*
X139721314Y-59926825D01*
X139721314Y-59926824D01*
X139721313Y-59926821D01*
X139704883Y-59760000D01*
X139721313Y-59593179D01*
X139769977Y-59432756D01*
X139848995Y-59284922D01*
X139955341Y-59155341D01*
X140084922Y-59048995D01*
X140232756Y-58969977D01*
X140232759Y-58969976D01*
X140232761Y-58969975D01*
X140393175Y-58921314D01*
X140393176Y-58921314D01*
X140393179Y-58921313D01*
X140518196Y-58909000D01*
X140601804Y-58909000D01*
X140726821Y-58921313D01*
X140726821Y-58921313D01*
G37*
G36*
X138186821Y-58921313D02*
X138186824Y-58921314D01*
X138186825Y-58921314D01*
X138347239Y-58969975D01*
X138347241Y-58969976D01*
X138347244Y-58969977D01*
X138495078Y-59048995D01*
X138624659Y-59155341D01*
X138731005Y-59284922D01*
X138810023Y-59432756D01*
X138858687Y-59593179D01*
X138875117Y-59760000D01*
X138858687Y-59926821D01*
X138858686Y-59926824D01*
X138858686Y-59926825D01*
X138821960Y-60047895D01*
X138810023Y-60087244D01*
X138731005Y-60235078D01*
X138624659Y-60364659D01*
X138495078Y-60471005D01*
X138347244Y-60550023D01*
X138347241Y-60550024D01*
X138347239Y-60550025D01*
X138186825Y-60598686D01*
X138186824Y-60598686D01*
X138186821Y-60598687D01*
X138061804Y-60611000D01*
X137978196Y-60611000D01*
X137853179Y-60598687D01*
X137853176Y-60598686D01*
X137853175Y-60598686D01*
X137692761Y-60550025D01*
X137692759Y-60550024D01*
X137692756Y-60550023D01*
X137544922Y-60471005D01*
X137415341Y-60364659D01*
X137308995Y-60235078D01*
X137229977Y-60087244D01*
X137218041Y-60047895D01*
X137181314Y-59926825D01*
X137181314Y-59926824D01*
X137181313Y-59926821D01*
X137164883Y-59760000D01*
X137181313Y-59593179D01*
X137229977Y-59432756D01*
X137308995Y-59284922D01*
X137415341Y-59155341D01*
X137544922Y-59048995D01*
X137692756Y-58969977D01*
X137692759Y-58969976D01*
X137692761Y-58969975D01*
X137853175Y-58921314D01*
X137853176Y-58921314D01*
X137853179Y-58921313D01*
X137978196Y-58909000D01*
X138061804Y-58909000D01*
X138186821Y-58921313D01*
X138186821Y-58921313D01*
G37*
G36*
X130566821Y-58921313D02*
X130566824Y-58921314D01*
X130566825Y-58921314D01*
X130727239Y-58969975D01*
X130727241Y-58969976D01*
X130727244Y-58969977D01*
X130875078Y-59048995D01*
X131004659Y-59155341D01*
X131111005Y-59284922D01*
X131190023Y-59432756D01*
X131238687Y-59593179D01*
X131255117Y-59760000D01*
X131238687Y-59926821D01*
X131238686Y-59926824D01*
X131238686Y-59926825D01*
X131201960Y-60047895D01*
X131190023Y-60087244D01*
X131111005Y-60235078D01*
X131004659Y-60364659D01*
X130875078Y-60471005D01*
X130727244Y-60550023D01*
X130727241Y-60550024D01*
X130727239Y-60550025D01*
X130566825Y-60598686D01*
X130566824Y-60598686D01*
X130566821Y-60598687D01*
X130441804Y-60611000D01*
X130358196Y-60611000D01*
X130233179Y-60598687D01*
X130233176Y-60598686D01*
X130233175Y-60598686D01*
X130072761Y-60550025D01*
X130072759Y-60550024D01*
X130072756Y-60550023D01*
X129924922Y-60471005D01*
X129795341Y-60364659D01*
X129688995Y-60235078D01*
X129609977Y-60087244D01*
X129598041Y-60047895D01*
X129561314Y-59926825D01*
X129561314Y-59926824D01*
X129561313Y-59926821D01*
X129544883Y-59760000D01*
X129561313Y-59593179D01*
X129609977Y-59432756D01*
X129688995Y-59284922D01*
X129795341Y-59155341D01*
X129924922Y-59048995D01*
X130072756Y-58969977D01*
X130072759Y-58969976D01*
X130072761Y-58969975D01*
X130233175Y-58921314D01*
X130233176Y-58921314D01*
X130233179Y-58921313D01*
X130358196Y-58909000D01*
X130441804Y-58909000D01*
X130566821Y-58921313D01*
X130566821Y-58921313D01*
G37*
G36*
X105166821Y-58921313D02*
X105166824Y-58921314D01*
X105166825Y-58921314D01*
X105327239Y-58969975D01*
X105327241Y-58969976D01*
X105327244Y-58969977D01*
X105475078Y-59048995D01*
X105604659Y-59155341D01*
X105711005Y-59284922D01*
X105790023Y-59432756D01*
X105838687Y-59593179D01*
X105855117Y-59760000D01*
X105838687Y-59926821D01*
X105838686Y-59926824D01*
X105838686Y-59926825D01*
X105801960Y-60047895D01*
X105790023Y-60087244D01*
X105711005Y-60235078D01*
X105604659Y-60364659D01*
X105475078Y-60471005D01*
X105327244Y-60550023D01*
X105327241Y-60550024D01*
X105327239Y-60550025D01*
X105166825Y-60598686D01*
X105166824Y-60598686D01*
X105166821Y-60598687D01*
X105041804Y-60611000D01*
X104958196Y-60611000D01*
X104833179Y-60598687D01*
X104833176Y-60598686D01*
X104833175Y-60598686D01*
X104672761Y-60550025D01*
X104672759Y-60550024D01*
X104672756Y-60550023D01*
X104524922Y-60471005D01*
X104395341Y-60364659D01*
X104288995Y-60235078D01*
X104209977Y-60087244D01*
X104198041Y-60047895D01*
X104161314Y-59926825D01*
X104161314Y-59926824D01*
X104161313Y-59926821D01*
X104144883Y-59760000D01*
X104161313Y-59593179D01*
X104209977Y-59432756D01*
X104288995Y-59284922D01*
X104395341Y-59155341D01*
X104524922Y-59048995D01*
X104672756Y-58969977D01*
X104672759Y-58969976D01*
X104672761Y-58969975D01*
X104833175Y-58921314D01*
X104833176Y-58921314D01*
X104833179Y-58921313D01*
X104958196Y-58909000D01*
X105041804Y-58909000D01*
X105166821Y-58921313D01*
X105166821Y-58921313D01*
G37*
G36*
X107706821Y-58921313D02*
X107706824Y-58921314D01*
X107706825Y-58921314D01*
X107867239Y-58969975D01*
X107867241Y-58969976D01*
X107867244Y-58969977D01*
X108015078Y-59048995D01*
X108144659Y-59155341D01*
X108251005Y-59284922D01*
X108330023Y-59432756D01*
X108378687Y-59593179D01*
X108395117Y-59760000D01*
X108378687Y-59926821D01*
X108378686Y-59926824D01*
X108378686Y-59926825D01*
X108341960Y-60047895D01*
X108330023Y-60087244D01*
X108251005Y-60235078D01*
X108144659Y-60364659D01*
X108015078Y-60471005D01*
X107867244Y-60550023D01*
X107867241Y-60550024D01*
X107867239Y-60550025D01*
X107706825Y-60598686D01*
X107706824Y-60598686D01*
X107706821Y-60598687D01*
X107581804Y-60611000D01*
X107498196Y-60611000D01*
X107373179Y-60598687D01*
X107373176Y-60598686D01*
X107373175Y-60598686D01*
X107212761Y-60550025D01*
X107212759Y-60550024D01*
X107212756Y-60550023D01*
X107064922Y-60471005D01*
X106935341Y-60364659D01*
X106828995Y-60235078D01*
X106749977Y-60087244D01*
X106738041Y-60047895D01*
X106701314Y-59926825D01*
X106701314Y-59926824D01*
X106701313Y-59926821D01*
X106684883Y-59760000D01*
X106701313Y-59593179D01*
X106749977Y-59432756D01*
X106828995Y-59284922D01*
X106935341Y-59155341D01*
X107064922Y-59048995D01*
X107212756Y-58969977D01*
X107212759Y-58969976D01*
X107212761Y-58969975D01*
X107373175Y-58921314D01*
X107373176Y-58921314D01*
X107373179Y-58921313D01*
X107498196Y-58909000D01*
X107581804Y-58909000D01*
X107706821Y-58921313D01*
X107706821Y-58921313D01*
G37*
G36*
X110246821Y-58921313D02*
X110246824Y-58921314D01*
X110246825Y-58921314D01*
X110407239Y-58969975D01*
X110407241Y-58969976D01*
X110407244Y-58969977D01*
X110555078Y-59048995D01*
X110684659Y-59155341D01*
X110791005Y-59284922D01*
X110870023Y-59432756D01*
X110918687Y-59593179D01*
X110935117Y-59760000D01*
X110918687Y-59926821D01*
X110918686Y-59926824D01*
X110918686Y-59926825D01*
X110881960Y-60047895D01*
X110870023Y-60087244D01*
X110791005Y-60235078D01*
X110684659Y-60364659D01*
X110555078Y-60471005D01*
X110407244Y-60550023D01*
X110407241Y-60550024D01*
X110407239Y-60550025D01*
X110246825Y-60598686D01*
X110246824Y-60598686D01*
X110246821Y-60598687D01*
X110121804Y-60611000D01*
X110038196Y-60611000D01*
X109913179Y-60598687D01*
X109913176Y-60598686D01*
X109913175Y-60598686D01*
X109752761Y-60550025D01*
X109752759Y-60550024D01*
X109752756Y-60550023D01*
X109604922Y-60471005D01*
X109475341Y-60364659D01*
X109368995Y-60235078D01*
X109289977Y-60087244D01*
X109278041Y-60047895D01*
X109241314Y-59926825D01*
X109241314Y-59926824D01*
X109241313Y-59926821D01*
X109224883Y-59760000D01*
X109241313Y-59593179D01*
X109289977Y-59432756D01*
X109368995Y-59284922D01*
X109475341Y-59155341D01*
X109604922Y-59048995D01*
X109752756Y-58969977D01*
X109752759Y-58969976D01*
X109752761Y-58969975D01*
X109913175Y-58921314D01*
X109913176Y-58921314D01*
X109913179Y-58921313D01*
X110038196Y-58909000D01*
X110121804Y-58909000D01*
X110246821Y-58921313D01*
X110246821Y-58921313D01*
G37*
G36*
X115326821Y-58921313D02*
X115326824Y-58921314D01*
X115326825Y-58921314D01*
X115487239Y-58969975D01*
X115487241Y-58969976D01*
X115487244Y-58969977D01*
X115635078Y-59048995D01*
X115764659Y-59155341D01*
X115871005Y-59284922D01*
X115950023Y-59432756D01*
X115998687Y-59593179D01*
X116015117Y-59760000D01*
X115998687Y-59926821D01*
X115998686Y-59926824D01*
X115998686Y-59926825D01*
X115961960Y-60047895D01*
X115950023Y-60087244D01*
X115871005Y-60235078D01*
X115764659Y-60364659D01*
X115635078Y-60471005D01*
X115487244Y-60550023D01*
X115487241Y-60550024D01*
X115487239Y-60550025D01*
X115326825Y-60598686D01*
X115326824Y-60598686D01*
X115326821Y-60598687D01*
X115201804Y-60611000D01*
X115118196Y-60611000D01*
X114993179Y-60598687D01*
X114993176Y-60598686D01*
X114993175Y-60598686D01*
X114832761Y-60550025D01*
X114832759Y-60550024D01*
X114832756Y-60550023D01*
X114684922Y-60471005D01*
X114555341Y-60364659D01*
X114448995Y-60235078D01*
X114369977Y-60087244D01*
X114358041Y-60047895D01*
X114321314Y-59926825D01*
X114321314Y-59926824D01*
X114321313Y-59926821D01*
X114304883Y-59760000D01*
X114321313Y-59593179D01*
X114369977Y-59432756D01*
X114448995Y-59284922D01*
X114555341Y-59155341D01*
X114684922Y-59048995D01*
X114832756Y-58969977D01*
X114832759Y-58969976D01*
X114832761Y-58969975D01*
X114993175Y-58921314D01*
X114993176Y-58921314D01*
X114993179Y-58921313D01*
X115118196Y-58909000D01*
X115201804Y-58909000D01*
X115326821Y-58921313D01*
X115326821Y-58921313D01*
G37*
G36*
X117866821Y-58921313D02*
X117866824Y-58921314D01*
X117866825Y-58921314D01*
X118027239Y-58969975D01*
X118027241Y-58969976D01*
X118027244Y-58969977D01*
X118175078Y-59048995D01*
X118304659Y-59155341D01*
X118411005Y-59284922D01*
X118490023Y-59432756D01*
X118538687Y-59593179D01*
X118555117Y-59760000D01*
X118538687Y-59926821D01*
X118538686Y-59926824D01*
X118538686Y-59926825D01*
X118501960Y-60047895D01*
X118490023Y-60087244D01*
X118411005Y-60235078D01*
X118304659Y-60364659D01*
X118175078Y-60471005D01*
X118027244Y-60550023D01*
X118027241Y-60550024D01*
X118027239Y-60550025D01*
X117866825Y-60598686D01*
X117866824Y-60598686D01*
X117866821Y-60598687D01*
X117741804Y-60611000D01*
X117658196Y-60611000D01*
X117533179Y-60598687D01*
X117533176Y-60598686D01*
X117533175Y-60598686D01*
X117372761Y-60550025D01*
X117372759Y-60550024D01*
X117372756Y-60550023D01*
X117224922Y-60471005D01*
X117095341Y-60364659D01*
X116988995Y-60235078D01*
X116909977Y-60087244D01*
X116898041Y-60047895D01*
X116861314Y-59926825D01*
X116861314Y-59926824D01*
X116861313Y-59926821D01*
X116844883Y-59760000D01*
X116861313Y-59593179D01*
X116909977Y-59432756D01*
X116988995Y-59284922D01*
X117095341Y-59155341D01*
X117224922Y-59048995D01*
X117372756Y-58969977D01*
X117372759Y-58969976D01*
X117372761Y-58969975D01*
X117533175Y-58921314D01*
X117533176Y-58921314D01*
X117533179Y-58921313D01*
X117658196Y-58909000D01*
X117741804Y-58909000D01*
X117866821Y-58921313D01*
X117866821Y-58921313D01*
G37*
G36*
X120406821Y-58921313D02*
X120406824Y-58921314D01*
X120406825Y-58921314D01*
X120567239Y-58969975D01*
X120567241Y-58969976D01*
X120567244Y-58969977D01*
X120715078Y-59048995D01*
X120844659Y-59155341D01*
X120951005Y-59284922D01*
X121030023Y-59432756D01*
X121078687Y-59593179D01*
X121095117Y-59760000D01*
X121078687Y-59926821D01*
X121078686Y-59926824D01*
X121078686Y-59926825D01*
X121041960Y-60047895D01*
X121030023Y-60087244D01*
X120951005Y-60235078D01*
X120844659Y-60364659D01*
X120715078Y-60471005D01*
X120567244Y-60550023D01*
X120567241Y-60550024D01*
X120567239Y-60550025D01*
X120406825Y-60598686D01*
X120406824Y-60598686D01*
X120406821Y-60598687D01*
X120281804Y-60611000D01*
X120198196Y-60611000D01*
X120073179Y-60598687D01*
X120073176Y-60598686D01*
X120073175Y-60598686D01*
X119912761Y-60550025D01*
X119912759Y-60550024D01*
X119912756Y-60550023D01*
X119764922Y-60471005D01*
X119635341Y-60364659D01*
X119528995Y-60235078D01*
X119449977Y-60087244D01*
X119438041Y-60047895D01*
X119401314Y-59926825D01*
X119401314Y-59926824D01*
X119401313Y-59926821D01*
X119384883Y-59760000D01*
X119401313Y-59593179D01*
X119449977Y-59432756D01*
X119528995Y-59284922D01*
X119635341Y-59155341D01*
X119764922Y-59048995D01*
X119912756Y-58969977D01*
X119912759Y-58969976D01*
X119912761Y-58969975D01*
X120073175Y-58921314D01*
X120073176Y-58921314D01*
X120073179Y-58921313D01*
X120198196Y-58909000D01*
X120281804Y-58909000D01*
X120406821Y-58921313D01*
X120406821Y-58921313D01*
G37*
G36*
X122946821Y-58921313D02*
X122946824Y-58921314D01*
X122946825Y-58921314D01*
X123107239Y-58969975D01*
X123107241Y-58969976D01*
X123107244Y-58969977D01*
X123255078Y-59048995D01*
X123384659Y-59155341D01*
X123491005Y-59284922D01*
X123570023Y-59432756D01*
X123618687Y-59593179D01*
X123635117Y-59760000D01*
X123618687Y-59926821D01*
X123618686Y-59926824D01*
X123618686Y-59926825D01*
X123581960Y-60047895D01*
X123570023Y-60087244D01*
X123491005Y-60235078D01*
X123384659Y-60364659D01*
X123255078Y-60471005D01*
X123107244Y-60550023D01*
X123107241Y-60550024D01*
X123107239Y-60550025D01*
X122946825Y-60598686D01*
X122946824Y-60598686D01*
X122946821Y-60598687D01*
X122821804Y-60611000D01*
X122738196Y-60611000D01*
X122613179Y-60598687D01*
X122613176Y-60598686D01*
X122613175Y-60598686D01*
X122452761Y-60550025D01*
X122452759Y-60550024D01*
X122452756Y-60550023D01*
X122304922Y-60471005D01*
X122175341Y-60364659D01*
X122068995Y-60235078D01*
X121989977Y-60087244D01*
X121978041Y-60047895D01*
X121941314Y-59926825D01*
X121941314Y-59926824D01*
X121941313Y-59926821D01*
X121924883Y-59760000D01*
X121941313Y-59593179D01*
X121989977Y-59432756D01*
X122068995Y-59284922D01*
X122175341Y-59155341D01*
X122304922Y-59048995D01*
X122452756Y-58969977D01*
X122452759Y-58969976D01*
X122452761Y-58969975D01*
X122613175Y-58921314D01*
X122613176Y-58921314D01*
X122613179Y-58921313D01*
X122738196Y-58909000D01*
X122821804Y-58909000D01*
X122946821Y-58921313D01*
X122946821Y-58921313D01*
G37*
G36*
X128026821Y-58921313D02*
X128026824Y-58921314D01*
X128026825Y-58921314D01*
X128187239Y-58969975D01*
X128187241Y-58969976D01*
X128187244Y-58969977D01*
X128335078Y-59048995D01*
X128464659Y-59155341D01*
X128571005Y-59284922D01*
X128650023Y-59432756D01*
X128698687Y-59593179D01*
X128715117Y-59760000D01*
X128698687Y-59926821D01*
X128698686Y-59926824D01*
X128698686Y-59926825D01*
X128661960Y-60047895D01*
X128650023Y-60087244D01*
X128571005Y-60235078D01*
X128464659Y-60364659D01*
X128335078Y-60471005D01*
X128187244Y-60550023D01*
X128187241Y-60550024D01*
X128187239Y-60550025D01*
X128026825Y-60598686D01*
X128026824Y-60598686D01*
X128026821Y-60598687D01*
X127901804Y-60611000D01*
X127818196Y-60611000D01*
X127693179Y-60598687D01*
X127693176Y-60598686D01*
X127693175Y-60598686D01*
X127532761Y-60550025D01*
X127532759Y-60550024D01*
X127532756Y-60550023D01*
X127384922Y-60471005D01*
X127255341Y-60364659D01*
X127148995Y-60235078D01*
X127069977Y-60087244D01*
X127058041Y-60047895D01*
X127021314Y-59926825D01*
X127021314Y-59926824D01*
X127021313Y-59926821D01*
X127004883Y-59760000D01*
X127021313Y-59593179D01*
X127069977Y-59432756D01*
X127148995Y-59284922D01*
X127255341Y-59155341D01*
X127384922Y-59048995D01*
X127532756Y-58969977D01*
X127532759Y-58969976D01*
X127532761Y-58969975D01*
X127693175Y-58921314D01*
X127693176Y-58921314D01*
X127693179Y-58921313D01*
X127818196Y-58909000D01*
X127901804Y-58909000D01*
X128026821Y-58921313D01*
X128026821Y-58921313D01*
G37*
G36*
X125486821Y-58921313D02*
X125486824Y-58921314D01*
X125486825Y-58921314D01*
X125647239Y-58969975D01*
X125647241Y-58969976D01*
X125647244Y-58969977D01*
X125795078Y-59048995D01*
X125924659Y-59155341D01*
X126031005Y-59284922D01*
X126110023Y-59432756D01*
X126158687Y-59593179D01*
X126175117Y-59760000D01*
X126158687Y-59926821D01*
X126158686Y-59926824D01*
X126158686Y-59926825D01*
X126121960Y-60047895D01*
X126110023Y-60087244D01*
X126031005Y-60235078D01*
X125924659Y-60364659D01*
X125795078Y-60471005D01*
X125647244Y-60550023D01*
X125647241Y-60550024D01*
X125647239Y-60550025D01*
X125486825Y-60598686D01*
X125486824Y-60598686D01*
X125486821Y-60598687D01*
X125361804Y-60611000D01*
X125278196Y-60611000D01*
X125153179Y-60598687D01*
X125153176Y-60598686D01*
X125153175Y-60598686D01*
X124992761Y-60550025D01*
X124992759Y-60550024D01*
X124992756Y-60550023D01*
X124844922Y-60471005D01*
X124715341Y-60364659D01*
X124608995Y-60235078D01*
X124529977Y-60087244D01*
X124518041Y-60047895D01*
X124481314Y-59926825D01*
X124481314Y-59926824D01*
X124481313Y-59926821D01*
X124464883Y-59760000D01*
X124481313Y-59593179D01*
X124529977Y-59432756D01*
X124608995Y-59284922D01*
X124715341Y-59155341D01*
X124844922Y-59048995D01*
X124992756Y-58969977D01*
X124992759Y-58969976D01*
X124992761Y-58969975D01*
X125153175Y-58921314D01*
X125153176Y-58921314D01*
X125153179Y-58921313D01*
X125278196Y-58909000D01*
X125361804Y-58909000D01*
X125486821Y-58921313D01*
X125486821Y-58921313D01*
G37*
G36*
X135646821Y-58921313D02*
X135646824Y-58921314D01*
X135646825Y-58921314D01*
X135807239Y-58969975D01*
X135807241Y-58969976D01*
X135807244Y-58969977D01*
X135955078Y-59048995D01*
X136084659Y-59155341D01*
X136191005Y-59284922D01*
X136270023Y-59432756D01*
X136318687Y-59593179D01*
X136335117Y-59760000D01*
X136318687Y-59926821D01*
X136318686Y-59926824D01*
X136318686Y-59926825D01*
X136281960Y-60047895D01*
X136270023Y-60087244D01*
X136191005Y-60235078D01*
X136084659Y-60364659D01*
X135955078Y-60471005D01*
X135807244Y-60550023D01*
X135807241Y-60550024D01*
X135807239Y-60550025D01*
X135646825Y-60598686D01*
X135646824Y-60598686D01*
X135646821Y-60598687D01*
X135521804Y-60611000D01*
X135438196Y-60611000D01*
X135313179Y-60598687D01*
X135313176Y-60598686D01*
X135313175Y-60598686D01*
X135152761Y-60550025D01*
X135152759Y-60550024D01*
X135152756Y-60550023D01*
X135004922Y-60471005D01*
X134875341Y-60364659D01*
X134768995Y-60235078D01*
X134689977Y-60087244D01*
X134678041Y-60047895D01*
X134641314Y-59926825D01*
X134641314Y-59926824D01*
X134641313Y-59926821D01*
X134624883Y-59760000D01*
X134641313Y-59593179D01*
X134689977Y-59432756D01*
X134768995Y-59284922D01*
X134875341Y-59155341D01*
X135004922Y-59048995D01*
X135152756Y-58969977D01*
X135152759Y-58969976D01*
X135152761Y-58969975D01*
X135313175Y-58921314D01*
X135313176Y-58921314D01*
X135313179Y-58921313D01*
X135438196Y-58909000D01*
X135521804Y-58909000D01*
X135646821Y-58921313D01*
X135646821Y-58921313D01*
G37*
G36*
X112786821Y-58921313D02*
X112786824Y-58921314D01*
X112786825Y-58921314D01*
X112947239Y-58969975D01*
X112947241Y-58969976D01*
X112947244Y-58969977D01*
X113095078Y-59048995D01*
X113224659Y-59155341D01*
X113331005Y-59284922D01*
X113410023Y-59432756D01*
X113458687Y-59593179D01*
X113475117Y-59760000D01*
X113458687Y-59926821D01*
X113458686Y-59926824D01*
X113458686Y-59926825D01*
X113421960Y-60047895D01*
X113410023Y-60087244D01*
X113331005Y-60235078D01*
X113224659Y-60364659D01*
X113095078Y-60471005D01*
X112947244Y-60550023D01*
X112947241Y-60550024D01*
X112947239Y-60550025D01*
X112786825Y-60598686D01*
X112786824Y-60598686D01*
X112786821Y-60598687D01*
X112661804Y-60611000D01*
X112578196Y-60611000D01*
X112453179Y-60598687D01*
X112453176Y-60598686D01*
X112453175Y-60598686D01*
X112292761Y-60550025D01*
X112292759Y-60550024D01*
X112292756Y-60550023D01*
X112144922Y-60471005D01*
X112015341Y-60364659D01*
X111908995Y-60235078D01*
X111829977Y-60087244D01*
X111818041Y-60047895D01*
X111781314Y-59926825D01*
X111781314Y-59926824D01*
X111781313Y-59926821D01*
X111764883Y-59760000D01*
X111781313Y-59593179D01*
X111829977Y-59432756D01*
X111908995Y-59284922D01*
X112015341Y-59155341D01*
X112144922Y-59048995D01*
X112292756Y-58969977D01*
X112292759Y-58969976D01*
X112292761Y-58969975D01*
X112453175Y-58921314D01*
X112453176Y-58921314D01*
X112453179Y-58921313D01*
X112578196Y-58909000D01*
X112661804Y-58909000D01*
X112786821Y-58921313D01*
X112786821Y-58921313D01*
G37*
G36*
X166596565Y-56901389D02*
X166787834Y-56980615D01*
X166959976Y-57095637D01*
X167106363Y-57242024D01*
X167221385Y-57414166D01*
X167300611Y-57605435D01*
X167341000Y-57808484D01*
X167341000Y-58015516D01*
X167300611Y-58218565D01*
X167221385Y-58409834D01*
X167106363Y-58581976D01*
X166959976Y-58728363D01*
X166787834Y-58843385D01*
X166596565Y-58922611D01*
X166393516Y-58963000D01*
X166186484Y-58963000D01*
X165983435Y-58922611D01*
X165792166Y-58843385D01*
X165620024Y-58728363D01*
X165473637Y-58581976D01*
X165358615Y-58409834D01*
X165279389Y-58218565D01*
X165239000Y-58015516D01*
X165239000Y-57808484D01*
X165279389Y-57605435D01*
X165358615Y-57414166D01*
X165473637Y-57242024D01*
X165620024Y-57095637D01*
X165792166Y-56980615D01*
X165983435Y-56901389D01*
X166186484Y-56861000D01*
X166393516Y-56861000D01*
X166596565Y-56901389D01*
X166596565Y-56901389D01*
G37*
G36*
X162341000Y-58963000D02*
X160239000Y-58963000D01*
X160239000Y-56861000D01*
X162341000Y-56861000D01*
X162341000Y-58963000D01*
X162341000Y-58963000D01*
G37*
G36*
X154441000Y-58297000D02*
X153439000Y-58297000D01*
X153439000Y-57395000D01*
X154441000Y-57395000D01*
X154441000Y-58297000D01*
X154441000Y-58297000D01*
G37*
G36*
X105889941Y-52066248D02*
X105889943Y-52066249D01*
X105889944Y-52066249D01*
X106445190Y-52296239D01*
X106445191Y-52296240D01*
X106944902Y-52630136D01*
X107369864Y-53055098D01*
X107369866Y-53055101D01*
X107703761Y-53554810D01*
X107933751Y-54110056D01*
X107933752Y-54110059D01*
X108051000Y-54699501D01*
X108051000Y-55300499D01*
X107938076Y-55868204D01*
X107933751Y-55889944D01*
X107703761Y-56445190D01*
X107414242Y-56878486D01*
X107369864Y-56944902D01*
X106944902Y-57369864D01*
X106944899Y-57369866D01*
X106445190Y-57703761D01*
X105889944Y-57933751D01*
X105889943Y-57933751D01*
X105889941Y-57933752D01*
X105300499Y-58051000D01*
X104699501Y-58051000D01*
X104110059Y-57933752D01*
X104110057Y-57933751D01*
X104110056Y-57933751D01*
X103554810Y-57703761D01*
X103055101Y-57369866D01*
X103055098Y-57369864D01*
X102630136Y-56944902D01*
X102585758Y-56878486D01*
X102296239Y-56445190D01*
X102066249Y-55889944D01*
X102061925Y-55868204D01*
X101949000Y-55300499D01*
X101949000Y-54699501D01*
X102066248Y-54110059D01*
X102066249Y-54110056D01*
X102296239Y-53554810D01*
X102630134Y-53055101D01*
X102630136Y-53055098D01*
X103055098Y-52630136D01*
X103554809Y-52296240D01*
X103554810Y-52296239D01*
X104110056Y-52066249D01*
X104110057Y-52066249D01*
X104110059Y-52066248D01*
X104699501Y-51949000D01*
X105300499Y-51949000D01*
X105889941Y-52066248D01*
X105889941Y-52066248D01*
G37*
G36*
X195889941Y-52066248D02*
X195889943Y-52066249D01*
X195889944Y-52066249D01*
X196445190Y-52296239D01*
X196445191Y-52296240D01*
X196944902Y-52630136D01*
X197369864Y-53055098D01*
X197369866Y-53055101D01*
X197703761Y-53554810D01*
X197933751Y-54110056D01*
X197933752Y-54110059D01*
X198051000Y-54699501D01*
X198051000Y-55300499D01*
X197938076Y-55868204D01*
X197933751Y-55889944D01*
X197703761Y-56445190D01*
X197414242Y-56878486D01*
X197369864Y-56944902D01*
X196944902Y-57369864D01*
X196944899Y-57369866D01*
X196445190Y-57703761D01*
X195889944Y-57933751D01*
X195889943Y-57933751D01*
X195889941Y-57933752D01*
X195300499Y-58051000D01*
X194699501Y-58051000D01*
X194110059Y-57933752D01*
X194110057Y-57933751D01*
X194110056Y-57933751D01*
X193554810Y-57703761D01*
X193055101Y-57369866D01*
X193055098Y-57369864D01*
X192630136Y-56944902D01*
X192585758Y-56878486D01*
X192296239Y-56445190D01*
X192066249Y-55889944D01*
X192061925Y-55868204D01*
X191949000Y-55300499D01*
X191949000Y-54699501D01*
X192066248Y-54110059D01*
X192066249Y-54110056D01*
X192296239Y-53554810D01*
X192630134Y-53055101D01*
X192630136Y-53055098D01*
X193055098Y-52630136D01*
X193554809Y-52296240D01*
X193554810Y-52296239D01*
X194110056Y-52066249D01*
X194110057Y-52066249D01*
X194110059Y-52066248D01*
X194699501Y-51949000D01*
X195300499Y-51949000D01*
X195889941Y-52066248D01*
X195889941Y-52066248D01*
G37*
G36*
X138558999Y-55841737D02*
X138568611Y-55844653D01*
X138577469Y-55849388D01*
X138585237Y-55855763D01*
X138595446Y-55868202D01*
X138602372Y-55878568D01*
X138619698Y-55895895D01*
X138640073Y-55909510D01*
X138662711Y-55918888D01*
X138686745Y-55923669D01*
X138711249Y-55923669D01*
X138735283Y-55918889D01*
X138757922Y-55909513D01*
X138778297Y-55895899D01*
X138795624Y-55878573D01*
X138802552Y-55868204D01*
X138812763Y-55855763D01*
X138820531Y-55849388D01*
X138829389Y-55844653D01*
X138839001Y-55841737D01*
X138855140Y-55840148D01*
X139342860Y-55840148D01*
X139361198Y-55841954D01*
X139373450Y-55842556D01*
X139391869Y-55842556D01*
X139414149Y-55844750D01*
X139498236Y-55861476D01*
X139519655Y-55867974D01*
X139598871Y-55900785D01*
X139618607Y-55911335D01*
X139689897Y-55958969D01*
X139707208Y-55973176D01*
X139767824Y-56033792D01*
X139782031Y-56051103D01*
X139829665Y-56122393D01*
X139840215Y-56142129D01*
X139873026Y-56221345D01*
X139879524Y-56242764D01*
X139896250Y-56326851D01*
X139898444Y-56349131D01*
X139898444Y-56367550D01*
X139899046Y-56379802D01*
X139900852Y-56398140D01*
X139900852Y-56885861D01*
X139899046Y-56904198D01*
X139898444Y-56916450D01*
X139898444Y-56934869D01*
X139896250Y-56957149D01*
X139879524Y-57041236D01*
X139873026Y-57062655D01*
X139840215Y-57141871D01*
X139829665Y-57161607D01*
X139782031Y-57232897D01*
X139767824Y-57250208D01*
X139707208Y-57310824D01*
X139689897Y-57325031D01*
X139618607Y-57372665D01*
X139598871Y-57383215D01*
X139519655Y-57416026D01*
X139498236Y-57422524D01*
X139414149Y-57439250D01*
X139391869Y-57441444D01*
X139373450Y-57441444D01*
X139361198Y-57442046D01*
X139342861Y-57443852D01*
X138855140Y-57443852D01*
X138839001Y-57442263D01*
X138829389Y-57439347D01*
X138820531Y-57434612D01*
X138812763Y-57428237D01*
X138802554Y-57415798D01*
X138795628Y-57405432D01*
X138778302Y-57388105D01*
X138757927Y-57374490D01*
X138735289Y-57365112D01*
X138711255Y-57360331D01*
X138686751Y-57360331D01*
X138662717Y-57365111D01*
X138640078Y-57374487D01*
X138619703Y-57388101D01*
X138602376Y-57405427D01*
X138595448Y-57415796D01*
X138585237Y-57428237D01*
X138577469Y-57434612D01*
X138568611Y-57439347D01*
X138558999Y-57442263D01*
X138542860Y-57443852D01*
X138055139Y-57443852D01*
X138036802Y-57442046D01*
X138024550Y-57441444D01*
X138006131Y-57441444D01*
X137983851Y-57439250D01*
X137899764Y-57422524D01*
X137878345Y-57416026D01*
X137799129Y-57383215D01*
X137779393Y-57372665D01*
X137708103Y-57325031D01*
X137690792Y-57310824D01*
X137630176Y-57250208D01*
X137615969Y-57232897D01*
X137568335Y-57161607D01*
X137557785Y-57141871D01*
X137524974Y-57062655D01*
X137518476Y-57041236D01*
X137501750Y-56957149D01*
X137499556Y-56934869D01*
X137499556Y-56916450D01*
X137498954Y-56904198D01*
X137497148Y-56885861D01*
X137497148Y-56398140D01*
X137498954Y-56379802D01*
X137499556Y-56367550D01*
X137499556Y-56349131D01*
X137501750Y-56326851D01*
X137518476Y-56242764D01*
X137524974Y-56221345D01*
X137557785Y-56142129D01*
X137568335Y-56122393D01*
X137615969Y-56051103D01*
X137630176Y-56033792D01*
X137690792Y-55973176D01*
X137708103Y-55958969D01*
X137779393Y-55911335D01*
X137799129Y-55900785D01*
X137878345Y-55867974D01*
X137899764Y-55861476D01*
X137983851Y-55844750D01*
X138006131Y-55842556D01*
X138024550Y-55842556D01*
X138036802Y-55841954D01*
X138055140Y-55840148D01*
X138542860Y-55840148D01*
X138558999Y-55841737D01*
X138558999Y-55841737D01*
G37*
G36*
X156441000Y-57347000D02*
X155439000Y-57347000D01*
X155439000Y-56445000D01*
X156441000Y-56445000D01*
X156441000Y-57347000D01*
X156441000Y-57347000D01*
G37*
G36*
X154441000Y-56397000D02*
X153439000Y-56397000D01*
X153439000Y-55495000D01*
X154441000Y-55495000D01*
X154441000Y-56397000D01*
X154441000Y-56397000D01*
G37*
G36*
X156823062Y-52672181D02*
X156857977Y-52682773D01*
X156890165Y-52699978D01*
X156918373Y-52723127D01*
X156941522Y-52751335D01*
X156958727Y-52783523D01*
X156969319Y-52818438D01*
X156973500Y-52860895D01*
X156973500Y-54327105D01*
X156969319Y-54369562D01*
X156958727Y-54404477D01*
X156941522Y-54436665D01*
X156918373Y-54464873D01*
X156890165Y-54488022D01*
X156857977Y-54505227D01*
X156823062Y-54515819D01*
X156780605Y-54520000D01*
X155639395Y-54520000D01*
X155596938Y-54515819D01*
X155562023Y-54505227D01*
X155529835Y-54488022D01*
X155501627Y-54464873D01*
X155478478Y-54436665D01*
X155461273Y-54404477D01*
X155450681Y-54369562D01*
X155446500Y-54327105D01*
X155446500Y-52860895D01*
X155450681Y-52818438D01*
X155461273Y-52783523D01*
X155478478Y-52751335D01*
X155501627Y-52723127D01*
X155529835Y-52699978D01*
X155562023Y-52682773D01*
X155596938Y-52672181D01*
X155639395Y-52668000D01*
X156780605Y-52668000D01*
X156823062Y-52672181D01*
X156823062Y-52672181D01*
G37*
G36*
X153848062Y-52672181D02*
X153882977Y-52682773D01*
X153915165Y-52699978D01*
X153943373Y-52723127D01*
X153966522Y-52751335D01*
X153983727Y-52783523D01*
X153994319Y-52818438D01*
X153998500Y-52860895D01*
X153998500Y-54327105D01*
X153994319Y-54369562D01*
X153983727Y-54404477D01*
X153966522Y-54436665D01*
X153943373Y-54464873D01*
X153915165Y-54488022D01*
X153882977Y-54505227D01*
X153848062Y-54515819D01*
X153805605Y-54520000D01*
X152664395Y-54520000D01*
X152621938Y-54515819D01*
X152587023Y-54505227D01*
X152554835Y-54488022D01*
X152526627Y-54464873D01*
X152503478Y-54436665D01*
X152486273Y-54404477D01*
X152475681Y-54369562D01*
X152471500Y-54327105D01*
X152471500Y-52860895D01*
X152475681Y-52818438D01*
X152486273Y-52783523D01*
X152503478Y-52751335D01*
X152526627Y-52723127D01*
X152554835Y-52699978D01*
X152587023Y-52682773D01*
X152621938Y-52672181D01*
X152664395Y-52668000D01*
X153805605Y-52668000D01*
X153848062Y-52672181D01*
X153848062Y-52672181D01*
G37*
M02*
