G04 #@! TF.GenerationSoftware,KiCad,Pcbnew,5.0.2+dfsg1-1*
G04 #@! TF.CreationDate,2021-05-24T13:19:01+02:00*
G04 #@! TF.ProjectId,Reflow_Control,5265666c-6f77-45f4-936f-6e74726f6c2e,rev?*
G04 #@! TF.SameCoordinates,Original*
G04 #@! TF.FileFunction,Soldermask,Bot*
G04 #@! TF.FilePolarity,Negative*
%FSLAX46Y46*%
G04 Gerber Fmt 4.6, Leading zero omitted, Abs format (unit mm)*
G04 Created by KiCad (PCBNEW 5.0.2+dfsg1-1) date Mon 24 May 2021 01:19:01 PM CEST*
%MOMM*%
%LPD*%
G01*
G04 APERTURE LIST*
%ADD10C,0.100000*%
G04 APERTURE END LIST*
D10*
G36*
X144543331Y-125268211D02*
X144871092Y-125403974D01*
X145166073Y-125601074D01*
X145416926Y-125851927D01*
X145614026Y-126146908D01*
X145749789Y-126474669D01*
X145819000Y-126822616D01*
X145819000Y-127177384D01*
X145749789Y-127525331D01*
X145614026Y-127853092D01*
X145416926Y-128148073D01*
X145166073Y-128398926D01*
X144871092Y-128596026D01*
X144543331Y-128731789D01*
X144195384Y-128801000D01*
X143840616Y-128801000D01*
X143492669Y-128731789D01*
X143164908Y-128596026D01*
X142869927Y-128398926D01*
X142619074Y-128148073D01*
X142421974Y-127853092D01*
X142286211Y-127525331D01*
X142217000Y-127177384D01*
X142217000Y-126822616D01*
X142286211Y-126474669D01*
X142421974Y-126146908D01*
X142619074Y-125851927D01*
X142869927Y-125601074D01*
X143164908Y-125403974D01*
X143492669Y-125268211D01*
X143840616Y-125199000D01*
X144195384Y-125199000D01*
X144543331Y-125268211D01*
X144543331Y-125268211D01*
G37*
G36*
X124223331Y-125268211D02*
X124551092Y-125403974D01*
X124846073Y-125601074D01*
X125096926Y-125851927D01*
X125294026Y-126146908D01*
X125429789Y-126474669D01*
X125499000Y-126822616D01*
X125499000Y-127177384D01*
X125429789Y-127525331D01*
X125294026Y-127853092D01*
X125096926Y-128148073D01*
X124846073Y-128398926D01*
X124551092Y-128596026D01*
X124223331Y-128731789D01*
X123875384Y-128801000D01*
X123520616Y-128801000D01*
X123172669Y-128731789D01*
X122844908Y-128596026D01*
X122549927Y-128398926D01*
X122299074Y-128148073D01*
X122101974Y-127853092D01*
X121966211Y-127525331D01*
X121897000Y-127177384D01*
X121897000Y-126822616D01*
X121966211Y-126474669D01*
X122101974Y-126146908D01*
X122299074Y-125851927D01*
X122549927Y-125601074D01*
X122844908Y-125403974D01*
X123172669Y-125268211D01*
X123520616Y-125199000D01*
X123875384Y-125199000D01*
X124223331Y-125268211D01*
X124223331Y-125268211D01*
G37*
G36*
X105889941Y-122066248D02*
X105889943Y-122066249D01*
X105889944Y-122066249D01*
X106445190Y-122296239D01*
X106445191Y-122296240D01*
X106944902Y-122630136D01*
X107369864Y-123055098D01*
X107369866Y-123055101D01*
X107703761Y-123554810D01*
X107933751Y-124110056D01*
X107933752Y-124110059D01*
X108051000Y-124699501D01*
X108051000Y-125300499D01*
X107941313Y-125851930D01*
X107933751Y-125889944D01*
X107703761Y-126445190D01*
X107636021Y-126546570D01*
X107369864Y-126944902D01*
X106944902Y-127369864D01*
X106944899Y-127369866D01*
X106445190Y-127703761D01*
X105889944Y-127933751D01*
X105889943Y-127933751D01*
X105889941Y-127933752D01*
X105300499Y-128051000D01*
X104699501Y-128051000D01*
X104110059Y-127933752D01*
X104110057Y-127933751D01*
X104110056Y-127933751D01*
X103554810Y-127703761D01*
X103055101Y-127369866D01*
X103055098Y-127369864D01*
X102630136Y-126944902D01*
X102363979Y-126546570D01*
X102296239Y-126445190D01*
X102066249Y-125889944D01*
X102058688Y-125851930D01*
X101949000Y-125300499D01*
X101949000Y-124699501D01*
X102066248Y-124110059D01*
X102066249Y-124110056D01*
X102296239Y-123554810D01*
X102630134Y-123055101D01*
X102630136Y-123055098D01*
X103055098Y-122630136D01*
X103554809Y-122296240D01*
X103554810Y-122296239D01*
X104110056Y-122066249D01*
X104110057Y-122066249D01*
X104110059Y-122066248D01*
X104699501Y-121949000D01*
X105300499Y-121949000D01*
X105889941Y-122066248D01*
X105889941Y-122066248D01*
G37*
G36*
X195889941Y-122066248D02*
X195889943Y-122066249D01*
X195889944Y-122066249D01*
X196445190Y-122296239D01*
X196445191Y-122296240D01*
X196944902Y-122630136D01*
X197369864Y-123055098D01*
X197369866Y-123055101D01*
X197703761Y-123554810D01*
X197933751Y-124110056D01*
X197933752Y-124110059D01*
X198051000Y-124699501D01*
X198051000Y-125300499D01*
X197941313Y-125851930D01*
X197933751Y-125889944D01*
X197703761Y-126445190D01*
X197636021Y-126546570D01*
X197369864Y-126944902D01*
X196944902Y-127369864D01*
X196944899Y-127369866D01*
X196445190Y-127703761D01*
X195889944Y-127933751D01*
X195889943Y-127933751D01*
X195889941Y-127933752D01*
X195300499Y-128051000D01*
X194699501Y-128051000D01*
X194110059Y-127933752D01*
X194110057Y-127933751D01*
X194110056Y-127933751D01*
X193554810Y-127703761D01*
X193055101Y-127369866D01*
X193055098Y-127369864D01*
X192630136Y-126944902D01*
X192363979Y-126546570D01*
X192296239Y-126445190D01*
X192066249Y-125889944D01*
X192058688Y-125851930D01*
X191949000Y-125300499D01*
X191949000Y-124699501D01*
X192066248Y-124110059D01*
X192066249Y-124110056D01*
X192296239Y-123554810D01*
X192630134Y-123055101D01*
X192630136Y-123055098D01*
X193055098Y-122630136D01*
X193554809Y-122296240D01*
X193554810Y-122296239D01*
X194110056Y-122066249D01*
X194110057Y-122066249D01*
X194110059Y-122066248D01*
X194699501Y-121949000D01*
X195300499Y-121949000D01*
X195889941Y-122066248D01*
X195889941Y-122066248D01*
G37*
G36*
X118677424Y-119955760D02*
X118677427Y-119955761D01*
X118677428Y-119955761D01*
X118856692Y-120010140D01*
X118856694Y-120010141D01*
X118856697Y-120010142D01*
X119021904Y-120098446D01*
X119166712Y-120217288D01*
X119285552Y-120362095D01*
X119373859Y-120527305D01*
X119428240Y-120706575D01*
X119442000Y-120846282D01*
X119442000Y-122739718D01*
X119428240Y-122879425D01*
X119428239Y-122879428D01*
X119428239Y-122879429D01*
X119374950Y-123055101D01*
X119373859Y-123058695D01*
X119285552Y-123223905D01*
X119166712Y-123368712D01*
X119021905Y-123487552D01*
X118896075Y-123554810D01*
X118856693Y-123575860D01*
X118677429Y-123630239D01*
X118677428Y-123630239D01*
X118677425Y-123630240D01*
X118491000Y-123648601D01*
X118304576Y-123630240D01*
X118304573Y-123630239D01*
X118304572Y-123630239D01*
X118125308Y-123575860D01*
X118085926Y-123554810D01*
X117960096Y-123487552D01*
X117815289Y-123368712D01*
X117696449Y-123223905D01*
X117608142Y-123058695D01*
X117607052Y-123055101D01*
X117553762Y-122879429D01*
X117553762Y-122879428D01*
X117553761Y-122879425D01*
X117540000Y-122739717D01*
X117540000Y-120846283D01*
X117553760Y-120706576D01*
X117553761Y-120706572D01*
X117608140Y-120527308D01*
X117608141Y-120527306D01*
X117608142Y-120527303D01*
X117696446Y-120362096D01*
X117815288Y-120217288D01*
X117960095Y-120098448D01*
X118125305Y-120010141D01*
X118125307Y-120010140D01*
X118304571Y-119955761D01*
X118304572Y-119955761D01*
X118304575Y-119955760D01*
X118491000Y-119937399D01*
X118677424Y-119955760D01*
X118677424Y-119955760D01*
G37*
G36*
X114221918Y-119945934D02*
X114254424Y-119955795D01*
X114284383Y-119971808D01*
X114310641Y-119993359D01*
X114332192Y-120019617D01*
X114348205Y-120049576D01*
X114358066Y-120082082D01*
X114362000Y-120122029D01*
X114362000Y-123463971D01*
X114358066Y-123503918D01*
X114348205Y-123536424D01*
X114332192Y-123566383D01*
X114310641Y-123592641D01*
X114284383Y-123614192D01*
X114254424Y-123630205D01*
X114221918Y-123640066D01*
X114181971Y-123644000D01*
X112640029Y-123644000D01*
X112600082Y-123640066D01*
X112567576Y-123630205D01*
X112537617Y-123614192D01*
X112511359Y-123592641D01*
X112489808Y-123566383D01*
X112473795Y-123536424D01*
X112463934Y-123503918D01*
X112460000Y-123463971D01*
X112460000Y-120122029D01*
X112463934Y-120082082D01*
X112473795Y-120049576D01*
X112489808Y-120019617D01*
X112511359Y-119993359D01*
X112537617Y-119971808D01*
X112567576Y-119955795D01*
X112600082Y-119945934D01*
X112640029Y-119942000D01*
X114181971Y-119942000D01*
X114221918Y-119945934D01*
X114221918Y-119945934D01*
G37*
G36*
X109163425Y-108155760D02*
X109163428Y-108155761D01*
X109163429Y-108155761D01*
X109342693Y-108210140D01*
X109342695Y-108210141D01*
X109507905Y-108298448D01*
X109652712Y-108417288D01*
X109771552Y-108562095D01*
X109859859Y-108727305D01*
X109914240Y-108906575D01*
X109932601Y-109093000D01*
X109914240Y-109279425D01*
X109859859Y-109458695D01*
X109771552Y-109623905D01*
X109652712Y-109768712D01*
X109507905Y-109887552D01*
X109507903Y-109887553D01*
X109342693Y-109975860D01*
X109163429Y-110030239D01*
X109163428Y-110030239D01*
X109163425Y-110030240D01*
X109023718Y-110044000D01*
X107130282Y-110044000D01*
X106990575Y-110030240D01*
X106990572Y-110030239D01*
X106990571Y-110030239D01*
X106811307Y-109975860D01*
X106646097Y-109887553D01*
X106646095Y-109887552D01*
X106501288Y-109768712D01*
X106382448Y-109623905D01*
X106294141Y-109458695D01*
X106239760Y-109279425D01*
X106221399Y-109093000D01*
X106239760Y-108906575D01*
X106294141Y-108727305D01*
X106382448Y-108562095D01*
X106501288Y-108417288D01*
X106646095Y-108298448D01*
X106811305Y-108210141D01*
X106811307Y-108210140D01*
X106990571Y-108155761D01*
X106990572Y-108155761D01*
X106990575Y-108155760D01*
X107130282Y-108142000D01*
X109023718Y-108142000D01*
X109163425Y-108155760D01*
X109163425Y-108155760D01*
G37*
G36*
X187733643Y-103729781D02*
X187879415Y-103790162D01*
X188010611Y-103877824D01*
X188122176Y-103989389D01*
X188209838Y-104120585D01*
X188270219Y-104266357D01*
X188301000Y-104421107D01*
X188301000Y-104578893D01*
X188270219Y-104733643D01*
X188209838Y-104879415D01*
X188122176Y-105010611D01*
X188010611Y-105122176D01*
X187879415Y-105209838D01*
X187733643Y-105270219D01*
X187578893Y-105301000D01*
X187421107Y-105301000D01*
X187266357Y-105270219D01*
X187120585Y-105209838D01*
X186989389Y-105122176D01*
X186877824Y-105010611D01*
X186790162Y-104879415D01*
X186729781Y-104733643D01*
X186699000Y-104578893D01*
X186699000Y-104421107D01*
X186729781Y-104266357D01*
X186790162Y-104120585D01*
X186877824Y-103989389D01*
X186989389Y-103877824D01*
X187120585Y-103790162D01*
X187266357Y-103729781D01*
X187421107Y-103699000D01*
X187578893Y-103699000D01*
X187733643Y-103729781D01*
X187733643Y-103729781D01*
G37*
G36*
X192733643Y-103729781D02*
X192879415Y-103790162D01*
X193010611Y-103877824D01*
X193122176Y-103989389D01*
X193209838Y-104120585D01*
X193270219Y-104266357D01*
X193301000Y-104421107D01*
X193301000Y-104578893D01*
X193270219Y-104733643D01*
X193209838Y-104879415D01*
X193122176Y-105010611D01*
X193010611Y-105122176D01*
X192879415Y-105209838D01*
X192733643Y-105270219D01*
X192578893Y-105301000D01*
X192421107Y-105301000D01*
X192266357Y-105270219D01*
X192120585Y-105209838D01*
X191989389Y-105122176D01*
X191877824Y-105010611D01*
X191790162Y-104879415D01*
X191729781Y-104733643D01*
X191699000Y-104578893D01*
X191699000Y-104421107D01*
X191729781Y-104266357D01*
X191790162Y-104120585D01*
X191877824Y-103989389D01*
X191989389Y-103877824D01*
X192120585Y-103790162D01*
X192266357Y-103729781D01*
X192421107Y-103699000D01*
X192578893Y-103699000D01*
X192733643Y-103729781D01*
X192733643Y-103729781D01*
G37*
G36*
X143649000Y-105295000D02*
X141847000Y-105295000D01*
X141847000Y-103493000D01*
X143649000Y-103493000D01*
X143649000Y-105295000D01*
X143649000Y-105295000D01*
G37*
G36*
X125078442Y-103499518D02*
X125144627Y-103506037D01*
X125257853Y-103540384D01*
X125314467Y-103557557D01*
X125453087Y-103631652D01*
X125470991Y-103641222D01*
X125506729Y-103670552D01*
X125608186Y-103753814D01*
X125691448Y-103855271D01*
X125720778Y-103891009D01*
X125720779Y-103891011D01*
X125804443Y-104047533D01*
X125804443Y-104047534D01*
X125855963Y-104217373D01*
X125873359Y-104394000D01*
X125855963Y-104570627D01*
X125821616Y-104683853D01*
X125804443Y-104740467D01*
X125759837Y-104823918D01*
X125720778Y-104896991D01*
X125691448Y-104932729D01*
X125608186Y-105034186D01*
X125506729Y-105117448D01*
X125470991Y-105146778D01*
X125470989Y-105146779D01*
X125314467Y-105230443D01*
X125257853Y-105247616D01*
X125144627Y-105281963D01*
X125078443Y-105288481D01*
X125012260Y-105295000D01*
X124923740Y-105295000D01*
X124857558Y-105288482D01*
X124791373Y-105281963D01*
X124678147Y-105247616D01*
X124621533Y-105230443D01*
X124465011Y-105146779D01*
X124465009Y-105146778D01*
X124429271Y-105117448D01*
X124327814Y-105034186D01*
X124244552Y-104932729D01*
X124215222Y-104896991D01*
X124176163Y-104823918D01*
X124131557Y-104740467D01*
X124114384Y-104683853D01*
X124080037Y-104570627D01*
X124062641Y-104394000D01*
X124080037Y-104217373D01*
X124131557Y-104047534D01*
X124131557Y-104047533D01*
X124215221Y-103891011D01*
X124215222Y-103891009D01*
X124244552Y-103855271D01*
X124327814Y-103753814D01*
X124429271Y-103670552D01*
X124465009Y-103641222D01*
X124482913Y-103631652D01*
X124621533Y-103557557D01*
X124678147Y-103540384D01*
X124791373Y-103506037D01*
X124857557Y-103499519D01*
X124923740Y-103493000D01*
X125012260Y-103493000D01*
X125078442Y-103499518D01*
X125078442Y-103499518D01*
G37*
G36*
X127618442Y-103499518D02*
X127684627Y-103506037D01*
X127797853Y-103540384D01*
X127854467Y-103557557D01*
X127993087Y-103631652D01*
X128010991Y-103641222D01*
X128046729Y-103670552D01*
X128148186Y-103753814D01*
X128231448Y-103855271D01*
X128260778Y-103891009D01*
X128260779Y-103891011D01*
X128344443Y-104047533D01*
X128344443Y-104047534D01*
X128395963Y-104217373D01*
X128413359Y-104394000D01*
X128395963Y-104570627D01*
X128361616Y-104683853D01*
X128344443Y-104740467D01*
X128299837Y-104823918D01*
X128260778Y-104896991D01*
X128231448Y-104932729D01*
X128148186Y-105034186D01*
X128046729Y-105117448D01*
X128010991Y-105146778D01*
X128010989Y-105146779D01*
X127854467Y-105230443D01*
X127797853Y-105247616D01*
X127684627Y-105281963D01*
X127618443Y-105288481D01*
X127552260Y-105295000D01*
X127463740Y-105295000D01*
X127397558Y-105288482D01*
X127331373Y-105281963D01*
X127218147Y-105247616D01*
X127161533Y-105230443D01*
X127005011Y-105146779D01*
X127005009Y-105146778D01*
X126969271Y-105117448D01*
X126867814Y-105034186D01*
X126784552Y-104932729D01*
X126755222Y-104896991D01*
X126716163Y-104823918D01*
X126671557Y-104740467D01*
X126654384Y-104683853D01*
X126620037Y-104570627D01*
X126602641Y-104394000D01*
X126620037Y-104217373D01*
X126671557Y-104047534D01*
X126671557Y-104047533D01*
X126755221Y-103891011D01*
X126755222Y-103891009D01*
X126784552Y-103855271D01*
X126867814Y-103753814D01*
X126969271Y-103670552D01*
X127005009Y-103641222D01*
X127022913Y-103631652D01*
X127161533Y-103557557D01*
X127218147Y-103540384D01*
X127331373Y-103506037D01*
X127397557Y-103499519D01*
X127463740Y-103493000D01*
X127552260Y-103493000D01*
X127618442Y-103499518D01*
X127618442Y-103499518D01*
G37*
G36*
X130158442Y-103499518D02*
X130224627Y-103506037D01*
X130337853Y-103540384D01*
X130394467Y-103557557D01*
X130533087Y-103631652D01*
X130550991Y-103641222D01*
X130586729Y-103670552D01*
X130688186Y-103753814D01*
X130771448Y-103855271D01*
X130800778Y-103891009D01*
X130800779Y-103891011D01*
X130884443Y-104047533D01*
X130884443Y-104047534D01*
X130935963Y-104217373D01*
X130953359Y-104394000D01*
X130935963Y-104570627D01*
X130901616Y-104683853D01*
X130884443Y-104740467D01*
X130839837Y-104823918D01*
X130800778Y-104896991D01*
X130771448Y-104932729D01*
X130688186Y-105034186D01*
X130586729Y-105117448D01*
X130550991Y-105146778D01*
X130550989Y-105146779D01*
X130394467Y-105230443D01*
X130337853Y-105247616D01*
X130224627Y-105281963D01*
X130158443Y-105288481D01*
X130092260Y-105295000D01*
X130003740Y-105295000D01*
X129937558Y-105288482D01*
X129871373Y-105281963D01*
X129758147Y-105247616D01*
X129701533Y-105230443D01*
X129545011Y-105146779D01*
X129545009Y-105146778D01*
X129509271Y-105117448D01*
X129407814Y-105034186D01*
X129324552Y-104932729D01*
X129295222Y-104896991D01*
X129256163Y-104823918D01*
X129211557Y-104740467D01*
X129194384Y-104683853D01*
X129160037Y-104570627D01*
X129142641Y-104394000D01*
X129160037Y-104217373D01*
X129211557Y-104047534D01*
X129211557Y-104047533D01*
X129295221Y-103891011D01*
X129295222Y-103891009D01*
X129324552Y-103855271D01*
X129407814Y-103753814D01*
X129509271Y-103670552D01*
X129545009Y-103641222D01*
X129562913Y-103631652D01*
X129701533Y-103557557D01*
X129758147Y-103540384D01*
X129871373Y-103506037D01*
X129937557Y-103499519D01*
X130003740Y-103493000D01*
X130092260Y-103493000D01*
X130158442Y-103499518D01*
X130158442Y-103499518D01*
G37*
G36*
X135238442Y-103499518D02*
X135304627Y-103506037D01*
X135417853Y-103540384D01*
X135474467Y-103557557D01*
X135613087Y-103631652D01*
X135630991Y-103641222D01*
X135666729Y-103670552D01*
X135768186Y-103753814D01*
X135851448Y-103855271D01*
X135880778Y-103891009D01*
X135880779Y-103891011D01*
X135964443Y-104047533D01*
X135964443Y-104047534D01*
X136015963Y-104217373D01*
X136033359Y-104394000D01*
X136015963Y-104570627D01*
X135981616Y-104683853D01*
X135964443Y-104740467D01*
X135919837Y-104823918D01*
X135880778Y-104896991D01*
X135851448Y-104932729D01*
X135768186Y-105034186D01*
X135666729Y-105117448D01*
X135630991Y-105146778D01*
X135630989Y-105146779D01*
X135474467Y-105230443D01*
X135417853Y-105247616D01*
X135304627Y-105281963D01*
X135238443Y-105288481D01*
X135172260Y-105295000D01*
X135083740Y-105295000D01*
X135017558Y-105288482D01*
X134951373Y-105281963D01*
X134838147Y-105247616D01*
X134781533Y-105230443D01*
X134625011Y-105146779D01*
X134625009Y-105146778D01*
X134589271Y-105117448D01*
X134487814Y-105034186D01*
X134404552Y-104932729D01*
X134375222Y-104896991D01*
X134336163Y-104823918D01*
X134291557Y-104740467D01*
X134274384Y-104683853D01*
X134240037Y-104570627D01*
X134222641Y-104394000D01*
X134240037Y-104217373D01*
X134291557Y-104047534D01*
X134291557Y-104047533D01*
X134375221Y-103891011D01*
X134375222Y-103891009D01*
X134404552Y-103855271D01*
X134487814Y-103753814D01*
X134589271Y-103670552D01*
X134625009Y-103641222D01*
X134642913Y-103631652D01*
X134781533Y-103557557D01*
X134838147Y-103540384D01*
X134951373Y-103506037D01*
X135017557Y-103499519D01*
X135083740Y-103493000D01*
X135172260Y-103493000D01*
X135238442Y-103499518D01*
X135238442Y-103499518D01*
G37*
G36*
X137778442Y-103499518D02*
X137844627Y-103506037D01*
X137957853Y-103540384D01*
X138014467Y-103557557D01*
X138153087Y-103631652D01*
X138170991Y-103641222D01*
X138206729Y-103670552D01*
X138308186Y-103753814D01*
X138391448Y-103855271D01*
X138420778Y-103891009D01*
X138420779Y-103891011D01*
X138504443Y-104047533D01*
X138504443Y-104047534D01*
X138555963Y-104217373D01*
X138573359Y-104394000D01*
X138555963Y-104570627D01*
X138521616Y-104683853D01*
X138504443Y-104740467D01*
X138459837Y-104823918D01*
X138420778Y-104896991D01*
X138391448Y-104932729D01*
X138308186Y-105034186D01*
X138206729Y-105117448D01*
X138170991Y-105146778D01*
X138170989Y-105146779D01*
X138014467Y-105230443D01*
X137957853Y-105247616D01*
X137844627Y-105281963D01*
X137778443Y-105288481D01*
X137712260Y-105295000D01*
X137623740Y-105295000D01*
X137557558Y-105288482D01*
X137491373Y-105281963D01*
X137378147Y-105247616D01*
X137321533Y-105230443D01*
X137165011Y-105146779D01*
X137165009Y-105146778D01*
X137129271Y-105117448D01*
X137027814Y-105034186D01*
X136944552Y-104932729D01*
X136915222Y-104896991D01*
X136876163Y-104823918D01*
X136831557Y-104740467D01*
X136814384Y-104683853D01*
X136780037Y-104570627D01*
X136762641Y-104394000D01*
X136780037Y-104217373D01*
X136831557Y-104047534D01*
X136831557Y-104047533D01*
X136915221Y-103891011D01*
X136915222Y-103891009D01*
X136944552Y-103855271D01*
X137027814Y-103753814D01*
X137129271Y-103670552D01*
X137165009Y-103641222D01*
X137182913Y-103631652D01*
X137321533Y-103557557D01*
X137378147Y-103540384D01*
X137491373Y-103506037D01*
X137557557Y-103499519D01*
X137623740Y-103493000D01*
X137712260Y-103493000D01*
X137778442Y-103499518D01*
X137778442Y-103499518D01*
G37*
G36*
X140318442Y-103499518D02*
X140384627Y-103506037D01*
X140497853Y-103540384D01*
X140554467Y-103557557D01*
X140693087Y-103631652D01*
X140710991Y-103641222D01*
X140746729Y-103670552D01*
X140848186Y-103753814D01*
X140931448Y-103855271D01*
X140960778Y-103891009D01*
X140960779Y-103891011D01*
X141044443Y-104047533D01*
X141044443Y-104047534D01*
X141095963Y-104217373D01*
X141113359Y-104394000D01*
X141095963Y-104570627D01*
X141061616Y-104683853D01*
X141044443Y-104740467D01*
X140999837Y-104823918D01*
X140960778Y-104896991D01*
X140931448Y-104932729D01*
X140848186Y-105034186D01*
X140746729Y-105117448D01*
X140710991Y-105146778D01*
X140710989Y-105146779D01*
X140554467Y-105230443D01*
X140497853Y-105247616D01*
X140384627Y-105281963D01*
X140318443Y-105288481D01*
X140252260Y-105295000D01*
X140163740Y-105295000D01*
X140097558Y-105288482D01*
X140031373Y-105281963D01*
X139918147Y-105247616D01*
X139861533Y-105230443D01*
X139705011Y-105146779D01*
X139705009Y-105146778D01*
X139669271Y-105117448D01*
X139567814Y-105034186D01*
X139484552Y-104932729D01*
X139455222Y-104896991D01*
X139416163Y-104823918D01*
X139371557Y-104740467D01*
X139354384Y-104683853D01*
X139320037Y-104570627D01*
X139302641Y-104394000D01*
X139320037Y-104217373D01*
X139371557Y-104047534D01*
X139371557Y-104047533D01*
X139455221Y-103891011D01*
X139455222Y-103891009D01*
X139484552Y-103855271D01*
X139567814Y-103753814D01*
X139669271Y-103670552D01*
X139705009Y-103641222D01*
X139722913Y-103631652D01*
X139861533Y-103557557D01*
X139918147Y-103540384D01*
X140031373Y-103506037D01*
X140097557Y-103499519D01*
X140163740Y-103493000D01*
X140252260Y-103493000D01*
X140318442Y-103499518D01*
X140318442Y-103499518D01*
G37*
G36*
X132698442Y-103499518D02*
X132764627Y-103506037D01*
X132877853Y-103540384D01*
X132934467Y-103557557D01*
X133073087Y-103631652D01*
X133090991Y-103641222D01*
X133126729Y-103670552D01*
X133228186Y-103753814D01*
X133311448Y-103855271D01*
X133340778Y-103891009D01*
X133340779Y-103891011D01*
X133424443Y-104047533D01*
X133424443Y-104047534D01*
X133475963Y-104217373D01*
X133493359Y-104394000D01*
X133475963Y-104570627D01*
X133441616Y-104683853D01*
X133424443Y-104740467D01*
X133379837Y-104823918D01*
X133340778Y-104896991D01*
X133311448Y-104932729D01*
X133228186Y-105034186D01*
X133126729Y-105117448D01*
X133090991Y-105146778D01*
X133090989Y-105146779D01*
X132934467Y-105230443D01*
X132877853Y-105247616D01*
X132764627Y-105281963D01*
X132698443Y-105288481D01*
X132632260Y-105295000D01*
X132543740Y-105295000D01*
X132477558Y-105288482D01*
X132411373Y-105281963D01*
X132298147Y-105247616D01*
X132241533Y-105230443D01*
X132085011Y-105146779D01*
X132085009Y-105146778D01*
X132049271Y-105117448D01*
X131947814Y-105034186D01*
X131864552Y-104932729D01*
X131835222Y-104896991D01*
X131796163Y-104823918D01*
X131751557Y-104740467D01*
X131734384Y-104683853D01*
X131700037Y-104570627D01*
X131682641Y-104394000D01*
X131700037Y-104217373D01*
X131751557Y-104047534D01*
X131751557Y-104047533D01*
X131835221Y-103891011D01*
X131835222Y-103891009D01*
X131864552Y-103855271D01*
X131947814Y-103753814D01*
X132049271Y-103670552D01*
X132085009Y-103641222D01*
X132102913Y-103631652D01*
X132241533Y-103557557D01*
X132298147Y-103540384D01*
X132411373Y-103506037D01*
X132477557Y-103499519D01*
X132543740Y-103493000D01*
X132632260Y-103493000D01*
X132698442Y-103499518D01*
X132698442Y-103499518D01*
G37*
G36*
X109787918Y-103065934D02*
X109820424Y-103075795D01*
X109850383Y-103091808D01*
X109876641Y-103113359D01*
X109898192Y-103139617D01*
X109914205Y-103169576D01*
X109924066Y-103202082D01*
X109928000Y-103242029D01*
X109928000Y-104783971D01*
X109924066Y-104823918D01*
X109914205Y-104856424D01*
X109898192Y-104886383D01*
X109876641Y-104912641D01*
X109850383Y-104934192D01*
X109820424Y-104950205D01*
X109787918Y-104960066D01*
X109747971Y-104964000D01*
X106406029Y-104964000D01*
X106366082Y-104960066D01*
X106333576Y-104950205D01*
X106303617Y-104934192D01*
X106277359Y-104912641D01*
X106255808Y-104886383D01*
X106239795Y-104856424D01*
X106229934Y-104823918D01*
X106226000Y-104783971D01*
X106226000Y-103242029D01*
X106229934Y-103202082D01*
X106239795Y-103169576D01*
X106255808Y-103139617D01*
X106277359Y-103113359D01*
X106303617Y-103091808D01*
X106333576Y-103075795D01*
X106366082Y-103065934D01*
X106406029Y-103062000D01*
X109747971Y-103062000D01*
X109787918Y-103065934D01*
X109787918Y-103065934D01*
G37*
G36*
X185451000Y-99151000D02*
X183349000Y-99151000D01*
X183349000Y-95849000D01*
X185451000Y-95849000D01*
X185451000Y-99151000D01*
X185451000Y-99151000D01*
G37*
G36*
X196651000Y-99151000D02*
X194549000Y-99151000D01*
X194549000Y-95849000D01*
X196651000Y-95849000D01*
X196651000Y-99151000D01*
X196651000Y-99151000D01*
G37*
G36*
X109163425Y-96725760D02*
X109163428Y-96725761D01*
X109163429Y-96725761D01*
X109342693Y-96780140D01*
X109342695Y-96780141D01*
X109507905Y-96868448D01*
X109652712Y-96987288D01*
X109771552Y-97132095D01*
X109859859Y-97297305D01*
X109914240Y-97476575D01*
X109932601Y-97663000D01*
X109914240Y-97849425D01*
X109859859Y-98028695D01*
X109771552Y-98193905D01*
X109652712Y-98338712D01*
X109507905Y-98457552D01*
X109507903Y-98457553D01*
X109342693Y-98545860D01*
X109163429Y-98600239D01*
X109163428Y-98600239D01*
X109163425Y-98600240D01*
X109023718Y-98614000D01*
X107130282Y-98614000D01*
X106990575Y-98600240D01*
X106990572Y-98600239D01*
X106990571Y-98600239D01*
X106811307Y-98545860D01*
X106646097Y-98457553D01*
X106646095Y-98457552D01*
X106501288Y-98338712D01*
X106382448Y-98193905D01*
X106294141Y-98028695D01*
X106239760Y-97849425D01*
X106221399Y-97663000D01*
X106239760Y-97476575D01*
X106294141Y-97297305D01*
X106382448Y-97132095D01*
X106501288Y-96987288D01*
X106646095Y-96868448D01*
X106811305Y-96780141D01*
X106811307Y-96780140D01*
X106990571Y-96725761D01*
X106990572Y-96725761D01*
X106990575Y-96725760D01*
X107130282Y-96712000D01*
X109023718Y-96712000D01*
X109163425Y-96725760D01*
X109163425Y-96725760D01*
G37*
G36*
X173594096Y-90547033D02*
X173594098Y-90547034D01*
X173594099Y-90547034D01*
X174058352Y-90739333D01*
X174464346Y-91010610D01*
X174476171Y-91018511D01*
X174831489Y-91373829D01*
X174831491Y-91373832D01*
X175110667Y-91791648D01*
X175302966Y-92255901D01*
X175302967Y-92255904D01*
X175401000Y-92748747D01*
X175401000Y-93251253D01*
X175345768Y-93528924D01*
X175302966Y-93744099D01*
X175110667Y-94208352D01*
X174832750Y-94624284D01*
X174831489Y-94626171D01*
X174476171Y-94981489D01*
X174476168Y-94981491D01*
X174058352Y-95260667D01*
X173594099Y-95452966D01*
X173594098Y-95452966D01*
X173594096Y-95452967D01*
X173101253Y-95551000D01*
X172598747Y-95551000D01*
X172105904Y-95452967D01*
X172105902Y-95452966D01*
X172105901Y-95452966D01*
X171641648Y-95260667D01*
X171223832Y-94981491D01*
X171223829Y-94981489D01*
X170868511Y-94626171D01*
X170867250Y-94624284D01*
X170589333Y-94208352D01*
X170397034Y-93744099D01*
X170354233Y-93528924D01*
X170299000Y-93251253D01*
X170299000Y-92748747D01*
X170397033Y-92255904D01*
X170397034Y-92255901D01*
X170589333Y-91791648D01*
X170868509Y-91373832D01*
X170868511Y-91373829D01*
X171223829Y-91018511D01*
X171235654Y-91010610D01*
X171641648Y-90739333D01*
X172105901Y-90547034D01*
X172105902Y-90547034D01*
X172105904Y-90547033D01*
X172598747Y-90449000D01*
X173101253Y-90449000D01*
X173594096Y-90547033D01*
X173594096Y-90547033D01*
G37*
G36*
X152894096Y-90547033D02*
X152894098Y-90547034D01*
X152894099Y-90547034D01*
X153358352Y-90739333D01*
X153764346Y-91010610D01*
X153776171Y-91018511D01*
X154131489Y-91373829D01*
X154131491Y-91373832D01*
X154410667Y-91791648D01*
X154602966Y-92255901D01*
X154602967Y-92255904D01*
X154701000Y-92748747D01*
X154701000Y-93251253D01*
X154645768Y-93528924D01*
X154602966Y-93744099D01*
X154410667Y-94208352D01*
X154132750Y-94624284D01*
X154131489Y-94626171D01*
X153776171Y-94981489D01*
X153776168Y-94981491D01*
X153358352Y-95260667D01*
X152894099Y-95452966D01*
X152894098Y-95452966D01*
X152894096Y-95452967D01*
X152401253Y-95551000D01*
X151898747Y-95551000D01*
X151405904Y-95452967D01*
X151405902Y-95452966D01*
X151405901Y-95452966D01*
X150941648Y-95260667D01*
X150523832Y-94981491D01*
X150523829Y-94981489D01*
X150168511Y-94626171D01*
X150167250Y-94624284D01*
X149889333Y-94208352D01*
X149697034Y-93744099D01*
X149654233Y-93528924D01*
X149599000Y-93251253D01*
X149599000Y-92748747D01*
X149697033Y-92255904D01*
X149697034Y-92255901D01*
X149889333Y-91791648D01*
X150168509Y-91373832D01*
X150168511Y-91373829D01*
X150523829Y-91018511D01*
X150535654Y-91010610D01*
X150941648Y-90739333D01*
X151405901Y-90547034D01*
X151405902Y-90547034D01*
X151405904Y-90547033D01*
X151898747Y-90449000D01*
X152401253Y-90449000D01*
X152894096Y-90547033D01*
X152894096Y-90547033D01*
G37*
G36*
X109787918Y-91635934D02*
X109820424Y-91645795D01*
X109850383Y-91661808D01*
X109876641Y-91683359D01*
X109898192Y-91709617D01*
X109914205Y-91739576D01*
X109924066Y-91772082D01*
X109928000Y-91812029D01*
X109928000Y-93353971D01*
X109924066Y-93393918D01*
X109914205Y-93426424D01*
X109898192Y-93456383D01*
X109876641Y-93482641D01*
X109850383Y-93504192D01*
X109820424Y-93520205D01*
X109787918Y-93530066D01*
X109747971Y-93534000D01*
X106406029Y-93534000D01*
X106366082Y-93530066D01*
X106333576Y-93520205D01*
X106303617Y-93504192D01*
X106277359Y-93482641D01*
X106255808Y-93456383D01*
X106239795Y-93426424D01*
X106229934Y-93393918D01*
X106226000Y-93353971D01*
X106226000Y-91812029D01*
X106229934Y-91772082D01*
X106239795Y-91739576D01*
X106255808Y-91709617D01*
X106277359Y-91683359D01*
X106303617Y-91661808D01*
X106333576Y-91645795D01*
X106366082Y-91635934D01*
X106406029Y-91632000D01*
X109747971Y-91632000D01*
X109787918Y-91635934D01*
X109787918Y-91635934D01*
G37*
G36*
X193551000Y-91051000D02*
X191449000Y-91051000D01*
X191449000Y-88949000D01*
X193551000Y-88949000D01*
X193551000Y-91051000D01*
X193551000Y-91051000D01*
G37*
G36*
X190306565Y-88989389D02*
X190497834Y-89068615D01*
X190669976Y-89183637D01*
X190816363Y-89330024D01*
X190931385Y-89502166D01*
X191010611Y-89693435D01*
X191051000Y-89896484D01*
X191051000Y-90103516D01*
X191010611Y-90306565D01*
X190931385Y-90497834D01*
X190816363Y-90669976D01*
X190669976Y-90816363D01*
X190497834Y-90931385D01*
X190306565Y-91010611D01*
X190103516Y-91051000D01*
X189896484Y-91051000D01*
X189693435Y-91010611D01*
X189502166Y-90931385D01*
X189330024Y-90816363D01*
X189183637Y-90669976D01*
X189068615Y-90497834D01*
X188989389Y-90306565D01*
X188949000Y-90103516D01*
X188949000Y-89896484D01*
X188989389Y-89693435D01*
X189068615Y-89502166D01*
X189183637Y-89330024D01*
X189330024Y-89183637D01*
X189502166Y-89068615D01*
X189693435Y-88989389D01*
X189896484Y-88949000D01*
X190103516Y-88949000D01*
X190306565Y-88989389D01*
X190306565Y-88989389D01*
G37*
G36*
X187806565Y-88989389D02*
X187997834Y-89068615D01*
X188169976Y-89183637D01*
X188316363Y-89330024D01*
X188431385Y-89502166D01*
X188510611Y-89693435D01*
X188551000Y-89896484D01*
X188551000Y-90103516D01*
X188510611Y-90306565D01*
X188431385Y-90497834D01*
X188316363Y-90669976D01*
X188169976Y-90816363D01*
X187997834Y-90931385D01*
X187806565Y-91010611D01*
X187603516Y-91051000D01*
X187396484Y-91051000D01*
X187193435Y-91010611D01*
X187002166Y-90931385D01*
X186830024Y-90816363D01*
X186683637Y-90669976D01*
X186568615Y-90497834D01*
X186489389Y-90306565D01*
X186449000Y-90103516D01*
X186449000Y-89896484D01*
X186489389Y-89693435D01*
X186568615Y-89502166D01*
X186683637Y-89330024D01*
X186830024Y-89183637D01*
X187002166Y-89068615D01*
X187193435Y-88989389D01*
X187396484Y-88949000D01*
X187603516Y-88949000D01*
X187806565Y-88989389D01*
X187806565Y-88989389D01*
G37*
G36*
X109186425Y-84742760D02*
X109186428Y-84742761D01*
X109186429Y-84742761D01*
X109365693Y-84797140D01*
X109365695Y-84797141D01*
X109530905Y-84885448D01*
X109675712Y-85004288D01*
X109794552Y-85149095D01*
X109882859Y-85314305D01*
X109937240Y-85493575D01*
X109955601Y-85680000D01*
X109937240Y-85866425D01*
X109882859Y-86045695D01*
X109794552Y-86210905D01*
X109675712Y-86355712D01*
X109530905Y-86474552D01*
X109530903Y-86474553D01*
X109365693Y-86562860D01*
X109186429Y-86617239D01*
X109186428Y-86617239D01*
X109186425Y-86617240D01*
X109046718Y-86631000D01*
X107153282Y-86631000D01*
X107013575Y-86617240D01*
X107013572Y-86617239D01*
X107013571Y-86617239D01*
X106834307Y-86562860D01*
X106669097Y-86474553D01*
X106669095Y-86474552D01*
X106524288Y-86355712D01*
X106405448Y-86210905D01*
X106317141Y-86045695D01*
X106262760Y-85866425D01*
X106244399Y-85680000D01*
X106262760Y-85493575D01*
X106317141Y-85314305D01*
X106405448Y-85149095D01*
X106524288Y-85004288D01*
X106669095Y-84885448D01*
X106834305Y-84797141D01*
X106834307Y-84797140D01*
X107013571Y-84742761D01*
X107013572Y-84742761D01*
X107013575Y-84742760D01*
X107153282Y-84729000D01*
X109046718Y-84729000D01*
X109186425Y-84742760D01*
X109186425Y-84742760D01*
G37*
G36*
X109810918Y-79652934D02*
X109843424Y-79662795D01*
X109873383Y-79678808D01*
X109899641Y-79700359D01*
X109921192Y-79726617D01*
X109937205Y-79756576D01*
X109947066Y-79789082D01*
X109951000Y-79829029D01*
X109951000Y-81370971D01*
X109947066Y-81410918D01*
X109937205Y-81443424D01*
X109921192Y-81473383D01*
X109899641Y-81499641D01*
X109873383Y-81521192D01*
X109843424Y-81537205D01*
X109810918Y-81547066D01*
X109770971Y-81551000D01*
X106429029Y-81551000D01*
X106389082Y-81547066D01*
X106356576Y-81537205D01*
X106326617Y-81521192D01*
X106300359Y-81499641D01*
X106278808Y-81473383D01*
X106262795Y-81443424D01*
X106252934Y-81410918D01*
X106249000Y-81370971D01*
X106249000Y-79829029D01*
X106252934Y-79789082D01*
X106262795Y-79756576D01*
X106278808Y-79726617D01*
X106300359Y-79700359D01*
X106326617Y-79678808D01*
X106356576Y-79662795D01*
X106389082Y-79652934D01*
X106429029Y-79649000D01*
X109770971Y-79649000D01*
X109810918Y-79652934D01*
X109810918Y-79652934D01*
G37*
G36*
X193773418Y-78182934D02*
X193805924Y-78192795D01*
X193835883Y-78208808D01*
X193862141Y-78230359D01*
X193883692Y-78256617D01*
X193899705Y-78286576D01*
X193909566Y-78319082D01*
X193913500Y-78359029D01*
X193913500Y-79900971D01*
X193909566Y-79940918D01*
X193899705Y-79973424D01*
X193883692Y-80003383D01*
X193862141Y-80029641D01*
X193835883Y-80051192D01*
X193805924Y-80067205D01*
X193773418Y-80077066D01*
X193733471Y-80081000D01*
X190391529Y-80081000D01*
X190351582Y-80077066D01*
X190319076Y-80067205D01*
X190289117Y-80051192D01*
X190262859Y-80029641D01*
X190241308Y-80003383D01*
X190225295Y-79973424D01*
X190215434Y-79940918D01*
X190211500Y-79900971D01*
X190211500Y-78359029D01*
X190215434Y-78319082D01*
X190225295Y-78286576D01*
X190241308Y-78256617D01*
X190262859Y-78230359D01*
X190289117Y-78208808D01*
X190319076Y-78192795D01*
X190351582Y-78182934D01*
X190391529Y-78179000D01*
X193733471Y-78179000D01*
X193773418Y-78182934D01*
X193773418Y-78182934D01*
G37*
G36*
X138186821Y-74161313D02*
X138186824Y-74161314D01*
X138186825Y-74161314D01*
X138347239Y-74209975D01*
X138347241Y-74209976D01*
X138347244Y-74209977D01*
X138495078Y-74288995D01*
X138624659Y-74395341D01*
X138731005Y-74524922D01*
X138810023Y-74672756D01*
X138858687Y-74833179D01*
X138875117Y-75000000D01*
X138858687Y-75166821D01*
X138810023Y-75327244D01*
X138731005Y-75475078D01*
X138624659Y-75604659D01*
X138495078Y-75711005D01*
X138347244Y-75790023D01*
X138347241Y-75790024D01*
X138347239Y-75790025D01*
X138186825Y-75838686D01*
X138186824Y-75838686D01*
X138186821Y-75838687D01*
X138061804Y-75851000D01*
X137978196Y-75851000D01*
X137853179Y-75838687D01*
X137853176Y-75838686D01*
X137853175Y-75838686D01*
X137692761Y-75790025D01*
X137692759Y-75790024D01*
X137692756Y-75790023D01*
X137544922Y-75711005D01*
X137415341Y-75604659D01*
X137308995Y-75475078D01*
X137229977Y-75327244D01*
X137181313Y-75166821D01*
X137164883Y-75000000D01*
X137181313Y-74833179D01*
X137229977Y-74672756D01*
X137308995Y-74524922D01*
X137415341Y-74395341D01*
X137544922Y-74288995D01*
X137692756Y-74209977D01*
X137692759Y-74209976D01*
X137692761Y-74209975D01*
X137853175Y-74161314D01*
X137853176Y-74161314D01*
X137853179Y-74161313D01*
X137978196Y-74149000D01*
X138061804Y-74149000D01*
X138186821Y-74161313D01*
X138186821Y-74161313D01*
G37*
G36*
X140726821Y-74161313D02*
X140726824Y-74161314D01*
X140726825Y-74161314D01*
X140887239Y-74209975D01*
X140887241Y-74209976D01*
X140887244Y-74209977D01*
X141035078Y-74288995D01*
X141164659Y-74395341D01*
X141271005Y-74524922D01*
X141350023Y-74672756D01*
X141398687Y-74833179D01*
X141415117Y-75000000D01*
X141398687Y-75166821D01*
X141350023Y-75327244D01*
X141271005Y-75475078D01*
X141164659Y-75604659D01*
X141035078Y-75711005D01*
X140887244Y-75790023D01*
X140887241Y-75790024D01*
X140887239Y-75790025D01*
X140726825Y-75838686D01*
X140726824Y-75838686D01*
X140726821Y-75838687D01*
X140601804Y-75851000D01*
X140518196Y-75851000D01*
X140393179Y-75838687D01*
X140393176Y-75838686D01*
X140393175Y-75838686D01*
X140232761Y-75790025D01*
X140232759Y-75790024D01*
X140232756Y-75790023D01*
X140084922Y-75711005D01*
X139955341Y-75604659D01*
X139848995Y-75475078D01*
X139769977Y-75327244D01*
X139721313Y-75166821D01*
X139704883Y-75000000D01*
X139721313Y-74833179D01*
X139769977Y-74672756D01*
X139848995Y-74524922D01*
X139955341Y-74395341D01*
X140084922Y-74288995D01*
X140232756Y-74209977D01*
X140232759Y-74209976D01*
X140232761Y-74209975D01*
X140393175Y-74161314D01*
X140393176Y-74161314D01*
X140393179Y-74161313D01*
X140518196Y-74149000D01*
X140601804Y-74149000D01*
X140726821Y-74161313D01*
X140726821Y-74161313D01*
G37*
G36*
X105851000Y-75851000D02*
X104149000Y-75851000D01*
X104149000Y-74149000D01*
X105851000Y-74149000D01*
X105851000Y-75851000D01*
X105851000Y-75851000D01*
G37*
G36*
X133106821Y-74161313D02*
X133106824Y-74161314D01*
X133106825Y-74161314D01*
X133267239Y-74209975D01*
X133267241Y-74209976D01*
X133267244Y-74209977D01*
X133415078Y-74288995D01*
X133544659Y-74395341D01*
X133651005Y-74524922D01*
X133730023Y-74672756D01*
X133778687Y-74833179D01*
X133795117Y-75000000D01*
X133778687Y-75166821D01*
X133730023Y-75327244D01*
X133651005Y-75475078D01*
X133544659Y-75604659D01*
X133415078Y-75711005D01*
X133267244Y-75790023D01*
X133267241Y-75790024D01*
X133267239Y-75790025D01*
X133106825Y-75838686D01*
X133106824Y-75838686D01*
X133106821Y-75838687D01*
X132981804Y-75851000D01*
X132898196Y-75851000D01*
X132773179Y-75838687D01*
X132773176Y-75838686D01*
X132773175Y-75838686D01*
X132612761Y-75790025D01*
X132612759Y-75790024D01*
X132612756Y-75790023D01*
X132464922Y-75711005D01*
X132335341Y-75604659D01*
X132228995Y-75475078D01*
X132149977Y-75327244D01*
X132101313Y-75166821D01*
X132084883Y-75000000D01*
X132101313Y-74833179D01*
X132149977Y-74672756D01*
X132228995Y-74524922D01*
X132335341Y-74395341D01*
X132464922Y-74288995D01*
X132612756Y-74209977D01*
X132612759Y-74209976D01*
X132612761Y-74209975D01*
X132773175Y-74161314D01*
X132773176Y-74161314D01*
X132773179Y-74161313D01*
X132898196Y-74149000D01*
X132981804Y-74149000D01*
X133106821Y-74161313D01*
X133106821Y-74161313D01*
G37*
G36*
X130566821Y-74161313D02*
X130566824Y-74161314D01*
X130566825Y-74161314D01*
X130727239Y-74209975D01*
X130727241Y-74209976D01*
X130727244Y-74209977D01*
X130875078Y-74288995D01*
X131004659Y-74395341D01*
X131111005Y-74524922D01*
X131190023Y-74672756D01*
X131238687Y-74833179D01*
X131255117Y-75000000D01*
X131238687Y-75166821D01*
X131190023Y-75327244D01*
X131111005Y-75475078D01*
X131004659Y-75604659D01*
X130875078Y-75711005D01*
X130727244Y-75790023D01*
X130727241Y-75790024D01*
X130727239Y-75790025D01*
X130566825Y-75838686D01*
X130566824Y-75838686D01*
X130566821Y-75838687D01*
X130441804Y-75851000D01*
X130358196Y-75851000D01*
X130233179Y-75838687D01*
X130233176Y-75838686D01*
X130233175Y-75838686D01*
X130072761Y-75790025D01*
X130072759Y-75790024D01*
X130072756Y-75790023D01*
X129924922Y-75711005D01*
X129795341Y-75604659D01*
X129688995Y-75475078D01*
X129609977Y-75327244D01*
X129561313Y-75166821D01*
X129544883Y-75000000D01*
X129561313Y-74833179D01*
X129609977Y-74672756D01*
X129688995Y-74524922D01*
X129795341Y-74395341D01*
X129924922Y-74288995D01*
X130072756Y-74209977D01*
X130072759Y-74209976D01*
X130072761Y-74209975D01*
X130233175Y-74161314D01*
X130233176Y-74161314D01*
X130233179Y-74161313D01*
X130358196Y-74149000D01*
X130441804Y-74149000D01*
X130566821Y-74161313D01*
X130566821Y-74161313D01*
G37*
G36*
X135646821Y-74161313D02*
X135646824Y-74161314D01*
X135646825Y-74161314D01*
X135807239Y-74209975D01*
X135807241Y-74209976D01*
X135807244Y-74209977D01*
X135955078Y-74288995D01*
X136084659Y-74395341D01*
X136191005Y-74524922D01*
X136270023Y-74672756D01*
X136318687Y-74833179D01*
X136335117Y-75000000D01*
X136318687Y-75166821D01*
X136270023Y-75327244D01*
X136191005Y-75475078D01*
X136084659Y-75604659D01*
X135955078Y-75711005D01*
X135807244Y-75790023D01*
X135807241Y-75790024D01*
X135807239Y-75790025D01*
X135646825Y-75838686D01*
X135646824Y-75838686D01*
X135646821Y-75838687D01*
X135521804Y-75851000D01*
X135438196Y-75851000D01*
X135313179Y-75838687D01*
X135313176Y-75838686D01*
X135313175Y-75838686D01*
X135152761Y-75790025D01*
X135152759Y-75790024D01*
X135152756Y-75790023D01*
X135004922Y-75711005D01*
X134875341Y-75604659D01*
X134768995Y-75475078D01*
X134689977Y-75327244D01*
X134641313Y-75166821D01*
X134624883Y-75000000D01*
X134641313Y-74833179D01*
X134689977Y-74672756D01*
X134768995Y-74524922D01*
X134875341Y-74395341D01*
X135004922Y-74288995D01*
X135152756Y-74209977D01*
X135152759Y-74209976D01*
X135152761Y-74209975D01*
X135313175Y-74161314D01*
X135313176Y-74161314D01*
X135313179Y-74161313D01*
X135438196Y-74149000D01*
X135521804Y-74149000D01*
X135646821Y-74161313D01*
X135646821Y-74161313D01*
G37*
G36*
X115326821Y-74161313D02*
X115326824Y-74161314D01*
X115326825Y-74161314D01*
X115487239Y-74209975D01*
X115487241Y-74209976D01*
X115487244Y-74209977D01*
X115635078Y-74288995D01*
X115764659Y-74395341D01*
X115871005Y-74524922D01*
X115950023Y-74672756D01*
X115998687Y-74833179D01*
X116015117Y-75000000D01*
X115998687Y-75166821D01*
X115950023Y-75327244D01*
X115871005Y-75475078D01*
X115764659Y-75604659D01*
X115635078Y-75711005D01*
X115487244Y-75790023D01*
X115487241Y-75790024D01*
X115487239Y-75790025D01*
X115326825Y-75838686D01*
X115326824Y-75838686D01*
X115326821Y-75838687D01*
X115201804Y-75851000D01*
X115118196Y-75851000D01*
X114993179Y-75838687D01*
X114993176Y-75838686D01*
X114993175Y-75838686D01*
X114832761Y-75790025D01*
X114832759Y-75790024D01*
X114832756Y-75790023D01*
X114684922Y-75711005D01*
X114555341Y-75604659D01*
X114448995Y-75475078D01*
X114369977Y-75327244D01*
X114321313Y-75166821D01*
X114304883Y-75000000D01*
X114321313Y-74833179D01*
X114369977Y-74672756D01*
X114448995Y-74524922D01*
X114555341Y-74395341D01*
X114684922Y-74288995D01*
X114832756Y-74209977D01*
X114832759Y-74209976D01*
X114832761Y-74209975D01*
X114993175Y-74161314D01*
X114993176Y-74161314D01*
X114993179Y-74161313D01*
X115118196Y-74149000D01*
X115201804Y-74149000D01*
X115326821Y-74161313D01*
X115326821Y-74161313D01*
G37*
G36*
X107706821Y-74161313D02*
X107706824Y-74161314D01*
X107706825Y-74161314D01*
X107867239Y-74209975D01*
X107867241Y-74209976D01*
X107867244Y-74209977D01*
X108015078Y-74288995D01*
X108144659Y-74395341D01*
X108251005Y-74524922D01*
X108330023Y-74672756D01*
X108378687Y-74833179D01*
X108395117Y-75000000D01*
X108378687Y-75166821D01*
X108330023Y-75327244D01*
X108251005Y-75475078D01*
X108144659Y-75604659D01*
X108015078Y-75711005D01*
X107867244Y-75790023D01*
X107867241Y-75790024D01*
X107867239Y-75790025D01*
X107706825Y-75838686D01*
X107706824Y-75838686D01*
X107706821Y-75838687D01*
X107581804Y-75851000D01*
X107498196Y-75851000D01*
X107373179Y-75838687D01*
X107373176Y-75838686D01*
X107373175Y-75838686D01*
X107212761Y-75790025D01*
X107212759Y-75790024D01*
X107212756Y-75790023D01*
X107064922Y-75711005D01*
X106935341Y-75604659D01*
X106828995Y-75475078D01*
X106749977Y-75327244D01*
X106701313Y-75166821D01*
X106684883Y-75000000D01*
X106701313Y-74833179D01*
X106749977Y-74672756D01*
X106828995Y-74524922D01*
X106935341Y-74395341D01*
X107064922Y-74288995D01*
X107212756Y-74209977D01*
X107212759Y-74209976D01*
X107212761Y-74209975D01*
X107373175Y-74161314D01*
X107373176Y-74161314D01*
X107373179Y-74161313D01*
X107498196Y-74149000D01*
X107581804Y-74149000D01*
X107706821Y-74161313D01*
X107706821Y-74161313D01*
G37*
G36*
X117866821Y-74161313D02*
X117866824Y-74161314D01*
X117866825Y-74161314D01*
X118027239Y-74209975D01*
X118027241Y-74209976D01*
X118027244Y-74209977D01*
X118175078Y-74288995D01*
X118304659Y-74395341D01*
X118411005Y-74524922D01*
X118490023Y-74672756D01*
X118538687Y-74833179D01*
X118555117Y-75000000D01*
X118538687Y-75166821D01*
X118490023Y-75327244D01*
X118411005Y-75475078D01*
X118304659Y-75604659D01*
X118175078Y-75711005D01*
X118027244Y-75790023D01*
X118027241Y-75790024D01*
X118027239Y-75790025D01*
X117866825Y-75838686D01*
X117866824Y-75838686D01*
X117866821Y-75838687D01*
X117741804Y-75851000D01*
X117658196Y-75851000D01*
X117533179Y-75838687D01*
X117533176Y-75838686D01*
X117533175Y-75838686D01*
X117372761Y-75790025D01*
X117372759Y-75790024D01*
X117372756Y-75790023D01*
X117224922Y-75711005D01*
X117095341Y-75604659D01*
X116988995Y-75475078D01*
X116909977Y-75327244D01*
X116861313Y-75166821D01*
X116844883Y-75000000D01*
X116861313Y-74833179D01*
X116909977Y-74672756D01*
X116988995Y-74524922D01*
X117095341Y-74395341D01*
X117224922Y-74288995D01*
X117372756Y-74209977D01*
X117372759Y-74209976D01*
X117372761Y-74209975D01*
X117533175Y-74161314D01*
X117533176Y-74161314D01*
X117533179Y-74161313D01*
X117658196Y-74149000D01*
X117741804Y-74149000D01*
X117866821Y-74161313D01*
X117866821Y-74161313D01*
G37*
G36*
X128026821Y-74161313D02*
X128026824Y-74161314D01*
X128026825Y-74161314D01*
X128187239Y-74209975D01*
X128187241Y-74209976D01*
X128187244Y-74209977D01*
X128335078Y-74288995D01*
X128464659Y-74395341D01*
X128571005Y-74524922D01*
X128650023Y-74672756D01*
X128698687Y-74833179D01*
X128715117Y-75000000D01*
X128698687Y-75166821D01*
X128650023Y-75327244D01*
X128571005Y-75475078D01*
X128464659Y-75604659D01*
X128335078Y-75711005D01*
X128187244Y-75790023D01*
X128187241Y-75790024D01*
X128187239Y-75790025D01*
X128026825Y-75838686D01*
X128026824Y-75838686D01*
X128026821Y-75838687D01*
X127901804Y-75851000D01*
X127818196Y-75851000D01*
X127693179Y-75838687D01*
X127693176Y-75838686D01*
X127693175Y-75838686D01*
X127532761Y-75790025D01*
X127532759Y-75790024D01*
X127532756Y-75790023D01*
X127384922Y-75711005D01*
X127255341Y-75604659D01*
X127148995Y-75475078D01*
X127069977Y-75327244D01*
X127021313Y-75166821D01*
X127004883Y-75000000D01*
X127021313Y-74833179D01*
X127069977Y-74672756D01*
X127148995Y-74524922D01*
X127255341Y-74395341D01*
X127384922Y-74288995D01*
X127532756Y-74209977D01*
X127532759Y-74209976D01*
X127532761Y-74209975D01*
X127693175Y-74161314D01*
X127693176Y-74161314D01*
X127693179Y-74161313D01*
X127818196Y-74149000D01*
X127901804Y-74149000D01*
X128026821Y-74161313D01*
X128026821Y-74161313D01*
G37*
G36*
X125486821Y-74161313D02*
X125486824Y-74161314D01*
X125486825Y-74161314D01*
X125647239Y-74209975D01*
X125647241Y-74209976D01*
X125647244Y-74209977D01*
X125795078Y-74288995D01*
X125924659Y-74395341D01*
X126031005Y-74524922D01*
X126110023Y-74672756D01*
X126158687Y-74833179D01*
X126175117Y-75000000D01*
X126158687Y-75166821D01*
X126110023Y-75327244D01*
X126031005Y-75475078D01*
X125924659Y-75604659D01*
X125795078Y-75711005D01*
X125647244Y-75790023D01*
X125647241Y-75790024D01*
X125647239Y-75790025D01*
X125486825Y-75838686D01*
X125486824Y-75838686D01*
X125486821Y-75838687D01*
X125361804Y-75851000D01*
X125278196Y-75851000D01*
X125153179Y-75838687D01*
X125153176Y-75838686D01*
X125153175Y-75838686D01*
X124992761Y-75790025D01*
X124992759Y-75790024D01*
X124992756Y-75790023D01*
X124844922Y-75711005D01*
X124715341Y-75604659D01*
X124608995Y-75475078D01*
X124529977Y-75327244D01*
X124481313Y-75166821D01*
X124464883Y-75000000D01*
X124481313Y-74833179D01*
X124529977Y-74672756D01*
X124608995Y-74524922D01*
X124715341Y-74395341D01*
X124844922Y-74288995D01*
X124992756Y-74209977D01*
X124992759Y-74209976D01*
X124992761Y-74209975D01*
X125153175Y-74161314D01*
X125153176Y-74161314D01*
X125153179Y-74161313D01*
X125278196Y-74149000D01*
X125361804Y-74149000D01*
X125486821Y-74161313D01*
X125486821Y-74161313D01*
G37*
G36*
X122946821Y-74161313D02*
X122946824Y-74161314D01*
X122946825Y-74161314D01*
X123107239Y-74209975D01*
X123107241Y-74209976D01*
X123107244Y-74209977D01*
X123255078Y-74288995D01*
X123384659Y-74395341D01*
X123491005Y-74524922D01*
X123570023Y-74672756D01*
X123618687Y-74833179D01*
X123635117Y-75000000D01*
X123618687Y-75166821D01*
X123570023Y-75327244D01*
X123491005Y-75475078D01*
X123384659Y-75604659D01*
X123255078Y-75711005D01*
X123107244Y-75790023D01*
X123107241Y-75790024D01*
X123107239Y-75790025D01*
X122946825Y-75838686D01*
X122946824Y-75838686D01*
X122946821Y-75838687D01*
X122821804Y-75851000D01*
X122738196Y-75851000D01*
X122613179Y-75838687D01*
X122613176Y-75838686D01*
X122613175Y-75838686D01*
X122452761Y-75790025D01*
X122452759Y-75790024D01*
X122452756Y-75790023D01*
X122304922Y-75711005D01*
X122175341Y-75604659D01*
X122068995Y-75475078D01*
X121989977Y-75327244D01*
X121941313Y-75166821D01*
X121924883Y-75000000D01*
X121941313Y-74833179D01*
X121989977Y-74672756D01*
X122068995Y-74524922D01*
X122175341Y-74395341D01*
X122304922Y-74288995D01*
X122452756Y-74209977D01*
X122452759Y-74209976D01*
X122452761Y-74209975D01*
X122613175Y-74161314D01*
X122613176Y-74161314D01*
X122613179Y-74161313D01*
X122738196Y-74149000D01*
X122821804Y-74149000D01*
X122946821Y-74161313D01*
X122946821Y-74161313D01*
G37*
G36*
X120406821Y-74161313D02*
X120406824Y-74161314D01*
X120406825Y-74161314D01*
X120567239Y-74209975D01*
X120567241Y-74209976D01*
X120567244Y-74209977D01*
X120715078Y-74288995D01*
X120844659Y-74395341D01*
X120951005Y-74524922D01*
X121030023Y-74672756D01*
X121078687Y-74833179D01*
X121095117Y-75000000D01*
X121078687Y-75166821D01*
X121030023Y-75327244D01*
X120951005Y-75475078D01*
X120844659Y-75604659D01*
X120715078Y-75711005D01*
X120567244Y-75790023D01*
X120567241Y-75790024D01*
X120567239Y-75790025D01*
X120406825Y-75838686D01*
X120406824Y-75838686D01*
X120406821Y-75838687D01*
X120281804Y-75851000D01*
X120198196Y-75851000D01*
X120073179Y-75838687D01*
X120073176Y-75838686D01*
X120073175Y-75838686D01*
X119912761Y-75790025D01*
X119912759Y-75790024D01*
X119912756Y-75790023D01*
X119764922Y-75711005D01*
X119635341Y-75604659D01*
X119528995Y-75475078D01*
X119449977Y-75327244D01*
X119401313Y-75166821D01*
X119384883Y-75000000D01*
X119401313Y-74833179D01*
X119449977Y-74672756D01*
X119528995Y-74524922D01*
X119635341Y-74395341D01*
X119764922Y-74288995D01*
X119912756Y-74209977D01*
X119912759Y-74209976D01*
X119912761Y-74209975D01*
X120073175Y-74161314D01*
X120073176Y-74161314D01*
X120073179Y-74161313D01*
X120198196Y-74149000D01*
X120281804Y-74149000D01*
X120406821Y-74161313D01*
X120406821Y-74161313D01*
G37*
G36*
X110246821Y-74161313D02*
X110246824Y-74161314D01*
X110246825Y-74161314D01*
X110407239Y-74209975D01*
X110407241Y-74209976D01*
X110407244Y-74209977D01*
X110555078Y-74288995D01*
X110684659Y-74395341D01*
X110791005Y-74524922D01*
X110870023Y-74672756D01*
X110918687Y-74833179D01*
X110935117Y-75000000D01*
X110918687Y-75166821D01*
X110870023Y-75327244D01*
X110791005Y-75475078D01*
X110684659Y-75604659D01*
X110555078Y-75711005D01*
X110407244Y-75790023D01*
X110407241Y-75790024D01*
X110407239Y-75790025D01*
X110246825Y-75838686D01*
X110246824Y-75838686D01*
X110246821Y-75838687D01*
X110121804Y-75851000D01*
X110038196Y-75851000D01*
X109913179Y-75838687D01*
X109913176Y-75838686D01*
X109913175Y-75838686D01*
X109752761Y-75790025D01*
X109752759Y-75790024D01*
X109752756Y-75790023D01*
X109604922Y-75711005D01*
X109475341Y-75604659D01*
X109368995Y-75475078D01*
X109289977Y-75327244D01*
X109241313Y-75166821D01*
X109224883Y-75000000D01*
X109241313Y-74833179D01*
X109289977Y-74672756D01*
X109368995Y-74524922D01*
X109475341Y-74395341D01*
X109604922Y-74288995D01*
X109752756Y-74209977D01*
X109752759Y-74209976D01*
X109752761Y-74209975D01*
X109913175Y-74161314D01*
X109913176Y-74161314D01*
X109913179Y-74161313D01*
X110038196Y-74149000D01*
X110121804Y-74149000D01*
X110246821Y-74161313D01*
X110246821Y-74161313D01*
G37*
G36*
X112786821Y-74161313D02*
X112786824Y-74161314D01*
X112786825Y-74161314D01*
X112947239Y-74209975D01*
X112947241Y-74209976D01*
X112947244Y-74209977D01*
X113095078Y-74288995D01*
X113224659Y-74395341D01*
X113331005Y-74524922D01*
X113410023Y-74672756D01*
X113458687Y-74833179D01*
X113475117Y-75000000D01*
X113458687Y-75166821D01*
X113410023Y-75327244D01*
X113331005Y-75475078D01*
X113224659Y-75604659D01*
X113095078Y-75711005D01*
X112947244Y-75790023D01*
X112947241Y-75790024D01*
X112947239Y-75790025D01*
X112786825Y-75838686D01*
X112786824Y-75838686D01*
X112786821Y-75838687D01*
X112661804Y-75851000D01*
X112578196Y-75851000D01*
X112453179Y-75838687D01*
X112453176Y-75838686D01*
X112453175Y-75838686D01*
X112292761Y-75790025D01*
X112292759Y-75790024D01*
X112292756Y-75790023D01*
X112144922Y-75711005D01*
X112015341Y-75604659D01*
X111908995Y-75475078D01*
X111829977Y-75327244D01*
X111781313Y-75166821D01*
X111764883Y-75000000D01*
X111781313Y-74833179D01*
X111829977Y-74672756D01*
X111908995Y-74524922D01*
X112015341Y-74395341D01*
X112144922Y-74288995D01*
X112292756Y-74209977D01*
X112292759Y-74209976D01*
X112292761Y-74209975D01*
X112453175Y-74161314D01*
X112453176Y-74161314D01*
X112453179Y-74161313D01*
X112578196Y-74149000D01*
X112661804Y-74149000D01*
X112786821Y-74161313D01*
X112786821Y-74161313D01*
G37*
G36*
X193148925Y-73112760D02*
X193148928Y-73112761D01*
X193148929Y-73112761D01*
X193328193Y-73167140D01*
X193328195Y-73167141D01*
X193493405Y-73255448D01*
X193638212Y-73374288D01*
X193757052Y-73519095D01*
X193845359Y-73684305D01*
X193899740Y-73863575D01*
X193918101Y-74050000D01*
X193899740Y-74236425D01*
X193899739Y-74236428D01*
X193899739Y-74236429D01*
X193851534Y-74395341D01*
X193845359Y-74415695D01*
X193757052Y-74580905D01*
X193638212Y-74725712D01*
X193493405Y-74844552D01*
X193493403Y-74844553D01*
X193328193Y-74932860D01*
X193148929Y-74987239D01*
X193148928Y-74987239D01*
X193148925Y-74987240D01*
X193009218Y-75001000D01*
X191115782Y-75001000D01*
X190976075Y-74987240D01*
X190976072Y-74987239D01*
X190976071Y-74987239D01*
X190796807Y-74932860D01*
X190631597Y-74844553D01*
X190631595Y-74844552D01*
X190486788Y-74725712D01*
X190367948Y-74580905D01*
X190279641Y-74415695D01*
X190273467Y-74395341D01*
X190225261Y-74236429D01*
X190225261Y-74236428D01*
X190225260Y-74236425D01*
X190206899Y-74050000D01*
X190225260Y-73863575D01*
X190279641Y-73684305D01*
X190367948Y-73519095D01*
X190486788Y-73374288D01*
X190631595Y-73255448D01*
X190796805Y-73167141D01*
X190796807Y-73167140D01*
X190976071Y-73112761D01*
X190976072Y-73112761D01*
X190976075Y-73112760D01*
X191115782Y-73099000D01*
X193009218Y-73099000D01*
X193148925Y-73112760D01*
X193148925Y-73112760D01*
G37*
G36*
X152894096Y-67347033D02*
X152894098Y-67347034D01*
X152894099Y-67347034D01*
X153358352Y-67539333D01*
X153774284Y-67817250D01*
X153776171Y-67818511D01*
X154131489Y-68173829D01*
X154131491Y-68173832D01*
X154410667Y-68591648D01*
X154602966Y-69055901D01*
X154602967Y-69055904D01*
X154636279Y-69223375D01*
X154701000Y-69548748D01*
X154701000Y-70051252D01*
X154602966Y-70544099D01*
X154410667Y-71008352D01*
X154132750Y-71424284D01*
X154131489Y-71426171D01*
X153776171Y-71781489D01*
X153776168Y-71781491D01*
X153358352Y-72060667D01*
X152894099Y-72252966D01*
X152894098Y-72252966D01*
X152894096Y-72252967D01*
X152401253Y-72351000D01*
X151898747Y-72351000D01*
X151405904Y-72252967D01*
X151405902Y-72252966D01*
X151405901Y-72252966D01*
X150941648Y-72060667D01*
X150523832Y-71781491D01*
X150523829Y-71781489D01*
X150168511Y-71426171D01*
X150167250Y-71424284D01*
X149889333Y-71008352D01*
X149697034Y-70544099D01*
X149599000Y-70051252D01*
X149599000Y-69548748D01*
X149663721Y-69223375D01*
X149697033Y-69055904D01*
X149697034Y-69055901D01*
X149889333Y-68591648D01*
X150168509Y-68173832D01*
X150168511Y-68173829D01*
X150523829Y-67818511D01*
X150525716Y-67817250D01*
X150941648Y-67539333D01*
X151405901Y-67347034D01*
X151405902Y-67347034D01*
X151405904Y-67347033D01*
X151898747Y-67249000D01*
X152401253Y-67249000D01*
X152894096Y-67347033D01*
X152894096Y-67347033D01*
G37*
G36*
X173594096Y-67347033D02*
X173594098Y-67347034D01*
X173594099Y-67347034D01*
X174058352Y-67539333D01*
X174474284Y-67817250D01*
X174476171Y-67818511D01*
X174831489Y-68173829D01*
X174831491Y-68173832D01*
X175110667Y-68591648D01*
X175302966Y-69055901D01*
X175302967Y-69055904D01*
X175336279Y-69223375D01*
X175401000Y-69548748D01*
X175401000Y-70051252D01*
X175302966Y-70544099D01*
X175110667Y-71008352D01*
X174832750Y-71424284D01*
X174831489Y-71426171D01*
X174476171Y-71781489D01*
X174476168Y-71781491D01*
X174058352Y-72060667D01*
X173594099Y-72252966D01*
X173594098Y-72252966D01*
X173594096Y-72252967D01*
X173101253Y-72351000D01*
X172598747Y-72351000D01*
X172105904Y-72252967D01*
X172105902Y-72252966D01*
X172105901Y-72252966D01*
X171641648Y-72060667D01*
X171223832Y-71781491D01*
X171223829Y-71781489D01*
X170868511Y-71426171D01*
X170867250Y-71424284D01*
X170589333Y-71008352D01*
X170397034Y-70544099D01*
X170299000Y-70051252D01*
X170299000Y-69548748D01*
X170363721Y-69223375D01*
X170397033Y-69055904D01*
X170397034Y-69055901D01*
X170589333Y-68591648D01*
X170868509Y-68173832D01*
X170868511Y-68173829D01*
X171223829Y-67818511D01*
X171225716Y-67817250D01*
X171641648Y-67539333D01*
X172105901Y-67347034D01*
X172105902Y-67347034D01*
X172105904Y-67347033D01*
X172598747Y-67249000D01*
X173101253Y-67249000D01*
X173594096Y-67347033D01*
X173594096Y-67347033D01*
G37*
G36*
X166480442Y-68505518D02*
X166546627Y-68512037D01*
X166659853Y-68546384D01*
X166716467Y-68563557D01*
X166855087Y-68637652D01*
X166872991Y-68647222D01*
X166892944Y-68663597D01*
X167010186Y-68759814D01*
X167093448Y-68861271D01*
X167122778Y-68897009D01*
X167122779Y-68897011D01*
X167206443Y-69053533D01*
X167206443Y-69053534D01*
X167257963Y-69223373D01*
X167275359Y-69400000D01*
X167257963Y-69576627D01*
X167223616Y-69689853D01*
X167206443Y-69746467D01*
X167132348Y-69885087D01*
X167122778Y-69902991D01*
X167093448Y-69938729D01*
X167010186Y-70040186D01*
X166908729Y-70123448D01*
X166872991Y-70152778D01*
X166872989Y-70152779D01*
X166716467Y-70236443D01*
X166659853Y-70253616D01*
X166546627Y-70287963D01*
X166480443Y-70294481D01*
X166414260Y-70301000D01*
X166325740Y-70301000D01*
X166259557Y-70294481D01*
X166193373Y-70287963D01*
X166080147Y-70253616D01*
X166023533Y-70236443D01*
X165867011Y-70152779D01*
X165867009Y-70152778D01*
X165831271Y-70123448D01*
X165729814Y-70040186D01*
X165646552Y-69938729D01*
X165617222Y-69902991D01*
X165607652Y-69885087D01*
X165533557Y-69746467D01*
X165516384Y-69689853D01*
X165482037Y-69576627D01*
X165464641Y-69400000D01*
X165482037Y-69223373D01*
X165533557Y-69053534D01*
X165533557Y-69053533D01*
X165617221Y-68897011D01*
X165617222Y-68897009D01*
X165646552Y-68861271D01*
X165729814Y-68759814D01*
X165847056Y-68663597D01*
X165867009Y-68647222D01*
X165884913Y-68637652D01*
X166023533Y-68563557D01*
X166080147Y-68546384D01*
X166193373Y-68512037D01*
X166259558Y-68505518D01*
X166325740Y-68499000D01*
X166414260Y-68499000D01*
X166480442Y-68505518D01*
X166480442Y-68505518D01*
G37*
G36*
X159651000Y-70301000D02*
X157849000Y-70301000D01*
X157849000Y-68499000D01*
X159651000Y-68499000D01*
X159651000Y-70301000D01*
X159651000Y-70301000D01*
G37*
G36*
X161400442Y-68505518D02*
X161466627Y-68512037D01*
X161579853Y-68546384D01*
X161636467Y-68563557D01*
X161775087Y-68637652D01*
X161792991Y-68647222D01*
X161812944Y-68663597D01*
X161930186Y-68759814D01*
X162013448Y-68861271D01*
X162042778Y-68897009D01*
X162042779Y-68897011D01*
X162126443Y-69053533D01*
X162126443Y-69053534D01*
X162177963Y-69223373D01*
X162195359Y-69400000D01*
X162177963Y-69576627D01*
X162143616Y-69689853D01*
X162126443Y-69746467D01*
X162052348Y-69885087D01*
X162042778Y-69902991D01*
X162013448Y-69938729D01*
X161930186Y-70040186D01*
X161828729Y-70123448D01*
X161792991Y-70152778D01*
X161792989Y-70152779D01*
X161636467Y-70236443D01*
X161579853Y-70253616D01*
X161466627Y-70287963D01*
X161400443Y-70294481D01*
X161334260Y-70301000D01*
X161245740Y-70301000D01*
X161179557Y-70294481D01*
X161113373Y-70287963D01*
X161000147Y-70253616D01*
X160943533Y-70236443D01*
X160787011Y-70152779D01*
X160787009Y-70152778D01*
X160751271Y-70123448D01*
X160649814Y-70040186D01*
X160566552Y-69938729D01*
X160537222Y-69902991D01*
X160527652Y-69885087D01*
X160453557Y-69746467D01*
X160436384Y-69689853D01*
X160402037Y-69576627D01*
X160384641Y-69400000D01*
X160402037Y-69223373D01*
X160453557Y-69053534D01*
X160453557Y-69053533D01*
X160537221Y-68897011D01*
X160537222Y-68897009D01*
X160566552Y-68861271D01*
X160649814Y-68759814D01*
X160767056Y-68663597D01*
X160787009Y-68647222D01*
X160804913Y-68637652D01*
X160943533Y-68563557D01*
X161000147Y-68546384D01*
X161113373Y-68512037D01*
X161179558Y-68505518D01*
X161245740Y-68499000D01*
X161334260Y-68499000D01*
X161400442Y-68505518D01*
X161400442Y-68505518D01*
G37*
G36*
X163940442Y-68505518D02*
X164006627Y-68512037D01*
X164119853Y-68546384D01*
X164176467Y-68563557D01*
X164315087Y-68637652D01*
X164332991Y-68647222D01*
X164352944Y-68663597D01*
X164470186Y-68759814D01*
X164553448Y-68861271D01*
X164582778Y-68897009D01*
X164582779Y-68897011D01*
X164666443Y-69053533D01*
X164666443Y-69053534D01*
X164717963Y-69223373D01*
X164735359Y-69400000D01*
X164717963Y-69576627D01*
X164683616Y-69689853D01*
X164666443Y-69746467D01*
X164592348Y-69885087D01*
X164582778Y-69902991D01*
X164553448Y-69938729D01*
X164470186Y-70040186D01*
X164368729Y-70123448D01*
X164332991Y-70152778D01*
X164332989Y-70152779D01*
X164176467Y-70236443D01*
X164119853Y-70253616D01*
X164006627Y-70287963D01*
X163940443Y-70294481D01*
X163874260Y-70301000D01*
X163785740Y-70301000D01*
X163719557Y-70294481D01*
X163653373Y-70287963D01*
X163540147Y-70253616D01*
X163483533Y-70236443D01*
X163327011Y-70152779D01*
X163327009Y-70152778D01*
X163291271Y-70123448D01*
X163189814Y-70040186D01*
X163106552Y-69938729D01*
X163077222Y-69902991D01*
X163067652Y-69885087D01*
X162993557Y-69746467D01*
X162976384Y-69689853D01*
X162942037Y-69576627D01*
X162924641Y-69400000D01*
X162942037Y-69223373D01*
X162993557Y-69053534D01*
X162993557Y-69053533D01*
X163077221Y-68897011D01*
X163077222Y-68897009D01*
X163106552Y-68861271D01*
X163189814Y-68759814D01*
X163307056Y-68663597D01*
X163327009Y-68647222D01*
X163344913Y-68637652D01*
X163483533Y-68563557D01*
X163540147Y-68546384D01*
X163653373Y-68512037D01*
X163719558Y-68505518D01*
X163785740Y-68499000D01*
X163874260Y-68499000D01*
X163940442Y-68505518D01*
X163940442Y-68505518D01*
G37*
G36*
X193773418Y-66882934D02*
X193805924Y-66892795D01*
X193835883Y-66908808D01*
X193862141Y-66930359D01*
X193883692Y-66956617D01*
X193899705Y-66986576D01*
X193909566Y-67019082D01*
X193913500Y-67059029D01*
X193913500Y-68600971D01*
X193909566Y-68640918D01*
X193899705Y-68673424D01*
X193883692Y-68703383D01*
X193862141Y-68729641D01*
X193835883Y-68751192D01*
X193805924Y-68767205D01*
X193773418Y-68777066D01*
X193733471Y-68781000D01*
X190391529Y-68781000D01*
X190351582Y-68777066D01*
X190319076Y-68767205D01*
X190289117Y-68751192D01*
X190262859Y-68729641D01*
X190241308Y-68703383D01*
X190225295Y-68673424D01*
X190215434Y-68640918D01*
X190211500Y-68600971D01*
X190211500Y-67059029D01*
X190215434Y-67019082D01*
X190225295Y-66986576D01*
X190241308Y-66956617D01*
X190262859Y-66930359D01*
X190289117Y-66908808D01*
X190319076Y-66892795D01*
X190351582Y-66882934D01*
X190391529Y-66879000D01*
X193733471Y-66879000D01*
X193773418Y-66882934D01*
X193773418Y-66882934D01*
G37*
G36*
X193148925Y-61812760D02*
X193148928Y-61812761D01*
X193148929Y-61812761D01*
X193328193Y-61867140D01*
X193328195Y-61867141D01*
X193493405Y-61955448D01*
X193638212Y-62074288D01*
X193757052Y-62219095D01*
X193845359Y-62384305D01*
X193899740Y-62563575D01*
X193918101Y-62750000D01*
X193899740Y-62936425D01*
X193845359Y-63115695D01*
X193757052Y-63280905D01*
X193638212Y-63425712D01*
X193493405Y-63544552D01*
X193493403Y-63544553D01*
X193328193Y-63632860D01*
X193148929Y-63687239D01*
X193148928Y-63687239D01*
X193148925Y-63687240D01*
X193009218Y-63701000D01*
X191115782Y-63701000D01*
X190976075Y-63687240D01*
X190976072Y-63687239D01*
X190976071Y-63687239D01*
X190796807Y-63632860D01*
X190631597Y-63544553D01*
X190631595Y-63544552D01*
X190486788Y-63425712D01*
X190367948Y-63280905D01*
X190279641Y-63115695D01*
X190225260Y-62936425D01*
X190206899Y-62750000D01*
X190225260Y-62563575D01*
X190279641Y-62384305D01*
X190367948Y-62219095D01*
X190486788Y-62074288D01*
X190631595Y-61955448D01*
X190796805Y-61867141D01*
X190796807Y-61867140D01*
X190976071Y-61812761D01*
X190976072Y-61812761D01*
X190976075Y-61812760D01*
X191115782Y-61799000D01*
X193009218Y-61799000D01*
X193148925Y-61812760D01*
X193148925Y-61812760D01*
G37*
G36*
X115326821Y-58921313D02*
X115326824Y-58921314D01*
X115326825Y-58921314D01*
X115487239Y-58969975D01*
X115487241Y-58969976D01*
X115487244Y-58969977D01*
X115635078Y-59048995D01*
X115764659Y-59155341D01*
X115871005Y-59284922D01*
X115950023Y-59432756D01*
X115998687Y-59593179D01*
X116015117Y-59760000D01*
X115998687Y-59926821D01*
X115950023Y-60087244D01*
X115871005Y-60235078D01*
X115764659Y-60364659D01*
X115635078Y-60471005D01*
X115487244Y-60550023D01*
X115487241Y-60550024D01*
X115487239Y-60550025D01*
X115326825Y-60598686D01*
X115326824Y-60598686D01*
X115326821Y-60598687D01*
X115201804Y-60611000D01*
X115118196Y-60611000D01*
X114993179Y-60598687D01*
X114993176Y-60598686D01*
X114993175Y-60598686D01*
X114832761Y-60550025D01*
X114832759Y-60550024D01*
X114832756Y-60550023D01*
X114684922Y-60471005D01*
X114555341Y-60364659D01*
X114448995Y-60235078D01*
X114369977Y-60087244D01*
X114321313Y-59926821D01*
X114304883Y-59760000D01*
X114321313Y-59593179D01*
X114369977Y-59432756D01*
X114448995Y-59284922D01*
X114555341Y-59155341D01*
X114684922Y-59048995D01*
X114832756Y-58969977D01*
X114832759Y-58969976D01*
X114832761Y-58969975D01*
X114993175Y-58921314D01*
X114993176Y-58921314D01*
X114993179Y-58921313D01*
X115118196Y-58909000D01*
X115201804Y-58909000D01*
X115326821Y-58921313D01*
X115326821Y-58921313D01*
G37*
G36*
X133106821Y-58921313D02*
X133106824Y-58921314D01*
X133106825Y-58921314D01*
X133267239Y-58969975D01*
X133267241Y-58969976D01*
X133267244Y-58969977D01*
X133415078Y-59048995D01*
X133544659Y-59155341D01*
X133651005Y-59284922D01*
X133730023Y-59432756D01*
X133778687Y-59593179D01*
X133795117Y-59760000D01*
X133778687Y-59926821D01*
X133730023Y-60087244D01*
X133651005Y-60235078D01*
X133544659Y-60364659D01*
X133415078Y-60471005D01*
X133267244Y-60550023D01*
X133267241Y-60550024D01*
X133267239Y-60550025D01*
X133106825Y-60598686D01*
X133106824Y-60598686D01*
X133106821Y-60598687D01*
X132981804Y-60611000D01*
X132898196Y-60611000D01*
X132773179Y-60598687D01*
X132773176Y-60598686D01*
X132773175Y-60598686D01*
X132612761Y-60550025D01*
X132612759Y-60550024D01*
X132612756Y-60550023D01*
X132464922Y-60471005D01*
X132335341Y-60364659D01*
X132228995Y-60235078D01*
X132149977Y-60087244D01*
X132101313Y-59926821D01*
X132084883Y-59760000D01*
X132101313Y-59593179D01*
X132149977Y-59432756D01*
X132228995Y-59284922D01*
X132335341Y-59155341D01*
X132464922Y-59048995D01*
X132612756Y-58969977D01*
X132612759Y-58969976D01*
X132612761Y-58969975D01*
X132773175Y-58921314D01*
X132773176Y-58921314D01*
X132773179Y-58921313D01*
X132898196Y-58909000D01*
X132981804Y-58909000D01*
X133106821Y-58921313D01*
X133106821Y-58921313D01*
G37*
G36*
X135646821Y-58921313D02*
X135646824Y-58921314D01*
X135646825Y-58921314D01*
X135807239Y-58969975D01*
X135807241Y-58969976D01*
X135807244Y-58969977D01*
X135955078Y-59048995D01*
X136084659Y-59155341D01*
X136191005Y-59284922D01*
X136270023Y-59432756D01*
X136318687Y-59593179D01*
X136335117Y-59760000D01*
X136318687Y-59926821D01*
X136270023Y-60087244D01*
X136191005Y-60235078D01*
X136084659Y-60364659D01*
X135955078Y-60471005D01*
X135807244Y-60550023D01*
X135807241Y-60550024D01*
X135807239Y-60550025D01*
X135646825Y-60598686D01*
X135646824Y-60598686D01*
X135646821Y-60598687D01*
X135521804Y-60611000D01*
X135438196Y-60611000D01*
X135313179Y-60598687D01*
X135313176Y-60598686D01*
X135313175Y-60598686D01*
X135152761Y-60550025D01*
X135152759Y-60550024D01*
X135152756Y-60550023D01*
X135004922Y-60471005D01*
X134875341Y-60364659D01*
X134768995Y-60235078D01*
X134689977Y-60087244D01*
X134641313Y-59926821D01*
X134624883Y-59760000D01*
X134641313Y-59593179D01*
X134689977Y-59432756D01*
X134768995Y-59284922D01*
X134875341Y-59155341D01*
X135004922Y-59048995D01*
X135152756Y-58969977D01*
X135152759Y-58969976D01*
X135152761Y-58969975D01*
X135313175Y-58921314D01*
X135313176Y-58921314D01*
X135313179Y-58921313D01*
X135438196Y-58909000D01*
X135521804Y-58909000D01*
X135646821Y-58921313D01*
X135646821Y-58921313D01*
G37*
G36*
X120406821Y-58921313D02*
X120406824Y-58921314D01*
X120406825Y-58921314D01*
X120567239Y-58969975D01*
X120567241Y-58969976D01*
X120567244Y-58969977D01*
X120715078Y-59048995D01*
X120844659Y-59155341D01*
X120951005Y-59284922D01*
X121030023Y-59432756D01*
X121078687Y-59593179D01*
X121095117Y-59760000D01*
X121078687Y-59926821D01*
X121030023Y-60087244D01*
X120951005Y-60235078D01*
X120844659Y-60364659D01*
X120715078Y-60471005D01*
X120567244Y-60550023D01*
X120567241Y-60550024D01*
X120567239Y-60550025D01*
X120406825Y-60598686D01*
X120406824Y-60598686D01*
X120406821Y-60598687D01*
X120281804Y-60611000D01*
X120198196Y-60611000D01*
X120073179Y-60598687D01*
X120073176Y-60598686D01*
X120073175Y-60598686D01*
X119912761Y-60550025D01*
X119912759Y-60550024D01*
X119912756Y-60550023D01*
X119764922Y-60471005D01*
X119635341Y-60364659D01*
X119528995Y-60235078D01*
X119449977Y-60087244D01*
X119401313Y-59926821D01*
X119384883Y-59760000D01*
X119401313Y-59593179D01*
X119449977Y-59432756D01*
X119528995Y-59284922D01*
X119635341Y-59155341D01*
X119764922Y-59048995D01*
X119912756Y-58969977D01*
X119912759Y-58969976D01*
X119912761Y-58969975D01*
X120073175Y-58921314D01*
X120073176Y-58921314D01*
X120073179Y-58921313D01*
X120198196Y-58909000D01*
X120281804Y-58909000D01*
X120406821Y-58921313D01*
X120406821Y-58921313D01*
G37*
G36*
X117866821Y-58921313D02*
X117866824Y-58921314D01*
X117866825Y-58921314D01*
X118027239Y-58969975D01*
X118027241Y-58969976D01*
X118027244Y-58969977D01*
X118175078Y-59048995D01*
X118304659Y-59155341D01*
X118411005Y-59284922D01*
X118490023Y-59432756D01*
X118538687Y-59593179D01*
X118555117Y-59760000D01*
X118538687Y-59926821D01*
X118490023Y-60087244D01*
X118411005Y-60235078D01*
X118304659Y-60364659D01*
X118175078Y-60471005D01*
X118027244Y-60550023D01*
X118027241Y-60550024D01*
X118027239Y-60550025D01*
X117866825Y-60598686D01*
X117866824Y-60598686D01*
X117866821Y-60598687D01*
X117741804Y-60611000D01*
X117658196Y-60611000D01*
X117533179Y-60598687D01*
X117533176Y-60598686D01*
X117533175Y-60598686D01*
X117372761Y-60550025D01*
X117372759Y-60550024D01*
X117372756Y-60550023D01*
X117224922Y-60471005D01*
X117095341Y-60364659D01*
X116988995Y-60235078D01*
X116909977Y-60087244D01*
X116861313Y-59926821D01*
X116844883Y-59760000D01*
X116861313Y-59593179D01*
X116909977Y-59432756D01*
X116988995Y-59284922D01*
X117095341Y-59155341D01*
X117224922Y-59048995D01*
X117372756Y-58969977D01*
X117372759Y-58969976D01*
X117372761Y-58969975D01*
X117533175Y-58921314D01*
X117533176Y-58921314D01*
X117533179Y-58921313D01*
X117658196Y-58909000D01*
X117741804Y-58909000D01*
X117866821Y-58921313D01*
X117866821Y-58921313D01*
G37*
G36*
X122946821Y-58921313D02*
X122946824Y-58921314D01*
X122946825Y-58921314D01*
X123107239Y-58969975D01*
X123107241Y-58969976D01*
X123107244Y-58969977D01*
X123255078Y-59048995D01*
X123384659Y-59155341D01*
X123491005Y-59284922D01*
X123570023Y-59432756D01*
X123618687Y-59593179D01*
X123635117Y-59760000D01*
X123618687Y-59926821D01*
X123570023Y-60087244D01*
X123491005Y-60235078D01*
X123384659Y-60364659D01*
X123255078Y-60471005D01*
X123107244Y-60550023D01*
X123107241Y-60550024D01*
X123107239Y-60550025D01*
X122946825Y-60598686D01*
X122946824Y-60598686D01*
X122946821Y-60598687D01*
X122821804Y-60611000D01*
X122738196Y-60611000D01*
X122613179Y-60598687D01*
X122613176Y-60598686D01*
X122613175Y-60598686D01*
X122452761Y-60550025D01*
X122452759Y-60550024D01*
X122452756Y-60550023D01*
X122304922Y-60471005D01*
X122175341Y-60364659D01*
X122068995Y-60235078D01*
X121989977Y-60087244D01*
X121941313Y-59926821D01*
X121924883Y-59760000D01*
X121941313Y-59593179D01*
X121989977Y-59432756D01*
X122068995Y-59284922D01*
X122175341Y-59155341D01*
X122304922Y-59048995D01*
X122452756Y-58969977D01*
X122452759Y-58969976D01*
X122452761Y-58969975D01*
X122613175Y-58921314D01*
X122613176Y-58921314D01*
X122613179Y-58921313D01*
X122738196Y-58909000D01*
X122821804Y-58909000D01*
X122946821Y-58921313D01*
X122946821Y-58921313D01*
G37*
G36*
X110246821Y-58921313D02*
X110246824Y-58921314D01*
X110246825Y-58921314D01*
X110407239Y-58969975D01*
X110407241Y-58969976D01*
X110407244Y-58969977D01*
X110555078Y-59048995D01*
X110684659Y-59155341D01*
X110791005Y-59284922D01*
X110870023Y-59432756D01*
X110918687Y-59593179D01*
X110935117Y-59760000D01*
X110918687Y-59926821D01*
X110870023Y-60087244D01*
X110791005Y-60235078D01*
X110684659Y-60364659D01*
X110555078Y-60471005D01*
X110407244Y-60550023D01*
X110407241Y-60550024D01*
X110407239Y-60550025D01*
X110246825Y-60598686D01*
X110246824Y-60598686D01*
X110246821Y-60598687D01*
X110121804Y-60611000D01*
X110038196Y-60611000D01*
X109913179Y-60598687D01*
X109913176Y-60598686D01*
X109913175Y-60598686D01*
X109752761Y-60550025D01*
X109752759Y-60550024D01*
X109752756Y-60550023D01*
X109604922Y-60471005D01*
X109475341Y-60364659D01*
X109368995Y-60235078D01*
X109289977Y-60087244D01*
X109241313Y-59926821D01*
X109224883Y-59760000D01*
X109241313Y-59593179D01*
X109289977Y-59432756D01*
X109368995Y-59284922D01*
X109475341Y-59155341D01*
X109604922Y-59048995D01*
X109752756Y-58969977D01*
X109752759Y-58969976D01*
X109752761Y-58969975D01*
X109913175Y-58921314D01*
X109913176Y-58921314D01*
X109913179Y-58921313D01*
X110038196Y-58909000D01*
X110121804Y-58909000D01*
X110246821Y-58921313D01*
X110246821Y-58921313D01*
G37*
G36*
X128026821Y-58921313D02*
X128026824Y-58921314D01*
X128026825Y-58921314D01*
X128187239Y-58969975D01*
X128187241Y-58969976D01*
X128187244Y-58969977D01*
X128335078Y-59048995D01*
X128464659Y-59155341D01*
X128571005Y-59284922D01*
X128650023Y-59432756D01*
X128698687Y-59593179D01*
X128715117Y-59760000D01*
X128698687Y-59926821D01*
X128650023Y-60087244D01*
X128571005Y-60235078D01*
X128464659Y-60364659D01*
X128335078Y-60471005D01*
X128187244Y-60550023D01*
X128187241Y-60550024D01*
X128187239Y-60550025D01*
X128026825Y-60598686D01*
X128026824Y-60598686D01*
X128026821Y-60598687D01*
X127901804Y-60611000D01*
X127818196Y-60611000D01*
X127693179Y-60598687D01*
X127693176Y-60598686D01*
X127693175Y-60598686D01*
X127532761Y-60550025D01*
X127532759Y-60550024D01*
X127532756Y-60550023D01*
X127384922Y-60471005D01*
X127255341Y-60364659D01*
X127148995Y-60235078D01*
X127069977Y-60087244D01*
X127021313Y-59926821D01*
X127004883Y-59760000D01*
X127021313Y-59593179D01*
X127069977Y-59432756D01*
X127148995Y-59284922D01*
X127255341Y-59155341D01*
X127384922Y-59048995D01*
X127532756Y-58969977D01*
X127532759Y-58969976D01*
X127532761Y-58969975D01*
X127693175Y-58921314D01*
X127693176Y-58921314D01*
X127693179Y-58921313D01*
X127818196Y-58909000D01*
X127901804Y-58909000D01*
X128026821Y-58921313D01*
X128026821Y-58921313D01*
G37*
G36*
X140726821Y-58921313D02*
X140726824Y-58921314D01*
X140726825Y-58921314D01*
X140887239Y-58969975D01*
X140887241Y-58969976D01*
X140887244Y-58969977D01*
X141035078Y-59048995D01*
X141164659Y-59155341D01*
X141271005Y-59284922D01*
X141350023Y-59432756D01*
X141398687Y-59593179D01*
X141415117Y-59760000D01*
X141398687Y-59926821D01*
X141350023Y-60087244D01*
X141271005Y-60235078D01*
X141164659Y-60364659D01*
X141035078Y-60471005D01*
X140887244Y-60550023D01*
X140887241Y-60550024D01*
X140887239Y-60550025D01*
X140726825Y-60598686D01*
X140726824Y-60598686D01*
X140726821Y-60598687D01*
X140601804Y-60611000D01*
X140518196Y-60611000D01*
X140393179Y-60598687D01*
X140393176Y-60598686D01*
X140393175Y-60598686D01*
X140232761Y-60550025D01*
X140232759Y-60550024D01*
X140232756Y-60550023D01*
X140084922Y-60471005D01*
X139955341Y-60364659D01*
X139848995Y-60235078D01*
X139769977Y-60087244D01*
X139721313Y-59926821D01*
X139704883Y-59760000D01*
X139721313Y-59593179D01*
X139769977Y-59432756D01*
X139848995Y-59284922D01*
X139955341Y-59155341D01*
X140084922Y-59048995D01*
X140232756Y-58969977D01*
X140232759Y-58969976D01*
X140232761Y-58969975D01*
X140393175Y-58921314D01*
X140393176Y-58921314D01*
X140393179Y-58921313D01*
X140518196Y-58909000D01*
X140601804Y-58909000D01*
X140726821Y-58921313D01*
X140726821Y-58921313D01*
G37*
G36*
X138186821Y-58921313D02*
X138186824Y-58921314D01*
X138186825Y-58921314D01*
X138347239Y-58969975D01*
X138347241Y-58969976D01*
X138347244Y-58969977D01*
X138495078Y-59048995D01*
X138624659Y-59155341D01*
X138731005Y-59284922D01*
X138810023Y-59432756D01*
X138858687Y-59593179D01*
X138875117Y-59760000D01*
X138858687Y-59926821D01*
X138810023Y-60087244D01*
X138731005Y-60235078D01*
X138624659Y-60364659D01*
X138495078Y-60471005D01*
X138347244Y-60550023D01*
X138347241Y-60550024D01*
X138347239Y-60550025D01*
X138186825Y-60598686D01*
X138186824Y-60598686D01*
X138186821Y-60598687D01*
X138061804Y-60611000D01*
X137978196Y-60611000D01*
X137853179Y-60598687D01*
X137853176Y-60598686D01*
X137853175Y-60598686D01*
X137692761Y-60550025D01*
X137692759Y-60550024D01*
X137692756Y-60550023D01*
X137544922Y-60471005D01*
X137415341Y-60364659D01*
X137308995Y-60235078D01*
X137229977Y-60087244D01*
X137181313Y-59926821D01*
X137164883Y-59760000D01*
X137181313Y-59593179D01*
X137229977Y-59432756D01*
X137308995Y-59284922D01*
X137415341Y-59155341D01*
X137544922Y-59048995D01*
X137692756Y-58969977D01*
X137692759Y-58969976D01*
X137692761Y-58969975D01*
X137853175Y-58921314D01*
X137853176Y-58921314D01*
X137853179Y-58921313D01*
X137978196Y-58909000D01*
X138061804Y-58909000D01*
X138186821Y-58921313D01*
X138186821Y-58921313D01*
G37*
G36*
X105166821Y-58921313D02*
X105166824Y-58921314D01*
X105166825Y-58921314D01*
X105327239Y-58969975D01*
X105327241Y-58969976D01*
X105327244Y-58969977D01*
X105475078Y-59048995D01*
X105604659Y-59155341D01*
X105711005Y-59284922D01*
X105790023Y-59432756D01*
X105838687Y-59593179D01*
X105855117Y-59760000D01*
X105838687Y-59926821D01*
X105790023Y-60087244D01*
X105711005Y-60235078D01*
X105604659Y-60364659D01*
X105475078Y-60471005D01*
X105327244Y-60550023D01*
X105327241Y-60550024D01*
X105327239Y-60550025D01*
X105166825Y-60598686D01*
X105166824Y-60598686D01*
X105166821Y-60598687D01*
X105041804Y-60611000D01*
X104958196Y-60611000D01*
X104833179Y-60598687D01*
X104833176Y-60598686D01*
X104833175Y-60598686D01*
X104672761Y-60550025D01*
X104672759Y-60550024D01*
X104672756Y-60550023D01*
X104524922Y-60471005D01*
X104395341Y-60364659D01*
X104288995Y-60235078D01*
X104209977Y-60087244D01*
X104161313Y-59926821D01*
X104144883Y-59760000D01*
X104161313Y-59593179D01*
X104209977Y-59432756D01*
X104288995Y-59284922D01*
X104395341Y-59155341D01*
X104524922Y-59048995D01*
X104672756Y-58969977D01*
X104672759Y-58969976D01*
X104672761Y-58969975D01*
X104833175Y-58921314D01*
X104833176Y-58921314D01*
X104833179Y-58921313D01*
X104958196Y-58909000D01*
X105041804Y-58909000D01*
X105166821Y-58921313D01*
X105166821Y-58921313D01*
G37*
G36*
X107706821Y-58921313D02*
X107706824Y-58921314D01*
X107706825Y-58921314D01*
X107867239Y-58969975D01*
X107867241Y-58969976D01*
X107867244Y-58969977D01*
X108015078Y-59048995D01*
X108144659Y-59155341D01*
X108251005Y-59284922D01*
X108330023Y-59432756D01*
X108378687Y-59593179D01*
X108395117Y-59760000D01*
X108378687Y-59926821D01*
X108330023Y-60087244D01*
X108251005Y-60235078D01*
X108144659Y-60364659D01*
X108015078Y-60471005D01*
X107867244Y-60550023D01*
X107867241Y-60550024D01*
X107867239Y-60550025D01*
X107706825Y-60598686D01*
X107706824Y-60598686D01*
X107706821Y-60598687D01*
X107581804Y-60611000D01*
X107498196Y-60611000D01*
X107373179Y-60598687D01*
X107373176Y-60598686D01*
X107373175Y-60598686D01*
X107212761Y-60550025D01*
X107212759Y-60550024D01*
X107212756Y-60550023D01*
X107064922Y-60471005D01*
X106935341Y-60364659D01*
X106828995Y-60235078D01*
X106749977Y-60087244D01*
X106701313Y-59926821D01*
X106684883Y-59760000D01*
X106701313Y-59593179D01*
X106749977Y-59432756D01*
X106828995Y-59284922D01*
X106935341Y-59155341D01*
X107064922Y-59048995D01*
X107212756Y-58969977D01*
X107212759Y-58969976D01*
X107212761Y-58969975D01*
X107373175Y-58921314D01*
X107373176Y-58921314D01*
X107373179Y-58921313D01*
X107498196Y-58909000D01*
X107581804Y-58909000D01*
X107706821Y-58921313D01*
X107706821Y-58921313D01*
G37*
G36*
X112786821Y-58921313D02*
X112786824Y-58921314D01*
X112786825Y-58921314D01*
X112947239Y-58969975D01*
X112947241Y-58969976D01*
X112947244Y-58969977D01*
X113095078Y-59048995D01*
X113224659Y-59155341D01*
X113331005Y-59284922D01*
X113410023Y-59432756D01*
X113458687Y-59593179D01*
X113475117Y-59760000D01*
X113458687Y-59926821D01*
X113410023Y-60087244D01*
X113331005Y-60235078D01*
X113224659Y-60364659D01*
X113095078Y-60471005D01*
X112947244Y-60550023D01*
X112947241Y-60550024D01*
X112947239Y-60550025D01*
X112786825Y-60598686D01*
X112786824Y-60598686D01*
X112786821Y-60598687D01*
X112661804Y-60611000D01*
X112578196Y-60611000D01*
X112453179Y-60598687D01*
X112453176Y-60598686D01*
X112453175Y-60598686D01*
X112292761Y-60550025D01*
X112292759Y-60550024D01*
X112292756Y-60550023D01*
X112144922Y-60471005D01*
X112015341Y-60364659D01*
X111908995Y-60235078D01*
X111829977Y-60087244D01*
X111781313Y-59926821D01*
X111764883Y-59760000D01*
X111781313Y-59593179D01*
X111829977Y-59432756D01*
X111908995Y-59284922D01*
X112015341Y-59155341D01*
X112144922Y-59048995D01*
X112292756Y-58969977D01*
X112292759Y-58969976D01*
X112292761Y-58969975D01*
X112453175Y-58921314D01*
X112453176Y-58921314D01*
X112453179Y-58921313D01*
X112578196Y-58909000D01*
X112661804Y-58909000D01*
X112786821Y-58921313D01*
X112786821Y-58921313D01*
G37*
G36*
X130566821Y-58921313D02*
X130566824Y-58921314D01*
X130566825Y-58921314D01*
X130727239Y-58969975D01*
X130727241Y-58969976D01*
X130727244Y-58969977D01*
X130875078Y-59048995D01*
X131004659Y-59155341D01*
X131111005Y-59284922D01*
X131190023Y-59432756D01*
X131238687Y-59593179D01*
X131255117Y-59760000D01*
X131238687Y-59926821D01*
X131190023Y-60087244D01*
X131111005Y-60235078D01*
X131004659Y-60364659D01*
X130875078Y-60471005D01*
X130727244Y-60550023D01*
X130727241Y-60550024D01*
X130727239Y-60550025D01*
X130566825Y-60598686D01*
X130566824Y-60598686D01*
X130566821Y-60598687D01*
X130441804Y-60611000D01*
X130358196Y-60611000D01*
X130233179Y-60598687D01*
X130233176Y-60598686D01*
X130233175Y-60598686D01*
X130072761Y-60550025D01*
X130072759Y-60550024D01*
X130072756Y-60550023D01*
X129924922Y-60471005D01*
X129795341Y-60364659D01*
X129688995Y-60235078D01*
X129609977Y-60087244D01*
X129561313Y-59926821D01*
X129544883Y-59760000D01*
X129561313Y-59593179D01*
X129609977Y-59432756D01*
X129688995Y-59284922D01*
X129795341Y-59155341D01*
X129924922Y-59048995D01*
X130072756Y-58969977D01*
X130072759Y-58969976D01*
X130072761Y-58969975D01*
X130233175Y-58921314D01*
X130233176Y-58921314D01*
X130233179Y-58921313D01*
X130358196Y-58909000D01*
X130441804Y-58909000D01*
X130566821Y-58921313D01*
X130566821Y-58921313D01*
G37*
G36*
X125486821Y-58921313D02*
X125486824Y-58921314D01*
X125486825Y-58921314D01*
X125647239Y-58969975D01*
X125647241Y-58969976D01*
X125647244Y-58969977D01*
X125795078Y-59048995D01*
X125924659Y-59155341D01*
X126031005Y-59284922D01*
X126110023Y-59432756D01*
X126158687Y-59593179D01*
X126175117Y-59760000D01*
X126158687Y-59926821D01*
X126110023Y-60087244D01*
X126031005Y-60235078D01*
X125924659Y-60364659D01*
X125795078Y-60471005D01*
X125647244Y-60550023D01*
X125647241Y-60550024D01*
X125647239Y-60550025D01*
X125486825Y-60598686D01*
X125486824Y-60598686D01*
X125486821Y-60598687D01*
X125361804Y-60611000D01*
X125278196Y-60611000D01*
X125153179Y-60598687D01*
X125153176Y-60598686D01*
X125153175Y-60598686D01*
X124992761Y-60550025D01*
X124992759Y-60550024D01*
X124992756Y-60550023D01*
X124844922Y-60471005D01*
X124715341Y-60364659D01*
X124608995Y-60235078D01*
X124529977Y-60087244D01*
X124481313Y-59926821D01*
X124464883Y-59760000D01*
X124481313Y-59593179D01*
X124529977Y-59432756D01*
X124608995Y-59284922D01*
X124715341Y-59155341D01*
X124844922Y-59048995D01*
X124992756Y-58969977D01*
X124992759Y-58969976D01*
X124992761Y-58969975D01*
X125153175Y-58921314D01*
X125153176Y-58921314D01*
X125153179Y-58921313D01*
X125278196Y-58909000D01*
X125361804Y-58909000D01*
X125486821Y-58921313D01*
X125486821Y-58921313D01*
G37*
G36*
X166596565Y-56901389D02*
X166787834Y-56980615D01*
X166959976Y-57095637D01*
X167106363Y-57242024D01*
X167221385Y-57414166D01*
X167300611Y-57605435D01*
X167341000Y-57808484D01*
X167341000Y-58015516D01*
X167300611Y-58218565D01*
X167221385Y-58409834D01*
X167106363Y-58581976D01*
X166959976Y-58728363D01*
X166787834Y-58843385D01*
X166596565Y-58922611D01*
X166393516Y-58963000D01*
X166186484Y-58963000D01*
X165983435Y-58922611D01*
X165792166Y-58843385D01*
X165620024Y-58728363D01*
X165473637Y-58581976D01*
X165358615Y-58409834D01*
X165279389Y-58218565D01*
X165239000Y-58015516D01*
X165239000Y-57808484D01*
X165279389Y-57605435D01*
X165358615Y-57414166D01*
X165473637Y-57242024D01*
X165620024Y-57095637D01*
X165792166Y-56980615D01*
X165983435Y-56901389D01*
X166186484Y-56861000D01*
X166393516Y-56861000D01*
X166596565Y-56901389D01*
X166596565Y-56901389D01*
G37*
G36*
X162341000Y-58963000D02*
X160239000Y-58963000D01*
X160239000Y-56861000D01*
X162341000Y-56861000D01*
X162341000Y-58963000D01*
X162341000Y-58963000D01*
G37*
G36*
X105889941Y-52066248D02*
X105889943Y-52066249D01*
X105889944Y-52066249D01*
X106445190Y-52296239D01*
X106445191Y-52296240D01*
X106944902Y-52630136D01*
X107369864Y-53055098D01*
X107369866Y-53055101D01*
X107703761Y-53554810D01*
X107933751Y-54110056D01*
X107933752Y-54110059D01*
X108051000Y-54699501D01*
X108051000Y-55300499D01*
X108024511Y-55433668D01*
X107933751Y-55889944D01*
X107703761Y-56445190D01*
X107414242Y-56878486D01*
X107369864Y-56944902D01*
X106944902Y-57369864D01*
X106944899Y-57369866D01*
X106445190Y-57703761D01*
X105889944Y-57933751D01*
X105889943Y-57933751D01*
X105889941Y-57933752D01*
X105300499Y-58051000D01*
X104699501Y-58051000D01*
X104110059Y-57933752D01*
X104110057Y-57933751D01*
X104110056Y-57933751D01*
X103554810Y-57703761D01*
X103055101Y-57369866D01*
X103055098Y-57369864D01*
X102630136Y-56944902D01*
X102585758Y-56878486D01*
X102296239Y-56445190D01*
X102066249Y-55889944D01*
X101975490Y-55433668D01*
X101949000Y-55300499D01*
X101949000Y-54699501D01*
X102066248Y-54110059D01*
X102066249Y-54110056D01*
X102296239Y-53554810D01*
X102630134Y-53055101D01*
X102630136Y-53055098D01*
X103055098Y-52630136D01*
X103554809Y-52296240D01*
X103554810Y-52296239D01*
X104110056Y-52066249D01*
X104110057Y-52066249D01*
X104110059Y-52066248D01*
X104699501Y-51949000D01*
X105300499Y-51949000D01*
X105889941Y-52066248D01*
X105889941Y-52066248D01*
G37*
G36*
X195889941Y-52066248D02*
X195889943Y-52066249D01*
X195889944Y-52066249D01*
X196445190Y-52296239D01*
X196445191Y-52296240D01*
X196944902Y-52630136D01*
X197369864Y-53055098D01*
X197369866Y-53055101D01*
X197703761Y-53554810D01*
X197933751Y-54110056D01*
X197933752Y-54110059D01*
X198051000Y-54699501D01*
X198051000Y-55300499D01*
X198024511Y-55433668D01*
X197933751Y-55889944D01*
X197703761Y-56445190D01*
X197414242Y-56878486D01*
X197369864Y-56944902D01*
X196944902Y-57369864D01*
X196944899Y-57369866D01*
X196445190Y-57703761D01*
X195889944Y-57933751D01*
X195889943Y-57933751D01*
X195889941Y-57933752D01*
X195300499Y-58051000D01*
X194699501Y-58051000D01*
X194110059Y-57933752D01*
X194110057Y-57933751D01*
X194110056Y-57933751D01*
X193554810Y-57703761D01*
X193055101Y-57369866D01*
X193055098Y-57369864D01*
X192630136Y-56944902D01*
X192585758Y-56878486D01*
X192296239Y-56445190D01*
X192066249Y-55889944D01*
X191975490Y-55433668D01*
X191949000Y-55300499D01*
X191949000Y-54699501D01*
X192066248Y-54110059D01*
X192066249Y-54110056D01*
X192296239Y-53554810D01*
X192630134Y-53055101D01*
X192630136Y-53055098D01*
X193055098Y-52630136D01*
X193554809Y-52296240D01*
X193554810Y-52296239D01*
X194110056Y-52066249D01*
X194110057Y-52066249D01*
X194110059Y-52066248D01*
X194699501Y-51949000D01*
X195300499Y-51949000D01*
X195889941Y-52066248D01*
X195889941Y-52066248D01*
G37*
M02*
