G04 #@! TF.GenerationSoftware,KiCad,Pcbnew,5.0.2+dfsg1-1*
G04 #@! TF.CreationDate,2021-05-29T18:00:52+02:00*
G04 #@! TF.ProjectId,Reflow_Control,5265666c-6f77-45f4-936f-6e74726f6c2e,rev?*
G04 #@! TF.SameCoordinates,Original*
G04 #@! TF.FileFunction,Copper,L2,Bot*
G04 #@! TF.FilePolarity,Positive*
%FSLAX46Y46*%
G04 Gerber Fmt 4.6, Leading zero omitted, Abs format (unit mm)*
G04 Created by KiCad (PCBNEW 5.0.2+dfsg1-1) date Sat 29 May 2021 06:00:52 PM CEST*
%MOMM*%
%LPD*%
G01*
G04 APERTURE LIST*
G04 #@! TA.AperFunction,ComponentPad*
%ADD10O,3.600000X1.800000*%
G04 #@! TD*
G04 #@! TA.AperFunction,Conductor*
%ADD11C,0.100000*%
G04 #@! TD*
G04 #@! TA.AperFunction,ComponentPad*
%ADD12C,1.800000*%
G04 #@! TD*
G04 #@! TA.AperFunction,ComponentPad*
%ADD13R,2.000000X2.000000*%
G04 #@! TD*
G04 #@! TA.AperFunction,ComponentPad*
%ADD14C,2.000000*%
G04 #@! TD*
G04 #@! TA.AperFunction,ComponentPad*
%ADD15C,5.000000*%
G04 #@! TD*
G04 #@! TA.AperFunction,ComponentPad*
%ADD16C,0.800000*%
G04 #@! TD*
G04 #@! TA.AperFunction,ComponentPad*
%ADD17C,6.000000*%
G04 #@! TD*
G04 #@! TA.AperFunction,ComponentPad*
%ADD18R,1.700000X1.700000*%
G04 #@! TD*
G04 #@! TA.AperFunction,ComponentPad*
%ADD19O,1.700000X1.700000*%
G04 #@! TD*
G04 #@! TA.AperFunction,ComponentPad*
%ADD20R,1.600000X1.600000*%
G04 #@! TD*
G04 #@! TA.AperFunction,ComponentPad*
%ADD21O,1.600000X1.600000*%
G04 #@! TD*
G04 #@! TA.AperFunction,ComponentPad*
%ADD22C,1.500000*%
G04 #@! TD*
G04 #@! TA.AperFunction,ComponentPad*
%ADD23R,2.000000X3.200000*%
G04 #@! TD*
G04 #@! TA.AperFunction,ComponentPad*
%ADD24C,3.500000*%
G04 #@! TD*
G04 #@! TA.AperFunction,ComponentPad*
%ADD25O,1.800000X3.600000*%
G04 #@! TD*
G04 #@! TA.AperFunction,ViaPad*
%ADD26C,0.800000*%
G04 #@! TD*
G04 #@! TA.AperFunction,Conductor*
%ADD27C,0.250000*%
G04 #@! TD*
G04 #@! TA.AperFunction,Conductor*
%ADD28C,1.000000*%
G04 #@! TD*
G04 #@! TA.AperFunction,Conductor*
%ADD29C,0.500000*%
G04 #@! TD*
G04 #@! TA.AperFunction,Conductor*
%ADD30C,0.254000*%
G04 #@! TD*
G04 APERTURE END LIST*
D10*
G04 #@! TO.P,J1,2*
G04 #@! TO.N,GND*
X108100000Y-85680000D03*
D11*
G04 #@! TD*
G04 #@! TO.N,+5V*
G04 #@! TO.C,J1*
G36*
X109674504Y-79701204D02*
X109698773Y-79704804D01*
X109722571Y-79710765D01*
X109745671Y-79719030D01*
X109767849Y-79729520D01*
X109788893Y-79742133D01*
X109808598Y-79756747D01*
X109826777Y-79773223D01*
X109843253Y-79791402D01*
X109857867Y-79811107D01*
X109870480Y-79832151D01*
X109880970Y-79854329D01*
X109889235Y-79877429D01*
X109895196Y-79901227D01*
X109898796Y-79925496D01*
X109900000Y-79950000D01*
X109900000Y-81250000D01*
X109898796Y-81274504D01*
X109895196Y-81298773D01*
X109889235Y-81322571D01*
X109880970Y-81345671D01*
X109870480Y-81367849D01*
X109857867Y-81388893D01*
X109843253Y-81408598D01*
X109826777Y-81426777D01*
X109808598Y-81443253D01*
X109788893Y-81457867D01*
X109767849Y-81470480D01*
X109745671Y-81480970D01*
X109722571Y-81489235D01*
X109698773Y-81495196D01*
X109674504Y-81498796D01*
X109650000Y-81500000D01*
X106550000Y-81500000D01*
X106525496Y-81498796D01*
X106501227Y-81495196D01*
X106477429Y-81489235D01*
X106454329Y-81480970D01*
X106432151Y-81470480D01*
X106411107Y-81457867D01*
X106391402Y-81443253D01*
X106373223Y-81426777D01*
X106356747Y-81408598D01*
X106342133Y-81388893D01*
X106329520Y-81367849D01*
X106319030Y-81345671D01*
X106310765Y-81322571D01*
X106304804Y-81298773D01*
X106301204Y-81274504D01*
X106300000Y-81250000D01*
X106300000Y-79950000D01*
X106301204Y-79925496D01*
X106304804Y-79901227D01*
X106310765Y-79877429D01*
X106319030Y-79854329D01*
X106329520Y-79832151D01*
X106342133Y-79811107D01*
X106356747Y-79791402D01*
X106373223Y-79773223D01*
X106391402Y-79756747D01*
X106411107Y-79742133D01*
X106432151Y-79729520D01*
X106454329Y-79719030D01*
X106477429Y-79710765D01*
X106501227Y-79704804D01*
X106525496Y-79701204D01*
X106550000Y-79700000D01*
X109650000Y-79700000D01*
X109674504Y-79701204D01*
X109674504Y-79701204D01*
G37*
D12*
G04 #@! TO.P,J1,1*
G04 #@! TO.N,+5V*
X108100000Y-80600000D03*
G04 #@! TD*
D13*
G04 #@! TO.P,BZ1,1*
G04 #@! TO.N,+3V3*
X161290000Y-57912000D03*
D14*
G04 #@! TO.P,BZ1,2*
G04 #@! TO.N,Net-(BZ1-Pad2)*
X166290000Y-57912000D03*
G04 #@! TD*
D15*
G04 #@! TO.P,H1,1*
G04 #@! TO.N,N/C*
X172850000Y-69800000D03*
G04 #@! TD*
G04 #@! TO.P,H2,1*
G04 #@! TO.N,N/C*
X172850000Y-93000000D03*
G04 #@! TD*
G04 #@! TO.P,H3,1*
G04 #@! TO.N,N/C*
X152150000Y-93000000D03*
G04 #@! TD*
G04 #@! TO.P,H4,1*
G04 #@! TO.N,N/C*
X152150000Y-69800000D03*
G04 #@! TD*
D16*
G04 #@! TO.P,H7,1*
G04 #@! TO.N,N/C*
X196590990Y-53409010D03*
X195000000Y-52750000D03*
X193409010Y-53409010D03*
X192750000Y-55000000D03*
X193409010Y-56590990D03*
X195000000Y-57250000D03*
X196590990Y-56590990D03*
X197250000Y-55000000D03*
D17*
X195000000Y-55000000D03*
G04 #@! TD*
G04 #@! TO.P,H8,1*
G04 #@! TO.N,N/C*
X195000000Y-125000000D03*
D16*
X197250000Y-125000000D03*
X196590990Y-126590990D03*
X195000000Y-127250000D03*
X193409010Y-126590990D03*
X192750000Y-125000000D03*
X193409010Y-123409010D03*
X195000000Y-122750000D03*
X196590990Y-123409010D03*
G04 #@! TD*
G04 #@! TO.P,H9,1*
G04 #@! TO.N,N/C*
X106590990Y-123409010D03*
X105000000Y-122750000D03*
X103409010Y-123409010D03*
X102750000Y-125000000D03*
X103409010Y-126590990D03*
X105000000Y-127250000D03*
X106590990Y-126590990D03*
X107250000Y-125000000D03*
D17*
X105000000Y-125000000D03*
G04 #@! TD*
D16*
G04 #@! TO.P,H10,1*
G04 #@! TO.N,N/C*
X106590990Y-53409010D03*
X105000000Y-52750000D03*
X103409010Y-53409010D03*
X102750000Y-55000000D03*
X103409010Y-56590990D03*
X105000000Y-57250000D03*
X106590990Y-56590990D03*
X107250000Y-55000000D03*
D17*
X105000000Y-55000000D03*
G04 #@! TD*
D11*
G04 #@! TO.N,Net-(D4-Pad1)*
G04 #@! TO.C,J2*
G36*
X193637004Y-66931204D02*
X193661273Y-66934804D01*
X193685071Y-66940765D01*
X193708171Y-66949030D01*
X193730349Y-66959520D01*
X193751393Y-66972133D01*
X193771098Y-66986747D01*
X193789277Y-67003223D01*
X193805753Y-67021402D01*
X193820367Y-67041107D01*
X193832980Y-67062151D01*
X193843470Y-67084329D01*
X193851735Y-67107429D01*
X193857696Y-67131227D01*
X193861296Y-67155496D01*
X193862500Y-67180000D01*
X193862500Y-68480000D01*
X193861296Y-68504504D01*
X193857696Y-68528773D01*
X193851735Y-68552571D01*
X193843470Y-68575671D01*
X193832980Y-68597849D01*
X193820367Y-68618893D01*
X193805753Y-68638598D01*
X193789277Y-68656777D01*
X193771098Y-68673253D01*
X193751393Y-68687867D01*
X193730349Y-68700480D01*
X193708171Y-68710970D01*
X193685071Y-68719235D01*
X193661273Y-68725196D01*
X193637004Y-68728796D01*
X193612500Y-68730000D01*
X190512500Y-68730000D01*
X190487996Y-68728796D01*
X190463727Y-68725196D01*
X190439929Y-68719235D01*
X190416829Y-68710970D01*
X190394651Y-68700480D01*
X190373607Y-68687867D01*
X190353902Y-68673253D01*
X190335723Y-68656777D01*
X190319247Y-68638598D01*
X190304633Y-68618893D01*
X190292020Y-68597849D01*
X190281530Y-68575671D01*
X190273265Y-68552571D01*
X190267304Y-68528773D01*
X190263704Y-68504504D01*
X190262500Y-68480000D01*
X190262500Y-67180000D01*
X190263704Y-67155496D01*
X190267304Y-67131227D01*
X190273265Y-67107429D01*
X190281530Y-67084329D01*
X190292020Y-67062151D01*
X190304633Y-67041107D01*
X190319247Y-67021402D01*
X190335723Y-67003223D01*
X190353902Y-66986747D01*
X190373607Y-66972133D01*
X190394651Y-66959520D01*
X190416829Y-66949030D01*
X190439929Y-66940765D01*
X190463727Y-66934804D01*
X190487996Y-66931204D01*
X190512500Y-66930000D01*
X193612500Y-66930000D01*
X193637004Y-66931204D01*
X193637004Y-66931204D01*
G37*
D12*
G04 #@! TD*
G04 #@! TO.P,J2,1*
G04 #@! TO.N,Net-(D4-Pad1)*
X192062500Y-67830000D03*
D10*
G04 #@! TO.P,J2,2*
G04 #@! TO.N,+3V3*
X192062500Y-62750000D03*
G04 #@! TD*
D18*
G04 #@! TO.P,U1,1*
G04 #@! TO.N,GND*
X158750000Y-69400000D03*
D19*
G04 #@! TO.P,U1,2*
G04 #@! TO.N,+3V3*
X161290000Y-69400000D03*
G04 #@! TO.P,U1,3*
G04 #@! TO.N,I2C1_SCL*
X163830000Y-69400000D03*
G04 #@! TO.P,U1,4*
G04 #@! TO.N,I2C1_SDA*
X166370000Y-69400000D03*
G04 #@! TD*
D20*
G04 #@! TO.P,U2,1*
G04 #@! TO.N,N/C*
X105000000Y-75000000D03*
D21*
G04 #@! TO.P,U2,17*
G04 #@! TO.N,Net-(JP1-Pad1)*
X138020000Y-59760000D03*
G04 #@! TO.P,U2,2*
G04 #@! TO.N,N/C*
X107540000Y-75000000D03*
G04 #@! TO.P,U2,18*
X135480000Y-59760000D03*
G04 #@! TO.P,U2,3*
X110080000Y-75000000D03*
G04 #@! TO.P,U2,19*
G04 #@! TO.N,INT_ENC_A*
X132940000Y-59760000D03*
G04 #@! TO.P,U2,4*
G04 #@! TO.N,GND*
X112620000Y-75000000D03*
G04 #@! TO.P,U2,20*
G04 #@! TO.N,INT_ENC_B*
X130400000Y-59760000D03*
G04 #@! TO.P,U2,5*
G04 #@! TO.N,CH2_MOTOR_IN1*
X115160000Y-75000000D03*
G04 #@! TO.P,U2,21*
G04 #@! TO.N,INT_MAX31865_RDY*
X127860000Y-59760000D03*
G04 #@! TO.P,U2,6*
G04 #@! TO.N,TIM3_CH2_MOTOR_PWM*
X117700000Y-75000000D03*
G04 #@! TO.P,U2,22*
G04 #@! TO.N,TIM1_CH1_PWM_Buzzer*
X125320000Y-59760000D03*
G04 #@! TO.P,U2,7*
G04 #@! TO.N,I2C1_SDA*
X120240000Y-75000000D03*
G04 #@! TO.P,U2,23*
G04 #@! TO.N,SSR_1*
X122780000Y-59760000D03*
G04 #@! TO.P,U2,8*
G04 #@! TO.N,I2C1_SCL*
X122780000Y-75000000D03*
G04 #@! TO.P,U2,24*
G04 #@! TO.N,SPI1_CS_MAX31865*
X120240000Y-59760000D03*
G04 #@! TO.P,U2,9*
G04 #@! TO.N,TIM3_CH1_MOTOR_PWM*
X125320000Y-75000000D03*
G04 #@! TO.P,U2,25*
G04 #@! TO.N,INT_PCA9555*
X117700000Y-59760000D03*
G04 #@! TO.P,U2,10*
G04 #@! TO.N,CH1_MOTOR_IN2*
X127860000Y-75000000D03*
G04 #@! TO.P,U2,26*
G04 #@! TO.N,SSR_2*
X115160000Y-59760000D03*
G04 #@! TO.P,U2,11*
G04 #@! TO.N,CH1_MOTOR_IN1*
X130400000Y-75000000D03*
G04 #@! TO.P,U2,27*
G04 #@! TO.N,+5V*
X112620000Y-59760000D03*
G04 #@! TO.P,U2,12*
G04 #@! TO.N,CH1_MOTOR_STBY*
X132940000Y-75000000D03*
G04 #@! TO.P,U2,28*
G04 #@! TO.N,N/C*
X110080000Y-59760000D03*
G04 #@! TO.P,U2,13*
G04 #@! TO.N,CH2_MOTOR_IN2*
X135480000Y-75000000D03*
G04 #@! TO.P,U2,29*
G04 #@! TO.N,GND*
X107540000Y-59760000D03*
G04 #@! TO.P,U2,14*
G04 #@! TO.N,SPI1_MOSI*
X138020000Y-75000000D03*
G04 #@! TO.P,U2,30*
G04 #@! TO.N,N/C*
X105000000Y-59760000D03*
G04 #@! TO.P,U2,15*
G04 #@! TO.N,SPI1_MISO*
X140560000Y-75000000D03*
G04 #@! TO.P,U2,16*
G04 #@! TO.N,SPI1_SCK*
X140560000Y-59760000D03*
G04 #@! TD*
D18*
G04 #@! TO.P,U3,1*
G04 #@! TO.N,N/C*
X142748000Y-104394000D03*
D19*
G04 #@! TO.P,U3,2*
G04 #@! TO.N,GND*
X140208000Y-104394000D03*
G04 #@! TO.P,U3,3*
G04 #@! TO.N,+3V3*
X137668000Y-104394000D03*
G04 #@! TO.P,U3,4*
G04 #@! TO.N,SPI1_SCK*
X135128000Y-104394000D03*
G04 #@! TO.P,U3,5*
G04 #@! TO.N,SPI1_MISO*
X132588000Y-104394000D03*
G04 #@! TO.P,U3,6*
G04 #@! TO.N,SPI1_MOSI*
X130048000Y-104394000D03*
G04 #@! TO.P,U3,7*
G04 #@! TO.N,SPI1_CS_MAX31865*
X127508000Y-104394000D03*
G04 #@! TO.P,U3,8*
G04 #@! TO.N,INT_MAX31865_RDY*
X124968000Y-104394000D03*
G04 #@! TD*
D11*
G04 #@! TO.N,Net-(D5-Pad1)*
G04 #@! TO.C,J3*
G36*
X193637004Y-78231204D02*
X193661273Y-78234804D01*
X193685071Y-78240765D01*
X193708171Y-78249030D01*
X193730349Y-78259520D01*
X193751393Y-78272133D01*
X193771098Y-78286747D01*
X193789277Y-78303223D01*
X193805753Y-78321402D01*
X193820367Y-78341107D01*
X193832980Y-78362151D01*
X193843470Y-78384329D01*
X193851735Y-78407429D01*
X193857696Y-78431227D01*
X193861296Y-78455496D01*
X193862500Y-78480000D01*
X193862500Y-79780000D01*
X193861296Y-79804504D01*
X193857696Y-79828773D01*
X193851735Y-79852571D01*
X193843470Y-79875671D01*
X193832980Y-79897849D01*
X193820367Y-79918893D01*
X193805753Y-79938598D01*
X193789277Y-79956777D01*
X193771098Y-79973253D01*
X193751393Y-79987867D01*
X193730349Y-80000480D01*
X193708171Y-80010970D01*
X193685071Y-80019235D01*
X193661273Y-80025196D01*
X193637004Y-80028796D01*
X193612500Y-80030000D01*
X190512500Y-80030000D01*
X190487996Y-80028796D01*
X190463727Y-80025196D01*
X190439929Y-80019235D01*
X190416829Y-80010970D01*
X190394651Y-80000480D01*
X190373607Y-79987867D01*
X190353902Y-79973253D01*
X190335723Y-79956777D01*
X190319247Y-79938598D01*
X190304633Y-79918893D01*
X190292020Y-79897849D01*
X190281530Y-79875671D01*
X190273265Y-79852571D01*
X190267304Y-79828773D01*
X190263704Y-79804504D01*
X190262500Y-79780000D01*
X190262500Y-78480000D01*
X190263704Y-78455496D01*
X190267304Y-78431227D01*
X190273265Y-78407429D01*
X190281530Y-78384329D01*
X190292020Y-78362151D01*
X190304633Y-78341107D01*
X190319247Y-78321402D01*
X190335723Y-78303223D01*
X190353902Y-78286747D01*
X190373607Y-78272133D01*
X190394651Y-78259520D01*
X190416829Y-78249030D01*
X190439929Y-78240765D01*
X190463727Y-78234804D01*
X190487996Y-78231204D01*
X190512500Y-78230000D01*
X193612500Y-78230000D01*
X193637004Y-78231204D01*
X193637004Y-78231204D01*
G37*
D12*
G04 #@! TD*
G04 #@! TO.P,J3,1*
G04 #@! TO.N,Net-(D5-Pad1)*
X192062500Y-79130000D03*
D10*
G04 #@! TO.P,J3,2*
G04 #@! TO.N,+3V3*
X192062500Y-74050000D03*
G04 #@! TD*
D22*
G04 #@! TO.P,SW5,S2*
G04 #@! TO.N,GND*
X187500000Y-104500000D03*
G04 #@! TO.P,SW5,S1*
G04 #@! TO.N,ENC_Switch*
X192500000Y-104500000D03*
D23*
G04 #@! TO.P,SW5,MP*
G04 #@! TO.N,N/C*
X184400000Y-97500000D03*
X195600000Y-97500000D03*
D14*
G04 #@! TO.P,SW5,B*
G04 #@! TO.N,INT_ENC_A*
X187500000Y-90000000D03*
G04 #@! TO.P,SW5,C*
G04 #@! TO.N,GND*
X190000000Y-90000000D03*
D13*
G04 #@! TO.P,SW5,A*
G04 #@! TO.N,INT_ENC_B*
X192500000Y-90000000D03*
G04 #@! TD*
D24*
G04 #@! TO.P,H5,1*
G04 #@! TO.N,N/C*
X144018000Y-127000000D03*
G04 #@! TD*
G04 #@! TO.P,H6,1*
G04 #@! TO.N,N/C*
X123698000Y-127000000D03*
G04 #@! TD*
D11*
G04 #@! TO.N,/motor_vcc*
G04 #@! TO.C,J4*
G36*
X114085504Y-119994204D02*
X114109773Y-119997804D01*
X114133571Y-120003765D01*
X114156671Y-120012030D01*
X114178849Y-120022520D01*
X114199893Y-120035133D01*
X114219598Y-120049747D01*
X114237777Y-120066223D01*
X114254253Y-120084402D01*
X114268867Y-120104107D01*
X114281480Y-120125151D01*
X114291970Y-120147329D01*
X114300235Y-120170429D01*
X114306196Y-120194227D01*
X114309796Y-120218496D01*
X114311000Y-120243000D01*
X114311000Y-123343000D01*
X114309796Y-123367504D01*
X114306196Y-123391773D01*
X114300235Y-123415571D01*
X114291970Y-123438671D01*
X114281480Y-123460849D01*
X114268867Y-123481893D01*
X114254253Y-123501598D01*
X114237777Y-123519777D01*
X114219598Y-123536253D01*
X114199893Y-123550867D01*
X114178849Y-123563480D01*
X114156671Y-123573970D01*
X114133571Y-123582235D01*
X114109773Y-123588196D01*
X114085504Y-123591796D01*
X114061000Y-123593000D01*
X112761000Y-123593000D01*
X112736496Y-123591796D01*
X112712227Y-123588196D01*
X112688429Y-123582235D01*
X112665329Y-123573970D01*
X112643151Y-123563480D01*
X112622107Y-123550867D01*
X112602402Y-123536253D01*
X112584223Y-123519777D01*
X112567747Y-123501598D01*
X112553133Y-123481893D01*
X112540520Y-123460849D01*
X112530030Y-123438671D01*
X112521765Y-123415571D01*
X112515804Y-123391773D01*
X112512204Y-123367504D01*
X112511000Y-123343000D01*
X112511000Y-120243000D01*
X112512204Y-120218496D01*
X112515804Y-120194227D01*
X112521765Y-120170429D01*
X112530030Y-120147329D01*
X112540520Y-120125151D01*
X112553133Y-120104107D01*
X112567747Y-120084402D01*
X112584223Y-120066223D01*
X112602402Y-120049747D01*
X112622107Y-120035133D01*
X112643151Y-120022520D01*
X112665329Y-120012030D01*
X112688429Y-120003765D01*
X112712227Y-119997804D01*
X112736496Y-119994204D01*
X112761000Y-119993000D01*
X114061000Y-119993000D01*
X114085504Y-119994204D01*
X114085504Y-119994204D01*
G37*
D12*
G04 #@! TD*
G04 #@! TO.P,J4,1*
G04 #@! TO.N,/motor_vcc*
X113411000Y-121793000D03*
D25*
G04 #@! TO.P,J4,2*
G04 #@! TO.N,GND*
X118491000Y-121793000D03*
G04 #@! TD*
D11*
G04 #@! TO.N,Net-(J5-Pad1)*
G04 #@! TO.C,J5*
G36*
X109651504Y-91684204D02*
X109675773Y-91687804D01*
X109699571Y-91693765D01*
X109722671Y-91702030D01*
X109744849Y-91712520D01*
X109765893Y-91725133D01*
X109785598Y-91739747D01*
X109803777Y-91756223D01*
X109820253Y-91774402D01*
X109834867Y-91794107D01*
X109847480Y-91815151D01*
X109857970Y-91837329D01*
X109866235Y-91860429D01*
X109872196Y-91884227D01*
X109875796Y-91908496D01*
X109877000Y-91933000D01*
X109877000Y-93233000D01*
X109875796Y-93257504D01*
X109872196Y-93281773D01*
X109866235Y-93305571D01*
X109857970Y-93328671D01*
X109847480Y-93350849D01*
X109834867Y-93371893D01*
X109820253Y-93391598D01*
X109803777Y-93409777D01*
X109785598Y-93426253D01*
X109765893Y-93440867D01*
X109744849Y-93453480D01*
X109722671Y-93463970D01*
X109699571Y-93472235D01*
X109675773Y-93478196D01*
X109651504Y-93481796D01*
X109627000Y-93483000D01*
X106527000Y-93483000D01*
X106502496Y-93481796D01*
X106478227Y-93478196D01*
X106454429Y-93472235D01*
X106431329Y-93463970D01*
X106409151Y-93453480D01*
X106388107Y-93440867D01*
X106368402Y-93426253D01*
X106350223Y-93409777D01*
X106333747Y-93391598D01*
X106319133Y-93371893D01*
X106306520Y-93350849D01*
X106296030Y-93328671D01*
X106287765Y-93305571D01*
X106281804Y-93281773D01*
X106278204Y-93257504D01*
X106277000Y-93233000D01*
X106277000Y-91933000D01*
X106278204Y-91908496D01*
X106281804Y-91884227D01*
X106287765Y-91860429D01*
X106296030Y-91837329D01*
X106306520Y-91815151D01*
X106319133Y-91794107D01*
X106333747Y-91774402D01*
X106350223Y-91756223D01*
X106368402Y-91739747D01*
X106388107Y-91725133D01*
X106409151Y-91712520D01*
X106431329Y-91702030D01*
X106454429Y-91693765D01*
X106478227Y-91687804D01*
X106502496Y-91684204D01*
X106527000Y-91683000D01*
X109627000Y-91683000D01*
X109651504Y-91684204D01*
X109651504Y-91684204D01*
G37*
D12*
G04 #@! TD*
G04 #@! TO.P,J5,1*
G04 #@! TO.N,Net-(J5-Pad1)*
X108077000Y-92583000D03*
D10*
G04 #@! TO.P,J5,2*
G04 #@! TO.N,Net-(J5-Pad2)*
X108077000Y-97663000D03*
G04 #@! TD*
G04 #@! TO.P,J6,2*
G04 #@! TO.N,Net-(J6-Pad2)*
X108077000Y-109093000D03*
D11*
G04 #@! TD*
G04 #@! TO.N,Net-(J6-Pad1)*
G04 #@! TO.C,J6*
G36*
X109651504Y-103114204D02*
X109675773Y-103117804D01*
X109699571Y-103123765D01*
X109722671Y-103132030D01*
X109744849Y-103142520D01*
X109765893Y-103155133D01*
X109785598Y-103169747D01*
X109803777Y-103186223D01*
X109820253Y-103204402D01*
X109834867Y-103224107D01*
X109847480Y-103245151D01*
X109857970Y-103267329D01*
X109866235Y-103290429D01*
X109872196Y-103314227D01*
X109875796Y-103338496D01*
X109877000Y-103363000D01*
X109877000Y-104663000D01*
X109875796Y-104687504D01*
X109872196Y-104711773D01*
X109866235Y-104735571D01*
X109857970Y-104758671D01*
X109847480Y-104780849D01*
X109834867Y-104801893D01*
X109820253Y-104821598D01*
X109803777Y-104839777D01*
X109785598Y-104856253D01*
X109765893Y-104870867D01*
X109744849Y-104883480D01*
X109722671Y-104893970D01*
X109699571Y-104902235D01*
X109675773Y-104908196D01*
X109651504Y-104911796D01*
X109627000Y-104913000D01*
X106527000Y-104913000D01*
X106502496Y-104911796D01*
X106478227Y-104908196D01*
X106454429Y-104902235D01*
X106431329Y-104893970D01*
X106409151Y-104883480D01*
X106388107Y-104870867D01*
X106368402Y-104856253D01*
X106350223Y-104839777D01*
X106333747Y-104821598D01*
X106319133Y-104801893D01*
X106306520Y-104780849D01*
X106296030Y-104758671D01*
X106287765Y-104735571D01*
X106281804Y-104711773D01*
X106278204Y-104687504D01*
X106277000Y-104663000D01*
X106277000Y-103363000D01*
X106278204Y-103338496D01*
X106281804Y-103314227D01*
X106287765Y-103290429D01*
X106296030Y-103267329D01*
X106306520Y-103245151D01*
X106319133Y-103224107D01*
X106333747Y-103204402D01*
X106350223Y-103186223D01*
X106368402Y-103169747D01*
X106388107Y-103155133D01*
X106409151Y-103142520D01*
X106431329Y-103132030D01*
X106454429Y-103123765D01*
X106478227Y-103117804D01*
X106502496Y-103114204D01*
X106527000Y-103113000D01*
X109627000Y-103113000D01*
X109651504Y-103114204D01*
X109651504Y-103114204D01*
G37*
D12*
G04 #@! TO.P,J6,1*
G04 #@! TO.N,Net-(J6-Pad1)*
X108077000Y-104013000D03*
G04 #@! TD*
D26*
G04 #@! TO.N,+3V3*
X128524000Y-80518000D03*
X129540000Y-80518000D03*
X130556000Y-80518000D03*
X131572000Y-80518000D03*
X132588000Y-80518000D03*
X131572000Y-81534000D03*
X132588000Y-81534000D03*
X128524000Y-81534000D03*
X129540000Y-81534000D03*
X130556000Y-81534000D03*
X148209000Y-77978000D03*
X148209000Y-81280000D03*
X148209000Y-84582000D03*
X148209000Y-87884000D03*
X181875000Y-87768000D03*
X198250000Y-87633000D03*
X122682000Y-67310000D03*
X156972000Y-74168000D03*
X140800000Y-56600000D03*
X140800000Y-56600000D03*
X121412000Y-68072000D03*
X129159000Y-93472000D03*
X128016000Y-107569000D03*
G04 #@! TO.N,GND*
X172000000Y-101000000D03*
X172000000Y-102000000D03*
X172000000Y-103000000D03*
X145000000Y-103000000D03*
X145000000Y-102000000D03*
X145000000Y-101000000D03*
X130000000Y-88000000D03*
X131000000Y-87000000D03*
X143000000Y-101000000D03*
X144000000Y-100000000D03*
X145000000Y-99000000D03*
X132000000Y-86000000D03*
G04 #@! TO.N,BTN_UP*
X165100000Y-98806000D03*
X159829500Y-98742500D03*
G04 #@! TO.N,BTN_DOWN*
X164846000Y-120777000D03*
X160083500Y-120777000D03*
G04 #@! TO.N,BTN_LEFT*
X153924000Y-109728000D03*
X149288500Y-109728000D03*
G04 #@! TO.N,BTN_CENTER*
X164973000Y-109728000D03*
X160210500Y-109728000D03*
G04 #@! TO.N,ENC_Switch*
X168402000Y-88696800D03*
G04 #@! TO.N,BTN_RIGHT*
X176085500Y-109791500D03*
X171196000Y-109791500D03*
G04 #@! TO.N,BTN_A*
X153797000Y-120777000D03*
X148907500Y-120777000D03*
G04 #@! TO.N,BTN_B*
X175958500Y-120713500D03*
X171450000Y-120713500D03*
G04 #@! TO.N,Net-(D1-Pad2)*
X163000000Y-79400000D03*
X191000000Y-109800000D03*
G04 #@! TO.N,Net-(D2-Pad2)*
X161600000Y-79400000D03*
X187000000Y-109800000D03*
G04 #@! TO.N,Net-(D3-Pad2)*
X160400000Y-79400000D03*
X183000000Y-109800000D03*
G04 #@! TO.N,INT_PCA9555*
X144526000Y-74777600D03*
X144272000Y-63652400D03*
G04 #@! TO.N,TIM1_CH1_PWM_Buzzer*
X141681200Y-62026800D03*
G04 #@! TO.N,SPI1_SCK*
X142811500Y-74803000D03*
G04 #@! TO.N,CH2_MOTOR_IN1*
X124460000Y-95250000D03*
G04 #@! TO.N,TIM3_CH2_MOTOR_PWM*
X125476000Y-96393000D03*
G04 #@! TO.N,/motor_vcc*
X127381000Y-89598500D03*
X126174500Y-97663000D03*
G04 #@! TD*
D27*
G04 #@! TO.N,+3V3*
X128524000Y-80518000D02*
X126445001Y-78439001D01*
X121811999Y-68471999D02*
X121412000Y-68072000D01*
X126445001Y-78439001D02*
X126445001Y-73105001D01*
X126445001Y-73105001D02*
X121811999Y-68471999D01*
D28*
G04 #@! TO.N,GND*
X106740001Y-60559999D02*
X107540000Y-59760000D01*
X102299990Y-65000010D02*
X106740001Y-60559999D01*
X105300000Y-85680000D02*
X102299990Y-82679990D01*
X102299990Y-82679990D02*
X102299990Y-65000010D01*
X108100000Y-85680000D02*
X105300000Y-85680000D01*
D29*
X146000000Y-102000000D02*
X172000000Y-102000000D01*
X146000000Y-103000000D02*
X172000000Y-103000000D01*
X144299990Y-98299990D02*
X132000000Y-86000000D01*
X144000000Y-100000000D02*
X131000000Y-87000000D01*
X143000000Y-101000000D02*
X130000000Y-88000000D01*
X145000000Y-99000000D02*
X144299990Y-98299990D01*
X145000000Y-103000000D02*
X146000000Y-103000000D01*
X146000000Y-102000000D02*
X145000000Y-102000000D01*
X171000000Y-101000000D02*
X172000000Y-101000000D01*
X145000000Y-101000000D02*
X171000000Y-101000000D01*
D27*
G04 #@! TO.N,BTN_UP*
X159893000Y-98806000D02*
X159829500Y-98742500D01*
X165100000Y-98806000D02*
X159893000Y-98806000D01*
D28*
G04 #@! TO.N,+5V*
X111820001Y-60559999D02*
X112620000Y-59760000D01*
X103499999Y-68880001D02*
X111820001Y-60559999D01*
X103499999Y-77799999D02*
X103499999Y-68880001D01*
X106300000Y-80600000D02*
X103499999Y-77799999D01*
X108100000Y-80600000D02*
X106300000Y-80600000D01*
D27*
G04 #@! TO.N,BTN_DOWN*
X164846000Y-120777000D02*
X160083500Y-120777000D01*
G04 #@! TO.N,BTN_LEFT*
X153924000Y-109728000D02*
X149288500Y-109728000D01*
G04 #@! TO.N,BTN_CENTER*
X164973000Y-109728000D02*
X160210500Y-109728000D01*
G04 #@! TO.N,ENC_Switch*
X178624999Y-103424999D02*
X168249600Y-93049600D01*
X168249600Y-88849200D02*
X168402000Y-88696800D01*
X191424999Y-103424999D02*
X178624999Y-103424999D01*
X168249600Y-93049600D02*
X168249600Y-88849200D01*
X192500000Y-104500000D02*
X191424999Y-103424999D01*
G04 #@! TO.N,BTN_RIGHT*
X176085500Y-109791500D02*
X171196000Y-109791500D01*
G04 #@! TO.N,BTN_A*
X153797000Y-120777000D02*
X148907500Y-120777000D01*
G04 #@! TO.N,BTN_B*
X175958500Y-120713500D02*
X171450000Y-120713500D01*
G04 #@! TO.N,Net-(D1-Pad2)*
X180763589Y-106200000D02*
X163000000Y-88436411D01*
X191000000Y-109800000D02*
X187400000Y-106200000D01*
X163000000Y-79965685D02*
X163000000Y-79400000D01*
X163000000Y-88436411D02*
X163000000Y-79965685D01*
X187400000Y-106200000D02*
X180763589Y-106200000D01*
G04 #@! TO.N,Net-(D2-Pad2)*
X186600001Y-109400001D02*
X187000000Y-109800000D01*
X180727178Y-106800000D02*
X184000000Y-106800000D01*
X184000000Y-106800000D02*
X186600001Y-109400001D01*
X161600000Y-87672822D02*
X180727178Y-106800000D01*
X161600000Y-79400000D02*
X161600000Y-87672822D01*
G04 #@! TO.N,Net-(D3-Pad2)*
X160400000Y-87200000D02*
X160400000Y-79400000D01*
X183000000Y-109800000D02*
X160400000Y-87200000D01*
G04 #@! TO.N,INT_MAX31865_RDY*
X113919000Y-73701000D02*
X127860000Y-59760000D01*
X113919000Y-94488000D02*
X113919000Y-73701000D01*
X123825000Y-104394000D02*
X113919000Y-94488000D01*
G04 #@! TO.N,INT_PCA9555*
X144526000Y-63906400D02*
X144272000Y-63652400D01*
X144526000Y-74777600D02*
X144526000Y-63906400D01*
G04 #@! TO.N,TIM1_CH1_PWM_Buzzer*
X141115515Y-62026800D02*
X141681200Y-62026800D01*
X131814594Y-60542194D02*
X133299200Y-62026800D01*
X131814594Y-59509592D02*
X131814594Y-60542194D01*
X130940001Y-58634999D02*
X131814594Y-59509592D01*
X126445001Y-58634999D02*
X130940001Y-58634999D01*
X125320000Y-59760000D02*
X126445001Y-58634999D01*
X133299200Y-62026800D02*
X141115515Y-62026800D01*
G04 #@! TO.N,SPI1_CS_MAX31865*
X111205001Y-68794999D02*
X111205001Y-93488501D01*
X120240000Y-59760000D02*
X111205001Y-68794999D01*
X126658001Y-105243999D02*
X127508000Y-104394000D01*
X126332999Y-105569001D02*
X126658001Y-105243999D01*
X123285501Y-105569001D02*
X126332999Y-105569001D01*
X111205001Y-93488501D02*
X123285501Y-105569001D01*
D29*
G04 #@! TO.N,SPI1_SCK*
X141691370Y-59760000D02*
X140560000Y-59760000D01*
X142811500Y-74803000D02*
X142811500Y-60880130D01*
X142811500Y-60880130D02*
X141691370Y-59760000D01*
D27*
G04 #@! TO.N,CH2_MOTOR_IN1*
X124460000Y-91313000D02*
X124460000Y-95250000D01*
X115160000Y-82013000D02*
X124460000Y-91313000D01*
X115160000Y-75000000D02*
X115160000Y-82013000D01*
G04 #@! TO.N,TIM3_CH2_MOTOR_PWM*
X125476000Y-91313000D02*
X125476000Y-96393000D01*
X117700000Y-83537000D02*
X125476000Y-91313000D01*
X117700000Y-75000000D02*
X117700000Y-83537000D01*
G04 #@! TO.N,/motor_vcc*
X127381000Y-89598500D02*
X127381000Y-96456500D01*
X127381000Y-96456500D02*
X126174500Y-97663000D01*
G04 #@! TD*
D30*
G04 #@! TO.N,+3V3*
G36*
X199544000Y-129544000D02*
X100456000Y-129544000D01*
X100456000Y-124327477D01*
X101619000Y-124327477D01*
X101619000Y-125672523D01*
X102133726Y-126915183D01*
X103084817Y-127866274D01*
X104327477Y-128381000D01*
X105672523Y-128381000D01*
X106915183Y-127866274D01*
X107866274Y-126915183D01*
X108006719Y-126576118D01*
X121567000Y-126576118D01*
X121567000Y-127423882D01*
X121891425Y-128207115D01*
X122490885Y-128806575D01*
X123274118Y-129131000D01*
X124121882Y-129131000D01*
X124905115Y-128806575D01*
X125504575Y-128207115D01*
X125829000Y-127423882D01*
X125829000Y-126576118D01*
X141887000Y-126576118D01*
X141887000Y-127423882D01*
X142211425Y-128207115D01*
X142810885Y-128806575D01*
X143594118Y-129131000D01*
X144441882Y-129131000D01*
X145225115Y-128806575D01*
X145824575Y-128207115D01*
X146149000Y-127423882D01*
X146149000Y-126576118D01*
X145824575Y-125792885D01*
X145225115Y-125193425D01*
X144441882Y-124869000D01*
X143594118Y-124869000D01*
X142810885Y-125193425D01*
X142211425Y-125792885D01*
X141887000Y-126576118D01*
X125829000Y-126576118D01*
X125504575Y-125792885D01*
X124905115Y-125193425D01*
X124121882Y-124869000D01*
X123274118Y-124869000D01*
X122490885Y-125193425D01*
X121891425Y-125792885D01*
X121567000Y-126576118D01*
X108006719Y-126576118D01*
X108381000Y-125672523D01*
X108381000Y-124327477D01*
X191619000Y-124327477D01*
X191619000Y-125672523D01*
X192133726Y-126915183D01*
X193084817Y-127866274D01*
X194327477Y-128381000D01*
X195672523Y-128381000D01*
X196915183Y-127866274D01*
X197866274Y-126915183D01*
X198381000Y-125672523D01*
X198381000Y-124327477D01*
X197866274Y-123084817D01*
X196915183Y-122133726D01*
X195672523Y-121619000D01*
X194327477Y-121619000D01*
X193084817Y-122133726D01*
X192133726Y-123084817D01*
X191619000Y-124327477D01*
X108381000Y-124327477D01*
X107866274Y-123084817D01*
X106915183Y-122133726D01*
X105672523Y-121619000D01*
X104327477Y-121619000D01*
X103084817Y-122133726D01*
X102133726Y-123084817D01*
X101619000Y-124327477D01*
X100456000Y-124327477D01*
X100456000Y-120243000D01*
X112122536Y-120243000D01*
X112122536Y-123343000D01*
X112171136Y-123587330D01*
X112309538Y-123794462D01*
X112516670Y-123932864D01*
X112761000Y-123981464D01*
X114061000Y-123981464D01*
X114305330Y-123932864D01*
X114512462Y-123794462D01*
X114650864Y-123587330D01*
X114699464Y-123343000D01*
X114699464Y-120766835D01*
X117210000Y-120766835D01*
X117210001Y-122819166D01*
X117284326Y-123192821D01*
X117567452Y-123616549D01*
X117991180Y-123899675D01*
X118491000Y-123999096D01*
X118990821Y-123899675D01*
X119414549Y-123616549D01*
X119697675Y-123192821D01*
X119772000Y-122819166D01*
X119772000Y-120766834D01*
X119743121Y-120621649D01*
X148126500Y-120621649D01*
X148126500Y-120932351D01*
X148245400Y-121219401D01*
X148465099Y-121439100D01*
X148752149Y-121558000D01*
X149062851Y-121558000D01*
X149349901Y-121439100D01*
X149506001Y-121283000D01*
X153198499Y-121283000D01*
X153354599Y-121439100D01*
X153641649Y-121558000D01*
X153952351Y-121558000D01*
X154239401Y-121439100D01*
X154459100Y-121219401D01*
X154578000Y-120932351D01*
X154578000Y-120621649D01*
X159302500Y-120621649D01*
X159302500Y-120932351D01*
X159421400Y-121219401D01*
X159641099Y-121439100D01*
X159928149Y-121558000D01*
X160238851Y-121558000D01*
X160525901Y-121439100D01*
X160682001Y-121283000D01*
X164247499Y-121283000D01*
X164403599Y-121439100D01*
X164690649Y-121558000D01*
X165001351Y-121558000D01*
X165288401Y-121439100D01*
X165508100Y-121219401D01*
X165627000Y-120932351D01*
X165627000Y-120621649D01*
X165600698Y-120558149D01*
X170669000Y-120558149D01*
X170669000Y-120868851D01*
X170787900Y-121155901D01*
X171007599Y-121375600D01*
X171294649Y-121494500D01*
X171605351Y-121494500D01*
X171892401Y-121375600D01*
X172048501Y-121219500D01*
X175359999Y-121219500D01*
X175516099Y-121375600D01*
X175803149Y-121494500D01*
X176113851Y-121494500D01*
X176400901Y-121375600D01*
X176620600Y-121155901D01*
X176739500Y-120868851D01*
X176739500Y-120558149D01*
X176620600Y-120271099D01*
X176400901Y-120051400D01*
X176113851Y-119932500D01*
X175803149Y-119932500D01*
X175516099Y-120051400D01*
X175359999Y-120207500D01*
X172048501Y-120207500D01*
X171892401Y-120051400D01*
X171605351Y-119932500D01*
X171294649Y-119932500D01*
X171007599Y-120051400D01*
X170787900Y-120271099D01*
X170669000Y-120558149D01*
X165600698Y-120558149D01*
X165508100Y-120334599D01*
X165288401Y-120114900D01*
X165001351Y-119996000D01*
X164690649Y-119996000D01*
X164403599Y-120114900D01*
X164247499Y-120271000D01*
X160682001Y-120271000D01*
X160525901Y-120114900D01*
X160238851Y-119996000D01*
X159928149Y-119996000D01*
X159641099Y-120114900D01*
X159421400Y-120334599D01*
X159302500Y-120621649D01*
X154578000Y-120621649D01*
X154459100Y-120334599D01*
X154239401Y-120114900D01*
X153952351Y-119996000D01*
X153641649Y-119996000D01*
X153354599Y-120114900D01*
X153198499Y-120271000D01*
X149506001Y-120271000D01*
X149349901Y-120114900D01*
X149062851Y-119996000D01*
X148752149Y-119996000D01*
X148465099Y-120114900D01*
X148245400Y-120334599D01*
X148126500Y-120621649D01*
X119743121Y-120621649D01*
X119697675Y-120393179D01*
X119414549Y-119969451D01*
X118990820Y-119686325D01*
X118491000Y-119586904D01*
X117991179Y-119686325D01*
X117567451Y-119969451D01*
X117284325Y-120393180D01*
X117210000Y-120766835D01*
X114699464Y-120766835D01*
X114699464Y-120243000D01*
X114650864Y-119998670D01*
X114512462Y-119791538D01*
X114305330Y-119653136D01*
X114061000Y-119604536D01*
X112761000Y-119604536D01*
X112516670Y-119653136D01*
X112309538Y-119791538D01*
X112171136Y-119998670D01*
X112122536Y-120243000D01*
X100456000Y-120243000D01*
X100456000Y-109093000D01*
X105870904Y-109093000D01*
X105970325Y-109592821D01*
X106253451Y-110016549D01*
X106677179Y-110299675D01*
X107050834Y-110374000D01*
X109103166Y-110374000D01*
X109476821Y-110299675D01*
X109900549Y-110016549D01*
X110183675Y-109592821D01*
X110187687Y-109572649D01*
X148507500Y-109572649D01*
X148507500Y-109883351D01*
X148626400Y-110170401D01*
X148846099Y-110390100D01*
X149133149Y-110509000D01*
X149443851Y-110509000D01*
X149730901Y-110390100D01*
X149887001Y-110234000D01*
X153325499Y-110234000D01*
X153481599Y-110390100D01*
X153768649Y-110509000D01*
X154079351Y-110509000D01*
X154366401Y-110390100D01*
X154586100Y-110170401D01*
X154705000Y-109883351D01*
X154705000Y-109572649D01*
X159429500Y-109572649D01*
X159429500Y-109883351D01*
X159548400Y-110170401D01*
X159768099Y-110390100D01*
X160055149Y-110509000D01*
X160365851Y-110509000D01*
X160652901Y-110390100D01*
X160809001Y-110234000D01*
X164374499Y-110234000D01*
X164530599Y-110390100D01*
X164817649Y-110509000D01*
X165128351Y-110509000D01*
X165415401Y-110390100D01*
X165635100Y-110170401D01*
X165754000Y-109883351D01*
X165754000Y-109636149D01*
X170415000Y-109636149D01*
X170415000Y-109946851D01*
X170533900Y-110233901D01*
X170753599Y-110453600D01*
X171040649Y-110572500D01*
X171351351Y-110572500D01*
X171638401Y-110453600D01*
X171794501Y-110297500D01*
X175486999Y-110297500D01*
X175643099Y-110453600D01*
X175930149Y-110572500D01*
X176240851Y-110572500D01*
X176527901Y-110453600D01*
X176747600Y-110233901D01*
X176866500Y-109946851D01*
X176866500Y-109636149D01*
X176747600Y-109349099D01*
X176527901Y-109129400D01*
X176240851Y-109010500D01*
X175930149Y-109010500D01*
X175643099Y-109129400D01*
X175486999Y-109285500D01*
X171794501Y-109285500D01*
X171638401Y-109129400D01*
X171351351Y-109010500D01*
X171040649Y-109010500D01*
X170753599Y-109129400D01*
X170533900Y-109349099D01*
X170415000Y-109636149D01*
X165754000Y-109636149D01*
X165754000Y-109572649D01*
X165635100Y-109285599D01*
X165415401Y-109065900D01*
X165128351Y-108947000D01*
X164817649Y-108947000D01*
X164530599Y-109065900D01*
X164374499Y-109222000D01*
X160809001Y-109222000D01*
X160652901Y-109065900D01*
X160365851Y-108947000D01*
X160055149Y-108947000D01*
X159768099Y-109065900D01*
X159548400Y-109285599D01*
X159429500Y-109572649D01*
X154705000Y-109572649D01*
X154586100Y-109285599D01*
X154366401Y-109065900D01*
X154079351Y-108947000D01*
X153768649Y-108947000D01*
X153481599Y-109065900D01*
X153325499Y-109222000D01*
X149887001Y-109222000D01*
X149730901Y-109065900D01*
X149443851Y-108947000D01*
X149133149Y-108947000D01*
X148846099Y-109065900D01*
X148626400Y-109285599D01*
X148507500Y-109572649D01*
X110187687Y-109572649D01*
X110283096Y-109093000D01*
X110183675Y-108593179D01*
X109900549Y-108169451D01*
X109476821Y-107886325D01*
X109103166Y-107812000D01*
X107050834Y-107812000D01*
X106677179Y-107886325D01*
X106253451Y-108169451D01*
X105970325Y-108593179D01*
X105870904Y-109093000D01*
X100456000Y-109093000D01*
X100456000Y-103363000D01*
X105888536Y-103363000D01*
X105888536Y-104663000D01*
X105937136Y-104907330D01*
X106075538Y-105114462D01*
X106282670Y-105252864D01*
X106527000Y-105301464D01*
X109627000Y-105301464D01*
X109871330Y-105252864D01*
X110078462Y-105114462D01*
X110216864Y-104907330D01*
X110265464Y-104663000D01*
X110265464Y-103363000D01*
X110216864Y-103118670D01*
X110078462Y-102911538D01*
X109871330Y-102773136D01*
X109627000Y-102724536D01*
X106527000Y-102724536D01*
X106282670Y-102773136D01*
X106075538Y-102911538D01*
X105937136Y-103118670D01*
X105888536Y-103363000D01*
X100456000Y-103363000D01*
X100456000Y-97663000D01*
X105870904Y-97663000D01*
X105970325Y-98162821D01*
X106253451Y-98586549D01*
X106677179Y-98869675D01*
X107050834Y-98944000D01*
X109103166Y-98944000D01*
X109476821Y-98869675D01*
X109900549Y-98586549D01*
X110183675Y-98162821D01*
X110283096Y-97663000D01*
X110183675Y-97163179D01*
X109900549Y-96739451D01*
X109476821Y-96456325D01*
X109103166Y-96382000D01*
X107050834Y-96382000D01*
X106677179Y-96456325D01*
X106253451Y-96739451D01*
X105970325Y-97163179D01*
X105870904Y-97663000D01*
X100456000Y-97663000D01*
X100456000Y-91933000D01*
X105888536Y-91933000D01*
X105888536Y-93233000D01*
X105937136Y-93477330D01*
X106075538Y-93684462D01*
X106282670Y-93822864D01*
X106527000Y-93871464D01*
X109627000Y-93871464D01*
X109871330Y-93822864D01*
X110078462Y-93684462D01*
X110216864Y-93477330D01*
X110265464Y-93233000D01*
X110265464Y-91933000D01*
X110216864Y-91688670D01*
X110078462Y-91481538D01*
X109871330Y-91343136D01*
X109627000Y-91294536D01*
X106527000Y-91294536D01*
X106282670Y-91343136D01*
X106075538Y-91481538D01*
X105937136Y-91688670D01*
X105888536Y-91933000D01*
X100456000Y-91933000D01*
X100456000Y-65000010D01*
X101401732Y-65000010D01*
X101418991Y-65086778D01*
X101418990Y-82593227D01*
X101401732Y-82679990D01*
X101418990Y-82766753D01*
X101418990Y-82766756D01*
X101470107Y-83023738D01*
X101664825Y-83315155D01*
X101738386Y-83364307D01*
X104615685Y-86241607D01*
X104664835Y-86315165D01*
X104800197Y-86405611D01*
X104956251Y-86509883D01*
X105300000Y-86578259D01*
X105386767Y-86561000D01*
X106248021Y-86561000D01*
X106276451Y-86603549D01*
X106700179Y-86886675D01*
X107073834Y-86961000D01*
X109126166Y-86961000D01*
X109499821Y-86886675D01*
X109923549Y-86603549D01*
X110206675Y-86179821D01*
X110306096Y-85680000D01*
X110206675Y-85180179D01*
X109923549Y-84756451D01*
X109499821Y-84473325D01*
X109126166Y-84399000D01*
X107073834Y-84399000D01*
X106700179Y-84473325D01*
X106276451Y-84756451D01*
X106248021Y-84799000D01*
X105664922Y-84799000D01*
X103180990Y-82315069D01*
X103180990Y-78726911D01*
X105615685Y-81161607D01*
X105664835Y-81235165D01*
X105945947Y-81422998D01*
X105960136Y-81494330D01*
X106098538Y-81701462D01*
X106305670Y-81839864D01*
X106550000Y-81888464D01*
X109650000Y-81888464D01*
X109894330Y-81839864D01*
X110101462Y-81701462D01*
X110239864Y-81494330D01*
X110288464Y-81250000D01*
X110288464Y-79950000D01*
X110239864Y-79705670D01*
X110101462Y-79498538D01*
X109894330Y-79360136D01*
X109650000Y-79311536D01*
X106550000Y-79311536D01*
X106305993Y-79360072D01*
X104380999Y-77435078D01*
X104380999Y-76188464D01*
X105800000Y-76188464D01*
X105948659Y-76158894D01*
X106074686Y-76074686D01*
X106158894Y-75948659D01*
X106188464Y-75800000D01*
X106188464Y-75000000D01*
X106335863Y-75000000D01*
X106427522Y-75460803D01*
X106688547Y-75851453D01*
X107079197Y-76112478D01*
X107423682Y-76181000D01*
X107656318Y-76181000D01*
X108000803Y-76112478D01*
X108391453Y-75851453D01*
X108652478Y-75460803D01*
X108744137Y-75000000D01*
X108875863Y-75000000D01*
X108967522Y-75460803D01*
X109228547Y-75851453D01*
X109619197Y-76112478D01*
X109963682Y-76181000D01*
X110196318Y-76181000D01*
X110540803Y-76112478D01*
X110699001Y-76006773D01*
X110699002Y-93438662D01*
X110689088Y-93488501D01*
X110728069Y-93684462D01*
X110728361Y-93685932D01*
X110840196Y-93853307D01*
X110882447Y-93881538D01*
X122892464Y-105891556D01*
X122920695Y-105933807D01*
X123088070Y-106045642D01*
X123235666Y-106075001D01*
X123235667Y-106075001D01*
X123285501Y-106084914D01*
X123335335Y-106075001D01*
X126283165Y-106075001D01*
X126332999Y-106084914D01*
X126382833Y-106075001D01*
X126382834Y-106075001D01*
X126530430Y-106045642D01*
X126697805Y-105933807D01*
X126726037Y-105891554D01*
X127051035Y-105566557D01*
X127051037Y-105566554D01*
X127057988Y-105559603D01*
X127386761Y-105625000D01*
X127629239Y-105625000D01*
X127988312Y-105553576D01*
X128395501Y-105281501D01*
X128667576Y-104874312D01*
X128763116Y-104394000D01*
X128792884Y-104394000D01*
X128888424Y-104874312D01*
X129160499Y-105281501D01*
X129567688Y-105553576D01*
X129926761Y-105625000D01*
X130169239Y-105625000D01*
X130528312Y-105553576D01*
X130935501Y-105281501D01*
X131207576Y-104874312D01*
X131303116Y-104394000D01*
X131332884Y-104394000D01*
X131428424Y-104874312D01*
X131700499Y-105281501D01*
X132107688Y-105553576D01*
X132466761Y-105625000D01*
X132709239Y-105625000D01*
X133068312Y-105553576D01*
X133475501Y-105281501D01*
X133747576Y-104874312D01*
X133843116Y-104394000D01*
X133872884Y-104394000D01*
X133968424Y-104874312D01*
X134240499Y-105281501D01*
X134647688Y-105553576D01*
X135006761Y-105625000D01*
X135249239Y-105625000D01*
X135608312Y-105553576D01*
X136015501Y-105281501D01*
X136285755Y-104877037D01*
X136472817Y-105275358D01*
X136901076Y-105665645D01*
X137311110Y-105835476D01*
X137541000Y-105714155D01*
X137541000Y-104521000D01*
X137521000Y-104521000D01*
X137521000Y-104267000D01*
X137541000Y-104267000D01*
X137541000Y-103073845D01*
X137795000Y-103073845D01*
X137795000Y-104267000D01*
X137815000Y-104267000D01*
X137815000Y-104521000D01*
X137795000Y-104521000D01*
X137795000Y-105714155D01*
X138024890Y-105835476D01*
X138434924Y-105665645D01*
X138863183Y-105275358D01*
X139050245Y-104877037D01*
X139320499Y-105281501D01*
X139727688Y-105553576D01*
X140086761Y-105625000D01*
X140329239Y-105625000D01*
X140688312Y-105553576D01*
X141095501Y-105281501D01*
X141367576Y-104874312D01*
X141463116Y-104394000D01*
X141367576Y-103913688D01*
X141120559Y-103544000D01*
X141509536Y-103544000D01*
X141509536Y-105244000D01*
X141539106Y-105392659D01*
X141623314Y-105518686D01*
X141749341Y-105602894D01*
X141898000Y-105632464D01*
X143598000Y-105632464D01*
X143746659Y-105602894D01*
X143872686Y-105518686D01*
X143956894Y-105392659D01*
X143986464Y-105244000D01*
X143986464Y-103544000D01*
X143956894Y-103395341D01*
X143872686Y-103269314D01*
X143746659Y-103185106D01*
X143598000Y-103155536D01*
X141898000Y-103155536D01*
X141749341Y-103185106D01*
X141623314Y-103269314D01*
X141539106Y-103395341D01*
X141509536Y-103544000D01*
X141120559Y-103544000D01*
X141095501Y-103506499D01*
X140688312Y-103234424D01*
X140329239Y-103163000D01*
X140086761Y-103163000D01*
X139727688Y-103234424D01*
X139320499Y-103506499D01*
X139050245Y-103910963D01*
X138863183Y-103512642D01*
X138434924Y-103122355D01*
X138024890Y-102952524D01*
X137795000Y-103073845D01*
X137541000Y-103073845D01*
X137311110Y-102952524D01*
X136901076Y-103122355D01*
X136472817Y-103512642D01*
X136285755Y-103910963D01*
X136015501Y-103506499D01*
X135608312Y-103234424D01*
X135249239Y-103163000D01*
X135006761Y-103163000D01*
X134647688Y-103234424D01*
X134240499Y-103506499D01*
X133968424Y-103913688D01*
X133872884Y-104394000D01*
X133843116Y-104394000D01*
X133747576Y-103913688D01*
X133475501Y-103506499D01*
X133068312Y-103234424D01*
X132709239Y-103163000D01*
X132466761Y-103163000D01*
X132107688Y-103234424D01*
X131700499Y-103506499D01*
X131428424Y-103913688D01*
X131332884Y-104394000D01*
X131303116Y-104394000D01*
X131207576Y-103913688D01*
X130935501Y-103506499D01*
X130528312Y-103234424D01*
X130169239Y-103163000D01*
X129926761Y-103163000D01*
X129567688Y-103234424D01*
X129160499Y-103506499D01*
X128888424Y-103913688D01*
X128792884Y-104394000D01*
X128763116Y-104394000D01*
X128667576Y-103913688D01*
X128395501Y-103506499D01*
X127988312Y-103234424D01*
X127629239Y-103163000D01*
X127386761Y-103163000D01*
X127027688Y-103234424D01*
X126620499Y-103506499D01*
X126348424Y-103913688D01*
X126252884Y-104394000D01*
X126342397Y-104844012D01*
X126335446Y-104850963D01*
X126335443Y-104850965D01*
X126123408Y-105063001D01*
X126001498Y-105063001D01*
X126127576Y-104874312D01*
X126223116Y-104394000D01*
X126127576Y-103913688D01*
X125855501Y-103506499D01*
X125448312Y-103234424D01*
X125089239Y-103163000D01*
X124846761Y-103163000D01*
X124487688Y-103234424D01*
X124080499Y-103506499D01*
X123909304Y-103762711D01*
X114425000Y-94278409D01*
X114425000Y-75929265D01*
X114654000Y-76082278D01*
X114654001Y-81963161D01*
X114644087Y-82013000D01*
X114683360Y-82210431D01*
X114795195Y-82377806D01*
X114837446Y-82406037D01*
X123954000Y-91522592D01*
X123954001Y-94651498D01*
X123797900Y-94807599D01*
X123679000Y-95094649D01*
X123679000Y-95405351D01*
X123797900Y-95692401D01*
X124017599Y-95912100D01*
X124304649Y-96031000D01*
X124615351Y-96031000D01*
X124817042Y-95947457D01*
X124813900Y-95950599D01*
X124695000Y-96237649D01*
X124695000Y-96548351D01*
X124813900Y-96835401D01*
X125033599Y-97055100D01*
X125320649Y-97174000D01*
X125558999Y-97174000D01*
X125512400Y-97220599D01*
X125393500Y-97507649D01*
X125393500Y-97818351D01*
X125512400Y-98105401D01*
X125732099Y-98325100D01*
X126019149Y-98444000D01*
X126329851Y-98444000D01*
X126616901Y-98325100D01*
X126836600Y-98105401D01*
X126955500Y-97818351D01*
X126955500Y-97597591D01*
X127703555Y-96849537D01*
X127745806Y-96821306D01*
X127821033Y-96708719D01*
X127857641Y-96653932D01*
X127896913Y-96456500D01*
X127887000Y-96406665D01*
X127887000Y-90197001D01*
X128043100Y-90040901D01*
X128162000Y-89753851D01*
X128162000Y-89443149D01*
X128043100Y-89156099D01*
X127823401Y-88936400D01*
X127536351Y-88817500D01*
X127225649Y-88817500D01*
X126938599Y-88936400D01*
X126718900Y-89156099D01*
X126600000Y-89443149D01*
X126600000Y-89753851D01*
X126718900Y-90040901D01*
X126875000Y-90197001D01*
X126875001Y-96246907D01*
X126239909Y-96882000D01*
X126091501Y-96882000D01*
X126138100Y-96835401D01*
X126257000Y-96548351D01*
X126257000Y-96237649D01*
X126138100Y-95950599D01*
X125982000Y-95794499D01*
X125982000Y-91362835D01*
X125991913Y-91313000D01*
X125952641Y-91115568D01*
X125916033Y-91060781D01*
X125840806Y-90948194D01*
X125798556Y-90919964D01*
X122723241Y-87844649D01*
X129219000Y-87844649D01*
X129219000Y-88155351D01*
X129337900Y-88442401D01*
X129557599Y-88662100D01*
X129844649Y-88781000D01*
X129888632Y-88781000D01*
X142219000Y-101111369D01*
X142219000Y-101155351D01*
X142337900Y-101442401D01*
X142557599Y-101662100D01*
X142844649Y-101781000D01*
X143155351Y-101781000D01*
X143442401Y-101662100D01*
X143662100Y-101442401D01*
X143781000Y-101155351D01*
X143781000Y-100844649D01*
X143735993Y-100735993D01*
X143844649Y-100781000D01*
X144155351Y-100781000D01*
X144264007Y-100735993D01*
X144219000Y-100844649D01*
X144219000Y-101155351D01*
X144337900Y-101442401D01*
X144395499Y-101500000D01*
X144337900Y-101557599D01*
X144219000Y-101844649D01*
X144219000Y-102155351D01*
X144337900Y-102442401D01*
X144395499Y-102500000D01*
X144337900Y-102557599D01*
X144219000Y-102844649D01*
X144219000Y-103155351D01*
X144337900Y-103442401D01*
X144557599Y-103662100D01*
X144844649Y-103781000D01*
X145155351Y-103781000D01*
X145442401Y-103662100D01*
X145473501Y-103631000D01*
X171526499Y-103631000D01*
X171557599Y-103662100D01*
X171844649Y-103781000D01*
X172155351Y-103781000D01*
X172442401Y-103662100D01*
X172662100Y-103442401D01*
X172781000Y-103155351D01*
X172781000Y-102844649D01*
X172662100Y-102557599D01*
X172604501Y-102500000D01*
X172662100Y-102442401D01*
X172781000Y-102155351D01*
X172781000Y-101844649D01*
X172662100Y-101557599D01*
X172604501Y-101500000D01*
X172662100Y-101442401D01*
X172781000Y-101155351D01*
X172781000Y-100844649D01*
X172662100Y-100557599D01*
X172442401Y-100337900D01*
X172155351Y-100219000D01*
X171844649Y-100219000D01*
X171557599Y-100337900D01*
X171526499Y-100369000D01*
X145473501Y-100369000D01*
X145442401Y-100337900D01*
X145155351Y-100219000D01*
X144844649Y-100219000D01*
X144735993Y-100264007D01*
X144781000Y-100155351D01*
X144781000Y-99844649D01*
X144735993Y-99735993D01*
X144844649Y-99781000D01*
X145155351Y-99781000D01*
X145442401Y-99662100D01*
X145662100Y-99442401D01*
X145781000Y-99155351D01*
X145781000Y-98844649D01*
X145674341Y-98587149D01*
X159048500Y-98587149D01*
X159048500Y-98897851D01*
X159167400Y-99184901D01*
X159387099Y-99404600D01*
X159674149Y-99523500D01*
X159984851Y-99523500D01*
X160271901Y-99404600D01*
X160364501Y-99312000D01*
X164501499Y-99312000D01*
X164657599Y-99468100D01*
X164944649Y-99587000D01*
X165255351Y-99587000D01*
X165542401Y-99468100D01*
X165762100Y-99248401D01*
X165881000Y-98961351D01*
X165881000Y-98650649D01*
X165762100Y-98363599D01*
X165542401Y-98143900D01*
X165255351Y-98025000D01*
X164944649Y-98025000D01*
X164657599Y-98143900D01*
X164501499Y-98300000D01*
X160491501Y-98300000D01*
X160271901Y-98080400D01*
X159984851Y-97961500D01*
X159674149Y-97961500D01*
X159387099Y-98080400D01*
X159167400Y-98300099D01*
X159048500Y-98587149D01*
X145674341Y-98587149D01*
X145662100Y-98557599D01*
X145442401Y-98337900D01*
X145155351Y-98219000D01*
X145111368Y-98219000D01*
X139319301Y-92426933D01*
X149269000Y-92426933D01*
X149269000Y-93573067D01*
X149707606Y-94631955D01*
X150518045Y-95442394D01*
X151576933Y-95881000D01*
X152723067Y-95881000D01*
X153781955Y-95442394D01*
X154592394Y-94631955D01*
X155031000Y-93573067D01*
X155031000Y-92426933D01*
X154592394Y-91368045D01*
X153781955Y-90557606D01*
X152723067Y-90119000D01*
X151576933Y-90119000D01*
X150518045Y-90557606D01*
X149707606Y-91368045D01*
X149269000Y-92426933D01*
X139319301Y-92426933D01*
X132781000Y-85888632D01*
X132781000Y-85844649D01*
X132662100Y-85557599D01*
X132442401Y-85337900D01*
X132155351Y-85219000D01*
X131844649Y-85219000D01*
X131557599Y-85337900D01*
X131337900Y-85557599D01*
X131219000Y-85844649D01*
X131219000Y-86155351D01*
X131264007Y-86264007D01*
X131155351Y-86219000D01*
X130844649Y-86219000D01*
X130557599Y-86337900D01*
X130337900Y-86557599D01*
X130219000Y-86844649D01*
X130219000Y-87155351D01*
X130264007Y-87264007D01*
X130155351Y-87219000D01*
X129844649Y-87219000D01*
X129557599Y-87337900D01*
X129337900Y-87557599D01*
X129219000Y-87844649D01*
X122723241Y-87844649D01*
X118206000Y-83327409D01*
X118206000Y-79244649D01*
X159619000Y-79244649D01*
X159619000Y-79555351D01*
X159737900Y-79842401D01*
X159894001Y-79998502D01*
X159894000Y-87150166D01*
X159884087Y-87200000D01*
X159894000Y-87249834D01*
X159923359Y-87397430D01*
X160035194Y-87564806D01*
X160077448Y-87593039D01*
X182219000Y-109734593D01*
X182219000Y-109955351D01*
X182337900Y-110242401D01*
X182557599Y-110462100D01*
X182844649Y-110581000D01*
X183155351Y-110581000D01*
X183442401Y-110462100D01*
X183662100Y-110242401D01*
X183781000Y-109955351D01*
X183781000Y-109644649D01*
X183662100Y-109357599D01*
X183442401Y-109137900D01*
X183155351Y-109019000D01*
X182934593Y-109019000D01*
X181221593Y-107306000D01*
X183790409Y-107306000D01*
X186219000Y-109734592D01*
X186219000Y-109955351D01*
X186337900Y-110242401D01*
X186557599Y-110462100D01*
X186844649Y-110581000D01*
X187155351Y-110581000D01*
X187442401Y-110462100D01*
X187662100Y-110242401D01*
X187781000Y-109955351D01*
X187781000Y-109644649D01*
X187662100Y-109357599D01*
X187442401Y-109137900D01*
X187155351Y-109019000D01*
X186934592Y-109019000D01*
X184621591Y-106706000D01*
X187190409Y-106706000D01*
X190219000Y-109734592D01*
X190219000Y-109955351D01*
X190337900Y-110242401D01*
X190557599Y-110462100D01*
X190844649Y-110581000D01*
X191155351Y-110581000D01*
X191442401Y-110462100D01*
X191662100Y-110242401D01*
X191781000Y-109955351D01*
X191781000Y-109644649D01*
X191662100Y-109357599D01*
X191442401Y-109137900D01*
X191155351Y-109019000D01*
X190934592Y-109019000D01*
X187793039Y-105877448D01*
X187764806Y-105835194D01*
X187597431Y-105723359D01*
X187449835Y-105694000D01*
X187449834Y-105694000D01*
X187400000Y-105684087D01*
X187350166Y-105694000D01*
X180973181Y-105694000D01*
X179210180Y-103930999D01*
X186511502Y-103930999D01*
X186369000Y-104275030D01*
X186369000Y-104724970D01*
X186541184Y-105140660D01*
X186859340Y-105458816D01*
X187275030Y-105631000D01*
X187724970Y-105631000D01*
X188140660Y-105458816D01*
X188458816Y-105140660D01*
X188631000Y-104724970D01*
X188631000Y-104275030D01*
X188488498Y-103930999D01*
X191215408Y-103930999D01*
X191424778Y-104140369D01*
X191369000Y-104275030D01*
X191369000Y-104724970D01*
X191541184Y-105140660D01*
X191859340Y-105458816D01*
X192275030Y-105631000D01*
X192724970Y-105631000D01*
X193140660Y-105458816D01*
X193458816Y-105140660D01*
X193631000Y-104724970D01*
X193631000Y-104275030D01*
X193458816Y-103859340D01*
X193140660Y-103541184D01*
X192724970Y-103369000D01*
X192275030Y-103369000D01*
X192140369Y-103424778D01*
X191818037Y-103102446D01*
X191789805Y-103060193D01*
X191622430Y-102948358D01*
X191474834Y-102918999D01*
X191474833Y-102918999D01*
X191424999Y-102909086D01*
X191375165Y-102918999D01*
X178834591Y-102918999D01*
X171815592Y-95900000D01*
X183011536Y-95900000D01*
X183011536Y-99100000D01*
X183041106Y-99248659D01*
X183125314Y-99374686D01*
X183251341Y-99458894D01*
X183400000Y-99488464D01*
X185400000Y-99488464D01*
X185548659Y-99458894D01*
X185674686Y-99374686D01*
X185758894Y-99248659D01*
X185788464Y-99100000D01*
X185788464Y-95900000D01*
X194211536Y-95900000D01*
X194211536Y-99100000D01*
X194241106Y-99248659D01*
X194325314Y-99374686D01*
X194451341Y-99458894D01*
X194600000Y-99488464D01*
X196600000Y-99488464D01*
X196748659Y-99458894D01*
X196874686Y-99374686D01*
X196958894Y-99248659D01*
X196988464Y-99100000D01*
X196988464Y-95900000D01*
X196958894Y-95751341D01*
X196874686Y-95625314D01*
X196748659Y-95541106D01*
X196600000Y-95511536D01*
X194600000Y-95511536D01*
X194451341Y-95541106D01*
X194325314Y-95625314D01*
X194241106Y-95751341D01*
X194211536Y-95900000D01*
X185788464Y-95900000D01*
X185758894Y-95751341D01*
X185674686Y-95625314D01*
X185548659Y-95541106D01*
X185400000Y-95511536D01*
X183400000Y-95511536D01*
X183251341Y-95541106D01*
X183125314Y-95625314D01*
X183041106Y-95751341D01*
X183011536Y-95900000D01*
X171815592Y-95900000D01*
X171456938Y-95541347D01*
X172276933Y-95881000D01*
X173423067Y-95881000D01*
X174481955Y-95442394D01*
X175292394Y-94631955D01*
X175731000Y-93573067D01*
X175731000Y-92426933D01*
X175292394Y-91368045D01*
X174481955Y-90557606D01*
X173423067Y-90119000D01*
X172276933Y-90119000D01*
X171218045Y-90557606D01*
X170407606Y-91368045D01*
X169969000Y-92426933D01*
X169969000Y-93573067D01*
X170308653Y-94393062D01*
X168755600Y-92840009D01*
X168755600Y-89725302D01*
X186119000Y-89725302D01*
X186119000Y-90274698D01*
X186329245Y-90782273D01*
X186717727Y-91170755D01*
X187225302Y-91381000D01*
X187774698Y-91381000D01*
X188282273Y-91170755D01*
X188670755Y-90782273D01*
X188750000Y-90590959D01*
X188829245Y-90782273D01*
X189217727Y-91170755D01*
X189725302Y-91381000D01*
X190274698Y-91381000D01*
X190782273Y-91170755D01*
X191111536Y-90841492D01*
X191111536Y-91000000D01*
X191141106Y-91148659D01*
X191225314Y-91274686D01*
X191351341Y-91358894D01*
X191500000Y-91388464D01*
X193500000Y-91388464D01*
X193648659Y-91358894D01*
X193774686Y-91274686D01*
X193858894Y-91148659D01*
X193888464Y-91000000D01*
X193888464Y-89000000D01*
X193858894Y-88851341D01*
X193774686Y-88725314D01*
X193648659Y-88641106D01*
X193500000Y-88611536D01*
X191500000Y-88611536D01*
X191351341Y-88641106D01*
X191225314Y-88725314D01*
X191141106Y-88851341D01*
X191111536Y-89000000D01*
X191111536Y-89158508D01*
X190782273Y-88829245D01*
X190274698Y-88619000D01*
X189725302Y-88619000D01*
X189217727Y-88829245D01*
X188829245Y-89217727D01*
X188750000Y-89409041D01*
X188670755Y-89217727D01*
X188282273Y-88829245D01*
X187774698Y-88619000D01*
X187225302Y-88619000D01*
X186717727Y-88829245D01*
X186329245Y-89217727D01*
X186119000Y-89725302D01*
X168755600Y-89725302D01*
X168755600Y-89395683D01*
X168844401Y-89358900D01*
X169064100Y-89139201D01*
X169183000Y-88852151D01*
X169183000Y-88541449D01*
X169064100Y-88254399D01*
X168844401Y-88034700D01*
X168557351Y-87915800D01*
X168246649Y-87915800D01*
X167959599Y-88034700D01*
X167739900Y-88254399D01*
X167621000Y-88541449D01*
X167621000Y-88852151D01*
X167739900Y-89139201D01*
X167743601Y-89142902D01*
X167743600Y-92464420D01*
X163506000Y-88226820D01*
X163506000Y-79998501D01*
X163662100Y-79842401D01*
X163781000Y-79555351D01*
X163781000Y-79244649D01*
X163662100Y-78957599D01*
X163442401Y-78737900D01*
X163155351Y-78619000D01*
X162844649Y-78619000D01*
X162557599Y-78737900D01*
X162337900Y-78957599D01*
X162300000Y-79049098D01*
X162262100Y-78957599D01*
X162042401Y-78737900D01*
X161755351Y-78619000D01*
X161444649Y-78619000D01*
X161157599Y-78737900D01*
X161000000Y-78895499D01*
X160842401Y-78737900D01*
X160555351Y-78619000D01*
X160244649Y-78619000D01*
X159957599Y-78737900D01*
X159737900Y-78957599D01*
X159619000Y-79244649D01*
X118206000Y-79244649D01*
X118206000Y-78480000D01*
X189874036Y-78480000D01*
X189874036Y-79780000D01*
X189922636Y-80024330D01*
X190061038Y-80231462D01*
X190268170Y-80369864D01*
X190512500Y-80418464D01*
X193612500Y-80418464D01*
X193856830Y-80369864D01*
X194063962Y-80231462D01*
X194202364Y-80024330D01*
X194250964Y-79780000D01*
X194250964Y-78480000D01*
X194202364Y-78235670D01*
X194063962Y-78028538D01*
X193856830Y-77890136D01*
X193612500Y-77841536D01*
X190512500Y-77841536D01*
X190268170Y-77890136D01*
X190061038Y-78028538D01*
X189922636Y-78235670D01*
X189874036Y-78480000D01*
X118206000Y-78480000D01*
X118206000Y-76082278D01*
X118551453Y-75851453D01*
X118812478Y-75460803D01*
X118904137Y-75000000D01*
X119035863Y-75000000D01*
X119127522Y-75460803D01*
X119388547Y-75851453D01*
X119779197Y-76112478D01*
X120123682Y-76181000D01*
X120356318Y-76181000D01*
X120700803Y-76112478D01*
X121091453Y-75851453D01*
X121352478Y-75460803D01*
X121444137Y-75000000D01*
X121575863Y-75000000D01*
X121667522Y-75460803D01*
X121928547Y-75851453D01*
X122319197Y-76112478D01*
X122663682Y-76181000D01*
X122896318Y-76181000D01*
X123240803Y-76112478D01*
X123631453Y-75851453D01*
X123892478Y-75460803D01*
X123984137Y-75000000D01*
X124115863Y-75000000D01*
X124207522Y-75460803D01*
X124468547Y-75851453D01*
X124859197Y-76112478D01*
X125203682Y-76181000D01*
X125436318Y-76181000D01*
X125780803Y-76112478D01*
X126171453Y-75851453D01*
X126432478Y-75460803D01*
X126524137Y-75000000D01*
X126655863Y-75000000D01*
X126747522Y-75460803D01*
X127008547Y-75851453D01*
X127399197Y-76112478D01*
X127743682Y-76181000D01*
X127976318Y-76181000D01*
X128320803Y-76112478D01*
X128711453Y-75851453D01*
X128972478Y-75460803D01*
X129064137Y-75000000D01*
X129195863Y-75000000D01*
X129287522Y-75460803D01*
X129548547Y-75851453D01*
X129939197Y-76112478D01*
X130283682Y-76181000D01*
X130516318Y-76181000D01*
X130860803Y-76112478D01*
X131251453Y-75851453D01*
X131512478Y-75460803D01*
X131604137Y-75000000D01*
X131735863Y-75000000D01*
X131827522Y-75460803D01*
X132088547Y-75851453D01*
X132479197Y-76112478D01*
X132823682Y-76181000D01*
X133056318Y-76181000D01*
X133400803Y-76112478D01*
X133791453Y-75851453D01*
X134052478Y-75460803D01*
X134144137Y-75000000D01*
X134275863Y-75000000D01*
X134367522Y-75460803D01*
X134628547Y-75851453D01*
X135019197Y-76112478D01*
X135363682Y-76181000D01*
X135596318Y-76181000D01*
X135940803Y-76112478D01*
X136331453Y-75851453D01*
X136592478Y-75460803D01*
X136684137Y-75000000D01*
X136815863Y-75000000D01*
X136907522Y-75460803D01*
X137168547Y-75851453D01*
X137559197Y-76112478D01*
X137903682Y-76181000D01*
X138136318Y-76181000D01*
X138480803Y-76112478D01*
X138871453Y-75851453D01*
X139132478Y-75460803D01*
X139224137Y-75000000D01*
X139355863Y-75000000D01*
X139447522Y-75460803D01*
X139708547Y-75851453D01*
X140099197Y-76112478D01*
X140443682Y-76181000D01*
X140676318Y-76181000D01*
X141020803Y-76112478D01*
X141411453Y-75851453D01*
X141672478Y-75460803D01*
X141764137Y-75000000D01*
X141672478Y-74539197D01*
X141411453Y-74148547D01*
X141020803Y-73887522D01*
X140676318Y-73819000D01*
X140443682Y-73819000D01*
X140099197Y-73887522D01*
X139708547Y-74148547D01*
X139447522Y-74539197D01*
X139355863Y-75000000D01*
X139224137Y-75000000D01*
X139132478Y-74539197D01*
X138871453Y-74148547D01*
X138480803Y-73887522D01*
X138136318Y-73819000D01*
X137903682Y-73819000D01*
X137559197Y-73887522D01*
X137168547Y-74148547D01*
X136907522Y-74539197D01*
X136815863Y-75000000D01*
X136684137Y-75000000D01*
X136592478Y-74539197D01*
X136331453Y-74148547D01*
X135940803Y-73887522D01*
X135596318Y-73819000D01*
X135363682Y-73819000D01*
X135019197Y-73887522D01*
X134628547Y-74148547D01*
X134367522Y-74539197D01*
X134275863Y-75000000D01*
X134144137Y-75000000D01*
X134052478Y-74539197D01*
X133791453Y-74148547D01*
X133400803Y-73887522D01*
X133056318Y-73819000D01*
X132823682Y-73819000D01*
X132479197Y-73887522D01*
X132088547Y-74148547D01*
X131827522Y-74539197D01*
X131735863Y-75000000D01*
X131604137Y-75000000D01*
X131512478Y-74539197D01*
X131251453Y-74148547D01*
X130860803Y-73887522D01*
X130516318Y-73819000D01*
X130283682Y-73819000D01*
X129939197Y-73887522D01*
X129548547Y-74148547D01*
X129287522Y-74539197D01*
X129195863Y-75000000D01*
X129064137Y-75000000D01*
X128972478Y-74539197D01*
X128711453Y-74148547D01*
X128320803Y-73887522D01*
X127976318Y-73819000D01*
X127743682Y-73819000D01*
X127399197Y-73887522D01*
X127008547Y-74148547D01*
X126747522Y-74539197D01*
X126655863Y-75000000D01*
X126524137Y-75000000D01*
X126432478Y-74539197D01*
X126171453Y-74148547D01*
X125780803Y-73887522D01*
X125436318Y-73819000D01*
X125203682Y-73819000D01*
X124859197Y-73887522D01*
X124468547Y-74148547D01*
X124207522Y-74539197D01*
X124115863Y-75000000D01*
X123984137Y-75000000D01*
X123892478Y-74539197D01*
X123631453Y-74148547D01*
X123240803Y-73887522D01*
X122896318Y-73819000D01*
X122663682Y-73819000D01*
X122319197Y-73887522D01*
X121928547Y-74148547D01*
X121667522Y-74539197D01*
X121575863Y-75000000D01*
X121444137Y-75000000D01*
X121352478Y-74539197D01*
X121091453Y-74148547D01*
X120700803Y-73887522D01*
X120356318Y-73819000D01*
X120123682Y-73819000D01*
X119779197Y-73887522D01*
X119388547Y-74148547D01*
X119127522Y-74539197D01*
X119035863Y-75000000D01*
X118904137Y-75000000D01*
X118812478Y-74539197D01*
X118551453Y-74148547D01*
X118160803Y-73887522D01*
X117816318Y-73819000D01*
X117583682Y-73819000D01*
X117239197Y-73887522D01*
X116848547Y-74148547D01*
X116587522Y-74539197D01*
X116495863Y-75000000D01*
X116587522Y-75460803D01*
X116848547Y-75851453D01*
X117194000Y-76082278D01*
X117194001Y-83331410D01*
X115666000Y-81803409D01*
X115666000Y-76082278D01*
X116011453Y-75851453D01*
X116272478Y-75460803D01*
X116364137Y-75000000D01*
X116272478Y-74539197D01*
X116011453Y-74148547D01*
X115620803Y-73887522D01*
X115276318Y-73819000D01*
X115043682Y-73819000D01*
X114699197Y-73887522D01*
X114425000Y-74070735D01*
X114425000Y-73910591D01*
X127452509Y-60883082D01*
X127743682Y-60941000D01*
X127976318Y-60941000D01*
X128320803Y-60872478D01*
X128711453Y-60611453D01*
X128972478Y-60220803D01*
X129064137Y-59760000D01*
X128972478Y-59299197D01*
X128866773Y-59140999D01*
X129393227Y-59140999D01*
X129287522Y-59299197D01*
X129195863Y-59760000D01*
X129287522Y-60220803D01*
X129548547Y-60611453D01*
X129939197Y-60872478D01*
X130283682Y-60941000D01*
X130516318Y-60941000D01*
X130860803Y-60872478D01*
X131251453Y-60611453D01*
X131299084Y-60540169D01*
X131298681Y-60542194D01*
X131337954Y-60739625D01*
X131449789Y-60907000D01*
X131492039Y-60935230D01*
X132906163Y-62349355D01*
X132934394Y-62391606D01*
X133101769Y-62503441D01*
X133249365Y-62532800D01*
X133249366Y-62532800D01*
X133299200Y-62542713D01*
X133349034Y-62532800D01*
X141082699Y-62532800D01*
X141238799Y-62688900D01*
X141525849Y-62807800D01*
X141836551Y-62807800D01*
X142123601Y-62688900D01*
X142180501Y-62632000D01*
X142180500Y-74329499D01*
X142149400Y-74360599D01*
X142030500Y-74647649D01*
X142030500Y-74958351D01*
X142149400Y-75245401D01*
X142369099Y-75465100D01*
X142656149Y-75584000D01*
X142966851Y-75584000D01*
X143253901Y-75465100D01*
X143473600Y-75245401D01*
X143592500Y-74958351D01*
X143592500Y-74647649D01*
X143473600Y-74360599D01*
X143442500Y-74329499D01*
X143442500Y-63497049D01*
X143491000Y-63497049D01*
X143491000Y-63807751D01*
X143609900Y-64094801D01*
X143829599Y-64314500D01*
X144020001Y-64393367D01*
X144020000Y-74179099D01*
X143863900Y-74335199D01*
X143745000Y-74622249D01*
X143745000Y-74932951D01*
X143863900Y-75220001D01*
X144083599Y-75439700D01*
X144370649Y-75558600D01*
X144681351Y-75558600D01*
X144968401Y-75439700D01*
X145188100Y-75220001D01*
X145307000Y-74932951D01*
X145307000Y-74622249D01*
X145221047Y-74414740D01*
X189671464Y-74414740D01*
X189695744Y-74520086D01*
X189987288Y-75045606D01*
X190457748Y-75419554D01*
X191035500Y-75585000D01*
X191935500Y-75585000D01*
X191935500Y-74177000D01*
X192189500Y-74177000D01*
X192189500Y-75585000D01*
X193089500Y-75585000D01*
X193667252Y-75419554D01*
X194137712Y-75045606D01*
X194429256Y-74520086D01*
X194453536Y-74414740D01*
X194332878Y-74177000D01*
X192189500Y-74177000D01*
X191935500Y-74177000D01*
X189792122Y-74177000D01*
X189671464Y-74414740D01*
X145221047Y-74414740D01*
X145188100Y-74335199D01*
X145032000Y-74179099D01*
X145032000Y-73685260D01*
X189671464Y-73685260D01*
X189792122Y-73923000D01*
X191935500Y-73923000D01*
X191935500Y-72515000D01*
X192189500Y-72515000D01*
X192189500Y-73923000D01*
X194332878Y-73923000D01*
X194453536Y-73685260D01*
X194429256Y-73579914D01*
X194137712Y-73054394D01*
X193667252Y-72680446D01*
X193089500Y-72515000D01*
X192189500Y-72515000D01*
X191935500Y-72515000D01*
X191035500Y-72515000D01*
X190457748Y-72680446D01*
X189987288Y-73054394D01*
X189695744Y-73579914D01*
X189671464Y-73685260D01*
X145032000Y-73685260D01*
X145032000Y-69226933D01*
X149269000Y-69226933D01*
X149269000Y-70373067D01*
X149707606Y-71431955D01*
X150518045Y-72242394D01*
X151576933Y-72681000D01*
X152723067Y-72681000D01*
X153781955Y-72242394D01*
X154592394Y-71431955D01*
X155031000Y-70373067D01*
X155031000Y-69226933D01*
X154750606Y-68550000D01*
X157511536Y-68550000D01*
X157511536Y-70250000D01*
X157541106Y-70398659D01*
X157625314Y-70524686D01*
X157751341Y-70608894D01*
X157900000Y-70638464D01*
X159600000Y-70638464D01*
X159748659Y-70608894D01*
X159874686Y-70524686D01*
X159958894Y-70398659D01*
X159988464Y-70250000D01*
X159988464Y-70054895D01*
X160094817Y-70281358D01*
X160523076Y-70671645D01*
X160933110Y-70841476D01*
X161163000Y-70720155D01*
X161163000Y-69527000D01*
X161143000Y-69527000D01*
X161143000Y-69273000D01*
X161163000Y-69273000D01*
X161163000Y-68079845D01*
X161417000Y-68079845D01*
X161417000Y-69273000D01*
X161437000Y-69273000D01*
X161437000Y-69527000D01*
X161417000Y-69527000D01*
X161417000Y-70720155D01*
X161646890Y-70841476D01*
X162056924Y-70671645D01*
X162485183Y-70281358D01*
X162672245Y-69883037D01*
X162942499Y-70287501D01*
X163349688Y-70559576D01*
X163708761Y-70631000D01*
X163951239Y-70631000D01*
X164310312Y-70559576D01*
X164717501Y-70287501D01*
X164989576Y-69880312D01*
X165085116Y-69400000D01*
X165114884Y-69400000D01*
X165210424Y-69880312D01*
X165482499Y-70287501D01*
X165889688Y-70559576D01*
X166248761Y-70631000D01*
X166491239Y-70631000D01*
X166850312Y-70559576D01*
X167257501Y-70287501D01*
X167529576Y-69880312D01*
X167625116Y-69400000D01*
X167590691Y-69226933D01*
X169969000Y-69226933D01*
X169969000Y-70373067D01*
X170407606Y-71431955D01*
X171218045Y-72242394D01*
X172276933Y-72681000D01*
X173423067Y-72681000D01*
X174481955Y-72242394D01*
X175292394Y-71431955D01*
X175731000Y-70373067D01*
X175731000Y-69226933D01*
X175292394Y-68168045D01*
X174481955Y-67357606D01*
X174053177Y-67180000D01*
X189874036Y-67180000D01*
X189874036Y-68480000D01*
X189922636Y-68724330D01*
X190061038Y-68931462D01*
X190268170Y-69069864D01*
X190512500Y-69118464D01*
X193612500Y-69118464D01*
X193856830Y-69069864D01*
X194063962Y-68931462D01*
X194202364Y-68724330D01*
X194250964Y-68480000D01*
X194250964Y-67180000D01*
X194202364Y-66935670D01*
X194063962Y-66728538D01*
X193856830Y-66590136D01*
X193612500Y-66541536D01*
X190512500Y-66541536D01*
X190268170Y-66590136D01*
X190061038Y-66728538D01*
X189922636Y-66935670D01*
X189874036Y-67180000D01*
X174053177Y-67180000D01*
X173423067Y-66919000D01*
X172276933Y-66919000D01*
X171218045Y-67357606D01*
X170407606Y-68168045D01*
X169969000Y-69226933D01*
X167590691Y-69226933D01*
X167529576Y-68919688D01*
X167257501Y-68512499D01*
X166850312Y-68240424D01*
X166491239Y-68169000D01*
X166248761Y-68169000D01*
X165889688Y-68240424D01*
X165482499Y-68512499D01*
X165210424Y-68919688D01*
X165114884Y-69400000D01*
X165085116Y-69400000D01*
X164989576Y-68919688D01*
X164717501Y-68512499D01*
X164310312Y-68240424D01*
X163951239Y-68169000D01*
X163708761Y-68169000D01*
X163349688Y-68240424D01*
X162942499Y-68512499D01*
X162672245Y-68916963D01*
X162485183Y-68518642D01*
X162056924Y-68128355D01*
X161646890Y-67958524D01*
X161417000Y-68079845D01*
X161163000Y-68079845D01*
X160933110Y-67958524D01*
X160523076Y-68128355D01*
X160094817Y-68518642D01*
X159988464Y-68745105D01*
X159988464Y-68550000D01*
X159958894Y-68401341D01*
X159874686Y-68275314D01*
X159748659Y-68191106D01*
X159600000Y-68161536D01*
X157900000Y-68161536D01*
X157751341Y-68191106D01*
X157625314Y-68275314D01*
X157541106Y-68401341D01*
X157511536Y-68550000D01*
X154750606Y-68550000D01*
X154592394Y-68168045D01*
X153781955Y-67357606D01*
X152723067Y-66919000D01*
X151576933Y-66919000D01*
X150518045Y-67357606D01*
X149707606Y-68168045D01*
X149269000Y-69226933D01*
X145032000Y-69226933D01*
X145032000Y-63956233D01*
X145041913Y-63906399D01*
X145032253Y-63857838D01*
X145053000Y-63807751D01*
X145053000Y-63497049D01*
X144934100Y-63209999D01*
X144838841Y-63114740D01*
X189671464Y-63114740D01*
X189695744Y-63220086D01*
X189987288Y-63745606D01*
X190457748Y-64119554D01*
X191035500Y-64285000D01*
X191935500Y-64285000D01*
X191935500Y-62877000D01*
X192189500Y-62877000D01*
X192189500Y-64285000D01*
X193089500Y-64285000D01*
X193667252Y-64119554D01*
X194137712Y-63745606D01*
X194429256Y-63220086D01*
X194453536Y-63114740D01*
X194332878Y-62877000D01*
X192189500Y-62877000D01*
X191935500Y-62877000D01*
X189792122Y-62877000D01*
X189671464Y-63114740D01*
X144838841Y-63114740D01*
X144714401Y-62990300D01*
X144427351Y-62871400D01*
X144116649Y-62871400D01*
X143829599Y-62990300D01*
X143609900Y-63209999D01*
X143491000Y-63497049D01*
X143442500Y-63497049D01*
X143442500Y-62385260D01*
X189671464Y-62385260D01*
X189792122Y-62623000D01*
X191935500Y-62623000D01*
X191935500Y-61215000D01*
X192189500Y-61215000D01*
X192189500Y-62623000D01*
X194332878Y-62623000D01*
X194453536Y-62385260D01*
X194429256Y-62279914D01*
X194137712Y-61754394D01*
X193667252Y-61380446D01*
X193089500Y-61215000D01*
X192189500Y-61215000D01*
X191935500Y-61215000D01*
X191035500Y-61215000D01*
X190457748Y-61380446D01*
X189987288Y-61754394D01*
X189695744Y-62279914D01*
X189671464Y-62385260D01*
X143442500Y-62385260D01*
X143442500Y-60942276D01*
X143454862Y-60880129D01*
X143442500Y-60817982D01*
X143405889Y-60633926D01*
X143266426Y-60425204D01*
X143213738Y-60389999D01*
X142181502Y-59357764D01*
X142146296Y-59305074D01*
X141937574Y-59165611D01*
X141753518Y-59129000D01*
X141691370Y-59116638D01*
X141629222Y-59129000D01*
X141558756Y-59129000D01*
X141411453Y-58908547D01*
X141020803Y-58647522D01*
X140676318Y-58579000D01*
X140443682Y-58579000D01*
X140099197Y-58647522D01*
X139708547Y-58908547D01*
X139447522Y-59299197D01*
X139355863Y-59760000D01*
X139447522Y-60220803D01*
X139708547Y-60611453D01*
X140099197Y-60872478D01*
X140443682Y-60941000D01*
X140676318Y-60941000D01*
X141020803Y-60872478D01*
X141411453Y-60611453D01*
X141507184Y-60468182D01*
X142180501Y-61141500D01*
X142180501Y-61421600D01*
X142123601Y-61364700D01*
X141836551Y-61245800D01*
X141525849Y-61245800D01*
X141238799Y-61364700D01*
X141082699Y-61520800D01*
X133508792Y-61520800D01*
X132928992Y-60941000D01*
X133056318Y-60941000D01*
X133400803Y-60872478D01*
X133791453Y-60611453D01*
X134052478Y-60220803D01*
X134144137Y-59760000D01*
X134275863Y-59760000D01*
X134367522Y-60220803D01*
X134628547Y-60611453D01*
X135019197Y-60872478D01*
X135363682Y-60941000D01*
X135596318Y-60941000D01*
X135940803Y-60872478D01*
X136331453Y-60611453D01*
X136592478Y-60220803D01*
X136684137Y-59760000D01*
X136815863Y-59760000D01*
X136907522Y-60220803D01*
X137168547Y-60611453D01*
X137559197Y-60872478D01*
X137903682Y-60941000D01*
X138136318Y-60941000D01*
X138480803Y-60872478D01*
X138871453Y-60611453D01*
X139132478Y-60220803D01*
X139224137Y-59760000D01*
X139132478Y-59299197D01*
X138871453Y-58908547D01*
X138480803Y-58647522D01*
X138136318Y-58579000D01*
X137903682Y-58579000D01*
X137559197Y-58647522D01*
X137168547Y-58908547D01*
X136907522Y-59299197D01*
X136815863Y-59760000D01*
X136684137Y-59760000D01*
X136592478Y-59299197D01*
X136331453Y-58908547D01*
X135940803Y-58647522D01*
X135596318Y-58579000D01*
X135363682Y-58579000D01*
X135019197Y-58647522D01*
X134628547Y-58908547D01*
X134367522Y-59299197D01*
X134275863Y-59760000D01*
X134144137Y-59760000D01*
X134052478Y-59299197D01*
X133791453Y-58908547D01*
X133400803Y-58647522D01*
X133056318Y-58579000D01*
X132823682Y-58579000D01*
X132479197Y-58647522D01*
X132088547Y-58908547D01*
X132024698Y-59004104D01*
X131333039Y-58312446D01*
X131304807Y-58270193D01*
X131196388Y-58197750D01*
X159655000Y-58197750D01*
X159655000Y-59038310D01*
X159751673Y-59271699D01*
X159930302Y-59450327D01*
X160163691Y-59547000D01*
X161004250Y-59547000D01*
X161163000Y-59388250D01*
X161163000Y-58039000D01*
X161417000Y-58039000D01*
X161417000Y-59388250D01*
X161575750Y-59547000D01*
X162416309Y-59547000D01*
X162649698Y-59450327D01*
X162828327Y-59271699D01*
X162925000Y-59038310D01*
X162925000Y-58197750D01*
X162766250Y-58039000D01*
X161417000Y-58039000D01*
X161163000Y-58039000D01*
X159813750Y-58039000D01*
X159655000Y-58197750D01*
X131196388Y-58197750D01*
X131137432Y-58158358D01*
X130989836Y-58128999D01*
X130989835Y-58128999D01*
X130940001Y-58119086D01*
X130890167Y-58128999D01*
X126494836Y-58128999D01*
X126445001Y-58119086D01*
X126247569Y-58158358D01*
X126192782Y-58194966D01*
X126080195Y-58270193D01*
X126051964Y-58312444D01*
X125727491Y-58636918D01*
X125436318Y-58579000D01*
X125203682Y-58579000D01*
X124859197Y-58647522D01*
X124468547Y-58908547D01*
X124207522Y-59299197D01*
X124115863Y-59760000D01*
X124207522Y-60220803D01*
X124468547Y-60611453D01*
X124859197Y-60872478D01*
X125203682Y-60941000D01*
X125436318Y-60941000D01*
X125780803Y-60872478D01*
X126171453Y-60611453D01*
X126432478Y-60220803D01*
X126524137Y-59760000D01*
X126443082Y-59352509D01*
X126654593Y-59140999D01*
X126853227Y-59140999D01*
X126747522Y-59299197D01*
X126655863Y-59760000D01*
X126736918Y-60167491D01*
X113596446Y-73307963D01*
X113554195Y-73336194D01*
X113442360Y-73503569D01*
X113403087Y-73701000D01*
X113413001Y-73750839D01*
X113413001Y-74109490D01*
X113080803Y-73887522D01*
X112736318Y-73819000D01*
X112503682Y-73819000D01*
X112159197Y-73887522D01*
X111768547Y-74148547D01*
X111711001Y-74234670D01*
X111711001Y-69004590D01*
X119832509Y-60883082D01*
X120123682Y-60941000D01*
X120356318Y-60941000D01*
X120700803Y-60872478D01*
X121091453Y-60611453D01*
X121352478Y-60220803D01*
X121444137Y-59760000D01*
X121575863Y-59760000D01*
X121667522Y-60220803D01*
X121928547Y-60611453D01*
X122319197Y-60872478D01*
X122663682Y-60941000D01*
X122896318Y-60941000D01*
X123240803Y-60872478D01*
X123631453Y-60611453D01*
X123892478Y-60220803D01*
X123984137Y-59760000D01*
X123892478Y-59299197D01*
X123631453Y-58908547D01*
X123240803Y-58647522D01*
X122896318Y-58579000D01*
X122663682Y-58579000D01*
X122319197Y-58647522D01*
X121928547Y-58908547D01*
X121667522Y-59299197D01*
X121575863Y-59760000D01*
X121444137Y-59760000D01*
X121352478Y-59299197D01*
X121091453Y-58908547D01*
X120700803Y-58647522D01*
X120356318Y-58579000D01*
X120123682Y-58579000D01*
X119779197Y-58647522D01*
X119388547Y-58908547D01*
X119127522Y-59299197D01*
X119035863Y-59760000D01*
X119116918Y-60167491D01*
X110882449Y-68401960D01*
X110840195Y-68430193D01*
X110728360Y-68597569D01*
X110703145Y-68724330D01*
X110689088Y-68794999D01*
X110699001Y-68844833D01*
X110699001Y-73993227D01*
X110540803Y-73887522D01*
X110196318Y-73819000D01*
X109963682Y-73819000D01*
X109619197Y-73887522D01*
X109228547Y-74148547D01*
X108967522Y-74539197D01*
X108875863Y-75000000D01*
X108744137Y-75000000D01*
X108652478Y-74539197D01*
X108391453Y-74148547D01*
X108000803Y-73887522D01*
X107656318Y-73819000D01*
X107423682Y-73819000D01*
X107079197Y-73887522D01*
X106688547Y-74148547D01*
X106427522Y-74539197D01*
X106335863Y-75000000D01*
X106188464Y-75000000D01*
X106188464Y-74200000D01*
X106158894Y-74051341D01*
X106074686Y-73925314D01*
X105948659Y-73841106D01*
X105800000Y-73811536D01*
X104380999Y-73811536D01*
X104380999Y-69244922D01*
X112504315Y-61121607D01*
X112504317Y-61121604D01*
X112684921Y-60941000D01*
X112736318Y-60941000D01*
X113080803Y-60872478D01*
X113471453Y-60611453D01*
X113732478Y-60220803D01*
X113824137Y-59760000D01*
X113955863Y-59760000D01*
X114047522Y-60220803D01*
X114308547Y-60611453D01*
X114699197Y-60872478D01*
X115043682Y-60941000D01*
X115276318Y-60941000D01*
X115620803Y-60872478D01*
X116011453Y-60611453D01*
X116272478Y-60220803D01*
X116364137Y-59760000D01*
X116495863Y-59760000D01*
X116587522Y-60220803D01*
X116848547Y-60611453D01*
X117239197Y-60872478D01*
X117583682Y-60941000D01*
X117816318Y-60941000D01*
X118160803Y-60872478D01*
X118551453Y-60611453D01*
X118812478Y-60220803D01*
X118904137Y-59760000D01*
X118812478Y-59299197D01*
X118551453Y-58908547D01*
X118160803Y-58647522D01*
X117816318Y-58579000D01*
X117583682Y-58579000D01*
X117239197Y-58647522D01*
X116848547Y-58908547D01*
X116587522Y-59299197D01*
X116495863Y-59760000D01*
X116364137Y-59760000D01*
X116272478Y-59299197D01*
X116011453Y-58908547D01*
X115620803Y-58647522D01*
X115276318Y-58579000D01*
X115043682Y-58579000D01*
X114699197Y-58647522D01*
X114308547Y-58908547D01*
X114047522Y-59299197D01*
X113955863Y-59760000D01*
X113824137Y-59760000D01*
X113732478Y-59299197D01*
X113471453Y-58908547D01*
X113080803Y-58647522D01*
X112736318Y-58579000D01*
X112503682Y-58579000D01*
X112159197Y-58647522D01*
X111768547Y-58908547D01*
X111507522Y-59299197D01*
X111426238Y-59707841D01*
X111261804Y-59872275D01*
X111284137Y-59760000D01*
X111192478Y-59299197D01*
X110931453Y-58908547D01*
X110540803Y-58647522D01*
X110196318Y-58579000D01*
X109963682Y-58579000D01*
X109619197Y-58647522D01*
X109228547Y-58908547D01*
X108967522Y-59299197D01*
X108875863Y-59760000D01*
X108967522Y-60220803D01*
X109228547Y-60611453D01*
X109619197Y-60872478D01*
X109963682Y-60941000D01*
X110193078Y-60941000D01*
X103180990Y-67953089D01*
X103180990Y-65364931D01*
X107424315Y-61121607D01*
X107424317Y-61121604D01*
X107604921Y-60941000D01*
X107656318Y-60941000D01*
X108000803Y-60872478D01*
X108391453Y-60611453D01*
X108652478Y-60220803D01*
X108744137Y-59760000D01*
X108652478Y-59299197D01*
X108391453Y-58908547D01*
X108000803Y-58647522D01*
X107656318Y-58579000D01*
X107423682Y-58579000D01*
X107079197Y-58647522D01*
X106688547Y-58908547D01*
X106427522Y-59299197D01*
X106346238Y-59707841D01*
X106181804Y-59872275D01*
X106204137Y-59760000D01*
X106112478Y-59299197D01*
X105851453Y-58908547D01*
X105460803Y-58647522D01*
X105116318Y-58579000D01*
X104883682Y-58579000D01*
X104539197Y-58647522D01*
X104148547Y-58908547D01*
X103887522Y-59299197D01*
X103795863Y-59760000D01*
X103887522Y-60220803D01*
X104148547Y-60611453D01*
X104539197Y-60872478D01*
X104883682Y-60941000D01*
X105113078Y-60941000D01*
X101738384Y-64315695D01*
X101664826Y-64364845D01*
X101615676Y-64438403D01*
X101470107Y-64656262D01*
X101401732Y-65000010D01*
X100456000Y-65000010D01*
X100456000Y-54327477D01*
X101619000Y-54327477D01*
X101619000Y-55672523D01*
X102133726Y-56915183D01*
X103084817Y-57866274D01*
X104327477Y-58381000D01*
X105672523Y-58381000D01*
X106915183Y-57866274D01*
X107866274Y-56915183D01*
X107919911Y-56785690D01*
X159655000Y-56785690D01*
X159655000Y-57626250D01*
X159813750Y-57785000D01*
X161163000Y-57785000D01*
X161163000Y-56435750D01*
X161417000Y-56435750D01*
X161417000Y-57785000D01*
X162766250Y-57785000D01*
X162913948Y-57637302D01*
X164909000Y-57637302D01*
X164909000Y-58186698D01*
X165119245Y-58694273D01*
X165507727Y-59082755D01*
X166015302Y-59293000D01*
X166564698Y-59293000D01*
X167072273Y-59082755D01*
X167460755Y-58694273D01*
X167671000Y-58186698D01*
X167671000Y-57637302D01*
X167460755Y-57129727D01*
X167072273Y-56741245D01*
X166564698Y-56531000D01*
X166015302Y-56531000D01*
X165507727Y-56741245D01*
X165119245Y-57129727D01*
X164909000Y-57637302D01*
X162913948Y-57637302D01*
X162925000Y-57626250D01*
X162925000Y-56785690D01*
X162828327Y-56552301D01*
X162649698Y-56373673D01*
X162416309Y-56277000D01*
X161575750Y-56277000D01*
X161417000Y-56435750D01*
X161163000Y-56435750D01*
X161004250Y-56277000D01*
X160163691Y-56277000D01*
X159930302Y-56373673D01*
X159751673Y-56552301D01*
X159655000Y-56785690D01*
X107919911Y-56785690D01*
X108381000Y-55672523D01*
X108381000Y-54327477D01*
X191619000Y-54327477D01*
X191619000Y-55672523D01*
X192133726Y-56915183D01*
X193084817Y-57866274D01*
X194327477Y-58381000D01*
X195672523Y-58381000D01*
X196915183Y-57866274D01*
X197866274Y-56915183D01*
X198381000Y-55672523D01*
X198381000Y-54327477D01*
X197866274Y-53084817D01*
X196915183Y-52133726D01*
X195672523Y-51619000D01*
X194327477Y-51619000D01*
X193084817Y-52133726D01*
X192133726Y-53084817D01*
X191619000Y-54327477D01*
X108381000Y-54327477D01*
X107866274Y-53084817D01*
X106915183Y-52133726D01*
X105672523Y-51619000D01*
X104327477Y-51619000D01*
X103084817Y-52133726D01*
X102133726Y-53084817D01*
X101619000Y-54327477D01*
X100456000Y-54327477D01*
X100456000Y-50456000D01*
X199544001Y-50456000D01*
X199544000Y-129544000D01*
X199544000Y-129544000D01*
G37*
X199544000Y-129544000D02*
X100456000Y-129544000D01*
X100456000Y-124327477D01*
X101619000Y-124327477D01*
X101619000Y-125672523D01*
X102133726Y-126915183D01*
X103084817Y-127866274D01*
X104327477Y-128381000D01*
X105672523Y-128381000D01*
X106915183Y-127866274D01*
X107866274Y-126915183D01*
X108006719Y-126576118D01*
X121567000Y-126576118D01*
X121567000Y-127423882D01*
X121891425Y-128207115D01*
X122490885Y-128806575D01*
X123274118Y-129131000D01*
X124121882Y-129131000D01*
X124905115Y-128806575D01*
X125504575Y-128207115D01*
X125829000Y-127423882D01*
X125829000Y-126576118D01*
X141887000Y-126576118D01*
X141887000Y-127423882D01*
X142211425Y-128207115D01*
X142810885Y-128806575D01*
X143594118Y-129131000D01*
X144441882Y-129131000D01*
X145225115Y-128806575D01*
X145824575Y-128207115D01*
X146149000Y-127423882D01*
X146149000Y-126576118D01*
X145824575Y-125792885D01*
X145225115Y-125193425D01*
X144441882Y-124869000D01*
X143594118Y-124869000D01*
X142810885Y-125193425D01*
X142211425Y-125792885D01*
X141887000Y-126576118D01*
X125829000Y-126576118D01*
X125504575Y-125792885D01*
X124905115Y-125193425D01*
X124121882Y-124869000D01*
X123274118Y-124869000D01*
X122490885Y-125193425D01*
X121891425Y-125792885D01*
X121567000Y-126576118D01*
X108006719Y-126576118D01*
X108381000Y-125672523D01*
X108381000Y-124327477D01*
X191619000Y-124327477D01*
X191619000Y-125672523D01*
X192133726Y-126915183D01*
X193084817Y-127866274D01*
X194327477Y-128381000D01*
X195672523Y-128381000D01*
X196915183Y-127866274D01*
X197866274Y-126915183D01*
X198381000Y-125672523D01*
X198381000Y-124327477D01*
X197866274Y-123084817D01*
X196915183Y-122133726D01*
X195672523Y-121619000D01*
X194327477Y-121619000D01*
X193084817Y-122133726D01*
X192133726Y-123084817D01*
X191619000Y-124327477D01*
X108381000Y-124327477D01*
X107866274Y-123084817D01*
X106915183Y-122133726D01*
X105672523Y-121619000D01*
X104327477Y-121619000D01*
X103084817Y-122133726D01*
X102133726Y-123084817D01*
X101619000Y-124327477D01*
X100456000Y-124327477D01*
X100456000Y-120243000D01*
X112122536Y-120243000D01*
X112122536Y-123343000D01*
X112171136Y-123587330D01*
X112309538Y-123794462D01*
X112516670Y-123932864D01*
X112761000Y-123981464D01*
X114061000Y-123981464D01*
X114305330Y-123932864D01*
X114512462Y-123794462D01*
X114650864Y-123587330D01*
X114699464Y-123343000D01*
X114699464Y-120766835D01*
X117210000Y-120766835D01*
X117210001Y-122819166D01*
X117284326Y-123192821D01*
X117567452Y-123616549D01*
X117991180Y-123899675D01*
X118491000Y-123999096D01*
X118990821Y-123899675D01*
X119414549Y-123616549D01*
X119697675Y-123192821D01*
X119772000Y-122819166D01*
X119772000Y-120766834D01*
X119743121Y-120621649D01*
X148126500Y-120621649D01*
X148126500Y-120932351D01*
X148245400Y-121219401D01*
X148465099Y-121439100D01*
X148752149Y-121558000D01*
X149062851Y-121558000D01*
X149349901Y-121439100D01*
X149506001Y-121283000D01*
X153198499Y-121283000D01*
X153354599Y-121439100D01*
X153641649Y-121558000D01*
X153952351Y-121558000D01*
X154239401Y-121439100D01*
X154459100Y-121219401D01*
X154578000Y-120932351D01*
X154578000Y-120621649D01*
X159302500Y-120621649D01*
X159302500Y-120932351D01*
X159421400Y-121219401D01*
X159641099Y-121439100D01*
X159928149Y-121558000D01*
X160238851Y-121558000D01*
X160525901Y-121439100D01*
X160682001Y-121283000D01*
X164247499Y-121283000D01*
X164403599Y-121439100D01*
X164690649Y-121558000D01*
X165001351Y-121558000D01*
X165288401Y-121439100D01*
X165508100Y-121219401D01*
X165627000Y-120932351D01*
X165627000Y-120621649D01*
X165600698Y-120558149D01*
X170669000Y-120558149D01*
X170669000Y-120868851D01*
X170787900Y-121155901D01*
X171007599Y-121375600D01*
X171294649Y-121494500D01*
X171605351Y-121494500D01*
X171892401Y-121375600D01*
X172048501Y-121219500D01*
X175359999Y-121219500D01*
X175516099Y-121375600D01*
X175803149Y-121494500D01*
X176113851Y-121494500D01*
X176400901Y-121375600D01*
X176620600Y-121155901D01*
X176739500Y-120868851D01*
X176739500Y-120558149D01*
X176620600Y-120271099D01*
X176400901Y-120051400D01*
X176113851Y-119932500D01*
X175803149Y-119932500D01*
X175516099Y-120051400D01*
X175359999Y-120207500D01*
X172048501Y-120207500D01*
X171892401Y-120051400D01*
X171605351Y-119932500D01*
X171294649Y-119932500D01*
X171007599Y-120051400D01*
X170787900Y-120271099D01*
X170669000Y-120558149D01*
X165600698Y-120558149D01*
X165508100Y-120334599D01*
X165288401Y-120114900D01*
X165001351Y-119996000D01*
X164690649Y-119996000D01*
X164403599Y-120114900D01*
X164247499Y-120271000D01*
X160682001Y-120271000D01*
X160525901Y-120114900D01*
X160238851Y-119996000D01*
X159928149Y-119996000D01*
X159641099Y-120114900D01*
X159421400Y-120334599D01*
X159302500Y-120621649D01*
X154578000Y-120621649D01*
X154459100Y-120334599D01*
X154239401Y-120114900D01*
X153952351Y-119996000D01*
X153641649Y-119996000D01*
X153354599Y-120114900D01*
X153198499Y-120271000D01*
X149506001Y-120271000D01*
X149349901Y-120114900D01*
X149062851Y-119996000D01*
X148752149Y-119996000D01*
X148465099Y-120114900D01*
X148245400Y-120334599D01*
X148126500Y-120621649D01*
X119743121Y-120621649D01*
X119697675Y-120393179D01*
X119414549Y-119969451D01*
X118990820Y-119686325D01*
X118491000Y-119586904D01*
X117991179Y-119686325D01*
X117567451Y-119969451D01*
X117284325Y-120393180D01*
X117210000Y-120766835D01*
X114699464Y-120766835D01*
X114699464Y-120243000D01*
X114650864Y-119998670D01*
X114512462Y-119791538D01*
X114305330Y-119653136D01*
X114061000Y-119604536D01*
X112761000Y-119604536D01*
X112516670Y-119653136D01*
X112309538Y-119791538D01*
X112171136Y-119998670D01*
X112122536Y-120243000D01*
X100456000Y-120243000D01*
X100456000Y-109093000D01*
X105870904Y-109093000D01*
X105970325Y-109592821D01*
X106253451Y-110016549D01*
X106677179Y-110299675D01*
X107050834Y-110374000D01*
X109103166Y-110374000D01*
X109476821Y-110299675D01*
X109900549Y-110016549D01*
X110183675Y-109592821D01*
X110187687Y-109572649D01*
X148507500Y-109572649D01*
X148507500Y-109883351D01*
X148626400Y-110170401D01*
X148846099Y-110390100D01*
X149133149Y-110509000D01*
X149443851Y-110509000D01*
X149730901Y-110390100D01*
X149887001Y-110234000D01*
X153325499Y-110234000D01*
X153481599Y-110390100D01*
X153768649Y-110509000D01*
X154079351Y-110509000D01*
X154366401Y-110390100D01*
X154586100Y-110170401D01*
X154705000Y-109883351D01*
X154705000Y-109572649D01*
X159429500Y-109572649D01*
X159429500Y-109883351D01*
X159548400Y-110170401D01*
X159768099Y-110390100D01*
X160055149Y-110509000D01*
X160365851Y-110509000D01*
X160652901Y-110390100D01*
X160809001Y-110234000D01*
X164374499Y-110234000D01*
X164530599Y-110390100D01*
X164817649Y-110509000D01*
X165128351Y-110509000D01*
X165415401Y-110390100D01*
X165635100Y-110170401D01*
X165754000Y-109883351D01*
X165754000Y-109636149D01*
X170415000Y-109636149D01*
X170415000Y-109946851D01*
X170533900Y-110233901D01*
X170753599Y-110453600D01*
X171040649Y-110572500D01*
X171351351Y-110572500D01*
X171638401Y-110453600D01*
X171794501Y-110297500D01*
X175486999Y-110297500D01*
X175643099Y-110453600D01*
X175930149Y-110572500D01*
X176240851Y-110572500D01*
X176527901Y-110453600D01*
X176747600Y-110233901D01*
X176866500Y-109946851D01*
X176866500Y-109636149D01*
X176747600Y-109349099D01*
X176527901Y-109129400D01*
X176240851Y-109010500D01*
X175930149Y-109010500D01*
X175643099Y-109129400D01*
X175486999Y-109285500D01*
X171794501Y-109285500D01*
X171638401Y-109129400D01*
X171351351Y-109010500D01*
X171040649Y-109010500D01*
X170753599Y-109129400D01*
X170533900Y-109349099D01*
X170415000Y-109636149D01*
X165754000Y-109636149D01*
X165754000Y-109572649D01*
X165635100Y-109285599D01*
X165415401Y-109065900D01*
X165128351Y-108947000D01*
X164817649Y-108947000D01*
X164530599Y-109065900D01*
X164374499Y-109222000D01*
X160809001Y-109222000D01*
X160652901Y-109065900D01*
X160365851Y-108947000D01*
X160055149Y-108947000D01*
X159768099Y-109065900D01*
X159548400Y-109285599D01*
X159429500Y-109572649D01*
X154705000Y-109572649D01*
X154586100Y-109285599D01*
X154366401Y-109065900D01*
X154079351Y-108947000D01*
X153768649Y-108947000D01*
X153481599Y-109065900D01*
X153325499Y-109222000D01*
X149887001Y-109222000D01*
X149730901Y-109065900D01*
X149443851Y-108947000D01*
X149133149Y-108947000D01*
X148846099Y-109065900D01*
X148626400Y-109285599D01*
X148507500Y-109572649D01*
X110187687Y-109572649D01*
X110283096Y-109093000D01*
X110183675Y-108593179D01*
X109900549Y-108169451D01*
X109476821Y-107886325D01*
X109103166Y-107812000D01*
X107050834Y-107812000D01*
X106677179Y-107886325D01*
X106253451Y-108169451D01*
X105970325Y-108593179D01*
X105870904Y-109093000D01*
X100456000Y-109093000D01*
X100456000Y-103363000D01*
X105888536Y-103363000D01*
X105888536Y-104663000D01*
X105937136Y-104907330D01*
X106075538Y-105114462D01*
X106282670Y-105252864D01*
X106527000Y-105301464D01*
X109627000Y-105301464D01*
X109871330Y-105252864D01*
X110078462Y-105114462D01*
X110216864Y-104907330D01*
X110265464Y-104663000D01*
X110265464Y-103363000D01*
X110216864Y-103118670D01*
X110078462Y-102911538D01*
X109871330Y-102773136D01*
X109627000Y-102724536D01*
X106527000Y-102724536D01*
X106282670Y-102773136D01*
X106075538Y-102911538D01*
X105937136Y-103118670D01*
X105888536Y-103363000D01*
X100456000Y-103363000D01*
X100456000Y-97663000D01*
X105870904Y-97663000D01*
X105970325Y-98162821D01*
X106253451Y-98586549D01*
X106677179Y-98869675D01*
X107050834Y-98944000D01*
X109103166Y-98944000D01*
X109476821Y-98869675D01*
X109900549Y-98586549D01*
X110183675Y-98162821D01*
X110283096Y-97663000D01*
X110183675Y-97163179D01*
X109900549Y-96739451D01*
X109476821Y-96456325D01*
X109103166Y-96382000D01*
X107050834Y-96382000D01*
X106677179Y-96456325D01*
X106253451Y-96739451D01*
X105970325Y-97163179D01*
X105870904Y-97663000D01*
X100456000Y-97663000D01*
X100456000Y-91933000D01*
X105888536Y-91933000D01*
X105888536Y-93233000D01*
X105937136Y-93477330D01*
X106075538Y-93684462D01*
X106282670Y-93822864D01*
X106527000Y-93871464D01*
X109627000Y-93871464D01*
X109871330Y-93822864D01*
X110078462Y-93684462D01*
X110216864Y-93477330D01*
X110265464Y-93233000D01*
X110265464Y-91933000D01*
X110216864Y-91688670D01*
X110078462Y-91481538D01*
X109871330Y-91343136D01*
X109627000Y-91294536D01*
X106527000Y-91294536D01*
X106282670Y-91343136D01*
X106075538Y-91481538D01*
X105937136Y-91688670D01*
X105888536Y-91933000D01*
X100456000Y-91933000D01*
X100456000Y-65000010D01*
X101401732Y-65000010D01*
X101418991Y-65086778D01*
X101418990Y-82593227D01*
X101401732Y-82679990D01*
X101418990Y-82766753D01*
X101418990Y-82766756D01*
X101470107Y-83023738D01*
X101664825Y-83315155D01*
X101738386Y-83364307D01*
X104615685Y-86241607D01*
X104664835Y-86315165D01*
X104800197Y-86405611D01*
X104956251Y-86509883D01*
X105300000Y-86578259D01*
X105386767Y-86561000D01*
X106248021Y-86561000D01*
X106276451Y-86603549D01*
X106700179Y-86886675D01*
X107073834Y-86961000D01*
X109126166Y-86961000D01*
X109499821Y-86886675D01*
X109923549Y-86603549D01*
X110206675Y-86179821D01*
X110306096Y-85680000D01*
X110206675Y-85180179D01*
X109923549Y-84756451D01*
X109499821Y-84473325D01*
X109126166Y-84399000D01*
X107073834Y-84399000D01*
X106700179Y-84473325D01*
X106276451Y-84756451D01*
X106248021Y-84799000D01*
X105664922Y-84799000D01*
X103180990Y-82315069D01*
X103180990Y-78726911D01*
X105615685Y-81161607D01*
X105664835Y-81235165D01*
X105945947Y-81422998D01*
X105960136Y-81494330D01*
X106098538Y-81701462D01*
X106305670Y-81839864D01*
X106550000Y-81888464D01*
X109650000Y-81888464D01*
X109894330Y-81839864D01*
X110101462Y-81701462D01*
X110239864Y-81494330D01*
X110288464Y-81250000D01*
X110288464Y-79950000D01*
X110239864Y-79705670D01*
X110101462Y-79498538D01*
X109894330Y-79360136D01*
X109650000Y-79311536D01*
X106550000Y-79311536D01*
X106305993Y-79360072D01*
X104380999Y-77435078D01*
X104380999Y-76188464D01*
X105800000Y-76188464D01*
X105948659Y-76158894D01*
X106074686Y-76074686D01*
X106158894Y-75948659D01*
X106188464Y-75800000D01*
X106188464Y-75000000D01*
X106335863Y-75000000D01*
X106427522Y-75460803D01*
X106688547Y-75851453D01*
X107079197Y-76112478D01*
X107423682Y-76181000D01*
X107656318Y-76181000D01*
X108000803Y-76112478D01*
X108391453Y-75851453D01*
X108652478Y-75460803D01*
X108744137Y-75000000D01*
X108875863Y-75000000D01*
X108967522Y-75460803D01*
X109228547Y-75851453D01*
X109619197Y-76112478D01*
X109963682Y-76181000D01*
X110196318Y-76181000D01*
X110540803Y-76112478D01*
X110699001Y-76006773D01*
X110699002Y-93438662D01*
X110689088Y-93488501D01*
X110728069Y-93684462D01*
X110728361Y-93685932D01*
X110840196Y-93853307D01*
X110882447Y-93881538D01*
X122892464Y-105891556D01*
X122920695Y-105933807D01*
X123088070Y-106045642D01*
X123235666Y-106075001D01*
X123235667Y-106075001D01*
X123285501Y-106084914D01*
X123335335Y-106075001D01*
X126283165Y-106075001D01*
X126332999Y-106084914D01*
X126382833Y-106075001D01*
X126382834Y-106075001D01*
X126530430Y-106045642D01*
X126697805Y-105933807D01*
X126726037Y-105891554D01*
X127051035Y-105566557D01*
X127051037Y-105566554D01*
X127057988Y-105559603D01*
X127386761Y-105625000D01*
X127629239Y-105625000D01*
X127988312Y-105553576D01*
X128395501Y-105281501D01*
X128667576Y-104874312D01*
X128763116Y-104394000D01*
X128792884Y-104394000D01*
X128888424Y-104874312D01*
X129160499Y-105281501D01*
X129567688Y-105553576D01*
X129926761Y-105625000D01*
X130169239Y-105625000D01*
X130528312Y-105553576D01*
X130935501Y-105281501D01*
X131207576Y-104874312D01*
X131303116Y-104394000D01*
X131332884Y-104394000D01*
X131428424Y-104874312D01*
X131700499Y-105281501D01*
X132107688Y-105553576D01*
X132466761Y-105625000D01*
X132709239Y-105625000D01*
X133068312Y-105553576D01*
X133475501Y-105281501D01*
X133747576Y-104874312D01*
X133843116Y-104394000D01*
X133872884Y-104394000D01*
X133968424Y-104874312D01*
X134240499Y-105281501D01*
X134647688Y-105553576D01*
X135006761Y-105625000D01*
X135249239Y-105625000D01*
X135608312Y-105553576D01*
X136015501Y-105281501D01*
X136285755Y-104877037D01*
X136472817Y-105275358D01*
X136901076Y-105665645D01*
X137311110Y-105835476D01*
X137541000Y-105714155D01*
X137541000Y-104521000D01*
X137521000Y-104521000D01*
X137521000Y-104267000D01*
X137541000Y-104267000D01*
X137541000Y-103073845D01*
X137795000Y-103073845D01*
X137795000Y-104267000D01*
X137815000Y-104267000D01*
X137815000Y-104521000D01*
X137795000Y-104521000D01*
X137795000Y-105714155D01*
X138024890Y-105835476D01*
X138434924Y-105665645D01*
X138863183Y-105275358D01*
X139050245Y-104877037D01*
X139320499Y-105281501D01*
X139727688Y-105553576D01*
X140086761Y-105625000D01*
X140329239Y-105625000D01*
X140688312Y-105553576D01*
X141095501Y-105281501D01*
X141367576Y-104874312D01*
X141463116Y-104394000D01*
X141367576Y-103913688D01*
X141120559Y-103544000D01*
X141509536Y-103544000D01*
X141509536Y-105244000D01*
X141539106Y-105392659D01*
X141623314Y-105518686D01*
X141749341Y-105602894D01*
X141898000Y-105632464D01*
X143598000Y-105632464D01*
X143746659Y-105602894D01*
X143872686Y-105518686D01*
X143956894Y-105392659D01*
X143986464Y-105244000D01*
X143986464Y-103544000D01*
X143956894Y-103395341D01*
X143872686Y-103269314D01*
X143746659Y-103185106D01*
X143598000Y-103155536D01*
X141898000Y-103155536D01*
X141749341Y-103185106D01*
X141623314Y-103269314D01*
X141539106Y-103395341D01*
X141509536Y-103544000D01*
X141120559Y-103544000D01*
X141095501Y-103506499D01*
X140688312Y-103234424D01*
X140329239Y-103163000D01*
X140086761Y-103163000D01*
X139727688Y-103234424D01*
X139320499Y-103506499D01*
X139050245Y-103910963D01*
X138863183Y-103512642D01*
X138434924Y-103122355D01*
X138024890Y-102952524D01*
X137795000Y-103073845D01*
X137541000Y-103073845D01*
X137311110Y-102952524D01*
X136901076Y-103122355D01*
X136472817Y-103512642D01*
X136285755Y-103910963D01*
X136015501Y-103506499D01*
X135608312Y-103234424D01*
X135249239Y-103163000D01*
X135006761Y-103163000D01*
X134647688Y-103234424D01*
X134240499Y-103506499D01*
X133968424Y-103913688D01*
X133872884Y-104394000D01*
X133843116Y-104394000D01*
X133747576Y-103913688D01*
X133475501Y-103506499D01*
X133068312Y-103234424D01*
X132709239Y-103163000D01*
X132466761Y-103163000D01*
X132107688Y-103234424D01*
X131700499Y-103506499D01*
X131428424Y-103913688D01*
X131332884Y-104394000D01*
X131303116Y-104394000D01*
X131207576Y-103913688D01*
X130935501Y-103506499D01*
X130528312Y-103234424D01*
X130169239Y-103163000D01*
X129926761Y-103163000D01*
X129567688Y-103234424D01*
X129160499Y-103506499D01*
X128888424Y-103913688D01*
X128792884Y-104394000D01*
X128763116Y-104394000D01*
X128667576Y-103913688D01*
X128395501Y-103506499D01*
X127988312Y-103234424D01*
X127629239Y-103163000D01*
X127386761Y-103163000D01*
X127027688Y-103234424D01*
X126620499Y-103506499D01*
X126348424Y-103913688D01*
X126252884Y-104394000D01*
X126342397Y-104844012D01*
X126335446Y-104850963D01*
X126335443Y-104850965D01*
X126123408Y-105063001D01*
X126001498Y-105063001D01*
X126127576Y-104874312D01*
X126223116Y-104394000D01*
X126127576Y-103913688D01*
X125855501Y-103506499D01*
X125448312Y-103234424D01*
X125089239Y-103163000D01*
X124846761Y-103163000D01*
X124487688Y-103234424D01*
X124080499Y-103506499D01*
X123909304Y-103762711D01*
X114425000Y-94278409D01*
X114425000Y-75929265D01*
X114654000Y-76082278D01*
X114654001Y-81963161D01*
X114644087Y-82013000D01*
X114683360Y-82210431D01*
X114795195Y-82377806D01*
X114837446Y-82406037D01*
X123954000Y-91522592D01*
X123954001Y-94651498D01*
X123797900Y-94807599D01*
X123679000Y-95094649D01*
X123679000Y-95405351D01*
X123797900Y-95692401D01*
X124017599Y-95912100D01*
X124304649Y-96031000D01*
X124615351Y-96031000D01*
X124817042Y-95947457D01*
X124813900Y-95950599D01*
X124695000Y-96237649D01*
X124695000Y-96548351D01*
X124813900Y-96835401D01*
X125033599Y-97055100D01*
X125320649Y-97174000D01*
X125558999Y-97174000D01*
X125512400Y-97220599D01*
X125393500Y-97507649D01*
X125393500Y-97818351D01*
X125512400Y-98105401D01*
X125732099Y-98325100D01*
X126019149Y-98444000D01*
X126329851Y-98444000D01*
X126616901Y-98325100D01*
X126836600Y-98105401D01*
X126955500Y-97818351D01*
X126955500Y-97597591D01*
X127703555Y-96849537D01*
X127745806Y-96821306D01*
X127821033Y-96708719D01*
X127857641Y-96653932D01*
X127896913Y-96456500D01*
X127887000Y-96406665D01*
X127887000Y-90197001D01*
X128043100Y-90040901D01*
X128162000Y-89753851D01*
X128162000Y-89443149D01*
X128043100Y-89156099D01*
X127823401Y-88936400D01*
X127536351Y-88817500D01*
X127225649Y-88817500D01*
X126938599Y-88936400D01*
X126718900Y-89156099D01*
X126600000Y-89443149D01*
X126600000Y-89753851D01*
X126718900Y-90040901D01*
X126875000Y-90197001D01*
X126875001Y-96246907D01*
X126239909Y-96882000D01*
X126091501Y-96882000D01*
X126138100Y-96835401D01*
X126257000Y-96548351D01*
X126257000Y-96237649D01*
X126138100Y-95950599D01*
X125982000Y-95794499D01*
X125982000Y-91362835D01*
X125991913Y-91313000D01*
X125952641Y-91115568D01*
X125916033Y-91060781D01*
X125840806Y-90948194D01*
X125798556Y-90919964D01*
X122723241Y-87844649D01*
X129219000Y-87844649D01*
X129219000Y-88155351D01*
X129337900Y-88442401D01*
X129557599Y-88662100D01*
X129844649Y-88781000D01*
X129888632Y-88781000D01*
X142219000Y-101111369D01*
X142219000Y-101155351D01*
X142337900Y-101442401D01*
X142557599Y-101662100D01*
X142844649Y-101781000D01*
X143155351Y-101781000D01*
X143442401Y-101662100D01*
X143662100Y-101442401D01*
X143781000Y-101155351D01*
X143781000Y-100844649D01*
X143735993Y-100735993D01*
X143844649Y-100781000D01*
X144155351Y-100781000D01*
X144264007Y-100735993D01*
X144219000Y-100844649D01*
X144219000Y-101155351D01*
X144337900Y-101442401D01*
X144395499Y-101500000D01*
X144337900Y-101557599D01*
X144219000Y-101844649D01*
X144219000Y-102155351D01*
X144337900Y-102442401D01*
X144395499Y-102500000D01*
X144337900Y-102557599D01*
X144219000Y-102844649D01*
X144219000Y-103155351D01*
X144337900Y-103442401D01*
X144557599Y-103662100D01*
X144844649Y-103781000D01*
X145155351Y-103781000D01*
X145442401Y-103662100D01*
X145473501Y-103631000D01*
X171526499Y-103631000D01*
X171557599Y-103662100D01*
X171844649Y-103781000D01*
X172155351Y-103781000D01*
X172442401Y-103662100D01*
X172662100Y-103442401D01*
X172781000Y-103155351D01*
X172781000Y-102844649D01*
X172662100Y-102557599D01*
X172604501Y-102500000D01*
X172662100Y-102442401D01*
X172781000Y-102155351D01*
X172781000Y-101844649D01*
X172662100Y-101557599D01*
X172604501Y-101500000D01*
X172662100Y-101442401D01*
X172781000Y-101155351D01*
X172781000Y-100844649D01*
X172662100Y-100557599D01*
X172442401Y-100337900D01*
X172155351Y-100219000D01*
X171844649Y-100219000D01*
X171557599Y-100337900D01*
X171526499Y-100369000D01*
X145473501Y-100369000D01*
X145442401Y-100337900D01*
X145155351Y-100219000D01*
X144844649Y-100219000D01*
X144735993Y-100264007D01*
X144781000Y-100155351D01*
X144781000Y-99844649D01*
X144735993Y-99735993D01*
X144844649Y-99781000D01*
X145155351Y-99781000D01*
X145442401Y-99662100D01*
X145662100Y-99442401D01*
X145781000Y-99155351D01*
X145781000Y-98844649D01*
X145674341Y-98587149D01*
X159048500Y-98587149D01*
X159048500Y-98897851D01*
X159167400Y-99184901D01*
X159387099Y-99404600D01*
X159674149Y-99523500D01*
X159984851Y-99523500D01*
X160271901Y-99404600D01*
X160364501Y-99312000D01*
X164501499Y-99312000D01*
X164657599Y-99468100D01*
X164944649Y-99587000D01*
X165255351Y-99587000D01*
X165542401Y-99468100D01*
X165762100Y-99248401D01*
X165881000Y-98961351D01*
X165881000Y-98650649D01*
X165762100Y-98363599D01*
X165542401Y-98143900D01*
X165255351Y-98025000D01*
X164944649Y-98025000D01*
X164657599Y-98143900D01*
X164501499Y-98300000D01*
X160491501Y-98300000D01*
X160271901Y-98080400D01*
X159984851Y-97961500D01*
X159674149Y-97961500D01*
X159387099Y-98080400D01*
X159167400Y-98300099D01*
X159048500Y-98587149D01*
X145674341Y-98587149D01*
X145662100Y-98557599D01*
X145442401Y-98337900D01*
X145155351Y-98219000D01*
X145111368Y-98219000D01*
X139319301Y-92426933D01*
X149269000Y-92426933D01*
X149269000Y-93573067D01*
X149707606Y-94631955D01*
X150518045Y-95442394D01*
X151576933Y-95881000D01*
X152723067Y-95881000D01*
X153781955Y-95442394D01*
X154592394Y-94631955D01*
X155031000Y-93573067D01*
X155031000Y-92426933D01*
X154592394Y-91368045D01*
X153781955Y-90557606D01*
X152723067Y-90119000D01*
X151576933Y-90119000D01*
X150518045Y-90557606D01*
X149707606Y-91368045D01*
X149269000Y-92426933D01*
X139319301Y-92426933D01*
X132781000Y-85888632D01*
X132781000Y-85844649D01*
X132662100Y-85557599D01*
X132442401Y-85337900D01*
X132155351Y-85219000D01*
X131844649Y-85219000D01*
X131557599Y-85337900D01*
X131337900Y-85557599D01*
X131219000Y-85844649D01*
X131219000Y-86155351D01*
X131264007Y-86264007D01*
X131155351Y-86219000D01*
X130844649Y-86219000D01*
X130557599Y-86337900D01*
X130337900Y-86557599D01*
X130219000Y-86844649D01*
X130219000Y-87155351D01*
X130264007Y-87264007D01*
X130155351Y-87219000D01*
X129844649Y-87219000D01*
X129557599Y-87337900D01*
X129337900Y-87557599D01*
X129219000Y-87844649D01*
X122723241Y-87844649D01*
X118206000Y-83327409D01*
X118206000Y-79244649D01*
X159619000Y-79244649D01*
X159619000Y-79555351D01*
X159737900Y-79842401D01*
X159894001Y-79998502D01*
X159894000Y-87150166D01*
X159884087Y-87200000D01*
X159894000Y-87249834D01*
X159923359Y-87397430D01*
X160035194Y-87564806D01*
X160077448Y-87593039D01*
X182219000Y-109734593D01*
X182219000Y-109955351D01*
X182337900Y-110242401D01*
X182557599Y-110462100D01*
X182844649Y-110581000D01*
X183155351Y-110581000D01*
X183442401Y-110462100D01*
X183662100Y-110242401D01*
X183781000Y-109955351D01*
X183781000Y-109644649D01*
X183662100Y-109357599D01*
X183442401Y-109137900D01*
X183155351Y-109019000D01*
X182934593Y-109019000D01*
X181221593Y-107306000D01*
X183790409Y-107306000D01*
X186219000Y-109734592D01*
X186219000Y-109955351D01*
X186337900Y-110242401D01*
X186557599Y-110462100D01*
X186844649Y-110581000D01*
X187155351Y-110581000D01*
X187442401Y-110462100D01*
X187662100Y-110242401D01*
X187781000Y-109955351D01*
X187781000Y-109644649D01*
X187662100Y-109357599D01*
X187442401Y-109137900D01*
X187155351Y-109019000D01*
X186934592Y-109019000D01*
X184621591Y-106706000D01*
X187190409Y-106706000D01*
X190219000Y-109734592D01*
X190219000Y-109955351D01*
X190337900Y-110242401D01*
X190557599Y-110462100D01*
X190844649Y-110581000D01*
X191155351Y-110581000D01*
X191442401Y-110462100D01*
X191662100Y-110242401D01*
X191781000Y-109955351D01*
X191781000Y-109644649D01*
X191662100Y-109357599D01*
X191442401Y-109137900D01*
X191155351Y-109019000D01*
X190934592Y-109019000D01*
X187793039Y-105877448D01*
X187764806Y-105835194D01*
X187597431Y-105723359D01*
X187449835Y-105694000D01*
X187449834Y-105694000D01*
X187400000Y-105684087D01*
X187350166Y-105694000D01*
X180973181Y-105694000D01*
X179210180Y-103930999D01*
X186511502Y-103930999D01*
X186369000Y-104275030D01*
X186369000Y-104724970D01*
X186541184Y-105140660D01*
X186859340Y-105458816D01*
X187275030Y-105631000D01*
X187724970Y-105631000D01*
X188140660Y-105458816D01*
X188458816Y-105140660D01*
X188631000Y-104724970D01*
X188631000Y-104275030D01*
X188488498Y-103930999D01*
X191215408Y-103930999D01*
X191424778Y-104140369D01*
X191369000Y-104275030D01*
X191369000Y-104724970D01*
X191541184Y-105140660D01*
X191859340Y-105458816D01*
X192275030Y-105631000D01*
X192724970Y-105631000D01*
X193140660Y-105458816D01*
X193458816Y-105140660D01*
X193631000Y-104724970D01*
X193631000Y-104275030D01*
X193458816Y-103859340D01*
X193140660Y-103541184D01*
X192724970Y-103369000D01*
X192275030Y-103369000D01*
X192140369Y-103424778D01*
X191818037Y-103102446D01*
X191789805Y-103060193D01*
X191622430Y-102948358D01*
X191474834Y-102918999D01*
X191474833Y-102918999D01*
X191424999Y-102909086D01*
X191375165Y-102918999D01*
X178834591Y-102918999D01*
X171815592Y-95900000D01*
X183011536Y-95900000D01*
X183011536Y-99100000D01*
X183041106Y-99248659D01*
X183125314Y-99374686D01*
X183251341Y-99458894D01*
X183400000Y-99488464D01*
X185400000Y-99488464D01*
X185548659Y-99458894D01*
X185674686Y-99374686D01*
X185758894Y-99248659D01*
X185788464Y-99100000D01*
X185788464Y-95900000D01*
X194211536Y-95900000D01*
X194211536Y-99100000D01*
X194241106Y-99248659D01*
X194325314Y-99374686D01*
X194451341Y-99458894D01*
X194600000Y-99488464D01*
X196600000Y-99488464D01*
X196748659Y-99458894D01*
X196874686Y-99374686D01*
X196958894Y-99248659D01*
X196988464Y-99100000D01*
X196988464Y-95900000D01*
X196958894Y-95751341D01*
X196874686Y-95625314D01*
X196748659Y-95541106D01*
X196600000Y-95511536D01*
X194600000Y-95511536D01*
X194451341Y-95541106D01*
X194325314Y-95625314D01*
X194241106Y-95751341D01*
X194211536Y-95900000D01*
X185788464Y-95900000D01*
X185758894Y-95751341D01*
X185674686Y-95625314D01*
X185548659Y-95541106D01*
X185400000Y-95511536D01*
X183400000Y-95511536D01*
X183251341Y-95541106D01*
X183125314Y-95625314D01*
X183041106Y-95751341D01*
X183011536Y-95900000D01*
X171815592Y-95900000D01*
X171456938Y-95541347D01*
X172276933Y-95881000D01*
X173423067Y-95881000D01*
X174481955Y-95442394D01*
X175292394Y-94631955D01*
X175731000Y-93573067D01*
X175731000Y-92426933D01*
X175292394Y-91368045D01*
X174481955Y-90557606D01*
X173423067Y-90119000D01*
X172276933Y-90119000D01*
X171218045Y-90557606D01*
X170407606Y-91368045D01*
X169969000Y-92426933D01*
X169969000Y-93573067D01*
X170308653Y-94393062D01*
X168755600Y-92840009D01*
X168755600Y-89725302D01*
X186119000Y-89725302D01*
X186119000Y-90274698D01*
X186329245Y-90782273D01*
X186717727Y-91170755D01*
X187225302Y-91381000D01*
X187774698Y-91381000D01*
X188282273Y-91170755D01*
X188670755Y-90782273D01*
X188750000Y-90590959D01*
X188829245Y-90782273D01*
X189217727Y-91170755D01*
X189725302Y-91381000D01*
X190274698Y-91381000D01*
X190782273Y-91170755D01*
X191111536Y-90841492D01*
X191111536Y-91000000D01*
X191141106Y-91148659D01*
X191225314Y-91274686D01*
X191351341Y-91358894D01*
X191500000Y-91388464D01*
X193500000Y-91388464D01*
X193648659Y-91358894D01*
X193774686Y-91274686D01*
X193858894Y-91148659D01*
X193888464Y-91000000D01*
X193888464Y-89000000D01*
X193858894Y-88851341D01*
X193774686Y-88725314D01*
X193648659Y-88641106D01*
X193500000Y-88611536D01*
X191500000Y-88611536D01*
X191351341Y-88641106D01*
X191225314Y-88725314D01*
X191141106Y-88851341D01*
X191111536Y-89000000D01*
X191111536Y-89158508D01*
X190782273Y-88829245D01*
X190274698Y-88619000D01*
X189725302Y-88619000D01*
X189217727Y-88829245D01*
X188829245Y-89217727D01*
X188750000Y-89409041D01*
X188670755Y-89217727D01*
X188282273Y-88829245D01*
X187774698Y-88619000D01*
X187225302Y-88619000D01*
X186717727Y-88829245D01*
X186329245Y-89217727D01*
X186119000Y-89725302D01*
X168755600Y-89725302D01*
X168755600Y-89395683D01*
X168844401Y-89358900D01*
X169064100Y-89139201D01*
X169183000Y-88852151D01*
X169183000Y-88541449D01*
X169064100Y-88254399D01*
X168844401Y-88034700D01*
X168557351Y-87915800D01*
X168246649Y-87915800D01*
X167959599Y-88034700D01*
X167739900Y-88254399D01*
X167621000Y-88541449D01*
X167621000Y-88852151D01*
X167739900Y-89139201D01*
X167743601Y-89142902D01*
X167743600Y-92464420D01*
X163506000Y-88226820D01*
X163506000Y-79998501D01*
X163662100Y-79842401D01*
X163781000Y-79555351D01*
X163781000Y-79244649D01*
X163662100Y-78957599D01*
X163442401Y-78737900D01*
X163155351Y-78619000D01*
X162844649Y-78619000D01*
X162557599Y-78737900D01*
X162337900Y-78957599D01*
X162300000Y-79049098D01*
X162262100Y-78957599D01*
X162042401Y-78737900D01*
X161755351Y-78619000D01*
X161444649Y-78619000D01*
X161157599Y-78737900D01*
X161000000Y-78895499D01*
X160842401Y-78737900D01*
X160555351Y-78619000D01*
X160244649Y-78619000D01*
X159957599Y-78737900D01*
X159737900Y-78957599D01*
X159619000Y-79244649D01*
X118206000Y-79244649D01*
X118206000Y-78480000D01*
X189874036Y-78480000D01*
X189874036Y-79780000D01*
X189922636Y-80024330D01*
X190061038Y-80231462D01*
X190268170Y-80369864D01*
X190512500Y-80418464D01*
X193612500Y-80418464D01*
X193856830Y-80369864D01*
X194063962Y-80231462D01*
X194202364Y-80024330D01*
X194250964Y-79780000D01*
X194250964Y-78480000D01*
X194202364Y-78235670D01*
X194063962Y-78028538D01*
X193856830Y-77890136D01*
X193612500Y-77841536D01*
X190512500Y-77841536D01*
X190268170Y-77890136D01*
X190061038Y-78028538D01*
X189922636Y-78235670D01*
X189874036Y-78480000D01*
X118206000Y-78480000D01*
X118206000Y-76082278D01*
X118551453Y-75851453D01*
X118812478Y-75460803D01*
X118904137Y-75000000D01*
X119035863Y-75000000D01*
X119127522Y-75460803D01*
X119388547Y-75851453D01*
X119779197Y-76112478D01*
X120123682Y-76181000D01*
X120356318Y-76181000D01*
X120700803Y-76112478D01*
X121091453Y-75851453D01*
X121352478Y-75460803D01*
X121444137Y-75000000D01*
X121575863Y-75000000D01*
X121667522Y-75460803D01*
X121928547Y-75851453D01*
X122319197Y-76112478D01*
X122663682Y-76181000D01*
X122896318Y-76181000D01*
X123240803Y-76112478D01*
X123631453Y-75851453D01*
X123892478Y-75460803D01*
X123984137Y-75000000D01*
X124115863Y-75000000D01*
X124207522Y-75460803D01*
X124468547Y-75851453D01*
X124859197Y-76112478D01*
X125203682Y-76181000D01*
X125436318Y-76181000D01*
X125780803Y-76112478D01*
X126171453Y-75851453D01*
X126432478Y-75460803D01*
X126524137Y-75000000D01*
X126655863Y-75000000D01*
X126747522Y-75460803D01*
X127008547Y-75851453D01*
X127399197Y-76112478D01*
X127743682Y-76181000D01*
X127976318Y-76181000D01*
X128320803Y-76112478D01*
X128711453Y-75851453D01*
X128972478Y-75460803D01*
X129064137Y-75000000D01*
X129195863Y-75000000D01*
X129287522Y-75460803D01*
X129548547Y-75851453D01*
X129939197Y-76112478D01*
X130283682Y-76181000D01*
X130516318Y-76181000D01*
X130860803Y-76112478D01*
X131251453Y-75851453D01*
X131512478Y-75460803D01*
X131604137Y-75000000D01*
X131735863Y-75000000D01*
X131827522Y-75460803D01*
X132088547Y-75851453D01*
X132479197Y-76112478D01*
X132823682Y-76181000D01*
X133056318Y-76181000D01*
X133400803Y-76112478D01*
X133791453Y-75851453D01*
X134052478Y-75460803D01*
X134144137Y-75000000D01*
X134275863Y-75000000D01*
X134367522Y-75460803D01*
X134628547Y-75851453D01*
X135019197Y-76112478D01*
X135363682Y-76181000D01*
X135596318Y-76181000D01*
X135940803Y-76112478D01*
X136331453Y-75851453D01*
X136592478Y-75460803D01*
X136684137Y-75000000D01*
X136815863Y-75000000D01*
X136907522Y-75460803D01*
X137168547Y-75851453D01*
X137559197Y-76112478D01*
X137903682Y-76181000D01*
X138136318Y-76181000D01*
X138480803Y-76112478D01*
X138871453Y-75851453D01*
X139132478Y-75460803D01*
X139224137Y-75000000D01*
X139355863Y-75000000D01*
X139447522Y-75460803D01*
X139708547Y-75851453D01*
X140099197Y-76112478D01*
X140443682Y-76181000D01*
X140676318Y-76181000D01*
X141020803Y-76112478D01*
X141411453Y-75851453D01*
X141672478Y-75460803D01*
X141764137Y-75000000D01*
X141672478Y-74539197D01*
X141411453Y-74148547D01*
X141020803Y-73887522D01*
X140676318Y-73819000D01*
X140443682Y-73819000D01*
X140099197Y-73887522D01*
X139708547Y-74148547D01*
X139447522Y-74539197D01*
X139355863Y-75000000D01*
X139224137Y-75000000D01*
X139132478Y-74539197D01*
X138871453Y-74148547D01*
X138480803Y-73887522D01*
X138136318Y-73819000D01*
X137903682Y-73819000D01*
X137559197Y-73887522D01*
X137168547Y-74148547D01*
X136907522Y-74539197D01*
X136815863Y-75000000D01*
X136684137Y-75000000D01*
X136592478Y-74539197D01*
X136331453Y-74148547D01*
X135940803Y-73887522D01*
X135596318Y-73819000D01*
X135363682Y-73819000D01*
X135019197Y-73887522D01*
X134628547Y-74148547D01*
X134367522Y-74539197D01*
X134275863Y-75000000D01*
X134144137Y-75000000D01*
X134052478Y-74539197D01*
X133791453Y-74148547D01*
X133400803Y-73887522D01*
X133056318Y-73819000D01*
X132823682Y-73819000D01*
X132479197Y-73887522D01*
X132088547Y-74148547D01*
X131827522Y-74539197D01*
X131735863Y-75000000D01*
X131604137Y-75000000D01*
X131512478Y-74539197D01*
X131251453Y-74148547D01*
X130860803Y-73887522D01*
X130516318Y-73819000D01*
X130283682Y-73819000D01*
X129939197Y-73887522D01*
X129548547Y-74148547D01*
X129287522Y-74539197D01*
X129195863Y-75000000D01*
X129064137Y-75000000D01*
X128972478Y-74539197D01*
X128711453Y-74148547D01*
X128320803Y-73887522D01*
X127976318Y-73819000D01*
X127743682Y-73819000D01*
X127399197Y-73887522D01*
X127008547Y-74148547D01*
X126747522Y-74539197D01*
X126655863Y-75000000D01*
X126524137Y-75000000D01*
X126432478Y-74539197D01*
X126171453Y-74148547D01*
X125780803Y-73887522D01*
X125436318Y-73819000D01*
X125203682Y-73819000D01*
X124859197Y-73887522D01*
X124468547Y-74148547D01*
X124207522Y-74539197D01*
X124115863Y-75000000D01*
X123984137Y-75000000D01*
X123892478Y-74539197D01*
X123631453Y-74148547D01*
X123240803Y-73887522D01*
X122896318Y-73819000D01*
X122663682Y-73819000D01*
X122319197Y-73887522D01*
X121928547Y-74148547D01*
X121667522Y-74539197D01*
X121575863Y-75000000D01*
X121444137Y-75000000D01*
X121352478Y-74539197D01*
X121091453Y-74148547D01*
X120700803Y-73887522D01*
X120356318Y-73819000D01*
X120123682Y-73819000D01*
X119779197Y-73887522D01*
X119388547Y-74148547D01*
X119127522Y-74539197D01*
X119035863Y-75000000D01*
X118904137Y-75000000D01*
X118812478Y-74539197D01*
X118551453Y-74148547D01*
X118160803Y-73887522D01*
X117816318Y-73819000D01*
X117583682Y-73819000D01*
X117239197Y-73887522D01*
X116848547Y-74148547D01*
X116587522Y-74539197D01*
X116495863Y-75000000D01*
X116587522Y-75460803D01*
X116848547Y-75851453D01*
X117194000Y-76082278D01*
X117194001Y-83331410D01*
X115666000Y-81803409D01*
X115666000Y-76082278D01*
X116011453Y-75851453D01*
X116272478Y-75460803D01*
X116364137Y-75000000D01*
X116272478Y-74539197D01*
X116011453Y-74148547D01*
X115620803Y-73887522D01*
X115276318Y-73819000D01*
X115043682Y-73819000D01*
X114699197Y-73887522D01*
X114425000Y-74070735D01*
X114425000Y-73910591D01*
X127452509Y-60883082D01*
X127743682Y-60941000D01*
X127976318Y-60941000D01*
X128320803Y-60872478D01*
X128711453Y-60611453D01*
X128972478Y-60220803D01*
X129064137Y-59760000D01*
X128972478Y-59299197D01*
X128866773Y-59140999D01*
X129393227Y-59140999D01*
X129287522Y-59299197D01*
X129195863Y-59760000D01*
X129287522Y-60220803D01*
X129548547Y-60611453D01*
X129939197Y-60872478D01*
X130283682Y-60941000D01*
X130516318Y-60941000D01*
X130860803Y-60872478D01*
X131251453Y-60611453D01*
X131299084Y-60540169D01*
X131298681Y-60542194D01*
X131337954Y-60739625D01*
X131449789Y-60907000D01*
X131492039Y-60935230D01*
X132906163Y-62349355D01*
X132934394Y-62391606D01*
X133101769Y-62503441D01*
X133249365Y-62532800D01*
X133249366Y-62532800D01*
X133299200Y-62542713D01*
X133349034Y-62532800D01*
X141082699Y-62532800D01*
X141238799Y-62688900D01*
X141525849Y-62807800D01*
X141836551Y-62807800D01*
X142123601Y-62688900D01*
X142180501Y-62632000D01*
X142180500Y-74329499D01*
X142149400Y-74360599D01*
X142030500Y-74647649D01*
X142030500Y-74958351D01*
X142149400Y-75245401D01*
X142369099Y-75465100D01*
X142656149Y-75584000D01*
X142966851Y-75584000D01*
X143253901Y-75465100D01*
X143473600Y-75245401D01*
X143592500Y-74958351D01*
X143592500Y-74647649D01*
X143473600Y-74360599D01*
X143442500Y-74329499D01*
X143442500Y-63497049D01*
X143491000Y-63497049D01*
X143491000Y-63807751D01*
X143609900Y-64094801D01*
X143829599Y-64314500D01*
X144020001Y-64393367D01*
X144020000Y-74179099D01*
X143863900Y-74335199D01*
X143745000Y-74622249D01*
X143745000Y-74932951D01*
X143863900Y-75220001D01*
X144083599Y-75439700D01*
X144370649Y-75558600D01*
X144681351Y-75558600D01*
X144968401Y-75439700D01*
X145188100Y-75220001D01*
X145307000Y-74932951D01*
X145307000Y-74622249D01*
X145221047Y-74414740D01*
X189671464Y-74414740D01*
X189695744Y-74520086D01*
X189987288Y-75045606D01*
X190457748Y-75419554D01*
X191035500Y-75585000D01*
X191935500Y-75585000D01*
X191935500Y-74177000D01*
X192189500Y-74177000D01*
X192189500Y-75585000D01*
X193089500Y-75585000D01*
X193667252Y-75419554D01*
X194137712Y-75045606D01*
X194429256Y-74520086D01*
X194453536Y-74414740D01*
X194332878Y-74177000D01*
X192189500Y-74177000D01*
X191935500Y-74177000D01*
X189792122Y-74177000D01*
X189671464Y-74414740D01*
X145221047Y-74414740D01*
X145188100Y-74335199D01*
X145032000Y-74179099D01*
X145032000Y-73685260D01*
X189671464Y-73685260D01*
X189792122Y-73923000D01*
X191935500Y-73923000D01*
X191935500Y-72515000D01*
X192189500Y-72515000D01*
X192189500Y-73923000D01*
X194332878Y-73923000D01*
X194453536Y-73685260D01*
X194429256Y-73579914D01*
X194137712Y-73054394D01*
X193667252Y-72680446D01*
X193089500Y-72515000D01*
X192189500Y-72515000D01*
X191935500Y-72515000D01*
X191035500Y-72515000D01*
X190457748Y-72680446D01*
X189987288Y-73054394D01*
X189695744Y-73579914D01*
X189671464Y-73685260D01*
X145032000Y-73685260D01*
X145032000Y-69226933D01*
X149269000Y-69226933D01*
X149269000Y-70373067D01*
X149707606Y-71431955D01*
X150518045Y-72242394D01*
X151576933Y-72681000D01*
X152723067Y-72681000D01*
X153781955Y-72242394D01*
X154592394Y-71431955D01*
X155031000Y-70373067D01*
X155031000Y-69226933D01*
X154750606Y-68550000D01*
X157511536Y-68550000D01*
X157511536Y-70250000D01*
X157541106Y-70398659D01*
X157625314Y-70524686D01*
X157751341Y-70608894D01*
X157900000Y-70638464D01*
X159600000Y-70638464D01*
X159748659Y-70608894D01*
X159874686Y-70524686D01*
X159958894Y-70398659D01*
X159988464Y-70250000D01*
X159988464Y-70054895D01*
X160094817Y-70281358D01*
X160523076Y-70671645D01*
X160933110Y-70841476D01*
X161163000Y-70720155D01*
X161163000Y-69527000D01*
X161143000Y-69527000D01*
X161143000Y-69273000D01*
X161163000Y-69273000D01*
X161163000Y-68079845D01*
X161417000Y-68079845D01*
X161417000Y-69273000D01*
X161437000Y-69273000D01*
X161437000Y-69527000D01*
X161417000Y-69527000D01*
X161417000Y-70720155D01*
X161646890Y-70841476D01*
X162056924Y-70671645D01*
X162485183Y-70281358D01*
X162672245Y-69883037D01*
X162942499Y-70287501D01*
X163349688Y-70559576D01*
X163708761Y-70631000D01*
X163951239Y-70631000D01*
X164310312Y-70559576D01*
X164717501Y-70287501D01*
X164989576Y-69880312D01*
X165085116Y-69400000D01*
X165114884Y-69400000D01*
X165210424Y-69880312D01*
X165482499Y-70287501D01*
X165889688Y-70559576D01*
X166248761Y-70631000D01*
X166491239Y-70631000D01*
X166850312Y-70559576D01*
X167257501Y-70287501D01*
X167529576Y-69880312D01*
X167625116Y-69400000D01*
X167590691Y-69226933D01*
X169969000Y-69226933D01*
X169969000Y-70373067D01*
X170407606Y-71431955D01*
X171218045Y-72242394D01*
X172276933Y-72681000D01*
X173423067Y-72681000D01*
X174481955Y-72242394D01*
X175292394Y-71431955D01*
X175731000Y-70373067D01*
X175731000Y-69226933D01*
X175292394Y-68168045D01*
X174481955Y-67357606D01*
X174053177Y-67180000D01*
X189874036Y-67180000D01*
X189874036Y-68480000D01*
X189922636Y-68724330D01*
X190061038Y-68931462D01*
X190268170Y-69069864D01*
X190512500Y-69118464D01*
X193612500Y-69118464D01*
X193856830Y-69069864D01*
X194063962Y-68931462D01*
X194202364Y-68724330D01*
X194250964Y-68480000D01*
X194250964Y-67180000D01*
X194202364Y-66935670D01*
X194063962Y-66728538D01*
X193856830Y-66590136D01*
X193612500Y-66541536D01*
X190512500Y-66541536D01*
X190268170Y-66590136D01*
X190061038Y-66728538D01*
X189922636Y-66935670D01*
X189874036Y-67180000D01*
X174053177Y-67180000D01*
X173423067Y-66919000D01*
X172276933Y-66919000D01*
X171218045Y-67357606D01*
X170407606Y-68168045D01*
X169969000Y-69226933D01*
X167590691Y-69226933D01*
X167529576Y-68919688D01*
X167257501Y-68512499D01*
X166850312Y-68240424D01*
X166491239Y-68169000D01*
X166248761Y-68169000D01*
X165889688Y-68240424D01*
X165482499Y-68512499D01*
X165210424Y-68919688D01*
X165114884Y-69400000D01*
X165085116Y-69400000D01*
X164989576Y-68919688D01*
X164717501Y-68512499D01*
X164310312Y-68240424D01*
X163951239Y-68169000D01*
X163708761Y-68169000D01*
X163349688Y-68240424D01*
X162942499Y-68512499D01*
X162672245Y-68916963D01*
X162485183Y-68518642D01*
X162056924Y-68128355D01*
X161646890Y-67958524D01*
X161417000Y-68079845D01*
X161163000Y-68079845D01*
X160933110Y-67958524D01*
X160523076Y-68128355D01*
X160094817Y-68518642D01*
X159988464Y-68745105D01*
X159988464Y-68550000D01*
X159958894Y-68401341D01*
X159874686Y-68275314D01*
X159748659Y-68191106D01*
X159600000Y-68161536D01*
X157900000Y-68161536D01*
X157751341Y-68191106D01*
X157625314Y-68275314D01*
X157541106Y-68401341D01*
X157511536Y-68550000D01*
X154750606Y-68550000D01*
X154592394Y-68168045D01*
X153781955Y-67357606D01*
X152723067Y-66919000D01*
X151576933Y-66919000D01*
X150518045Y-67357606D01*
X149707606Y-68168045D01*
X149269000Y-69226933D01*
X145032000Y-69226933D01*
X145032000Y-63956233D01*
X145041913Y-63906399D01*
X145032253Y-63857838D01*
X145053000Y-63807751D01*
X145053000Y-63497049D01*
X144934100Y-63209999D01*
X144838841Y-63114740D01*
X189671464Y-63114740D01*
X189695744Y-63220086D01*
X189987288Y-63745606D01*
X190457748Y-64119554D01*
X191035500Y-64285000D01*
X191935500Y-64285000D01*
X191935500Y-62877000D01*
X192189500Y-62877000D01*
X192189500Y-64285000D01*
X193089500Y-64285000D01*
X193667252Y-64119554D01*
X194137712Y-63745606D01*
X194429256Y-63220086D01*
X194453536Y-63114740D01*
X194332878Y-62877000D01*
X192189500Y-62877000D01*
X191935500Y-62877000D01*
X189792122Y-62877000D01*
X189671464Y-63114740D01*
X144838841Y-63114740D01*
X144714401Y-62990300D01*
X144427351Y-62871400D01*
X144116649Y-62871400D01*
X143829599Y-62990300D01*
X143609900Y-63209999D01*
X143491000Y-63497049D01*
X143442500Y-63497049D01*
X143442500Y-62385260D01*
X189671464Y-62385260D01*
X189792122Y-62623000D01*
X191935500Y-62623000D01*
X191935500Y-61215000D01*
X192189500Y-61215000D01*
X192189500Y-62623000D01*
X194332878Y-62623000D01*
X194453536Y-62385260D01*
X194429256Y-62279914D01*
X194137712Y-61754394D01*
X193667252Y-61380446D01*
X193089500Y-61215000D01*
X192189500Y-61215000D01*
X191935500Y-61215000D01*
X191035500Y-61215000D01*
X190457748Y-61380446D01*
X189987288Y-61754394D01*
X189695744Y-62279914D01*
X189671464Y-62385260D01*
X143442500Y-62385260D01*
X143442500Y-60942276D01*
X143454862Y-60880129D01*
X143442500Y-60817982D01*
X143405889Y-60633926D01*
X143266426Y-60425204D01*
X143213738Y-60389999D01*
X142181502Y-59357764D01*
X142146296Y-59305074D01*
X141937574Y-59165611D01*
X141753518Y-59129000D01*
X141691370Y-59116638D01*
X141629222Y-59129000D01*
X141558756Y-59129000D01*
X141411453Y-58908547D01*
X141020803Y-58647522D01*
X140676318Y-58579000D01*
X140443682Y-58579000D01*
X140099197Y-58647522D01*
X139708547Y-58908547D01*
X139447522Y-59299197D01*
X139355863Y-59760000D01*
X139447522Y-60220803D01*
X139708547Y-60611453D01*
X140099197Y-60872478D01*
X140443682Y-60941000D01*
X140676318Y-60941000D01*
X141020803Y-60872478D01*
X141411453Y-60611453D01*
X141507184Y-60468182D01*
X142180501Y-61141500D01*
X142180501Y-61421600D01*
X142123601Y-61364700D01*
X141836551Y-61245800D01*
X141525849Y-61245800D01*
X141238799Y-61364700D01*
X141082699Y-61520800D01*
X133508792Y-61520800D01*
X132928992Y-60941000D01*
X133056318Y-60941000D01*
X133400803Y-60872478D01*
X133791453Y-60611453D01*
X134052478Y-60220803D01*
X134144137Y-59760000D01*
X134275863Y-59760000D01*
X134367522Y-60220803D01*
X134628547Y-60611453D01*
X135019197Y-60872478D01*
X135363682Y-60941000D01*
X135596318Y-60941000D01*
X135940803Y-60872478D01*
X136331453Y-60611453D01*
X136592478Y-60220803D01*
X136684137Y-59760000D01*
X136815863Y-59760000D01*
X136907522Y-60220803D01*
X137168547Y-60611453D01*
X137559197Y-60872478D01*
X137903682Y-60941000D01*
X138136318Y-60941000D01*
X138480803Y-60872478D01*
X138871453Y-60611453D01*
X139132478Y-60220803D01*
X139224137Y-59760000D01*
X139132478Y-59299197D01*
X138871453Y-58908547D01*
X138480803Y-58647522D01*
X138136318Y-58579000D01*
X137903682Y-58579000D01*
X137559197Y-58647522D01*
X137168547Y-58908547D01*
X136907522Y-59299197D01*
X136815863Y-59760000D01*
X136684137Y-59760000D01*
X136592478Y-59299197D01*
X136331453Y-58908547D01*
X135940803Y-58647522D01*
X135596318Y-58579000D01*
X135363682Y-58579000D01*
X135019197Y-58647522D01*
X134628547Y-58908547D01*
X134367522Y-59299197D01*
X134275863Y-59760000D01*
X134144137Y-59760000D01*
X134052478Y-59299197D01*
X133791453Y-58908547D01*
X133400803Y-58647522D01*
X133056318Y-58579000D01*
X132823682Y-58579000D01*
X132479197Y-58647522D01*
X132088547Y-58908547D01*
X132024698Y-59004104D01*
X131333039Y-58312446D01*
X131304807Y-58270193D01*
X131196388Y-58197750D01*
X159655000Y-58197750D01*
X159655000Y-59038310D01*
X159751673Y-59271699D01*
X159930302Y-59450327D01*
X160163691Y-59547000D01*
X161004250Y-59547000D01*
X161163000Y-59388250D01*
X161163000Y-58039000D01*
X161417000Y-58039000D01*
X161417000Y-59388250D01*
X161575750Y-59547000D01*
X162416309Y-59547000D01*
X162649698Y-59450327D01*
X162828327Y-59271699D01*
X162925000Y-59038310D01*
X162925000Y-58197750D01*
X162766250Y-58039000D01*
X161417000Y-58039000D01*
X161163000Y-58039000D01*
X159813750Y-58039000D01*
X159655000Y-58197750D01*
X131196388Y-58197750D01*
X131137432Y-58158358D01*
X130989836Y-58128999D01*
X130989835Y-58128999D01*
X130940001Y-58119086D01*
X130890167Y-58128999D01*
X126494836Y-58128999D01*
X126445001Y-58119086D01*
X126247569Y-58158358D01*
X126192782Y-58194966D01*
X126080195Y-58270193D01*
X126051964Y-58312444D01*
X125727491Y-58636918D01*
X125436318Y-58579000D01*
X125203682Y-58579000D01*
X124859197Y-58647522D01*
X124468547Y-58908547D01*
X124207522Y-59299197D01*
X124115863Y-59760000D01*
X124207522Y-60220803D01*
X124468547Y-60611453D01*
X124859197Y-60872478D01*
X125203682Y-60941000D01*
X125436318Y-60941000D01*
X125780803Y-60872478D01*
X126171453Y-60611453D01*
X126432478Y-60220803D01*
X126524137Y-59760000D01*
X126443082Y-59352509D01*
X126654593Y-59140999D01*
X126853227Y-59140999D01*
X126747522Y-59299197D01*
X126655863Y-59760000D01*
X126736918Y-60167491D01*
X113596446Y-73307963D01*
X113554195Y-73336194D01*
X113442360Y-73503569D01*
X113403087Y-73701000D01*
X113413001Y-73750839D01*
X113413001Y-74109490D01*
X113080803Y-73887522D01*
X112736318Y-73819000D01*
X112503682Y-73819000D01*
X112159197Y-73887522D01*
X111768547Y-74148547D01*
X111711001Y-74234670D01*
X111711001Y-69004590D01*
X119832509Y-60883082D01*
X120123682Y-60941000D01*
X120356318Y-60941000D01*
X120700803Y-60872478D01*
X121091453Y-60611453D01*
X121352478Y-60220803D01*
X121444137Y-59760000D01*
X121575863Y-59760000D01*
X121667522Y-60220803D01*
X121928547Y-60611453D01*
X122319197Y-60872478D01*
X122663682Y-60941000D01*
X122896318Y-60941000D01*
X123240803Y-60872478D01*
X123631453Y-60611453D01*
X123892478Y-60220803D01*
X123984137Y-59760000D01*
X123892478Y-59299197D01*
X123631453Y-58908547D01*
X123240803Y-58647522D01*
X122896318Y-58579000D01*
X122663682Y-58579000D01*
X122319197Y-58647522D01*
X121928547Y-58908547D01*
X121667522Y-59299197D01*
X121575863Y-59760000D01*
X121444137Y-59760000D01*
X121352478Y-59299197D01*
X121091453Y-58908547D01*
X120700803Y-58647522D01*
X120356318Y-58579000D01*
X120123682Y-58579000D01*
X119779197Y-58647522D01*
X119388547Y-58908547D01*
X119127522Y-59299197D01*
X119035863Y-59760000D01*
X119116918Y-60167491D01*
X110882449Y-68401960D01*
X110840195Y-68430193D01*
X110728360Y-68597569D01*
X110703145Y-68724330D01*
X110689088Y-68794999D01*
X110699001Y-68844833D01*
X110699001Y-73993227D01*
X110540803Y-73887522D01*
X110196318Y-73819000D01*
X109963682Y-73819000D01*
X109619197Y-73887522D01*
X109228547Y-74148547D01*
X108967522Y-74539197D01*
X108875863Y-75000000D01*
X108744137Y-75000000D01*
X108652478Y-74539197D01*
X108391453Y-74148547D01*
X108000803Y-73887522D01*
X107656318Y-73819000D01*
X107423682Y-73819000D01*
X107079197Y-73887522D01*
X106688547Y-74148547D01*
X106427522Y-74539197D01*
X106335863Y-75000000D01*
X106188464Y-75000000D01*
X106188464Y-74200000D01*
X106158894Y-74051341D01*
X106074686Y-73925314D01*
X105948659Y-73841106D01*
X105800000Y-73811536D01*
X104380999Y-73811536D01*
X104380999Y-69244922D01*
X112504315Y-61121607D01*
X112504317Y-61121604D01*
X112684921Y-60941000D01*
X112736318Y-60941000D01*
X113080803Y-60872478D01*
X113471453Y-60611453D01*
X113732478Y-60220803D01*
X113824137Y-59760000D01*
X113955863Y-59760000D01*
X114047522Y-60220803D01*
X114308547Y-60611453D01*
X114699197Y-60872478D01*
X115043682Y-60941000D01*
X115276318Y-60941000D01*
X115620803Y-60872478D01*
X116011453Y-60611453D01*
X116272478Y-60220803D01*
X116364137Y-59760000D01*
X116495863Y-59760000D01*
X116587522Y-60220803D01*
X116848547Y-60611453D01*
X117239197Y-60872478D01*
X117583682Y-60941000D01*
X117816318Y-60941000D01*
X118160803Y-60872478D01*
X118551453Y-60611453D01*
X118812478Y-60220803D01*
X118904137Y-59760000D01*
X118812478Y-59299197D01*
X118551453Y-58908547D01*
X118160803Y-58647522D01*
X117816318Y-58579000D01*
X117583682Y-58579000D01*
X117239197Y-58647522D01*
X116848547Y-58908547D01*
X116587522Y-59299197D01*
X116495863Y-59760000D01*
X116364137Y-59760000D01*
X116272478Y-59299197D01*
X116011453Y-58908547D01*
X115620803Y-58647522D01*
X115276318Y-58579000D01*
X115043682Y-58579000D01*
X114699197Y-58647522D01*
X114308547Y-58908547D01*
X114047522Y-59299197D01*
X113955863Y-59760000D01*
X113824137Y-59760000D01*
X113732478Y-59299197D01*
X113471453Y-58908547D01*
X113080803Y-58647522D01*
X112736318Y-58579000D01*
X112503682Y-58579000D01*
X112159197Y-58647522D01*
X111768547Y-58908547D01*
X111507522Y-59299197D01*
X111426238Y-59707841D01*
X111261804Y-59872275D01*
X111284137Y-59760000D01*
X111192478Y-59299197D01*
X110931453Y-58908547D01*
X110540803Y-58647522D01*
X110196318Y-58579000D01*
X109963682Y-58579000D01*
X109619197Y-58647522D01*
X109228547Y-58908547D01*
X108967522Y-59299197D01*
X108875863Y-59760000D01*
X108967522Y-60220803D01*
X109228547Y-60611453D01*
X109619197Y-60872478D01*
X109963682Y-60941000D01*
X110193078Y-60941000D01*
X103180990Y-67953089D01*
X103180990Y-65364931D01*
X107424315Y-61121607D01*
X107424317Y-61121604D01*
X107604921Y-60941000D01*
X107656318Y-60941000D01*
X108000803Y-60872478D01*
X108391453Y-60611453D01*
X108652478Y-60220803D01*
X108744137Y-59760000D01*
X108652478Y-59299197D01*
X108391453Y-58908547D01*
X108000803Y-58647522D01*
X107656318Y-58579000D01*
X107423682Y-58579000D01*
X107079197Y-58647522D01*
X106688547Y-58908547D01*
X106427522Y-59299197D01*
X106346238Y-59707841D01*
X106181804Y-59872275D01*
X106204137Y-59760000D01*
X106112478Y-59299197D01*
X105851453Y-58908547D01*
X105460803Y-58647522D01*
X105116318Y-58579000D01*
X104883682Y-58579000D01*
X104539197Y-58647522D01*
X104148547Y-58908547D01*
X103887522Y-59299197D01*
X103795863Y-59760000D01*
X103887522Y-60220803D01*
X104148547Y-60611453D01*
X104539197Y-60872478D01*
X104883682Y-60941000D01*
X105113078Y-60941000D01*
X101738384Y-64315695D01*
X101664826Y-64364845D01*
X101615676Y-64438403D01*
X101470107Y-64656262D01*
X101401732Y-65000010D01*
X100456000Y-65000010D01*
X100456000Y-54327477D01*
X101619000Y-54327477D01*
X101619000Y-55672523D01*
X102133726Y-56915183D01*
X103084817Y-57866274D01*
X104327477Y-58381000D01*
X105672523Y-58381000D01*
X106915183Y-57866274D01*
X107866274Y-56915183D01*
X107919911Y-56785690D01*
X159655000Y-56785690D01*
X159655000Y-57626250D01*
X159813750Y-57785000D01*
X161163000Y-57785000D01*
X161163000Y-56435750D01*
X161417000Y-56435750D01*
X161417000Y-57785000D01*
X162766250Y-57785000D01*
X162913948Y-57637302D01*
X164909000Y-57637302D01*
X164909000Y-58186698D01*
X165119245Y-58694273D01*
X165507727Y-59082755D01*
X166015302Y-59293000D01*
X166564698Y-59293000D01*
X167072273Y-59082755D01*
X167460755Y-58694273D01*
X167671000Y-58186698D01*
X167671000Y-57637302D01*
X167460755Y-57129727D01*
X167072273Y-56741245D01*
X166564698Y-56531000D01*
X166015302Y-56531000D01*
X165507727Y-56741245D01*
X165119245Y-57129727D01*
X164909000Y-57637302D01*
X162913948Y-57637302D01*
X162925000Y-57626250D01*
X162925000Y-56785690D01*
X162828327Y-56552301D01*
X162649698Y-56373673D01*
X162416309Y-56277000D01*
X161575750Y-56277000D01*
X161417000Y-56435750D01*
X161163000Y-56435750D01*
X161004250Y-56277000D01*
X160163691Y-56277000D01*
X159930302Y-56373673D01*
X159751673Y-56552301D01*
X159655000Y-56785690D01*
X107919911Y-56785690D01*
X108381000Y-55672523D01*
X108381000Y-54327477D01*
X191619000Y-54327477D01*
X191619000Y-55672523D01*
X192133726Y-56915183D01*
X193084817Y-57866274D01*
X194327477Y-58381000D01*
X195672523Y-58381000D01*
X196915183Y-57866274D01*
X197866274Y-56915183D01*
X198381000Y-55672523D01*
X198381000Y-54327477D01*
X197866274Y-53084817D01*
X196915183Y-52133726D01*
X195672523Y-51619000D01*
X194327477Y-51619000D01*
X193084817Y-52133726D01*
X192133726Y-53084817D01*
X191619000Y-54327477D01*
X108381000Y-54327477D01*
X107866274Y-53084817D01*
X106915183Y-52133726D01*
X105672523Y-51619000D01*
X104327477Y-51619000D01*
X103084817Y-52133726D01*
X102133726Y-53084817D01*
X101619000Y-54327477D01*
X100456000Y-54327477D01*
X100456000Y-50456000D01*
X199544001Y-50456000D01*
X199544000Y-129544000D01*
G04 #@! TD*
M02*
